<svg width="373" height="362" viewBox="0 0 373 362" fill="none" xmlns="http://www.w3.org/2000/svg">
<path d="M121.553 199.774L62.0846 187.864L61.9251 188.274C57.7747 198.61 55.6851 209.741 55.7871 220.971C55.889 232.201 58.1803 243.287 62.5175 253.537L70.5833 273.042L44.3125 304.625L62.5403 322.707L97.2414 285.723L103.348 279.214L99.9073 269.811L86.8288 233.961L114.877 234.636L121.553 199.774Z" fill="#F49DC3"/>
<path d="M100.222 71.3202C98.6648 87.8628 107.219 102.326 119.338 103.656C131.458 104.986 142.562 92.6273 144.165 76.1089C145.767 59.5905 137.191 45.1035 125.071 43.7734C112.951 42.4432 101.847 54.8018 100.245 71.3202H100.222Z" fill="#F3AE9D"/>
<path d="M139.281 88.7371C141.73 89.3778 143.988 89.0575 144.307 88.04C144.627 87.0224 142.944 85.6846 140.495 85.0627L139.281 88.8313V88.7371Z" fill="#F3AE9D"/>
<path d="M117.788 114.434L103.828 107.198L110.104 93.0732L124.088 100.31L117.788 114.434Z" fill="#F3AE9D"/>
<path d="M12.6186 60.4591L12.3314 60.4985L2.9759 62.7115C2.51735 62.838 2.12308 63.1344 1.86789 63.5446C1.6127 63.9547 1.51437 64.4501 1.59145 64.9368C1.64548 65.3237 1.83423 65.6799 2.12233 65.9384C2.41042 66.1969 2.77804 66.34 3.15628 66.3409C2.71289 66.5065 2.34776 66.8363 2.13101 67.267C1.91426 67.6977 1.8612 68.1989 1.98198 68.6744C2.08093 69.098 2.33497 69.4688 2.69048 69.7083C3.04599 69.9479 3.47515 70.0375 3.88746 69.9584L13.2354 68.0475L13.5226 68.0081L27.0181 63.1552L36.9997 73.4142L38.8089 75.3212C40.1594 74.134 41.4389 72.864 42.6405 71.5177C44.1727 69.8751 45.5721 68.1057 46.8252 66.2266L45.2085 64.548L39.4917 58.6624C38.5912 57.1538 37.404 55.8452 36.0033 54.8172C34.6027 53.7892 33.0182 53.0636 31.3476 52.6852L31.1078 52.5908C26.948 52.0533 22.7474 52.11 18.6254 52.7592L17.0862 52.9665C16.1129 53.0193 15.1445 53.1302 14.1858 53.2986C12.8583 53.5474 11.5653 53.9507 10.3315 54.5006C7.49178 55.9242 10.8607 58.2674 14.2948 58.6028L12.4581 60.4213L12.6186 60.4591Z" fill="#F3AE9D"/>
<path d="M70.9308 85.0466L47.1098 58.3611L32.9141 71.4996L56.2734 100.035L56.6197 100.467L57.4044 101.188L80.81 122.445L94.9595 104.67L70.9308 85.0466Z" fill="#7591B6"/>
<path d="M204.904 164.183L205.16 164.04L213.19 158.516C213.578 158.228 213.849 157.805 213.952 157.327C214.054 156.848 213.982 156.348 213.749 155.92C213.57 155.578 213.275 155.314 212.919 155.178C212.563 155.042 212.171 155.044 211.817 155.182C212.177 154.863 212.41 154.42 212.47 153.936C212.53 153.453 212.413 152.964 212.143 152.563C211.909 152.203 211.548 151.949 211.136 151.856C210.723 151.762 210.291 151.837 209.931 152.063L201.808 157.301L201.552 157.444L190.52 166.968L177.765 161.04L175.437 159.92C174.566 161.531 173.789 163.192 173.11 164.897C172.22 167.001 171.496 169.175 170.945 171.397L173.017 172.373L180.325 175.778C181.669 176.859 183.216 177.647 184.869 178.094C186.522 178.54 188.247 178.635 189.938 178.374H190.194C194.269 177.343 198.186 175.74 201.832 173.612L203.205 172.85C204.099 172.441 204.969 171.98 205.812 171.469C206.973 170.746 208.05 169.891 209.024 168.921C211.212 166.54 207.278 165.587 203.95 166.54L205.067 164.159L204.904 164.183Z" fill="#F3AE9D"/>
<path d="M159.896 144.921L133.411 121.11L117.766 139.468L148.264 162.28L149.057 162.875L149.556 163.137L181.166 179.853L189.941 162.542L159.896 144.921Z" fill="#7591B6"/>
<path d="M80.135 93.1696L80.7947 93.3622C89.7296 95.9413 98.4742 99.2083 106.959 103.137L116.059 107.351C124.983 111.472 132.603 118.215 138.014 126.78L127.344 187.454C126.408 192.898 124.341 198.054 121.292 202.55H115.877C97.2281 202.552 78.8246 198.048 62.0704 189.38L60.9783 185.985C59.1964 180.435 59.03 174.446 60.5006 168.794L80.135 93.0732V93.1696Z" fill="#7591B6"/>
<path d="M74.7086 173.178C74.7085 174.235 74.3737 175.268 73.7465 176.147C73.1193 177.026 72.2279 177.71 71.1853 178.114C70.1427 178.517 68.9957 178.622 67.8898 178.414C66.7838 178.206 65.7685 177.695 64.9726 176.946C64.1768 176.196 63.636 175.243 63.419 174.205C63.2019 173.168 63.3183 172.093 63.7534 171.118C64.1885 170.143 64.9227 169.31 65.863 168.726C66.8032 168.142 67.9073 167.833 69.0353 167.837C69.7824 167.837 70.5222 167.976 71.2121 168.244C71.902 168.513 72.5286 168.907 73.0557 169.403C73.5828 169.899 74.0002 170.488 74.2838 171.136C74.5675 171.784 74.7118 172.478 74.7086 173.178Z" fill="white"/>
<path d="M98.7704 161.829C98.7704 162.754 98.4734 163.657 97.9168 164.426C97.3603 165.194 96.5693 165.793 95.6438 166.147C94.7183 166.5 93.6999 166.593 92.7174 166.412C91.7349 166.232 90.8324 165.787 90.1241 165.134C89.4157 164.48 88.9334 163.648 88.7379 162.741C88.5425 161.835 88.6428 160.895 89.0262 160.041C89.4095 159.188 90.0587 158.458 90.8916 157.944C91.7245 157.431 92.7038 157.157 93.7056 157.157C94.3715 157.154 95.0314 157.273 95.6472 157.507C96.263 157.741 96.8225 158.085 97.2934 158.519C97.7643 158.954 98.1373 159.47 98.3908 160.038C98.6443 160.606 98.7734 161.215 98.7704 161.829Z" fill="white"/>
<path d="M122.817 142.471C122.817 143.527 122.52 144.56 121.964 145.438C121.407 146.316 120.616 147.001 119.691 147.405C118.765 147.809 117.747 147.915 116.764 147.709C115.782 147.503 114.879 146.994 114.171 146.247C113.463 145.5 112.98 144.549 112.785 143.513C112.589 142.477 112.69 141.403 113.073 140.428C113.456 139.452 114.106 138.618 114.939 138.031C115.771 137.444 116.751 137.131 117.752 137.131C119.096 137.131 120.384 137.693 121.334 138.695C122.284 139.696 122.817 141.055 122.817 142.471Z" fill="white"/>
<path d="M148.153 145.141C148.153 146.198 147.856 147.23 147.3 148.108C146.743 148.986 145.952 149.671 145.027 150.075C144.101 150.479 143.083 150.585 142.1 150.379C141.118 150.173 140.215 149.664 139.507 148.918C138.799 148.171 138.316 147.219 138.121 146.183C137.925 145.147 138.026 144.073 138.409 143.098C138.792 142.122 139.442 141.288 140.274 140.701C141.107 140.114 142.087 139.801 143.088 139.801C144.432 139.801 145.72 140.364 146.67 141.365C147.62 142.367 148.153 143.725 148.153 145.141Z" fill="white"/>
<path d="M82.3017 102.419C82.3017 103.475 82.0047 104.507 81.4481 105.386C80.8916 106.264 80.1006 106.948 79.1751 107.352C78.2496 107.757 77.2312 107.862 76.2487 107.656C75.2662 107.45 74.3637 106.942 73.6553 106.195C72.947 105.448 72.4646 104.496 72.2692 103.461C72.0738 102.425 72.1741 101.351 72.5574 100.375C72.9408 99.3992 73.59 98.5651 74.4229 97.9783C75.2558 97.3915 76.235 97.0784 77.2368 97.0784C78.5801 97.0784 79.8684 97.641 80.8183 98.6425C81.7681 99.644 82.3017 101.002 82.3017 102.419Z" fill="white"/>
<path d="M126.622 122.445C126.622 123.502 126.325 124.534 125.768 125.412C125.212 126.29 124.421 126.975 123.495 127.379C122.57 127.783 121.551 127.889 120.569 127.683C119.586 127.477 118.684 126.968 117.976 126.221C117.267 125.475 116.785 124.523 116.59 123.487C116.394 122.451 116.494 121.377 116.878 120.402C117.261 119.426 117.91 118.592 118.743 118.005C119.576 117.418 120.555 117.105 121.557 117.105C122.9 117.105 124.189 117.668 125.139 118.669C126.088 119.671 126.622 121.029 126.622 122.445Z" fill="white"/>
<path d="M53.1845 73.0474C53.1845 74.1046 52.8869 75.138 52.3294 76.0167C51.7719 76.8954 50.9795 77.5799 50.0527 77.9834C49.126 78.3869 48.1065 78.4913 47.1234 78.2833C46.1403 78.0754 45.2378 77.5645 44.5304 76.8153C43.8229 76.0661 43.3423 75.1124 43.1493 74.0749C42.9564 73.0375 43.0599 71.963 43.4466 70.9876C43.8333 70.0122 44.4859 69.1798 45.3217 68.5958C46.1575 68.0118 47.139 67.7025 48.1417 67.7071C48.8058 67.7071 49.4633 67.8454 50.0766 68.114C50.6899 68.3827 51.2467 68.7764 51.7153 69.2726C52.1839 69.7688 52.5549 70.3577 52.807 71.0055C53.0592 71.6532 53.1874 72.3472 53.1845 73.0474Z" fill="white"/>
<path d="M64.583 90.4031C64.583 91.4593 64.2859 92.4918 63.7294 93.37C63.1728 94.2482 62.3818 94.9326 61.4563 95.3368C60.5308 95.741 59.5124 95.8468 58.5299 95.6408C57.5474 95.4347 56.645 94.9261 55.9367 94.1792C55.2283 93.4324 54.7459 92.4808 54.5504 91.4449C54.355 90.409 54.4553 89.3352 54.8387 88.3594C55.222 87.3836 55.8712 86.5496 56.7041 85.9628C57.5371 85.376 58.5164 85.0627 59.5181 85.0627C60.8614 85.0627 62.1497 85.6254 63.0995 86.6269C64.0494 87.6284 64.583 88.9867 64.583 90.4031Z" fill="white"/>
<path d="M117.755 182.524C117.755 183.58 117.458 184.612 116.901 185.491C116.345 186.369 115.554 187.053 114.628 187.457C113.703 187.862 112.684 187.967 111.702 187.761C110.719 187.555 109.817 187.047 109.108 186.3C108.4 185.553 107.918 184.601 107.722 183.565C107.527 182.53 107.627 181.456 108.011 180.48C108.394 179.504 109.043 178.67 109.876 178.083C110.709 177.497 111.688 177.183 112.69 177.183C114.033 177.183 115.321 177.746 116.271 178.747C117.221 179.749 117.755 181.107 117.755 182.524Z" fill="white"/>
<path d="M81.0367 143.806C81.0367 144.862 80.7025 145.895 80.0764 146.773C79.4503 147.651 78.5604 148.336 77.5192 148.74C76.4781 149.144 75.3323 149.25 74.227 149.044C73.1217 148.838 72.1064 148.329 71.3095 147.582C70.5126 146.835 69.97 145.884 69.7501 144.848C69.5302 143.812 69.6431 142.738 70.0744 141.763C70.5056 140.787 71.236 139.953 72.173 139.366C73.11 138.779 74.2117 138.466 75.3386 138.466C76.8499 138.466 78.2992 139.028 79.3678 140.03C80.4364 141.031 81.0367 142.39 81.0367 143.806Z" fill="white"/>
<path d="M170.95 160.495C170.95 161.419 170.653 162.322 170.097 163.091C169.54 163.859 168.749 164.458 167.824 164.812C166.898 165.165 165.88 165.258 164.897 165.078C163.915 164.897 163.012 164.452 162.304 163.799C161.595 163.145 161.113 162.313 160.918 161.406C160.722 160.5 160.823 159.56 161.206 158.706C161.589 157.852 162.238 157.123 163.071 156.609C163.904 156.096 164.883 155.822 165.885 155.822C167.229 155.822 168.517 156.314 169.467 157.19C170.417 158.067 170.95 159.255 170.95 160.495Z" fill="white"/>
<path d="M140.134 49.5254C136.431 41.4154 126.246 35.4713 114.639 37.3483C109.613 37.8981 104.875 40.1114 101.09 43.6775C101.09 43.6775 67.917 61.0045 86.9085 103.071C88.1969 106.134 89.9097 108.973 91.9895 111.494C91.9208 111.964 91.8756 112.438 91.854 112.913C92.7273 115.33 92.7273 118.005 91.854 120.422C91.8445 122.044 92.2007 123.645 92.8927 125.09C92.2009 126.527 91.8445 128.12 91.854 129.735C91.7792 131.972 92.4874 134.16 93.8411 135.872L93.6605 136.016C93.6605 136.016 90.6797 147.736 102.874 155.822C102.874 155.822 96.8898 144.8 99.3964 137.195C99.6659 136.473 99.8259 135.709 99.8706 134.933C100.741 133.36 101.186 131.561 101.158 129.735C101.174 128.122 100.826 126.529 100.142 125.09C100.826 123.643 101.174 122.042 101.158 120.422C101.157 119.14 100.943 117.869 100.525 116.668C100.817 115.79 100.999 114.876 101.067 113.948C108.791 109.689 115.294 90.6289 119.133 76.5748H119.811C123.434 76.2065 126.952 75.0718 130.158 73.2371C133.365 71.4025 136.196 68.9046 138.486 65.8898C147.519 68.2963 149.416 60.4751 149.416 60.4751C143.928 60.4751 141.986 53.2555 140.134 49.5735V49.5254Z" fill="#2F4B6F"/>
<path d="M105.15 129.16L98.1206 134.556C97.7984 134.257 97.3813 134.092 96.949 134.092C96.5167 134.092 96.0996 134.257 95.7774 134.556L91.091 126.219C90.8492 125.834 90.5072 125.528 90.1046 125.337C89.702 125.145 89.2552 125.076 88.8162 125.137C88.3772 125.198 87.9638 125.387 87.6241 125.682C87.2843 125.976 87.0321 126.365 86.8966 126.803L83.6161 139.661C83.5297 140.107 83.5661 140.57 83.7212 140.997C83.8762 141.423 84.1436 141.796 84.493 142.072C84.8424 142.348 85.2597 142.517 85.6971 142.559C86.1345 142.601 86.5745 142.515 86.9669 142.31L95.5431 137.157C95.7129 137.392 95.9391 137.576 96.1992 137.692C96.573 137.813 96.9736 137.813 97.3474 137.692C97.3842 137.809 97.4313 137.923 97.488 138.032L102.784 145.518C103.059 145.894 103.434 146.178 103.863 146.336C104.292 146.494 104.756 146.519 105.198 146.409C105.64 146.298 106.042 146.056 106.354 145.712C106.666 145.368 106.875 144.938 106.955 144.473L108.876 131.494C108.934 131.028 108.86 130.555 108.664 130.132C108.467 129.708 108.157 129.353 107.771 129.109C107.384 128.865 106.937 128.742 106.485 128.755C106.032 128.769 105.593 128.918 105.221 129.185L105.15 129.16Z" fill="#C3A8FF"/>
<path d="M111.611 79.3192C111.285 80.8657 111.401 82.4795 111.945 83.9565C112.488 85.4334 113.435 86.7072 114.665 87.6167C115.896 88.5262 117.354 89.0307 118.856 89.0663C120.359 89.1019 121.837 88.6669 123.105 87.8166C124.373 86.9662 125.373 85.7386 125.979 84.2889C126.585 82.8392 126.77 81.2325 126.51 79.6721C126.25 78.1117 125.557 76.6676 124.519 75.5225C123.48 74.3773 122.143 73.5824 120.677 73.2384C119.703 73.01 118.696 72.9861 117.713 73.1681C116.73 73.3501 115.791 73.7344 114.949 74.2991C114.107 74.8637 113.379 75.5977 112.806 76.459C112.234 77.3204 111.827 78.2923 111.611 79.3192Z" fill="#F3AE9D"/>
<path d="M115.963 83.6949C116.133 83.7389 116.315 83.7389 116.485 83.6949L122.207 81.8628C122.361 81.8166 122.498 81.7356 122.603 81.6282C122.709 81.5209 122.78 81.391 122.808 81.2521C122.838 81.1114 122.825 80.9662 122.77 80.8312C122.715 80.6962 122.62 80.5761 122.494 80.4831L118.079 77.2487C117.985 77.1789 117.875 77.1258 117.757 77.0926C117.639 77.0594 117.515 77.0466 117.391 77.055C117.268 77.0634 117.147 77.0928 117.036 77.1416C116.926 77.1903 116.827 77.2574 116.747 77.3391C116.666 77.4208 116.605 77.5154 116.566 77.6176C116.528 77.7198 116.513 77.8275 116.523 77.9347C116.533 78.0418 116.567 78.1461 116.623 78.2419C116.679 78.3376 116.757 78.4229 116.851 78.4927L120.065 80.7545L115.832 82.1116C115.601 82.1878 115.414 82.3397 115.312 82.5344C115.209 82.7291 115.199 82.951 115.284 83.1521C115.336 83.2794 115.427 83.3924 115.546 83.4798C115.665 83.5672 115.809 83.6258 115.963 83.6497V83.6949Z" fill="#232E62"/>
<path d="M57.2858 314.423C64.6712 325.982 66.8311 338.054 62.0933 341.36C57.3555 344.666 47.5083 338.128 40.0997 326.667C32.6911 315.207 30.5544 303.037 35.2922 299.731C40.03 296.425 49.8772 302.939 57.2858 314.423Z" fill="#CEBAF9"/>
<path d="M114.798 351.108H94.4531V332.203H114.798V351.108Z" fill="#F3AE9D"/>
<path d="M94.1117 344.766C92.703 349.156 92.4068 353.858 93.2524 358.405C93.2524 358.405 113.945 365.874 134.383 358.993C139.144 357.401 137.495 351.402 133.315 349.198C126.812 345.843 119.125 342.537 112.668 344.741C108.511 346.161 99.7785 349.639 94.0885 344.741L94.1117 344.766Z" fill="#CEBAF9"/>
<path d="M117.67 273.605L112.896 211.896L82.3047 215.475L90.1934 276.564L93.0845 338.728L117.715 338.083L117.759 274.846V274.608L117.67 273.605Z" fill="#F49DC3"/>
<path d="M338.208 345.076H219.742V286.418H338.208V345.076Z" fill="white"/>
<path d="M348.922 347.376H196.358C195.847 347.376 195.356 347.134 194.994 346.703C194.633 346.271 194.43 345.686 194.43 345.076C194.43 344.466 194.633 343.881 194.994 343.449C195.356 343.018 195.847 342.776 196.358 342.776H348.922C349.433 342.776 349.924 343.018 350.285 343.449C350.647 343.881 350.85 344.466 350.85 345.076C350.85 345.686 350.647 346.271 350.285 346.703C349.924 347.134 349.433 347.376 348.922 347.376Z" fill="#6D94E4"/>
<path d="M223.602 343.582H334.327V289.064H223.602V343.582ZM336.267 347.377H221.662C221.408 347.377 221.157 347.327 220.922 347.232C220.688 347.136 220.476 346.996 220.297 346.82C220.118 346.643 219.978 346.434 219.882 346.204C219.787 345.974 219.74 345.727 219.742 345.479V287.166C219.74 286.918 219.787 286.672 219.882 286.442C219.978 286.211 220.118 286.002 220.297 285.826C220.476 285.649 220.688 285.509 220.922 285.413C221.157 285.318 221.408 285.269 221.662 285.269H336.267C336.523 285.266 336.776 285.313 337.013 285.408C337.25 285.502 337.465 285.642 337.645 285.818C337.826 285.995 337.969 286.205 338.066 286.437C338.162 286.668 338.21 286.916 338.208 287.166V345.479C338.21 345.729 338.162 345.977 338.066 346.208C337.969 346.44 337.826 346.65 337.645 346.827C337.465 347.004 337.25 347.143 337.013 347.238C336.776 347.332 336.523 347.379 336.267 347.377Z" fill="#6D94E4"/>
<path d="M325.552 318.602C325.556 320.877 324.851 323.103 323.527 324.997C322.203 326.891 320.318 328.369 318.112 329.242C315.905 330.116 313.476 330.347 311.132 329.905C308.788 329.464 306.635 328.37 304.943 326.762C303.252 325.155 302.1 323.105 301.632 320.874C301.164 318.642 301.402 316.329 302.316 314.226C303.229 312.123 304.777 310.325 306.763 309.061C308.75 307.796 311.086 307.121 313.475 307.121C316.674 307.121 319.743 308.33 322.007 310.482C324.271 312.635 325.546 315.555 325.552 318.602Z" fill="#232E62" fill-opacity="0.54"/>
<path d="M256.542 318.602C256.546 320.877 255.875 323.103 254.614 324.997C253.353 326.891 251.558 328.369 249.456 329.242C247.355 330.116 245.042 330.347 242.81 329.905C240.577 329.464 238.526 328.37 236.915 326.762C235.305 325.155 234.207 323.105 233.762 320.874C233.316 318.642 233.543 316.329 234.413 314.226C235.282 312.123 236.757 310.325 238.648 309.061C240.54 307.796 242.765 307.121 245.041 307.121C248.087 307.121 251.01 308.33 253.166 310.482C255.322 312.635 256.537 315.555 256.542 318.602Z" fill="#232E62" fill-opacity="0.54"/>
<path d="M245.019 305.227C241.967 305.214 239.004 306.258 236.634 308.183C234.176 310.162 232.496 312.947 231.893 316.045C231.289 319.143 231.801 322.354 233.337 325.111C234.873 327.868 237.335 329.993 240.286 331.11C243.238 332.227 246.49 332.264 249.466 331.215C252.443 330.166 254.952 328.098 256.551 325.377C258.15 322.655 258.735 319.457 258.203 316.346C257.67 313.235 256.055 310.413 253.642 308.378C251.23 306.343 248.175 305.227 245.019 305.227ZM245.019 335.875C240.948 335.87 237.009 334.425 233.9 331.795C230.792 329.166 228.713 325.522 228.032 321.508C227.351 317.494 228.112 313.368 230.18 309.861C232.247 306.354 235.489 303.691 239.331 302.343C243.173 300.995 247.368 301.05 251.173 302.497C254.979 303.944 258.15 306.69 260.126 310.25C262.102 313.81 262.755 317.954 261.97 321.949C261.185 325.944 259.012 329.533 255.836 332.081C252.767 334.54 248.952 335.878 245.019 335.875Z" fill="#F3C2D5"/>
<path d="M312.879 305.227C309.843 305.239 306.902 306.282 304.537 308.184C302.171 310.086 300.522 312.735 299.859 315.697C299.196 318.659 299.559 321.758 300.887 324.487C302.216 327.216 304.433 329.413 307.173 330.717C309.914 332.022 313.017 332.357 315.973 331.668C318.929 330.978 321.563 329.306 323.444 326.923C325.325 324.541 326.341 321.59 326.325 318.555C326.31 315.52 325.265 312.58 323.36 310.217C322.104 308.646 320.508 307.381 318.693 306.517C316.877 305.653 314.889 305.212 312.879 305.227ZM312.879 335.875C308.807 335.87 304.869 334.425 301.76 331.795C298.651 329.166 296.572 325.522 295.891 321.508C295.211 317.494 295.971 313.368 298.039 309.861C300.107 306.354 303.348 303.691 307.19 302.343C311.032 300.995 315.227 301.05 319.033 302.497C322.838 303.944 326.009 306.69 327.985 310.25C329.961 313.81 330.614 317.954 329.829 321.949C329.044 325.944 326.871 329.533 323.695 332.081C320.627 334.541 316.811 335.88 312.879 335.875Z" fill="#F3C2D5"/>
<path d="M270.781 324.071H287.169V314.325L279.55 325.947L270.781 314.325V324.071ZM289.11 327.824H268.84C268.325 327.824 267.831 327.626 267.467 327.274C267.103 326.922 266.898 326.445 266.898 325.947V312.448C266.898 311.95 267.103 311.473 267.467 311.121C267.831 310.769 268.325 310.572 268.84 310.572H289.11C289.625 310.572 290.119 310.769 290.483 311.121C290.847 311.473 291.052 311.95 291.052 312.448V325.947C291.052 326.445 290.847 326.922 290.483 327.274C290.119 327.626 289.625 327.824 289.11 327.824Z" fill="#2F4B6F" fill-opacity="0.72"/>
<path d="M281.845 297.92H276.094V289.869H281.845V297.92Z" fill="#6D94E4"/>
<path d="M272.649 297.92H266.898V289.869H272.649V297.92Z" fill="#6D94E4"/>
<path d="M262.298 297.92H256.547V289.869H262.298V297.92Z" fill="#6D94E4"/>
<path d="M253.095 297.92H247.344V289.869H253.095V297.92Z" fill="#6D94E4"/>
<path d="M243.891 297.92H238.141V289.869H243.891V297.92Z" fill="#F3C2D5"/>
<path d="M247.751 287.569H227.386C226.884 287.569 226.402 287.379 226.047 287.041C225.692 286.704 225.492 286.246 225.492 285.768V277.868C225.492 277.39 225.692 276.932 226.047 276.595C226.402 276.257 226.884 276.067 227.386 276.067H247.751C248.254 276.067 248.736 276.257 249.091 276.595C249.446 276.932 249.645 277.39 249.645 277.868V285.768C249.645 286.246 249.446 286.704 249.091 287.041C248.736 287.379 248.254 287.569 247.751 287.569Z" fill="#AF8FE9"/>
<path d="M261.363 249.731L261.303 249.621C261.072 249.428 260.792 249.301 260.493 249.253C260.168 249.192 259.95 249.24 259.904 249.289C260.203 249.475 260.527 249.618 260.868 249.716C261.035 249.758 261.212 249.759 261.382 249.721L261.363 249.731ZM256.807 244.425L256.746 244.315C256.528 244.113 256.253 243.981 255.955 243.937C255.759 243.887 255.552 243.893 255.357 243.954C255.645 244.159 255.972 244.304 256.32 244.381C256.485 244.42 256.656 244.431 256.825 244.415L256.807 244.425ZM253.361 245.022C253.165 244.673 253.059 244.281 253.052 243.879C253.049 243.562 253.118 243.247 253.255 242.957C253.391 242.668 253.592 242.411 253.842 242.208C254.201 241.932 254.618 241.74 255.06 241.647C255.503 241.554 255.959 241.561 256.395 241.67C257.167 241.786 257.879 242.139 258.431 242.679L265.992 236.302L272.262 243.628L262.981 251.445C262.656 251.742 262.264 251.957 261.839 252.07L261.318 252.498L261.336 252.13C261.019 252.145 260.701 252.118 260.392 252.051C259.56 251.887 258.808 251.463 258.246 250.84C257.859 250.405 257.647 249.843 257.649 249.259C257.64 248.942 257.704 248.627 257.836 248.336C257.968 248.045 258.164 247.786 258.409 247.579C258.771 247.301 259.191 247.108 259.636 247.013C260.082 246.918 260.542 246.924 260.981 247.031C261.744 247.165 262.445 247.52 262.999 248.05L266.482 245.12L263.688 241.879L258.495 246.268C258.17 246.564 257.778 246.778 257.353 246.893L256.823 247.349L256.85 246.953C256.537 246.973 256.223 246.953 255.916 246.891C255.086 246.722 254.335 246.299 253.77 245.681L253.509 245.203L253.361 245.022Z" fill="#232E62"/>
<path d="M278.097 115.983L278.037 115.872C277.806 115.68 277.527 115.553 277.227 115.504C276.902 115.444 276.685 115.491 276.639 115.54C276.938 115.726 277.262 115.87 277.602 115.967C277.77 116.009 277.946 116.011 278.116 115.972L278.097 115.983ZM273.541 110.677L273.481 110.566C273.263 110.364 272.987 110.233 272.69 110.188C272.493 110.138 272.286 110.144 272.091 110.206C272.379 110.41 272.707 110.555 273.054 110.633C273.219 110.671 273.39 110.683 273.56 110.666L273.541 110.677ZM270.095 111.273C269.899 110.925 269.793 110.532 269.787 110.13C269.783 109.813 269.852 109.498 269.989 109.208C270.126 108.919 270.326 108.663 270.576 108.459C270.935 108.183 271.352 107.991 271.795 107.898C272.237 107.805 272.694 107.813 273.129 107.921C273.901 108.038 274.613 108.39 275.165 108.93L282.727 102.554L288.996 109.88L279.716 117.696C279.391 117.993 278.998 118.208 278.573 118.321L278.053 118.749L278.071 118.382C277.753 118.396 277.436 118.369 277.127 118.302C276.294 118.138 275.542 117.714 274.98 117.091C274.593 116.656 274.381 116.094 274.383 115.51C274.375 115.193 274.439 114.878 274.57 114.587C274.702 114.296 274.898 114.037 275.144 113.83C275.506 113.553 275.925 113.359 276.371 113.264C276.816 113.169 277.276 113.175 277.716 113.282C278.478 113.417 279.18 113.771 279.733 114.301L283.217 111.371L280.422 108.13L275.23 112.519C274.904 112.815 274.512 113.03 274.087 113.144L273.558 113.6L273.585 113.204C273.271 113.225 272.957 113.204 272.651 113.143C271.821 112.974 271.07 112.55 270.504 111.932L270.243 111.455L270.095 111.273Z" fill="#232E62"/>
<path d="M309.723 191.934L309.647 191.886C309.434 191.846 309.213 191.864 309.008 191.94C308.782 192.016 308.662 192.123 308.65 192.17C308.904 192.181 309.158 192.157 309.407 192.099C309.527 192.066 309.638 192.005 309.732 191.921L309.723 191.934ZM304.987 190.203L304.911 190.155C304.702 190.105 304.483 190.119 304.28 190.196C304.139 190.234 304.01 190.311 303.91 190.418C304.163 190.445 304.42 190.421 304.666 190.347C304.783 190.313 304.895 190.26 304.996 190.19L304.987 190.203ZM303.031 191.793C302.784 191.643 302.579 191.434 302.434 191.183C302.32 190.985 302.252 190.762 302.236 190.532C302.22 190.302 302.256 190.07 302.341 189.854C302.47 189.554 302.664 189.286 302.91 189.071C303.155 188.857 303.445 188.701 303.757 188.615C304.284 188.417 304.856 188.387 305.393 188.532L307.901 181.856L314.426 184.253L311.346 192.441C311.246 192.742 311.075 193.016 310.847 193.237L310.671 193.689L310.552 193.452C310.358 193.573 310.149 193.668 309.931 193.734C309.35 193.925 308.727 193.923 308.154 193.73C307.757 193.593 307.426 193.314 307.221 192.946C307.104 192.75 307.033 192.529 307.013 192.299C306.994 192.07 307.026 191.838 307.107 191.621C307.237 191.319 307.433 191.05 307.679 190.833C307.926 190.616 308.217 190.458 308.531 190.37C309.058 190.186 309.625 190.161 310.159 190.3L311.317 187.229L308.417 186.175L306.699 190.766C306.599 191.067 306.428 191.341 306.201 191.562L306.029 192.036L305.906 191.777C305.716 191.901 305.511 191.998 305.297 192.068C304.715 192.254 304.094 192.253 303.52 192.063L303.188 191.855L303.031 191.793Z" fill="#232E62"/>
<path d="M243.946 185.281L243.884 185.311C243.772 185.432 243.696 185.582 243.662 185.745C243.62 185.922 243.64 186.042 243.666 186.069C243.776 185.91 243.863 185.736 243.925 185.552C243.952 185.461 243.957 185.364 243.941 185.27L243.946 185.281ZM240.922 187.642L240.86 187.672C240.743 187.786 240.664 187.934 240.632 188.096C240.6 188.202 240.598 188.316 240.626 188.424C240.746 188.271 240.834 188.096 240.885 187.907C240.91 187.818 240.921 187.725 240.916 187.631L240.922 187.642ZM241.16 189.545C240.964 189.644 240.746 189.692 240.526 189.685C240.352 189.679 240.181 189.633 240.026 189.55C239.871 189.468 239.736 189.352 239.63 189.21C239.488 189.006 239.394 188.772 239.354 188.527C239.315 188.283 239.331 188.033 239.401 187.797C239.485 187.377 239.696 186.996 240.006 186.707L236.706 182.4L240.881 179.152L244.927 184.438C245.081 184.623 245.188 184.844 245.24 185.08L245.461 185.376L245.26 185.357C245.259 185.531 245.237 185.704 245.192 185.872C245.081 186.324 244.829 186.725 244.473 187.017C244.225 187.218 243.912 187.32 243.592 187.304C243.418 187.3 243.247 187.257 243.091 187.178C242.935 187.098 242.798 186.984 242.691 186.844C242.548 186.639 242.453 186.404 242.412 186.157C242.371 185.911 242.387 185.659 242.456 185.421C242.549 185.006 242.762 184.631 243.066 184.341L241.55 182.357L239.702 183.806L241.975 186.763C242.128 186.949 242.236 187.17 242.288 187.406L242.524 187.707L242.308 187.682C242.311 187.855 242.292 188.026 242.25 188.193C242.136 188.643 241.885 189.044 241.532 189.338L241.264 189.469L241.16 189.545Z" fill="#232E62"/>
<path d="M352.055 55.7376L351.993 55.7678C351.882 55.8891 351.805 56.0391 351.771 56.202C351.729 56.3787 351.75 56.499 351.775 56.5256C351.885 56.3665 351.972 56.1925 352.034 56.0085C352.061 55.9176 352.067 55.8212 352.05 55.7271L352.055 55.7376ZM349.031 58.0985L348.969 58.1286C348.853 58.243 348.774 58.3906 348.742 58.5524C348.709 58.6587 348.707 58.7725 348.736 58.8809C348.855 58.7282 348.943 58.5525 348.994 58.3639C349.02 58.2745 349.03 58.1813 349.026 58.0879L349.031 58.0985ZM349.27 60.0019C349.074 60.1005 348.856 60.1485 348.636 60.1418C348.462 60.1356 348.291 60.0896 348.135 60.0073C347.98 59.925 347.845 59.8084 347.74 59.6664C347.598 59.4625 347.503 59.2292 347.464 58.9843C347.424 58.7394 347.44 58.4894 347.51 58.2535C347.594 57.8335 347.806 57.4525 348.115 57.1636L344.815 52.8568L348.99 49.6089L353.036 54.8945C353.19 55.0802 353.298 55.3008 353.349 55.5367L353.57 55.8329L353.369 55.8136C353.369 55.988 353.346 56.1612 353.301 56.3289C353.19 56.7807 352.938 57.1821 352.583 57.4741C352.335 57.675 352.021 57.7769 351.701 57.7608C351.527 57.7573 351.356 57.7141 351.2 57.6345C351.044 57.5548 350.907 57.4408 350.8 57.301C350.657 57.0955 350.562 56.8606 350.521 56.614C350.481 56.3674 350.496 56.1156 350.566 55.8776C350.659 55.4632 350.871 55.0877 351.176 54.7982L349.659 52.8141L347.812 54.2624L350.084 57.2202C350.238 57.4061 350.345 57.6266 350.397 57.8624L350.634 58.1641L350.417 58.1392C350.42 58.3115 350.401 58.4831 350.36 58.6495C350.246 59.1 349.994 59.5006 349.641 59.7948L349.373 59.9256L349.27 60.0019Z" fill="#232E62"/>
<path d="M290.055 6.73736L289.993 6.76754C289.882 6.88889 289.805 7.03887 289.771 7.20179C289.729 7.37843 289.75 7.4988 289.775 7.52535C289.885 7.36625 289.972 7.19224 290.034 7.00828C290.061 6.91739 290.067 6.82098 290.05 6.72684L290.055 6.73736ZM287.031 9.09822L286.969 9.1284C286.853 9.24277 286.774 9.39037 286.742 9.55213C286.709 9.65845 286.707 9.7723 286.736 9.8807C286.855 9.72795 286.943 9.55221 286.994 9.36366C287.02 9.27428 287.03 9.18105 287.026 9.0877L287.031 9.09822ZM287.27 11.0017C287.074 11.1003 286.856 11.1483 286.636 11.1415C286.462 11.1354 286.291 11.0894 286.135 11.007C285.98 10.9247 285.845 10.8082 285.74 10.6661C285.598 10.4622 285.503 10.2289 285.464 9.98403C285.424 9.73913 285.44 9.48915 285.51 9.25327C285.594 8.83324 285.806 8.45222 286.115 8.16335L282.815 3.85651L286.99 0.608656L291.036 5.89427C291.19 6.07998 291.298 6.30051 291.349 6.53648L291.57 6.83267L291.369 6.81336C291.369 6.98774 291.346 7.16096 291.301 7.32865C291.19 7.78043 290.938 8.18189 290.583 8.4739C290.335 8.6748 290.021 8.77662 289.701 8.76052C289.527 8.75701 289.356 8.71385 289.2 8.63422C289.044 8.5546 288.907 8.44059 288.8 8.30072C288.657 8.09524 288.562 7.86035 288.521 7.61375C288.481 7.36716 288.496 7.11534 288.566 6.87733C288.659 6.46294 288.871 6.08749 289.176 5.79793L287.659 3.81389L285.812 5.26215L288.084 8.21992C288.238 8.40588 288.345 8.62631 288.397 8.86213L288.634 9.16382L288.417 9.139C288.42 9.31129 288.401 9.48288 288.36 9.64928C288.246 10.0997 287.994 10.5003 287.641 10.7945L287.373 10.9253L287.27 11.0017Z" fill="#232E62"/>
<path d="M347.912 231.735L347.741 236.855L348.069 235.881C348.457 235.18 348.686 234.407 348.741 233.613C348.723 233.119 348.57 232.639 348.298 232.222C348.182 232.064 348.053 231.915 347.912 231.776V231.735ZM345.64 237.189C345.301 237.209 344.976 237.331 344.711 237.536C344.589 237.609 344.483 237.704 344.4 237.816C344.317 237.928 344.257 238.055 344.225 238.19C344.225 238.238 344.236 238.284 344.255 238.327C344.275 238.37 344.303 238.409 344.339 238.441C344.426 238.54 344.549 238.605 344.682 238.622C345.022 238.637 345.357 238.533 345.625 238.33C345.772 238.239 345.895 238.116 345.984 237.971C346.074 237.827 346.127 237.663 346.14 237.495V237.286C346.14 237.286 346.04 237.286 345.711 237.286L345.64 237.189ZM344.796 240.166H344.468C343.972 240.095 343.517 239.859 343.181 239.498C342.998 239.315 342.856 239.097 342.765 238.857C342.674 238.618 342.635 238.362 342.652 238.107C342.679 237.736 342.795 237.376 342.991 237.057C343.187 236.738 343.458 236.469 343.781 236.27C344.345 235.843 345.04 235.613 345.754 235.616H345.925L346.211 226.364L347.984 226.434L348.069 227.366C348.065 227.928 348.229 228.479 348.541 228.952C348.741 229.244 348.97 229.523 349.184 229.787C349.399 230.051 349.656 230.371 349.828 230.636C350.4 231.409 350.705 232.34 350.699 233.293C350.602 234.545 350.2 235.756 349.527 236.827L349.313 237.203H347.726V237.467C347.703 237.858 347.591 238.239 347.398 238.583C347.205 238.927 346.937 239.225 346.612 239.457C346.094 239.855 345.456 240.075 344.796 240.083V240.166Z" fill="#232E62"/>
<path d="M199.975 263.975L204.909 269.866L204.286 268.463C203.999 267.311 203.47 266.227 202.735 265.287C202.222 264.752 201.579 264.36 200.873 264.153C200.591 264.087 200.304 264.043 200.017 264.022L199.975 263.975ZM203.005 272.239C202.664 272.585 202.44 273.029 202.363 273.512C202.305 273.709 202.288 273.915 202.311 274.12C202.334 274.325 202.398 274.525 202.498 274.706C202.546 274.758 202.604 274.8 202.668 274.83C202.732 274.859 202.801 274.876 202.871 274.878C203.063 274.906 203.258 274.862 203.417 274.753C203.794 274.447 204.047 274.012 204.13 273.529C204.195 273.288 204.204 273.034 204.154 272.787C204.104 272.539 203.998 272.306 203.844 272.105L203.635 271.872C203.635 271.872 203.528 271.967 203.178 272.28L203.005 272.239ZM205.082 276.372L204.732 276.685C204.134 277.077 203.413 277.246 202.694 277.162C202.316 277.132 201.947 277.023 201.61 276.842C201.273 276.66 200.977 276.411 200.74 276.109C200.398 275.669 200.162 275.156 200.052 274.613C199.942 274.069 199.961 273.51 200.107 272.98C200.281 271.966 200.791 271.048 201.555 270.372L201.738 270.208L192.795 259.587L194.753 257.978L195.776 258.939C196.333 259.572 197.059 260.032 197.864 260.264C198.369 260.401 198.891 260.494 199.383 260.586C199.876 260.677 200.47 260.79 200.917 260.923C202.299 261.244 203.554 261.994 204.501 263.065C205.649 264.558 206.431 266.295 206.785 268.134L206.932 268.758L205.242 270.268L205.506 270.564C205.871 271.024 206.133 271.557 206.271 272.125C206.41 272.694 206.422 273.283 206.307 273.85C206.153 274.788 205.693 275.642 204.999 276.279L205.082 276.372Z" fill="#232E62"/>
<path d="M360.678 140.661L365.612 146.552L364.989 145.149C364.702 143.997 364.173 142.913 363.438 141.973C362.925 141.438 362.283 141.047 361.576 140.839C361.294 140.773 361.007 140.729 360.72 140.708L360.678 140.661ZM363.708 148.925C363.367 149.271 363.143 149.715 363.066 150.198C363.008 150.395 362.991 150.601 363.014 150.806C363.037 151.011 363.101 151.211 363.202 151.392C363.249 151.444 363.307 151.486 363.371 151.516C363.435 151.545 363.504 151.562 363.574 151.564C363.766 151.592 363.961 151.548 364.12 151.439C364.497 151.133 364.75 150.698 364.833 150.215C364.899 149.974 364.907 149.72 364.857 149.473C364.808 149.225 364.701 148.992 364.547 148.791L364.338 148.558C364.338 148.558 364.232 148.653 363.881 148.966L363.708 148.925ZM365.785 153.058L365.435 153.371C364.837 153.763 364.116 153.932 363.397 153.848C363.019 153.818 362.65 153.709 362.313 153.528C361.976 153.346 361.68 153.097 361.443 152.796C361.101 152.355 360.865 151.842 360.755 151.299C360.645 150.755 360.664 150.196 360.811 149.667C360.984 148.652 361.494 147.734 362.258 147.058L362.441 146.894L353.499 136.273L355.456 134.664L356.479 135.625C357.036 136.258 357.762 136.718 358.567 136.95C359.072 137.087 359.594 137.18 360.086 137.272C360.579 137.363 361.173 137.476 361.62 137.609C363.002 137.93 364.257 138.68 365.204 139.751C366.352 141.244 367.134 142.981 367.488 144.82L367.635 145.444L365.945 146.954L366.209 147.25C366.575 147.71 366.836 148.243 366.974 148.811C367.113 149.38 367.125 149.969 367.01 150.537C366.856 151.474 366.396 152.328 365.702 152.965L365.785 153.058Z" fill="#232E62"/>
<path d="M216.97 63.7441L212.234 69.795L213.476 68.894C214.544 68.3738 215.494 67.6314 216.261 66.7168C216.678 66.1039 216.927 65.3937 216.983 64.6591C216.989 64.3696 216.972 64.0805 216.933 63.7946L216.97 63.7441ZM209.517 68.4255C209.108 68.1642 208.627 68.0373 208.138 68.0621C207.934 68.0467 207.728 68.0725 207.532 68.138C207.337 68.2034 207.155 68.3071 206.998 68.4431C206.957 68.5006 206.928 68.5657 206.913 68.6344C206.897 68.7031 206.895 68.774 206.908 68.8427C206.92 69.0369 207.004 69.2181 207.143 69.3511C207.522 69.6566 207.999 69.8136 208.489 69.794C208.738 69.8082 208.989 69.7635 209.22 69.6635C209.452 69.5636 209.658 69.4111 209.822 69.2181L210.007 68.9656C210.007 68.9656 209.892 68.8812 209.513 68.6036L209.517 68.4255ZM205.906 71.3165L205.527 71.039C205.019 70.5354 204.704 69.8658 204.636 69.1449C204.587 68.7688 204.617 68.3848 204.725 68.0179C204.832 67.6509 205.015 67.3092 205.26 67.0149C205.62 66.5884 206.072 66.2513 206.581 66.0307C207.09 65.8102 207.641 65.7125 208.189 65.7456C209.217 65.7048 210.222 66.0126 211.042 66.6194L211.24 66.7642L219.77 55.8094L221.751 57.3898L221.024 58.5902C220.521 59.2667 220.221 60.072 220.161 60.9077C220.133 61.4302 220.15 61.96 220.163 62.4609C220.176 62.9618 220.188 63.5662 220.152 64.0309C220.125 65.4501 219.652 66.8335 218.801 67.9826C217.58 69.4152 216.043 70.5419 214.318 71.2696L213.738 71.5431L211.91 70.2038L211.675 70.5237C211.301 70.9771 210.834 71.3436 210.307 71.5971C209.78 71.8507 209.206 71.9849 208.627 71.9902C207.678 72.0351 206.747 71.7626 205.98 71.2155L205.906 71.3165Z" fill="#232E62"/>
</svg>
