<svg width="70" height="17" viewBox="0 0 70 17" fill="none" xmlns="http://www.w3.org/2000/svg">
<path d="M1.96627 4.20773C1.75306 4.20773 1.57862 4.13989 1.44295 4.00422C1.30727 3.86854 1.23943 3.6941 1.23943 3.4809V1.12596C1.23943 0.912751 1.30727 0.738311 1.44295 0.602636C1.57862 0.46696 1.75306 0.399122 1.96627 0.399122H9.93236C11.6768 0.399122 13.1401 0.651091 14.3224 1.15503C15.5048 1.63958 16.3963 2.40518 16.9972 3.45182C17.598 4.49846 17.8985 5.85522 17.8985 7.52209V16.2732C17.8985 16.4864 17.8306 16.6608 17.6949 16.7965C17.5593 16.9322 17.3848 17 17.1716 17H13.9154C13.7022 17 13.5278 16.9322 13.3921 16.7965C13.2564 16.6608 13.1886 16.4961 13.1886 16.3022V7.66746C13.1886 6.54329 12.9075 5.69047 12.3454 5.109C11.8027 4.50815 10.9402 4.20773 9.75792 4.20773H1.96627ZM5.57136 2.20167H6.87966C7.40298 2.20167 7.76155 2.30827 7.95537 2.52148C8.16858 2.73468 8.22672 2.95758 8.12981 3.19016C7.95537 3.81039 7.81001 4.40155 7.69371 4.96364C7.57742 5.50634 7.4902 6.06842 7.43205 6.64989C7.39329 7.23136 7.37391 7.88066 7.37391 8.5978L7.60649 16.2732C7.60649 16.4864 7.52896 16.6608 7.37391 16.7965C7.23823 16.9322 7.07348 17 6.87966 17L0.861478 16.9709C0.667656 16.9709 0.493216 16.9031 0.338158 16.7674C0.202482 16.6317 0.134645 16.4573 0.134645 16.2441V14.0927C0.134645 13.8795 0.202482 13.705 0.338158 13.5693C0.493216 13.4143 0.667656 13.3368 0.861478 13.3368L3.21642 13.3658V8.65595C3.21642 8.01634 3.2358 7.41549 3.27457 6.8534C3.31333 6.27194 3.38117 5.68078 3.47808 5.07993C3.59437 4.47908 3.75912 3.84916 3.97233 3.19016C4.06924 2.91881 4.22429 2.68623 4.4375 2.4924C4.67009 2.29858 5.04804 2.20167 5.57136 2.20167ZM21.9973 17C21.7841 17 21.6097 16.9322 21.474 16.7965C21.3383 16.6608 21.2705 16.4864 21.2705 16.2732V1.12596C21.2705 0.912751 21.3383 0.738311 21.474 0.602636C21.6097 0.46696 21.7841 0.399122 21.9973 0.399122H25.428C25.6412 0.399122 25.8156 0.46696 25.9513 0.602636C26.087 0.738311 26.1548 0.912751 26.1548 1.12596V16.2732C26.1548 16.4864 26.087 16.6608 25.9513 16.7965C25.8156 16.9322 25.6412 17 25.428 17H21.9973ZM36.3026 17C35.8762 17 35.663 16.7868 35.663 16.3604V7.43487C35.663 6.19441 35.7889 5.24468 36.0409 4.58568C36.3123 3.92669 36.7387 3.59719 37.3201 3.59719H41.9719C41.4873 3.59719 41.09 4.00422 40.7799 4.81827C40.4891 5.61294 40.3438 6.59174 40.3438 7.75468V16.3604C40.3438 16.5542 40.2565 16.7093 40.0821 16.8256C39.9077 16.9419 39.7235 17 39.5297 17H36.3026ZM29.5285 4.20773C29.3153 4.20773 29.1311 4.13989 28.9761 4.00422C28.8404 3.86854 28.7726 3.6941 28.7726 3.4809V1.12596C28.7726 0.912751 28.8404 0.738311 28.9761 0.602636C29.1311 0.46696 29.3153 0.399122 29.5285 0.399122H42.4661C42.6599 0.399122 42.8247 0.46696 42.9604 0.602636C43.1154 0.738311 43.1929 0.912751 43.1929 1.12596V3.4809C43.1929 3.67472 43.1251 3.84916 42.9894 4.00422C42.8538 4.13989 42.6793 4.20773 42.4661 4.20773H29.5285ZM46.6415 17C46.4283 17 46.2539 16.9322 46.1182 16.7965C45.9825 16.6608 45.9147 16.4864 45.9147 16.2732V1.12596C45.9147 0.912751 45.9825 0.738311 46.1182 0.602636C46.2539 0.46696 46.4283 0.399122 46.6415 0.399122H50.0722C50.2854 0.399122 50.4598 0.46696 50.5955 0.602636C50.7312 0.738311 50.799 0.912751 50.799 1.12596V16.2732C50.799 16.4864 50.7312 16.6608 50.5955 16.7965C50.4598 16.9322 50.2854 17 50.0722 17H46.6415ZM65.6857 17C65.3756 17 65.143 16.9225 64.988 16.7674C64.8329 16.6124 64.7263 16.4961 64.6681 16.4185L54.2017 1.44576C54.1048 1.31009 54.0564 1.16472 54.0564 1.00966C54.0564 0.854605 54.1145 0.718929 54.2308 0.602636C54.3665 0.46696 54.5216 0.399122 54.696 0.399122H57.9231C58.2332 0.399122 58.4658 0.476651 58.6209 0.631709C58.776 0.786767 58.8922 0.912752 58.9698 1.00966L69.5234 15.9534C69.6009 16.0503 69.6397 16.1375 69.6397 16.215C69.6591 16.2732 69.6688 16.3313 69.6688 16.3895C69.6688 16.5445 69.6106 16.6899 69.4943 16.8256C69.378 16.9419 69.2327 17 69.0582 17H65.6857ZM54.6669 17C54.4731 17 54.2987 16.9225 54.1436 16.7674C54.0079 16.6124 53.9401 16.4379 53.9401 16.2441V12.5518C53.9401 11.4664 54.037 10.5166 54.2308 9.70259C54.4246 8.86916 54.7735 8.11325 55.2775 7.43487C55.7814 6.75649 56.5082 6.08781 57.458 5.42881L59.6966 8.68502C59.2121 9.0339 58.8535 9.44093 58.6209 9.9061C58.4077 10.3519 58.272 10.8074 58.2139 11.2726C58.1557 11.7377 58.1266 12.1544 58.1266 12.5227V16.2441C58.1266 16.4767 58.0491 16.6608 57.8941 16.7965C57.7584 16.9322 57.5936 17 57.3998 17H54.6669ZM65.4531 11.3598L63.1854 8.13263C63.8056 7.82252 64.2417 7.48333 64.4937 7.11506C64.7651 6.72742 64.9298 6.33008 64.988 5.92306C65.0461 5.51603 65.0752 5.12839 65.0752 4.76012V1.15503C65.0752 0.922442 65.143 0.738311 65.2787 0.602636C65.4337 0.46696 65.6082 0.399122 65.802 0.399122H68.7093C68.9032 0.399122 69.0679 0.476651 69.2036 0.631709C69.3586 0.786767 69.4362 0.961207 69.4362 1.15503V4.87642C69.4362 5.67109 69.3296 6.44638 69.1164 7.20228C68.9032 7.95819 68.5155 8.68502 67.9534 9.38278C67.3914 10.0805 66.5579 10.7395 65.4531 11.3598Z" fill="#2F4B6F"/>
</svg>
