<svg width="82" height="18" viewBox="0 0 82 18" fill="none" xmlns="http://www.w3.org/2000/svg">
<path d="M1.28393 17.2471C1.07073 17.2471 0.896286 17.1792 0.76061 17.0436C0.624934 16.9079 0.557097 16.7334 0.557097 16.5202V1.37303C0.557097 1.15982 0.624934 0.985382 0.76061 0.849707C0.896286 0.71403 1.07073 0.646192 1.28393 0.646192H7.79636C9.50199 0.646192 10.9363 0.888471 12.0992 1.37303C13.2621 1.8382 14.1343 2.59411 14.7158 3.64075C15.2973 4.668 15.588 6.04414 15.588 7.76916V16.4912C15.588 16.685 15.5202 16.8594 15.3845 17.0145C15.2488 17.1695 15.0647 17.2471 14.8321 17.2471H1.28393ZM4.77273 13.4385H11.0816V7.91453C11.0816 6.79036 10.8006 5.93754 10.2385 5.35607C9.69582 4.75522 8.83331 4.4548 7.65099 4.4548H4.77273V13.4385ZM19.5656 10.3858C19.3524 10.3858 19.178 10.3179 19.0423 10.1822C18.9066 10.0272 18.8388 9.85275 18.8388 9.65893V1.37303C18.8388 1.15982 18.9066 0.985382 19.0423 0.849707C19.178 0.71403 19.3524 0.646192 19.5656 0.646192H22.9963C23.2095 0.646192 23.3839 0.71403 23.5196 0.849707C23.6553 0.985382 23.7231 1.15982 23.7231 1.37303V9.65893C23.7231 9.85275 23.6553 10.0272 23.5196 10.1822C23.3839 10.3179 23.2095 10.3858 22.9963 10.3858H19.5656ZM36.4638 13.671C37.4911 13.6904 38.402 13.4966 39.1967 13.0896C39.9914 12.6632 40.6019 12.0817 41.0283 11.3452C41.4741 10.6087 41.697 9.78491 41.697 8.87395V1.34395C41.697 1.15013 41.7648 0.985382 41.9005 0.849707C42.0556 0.71403 42.23 0.646192 42.4238 0.646192H45.3312C45.5444 0.646192 45.7188 0.71403 45.8545 0.849707C45.9902 0.985382 46.058 1.15982 46.058 1.37303V9.04839C46.058 10.347 45.8351 11.5196 45.3893 12.5663C44.9435 13.6129 44.3136 14.5045 43.4996 15.241C42.7049 15.9775 41.7842 16.5396 40.7376 16.9273C39.6909 17.3149 38.5571 17.499 37.336 17.4797H34.6031C33.0332 17.4797 31.6764 17.1792 30.5328 16.5784C29.4087 15.9582 28.5462 15.1344 27.9453 14.1071C27.3445 13.0799 27.044 11.946 27.044 10.7056V1.37303C27.044 1.15982 27.1119 0.985382 27.2476 0.849707C27.4026 0.71403 27.5771 0.646192 27.7709 0.646192H30.6782C30.872 0.646192 31.0368 0.71403 31.1725 0.849707C31.3275 0.985382 31.405 1.15013 31.405 1.34395L31.4341 8.61229C31.4341 10.2404 31.8411 11.4905 32.6552 12.3627C33.4886 13.2349 34.5256 13.671 35.766 13.671H36.4638ZM30.9399 11.6941V8.49599C31.8508 8.47661 32.5583 8.29248 33.0622 7.9436C33.5662 7.59472 33.9247 7.11017 34.1379 6.48993C34.3511 5.85032 34.4577 5.08472 34.4577 4.19314V1.4021C34.4577 1.16951 34.5256 0.985382 34.6613 0.849707C34.7969 0.71403 34.9714 0.646192 35.1846 0.646192H38.0628C38.2567 0.646192 38.4214 0.723721 38.5571 0.87878C38.7121 1.03384 38.7897 1.20828 38.7897 1.4021V4.25129C38.7897 5.82125 38.4796 7.16831 37.8593 8.29248C37.2585 9.39727 36.3669 10.2501 35.1846 10.8509C34.0216 11.4324 32.6067 11.7134 30.9399 11.6941ZM55.9057 17.2471C55.4793 17.2471 55.2661 17.0339 55.2661 16.6075V7.68194C55.2661 6.44148 55.3921 5.49175 55.644 4.83275C55.9154 4.17376 56.3418 3.84426 56.9233 3.84426H61.575C61.0904 3.84426 60.6931 4.25129 60.383 5.06534C60.0923 5.86001 59.9469 6.83881 59.9469 8.00175V16.6075C59.9469 16.8013 59.8597 16.9563 59.6852 17.0726C59.5108 17.1889 59.3267 17.2471 59.1328 17.2471H55.9057ZM49.1316 4.4548C48.9184 4.4548 48.7343 4.38696 48.5792 4.25129C48.4435 4.11561 48.3757 3.94117 48.3757 3.72797V1.37303C48.3757 1.15982 48.4435 0.985382 48.5792 0.849707C48.7343 0.71403 48.9184 0.646192 49.1316 0.646192H62.0692C62.2631 0.646192 62.4278 0.71403 62.5635 0.849707C62.7185 0.985382 62.7961 1.15982 62.7961 1.37303V3.72797C62.7961 3.92179 62.7282 4.09623 62.5926 4.25129C62.4569 4.38696 62.2824 4.4548 62.0692 4.4548H49.1316ZM66.2447 17.2471C66.0315 17.2471 65.857 17.1792 65.7213 17.0436C65.5857 16.9079 65.5178 16.7334 65.5178 16.5202V1.37303C65.5178 1.15982 65.5857 0.985382 65.7213 0.849707C65.857 0.71403 66.0315 0.646192 66.2447 0.646192H73.0188C74.7825 0.646192 76.2556 0.888471 77.4379 1.37303C78.6202 1.85758 79.5118 2.63287 80.1127 3.69889C80.7135 4.76492 81.0139 6.17013 81.0139 7.91453V16.5202C81.0139 16.7334 80.9461 16.9079 80.8104 17.0436C80.6747 17.1792 80.5003 17.2471 80.2871 17.2471H77.0309C76.8177 17.2471 76.6432 17.1792 76.5076 17.0436C76.3719 16.9079 76.304 16.7431 76.304 16.5493V7.91453C76.304 6.79036 76.023 5.93754 75.4609 5.35607C74.9182 4.75522 74.0557 4.4548 72.8734 4.4548H70.2277V16.5202C70.2277 16.7334 70.1599 16.9079 70.0242 17.0436C69.8885 17.1792 69.7141 17.2471 69.5009 17.2471H66.2447Z" fill="#2F4B6F"/>
</svg>
