<svg width="133" height="120" viewBox="0 0 133 120" fill="none" xmlns="http://www.w3.org/2000/svg">
<path d="M91.4128 8.1C91.3195 8.1 91.2402 8.072 91.1748 8.016C91.1188 7.95067 91.0908 7.87133 91.0908 7.778V6.798C91.0908 6.70467 91.1188 6.63 91.1748 6.574C91.2402 6.50867 91.3195 6.476 91.4128 6.476H92.4068C92.5095 6.476 92.5888 6.50867 92.6448 6.574C92.7102 6.63 92.7428 6.70467 92.7428 6.798V7.778C92.7428 7.87133 92.7102 7.95067 92.6448 8.016C92.5888 8.072 92.5095 8.1 92.4068 8.1H91.4128ZM91.4128 13C91.3195 13 91.2402 12.972 91.1748 12.916C91.1188 12.8507 91.0908 12.7713 91.0908 12.678V11.698C91.0908 11.6047 91.1188 11.53 91.1748 11.474C91.2402 11.4087 91.3195 11.376 91.4128 11.376H92.4068C92.5095 11.376 92.5888 11.4087 92.6448 11.474C92.7102 11.53 92.7428 11.6047 92.7428 11.698V12.678C92.7428 12.7713 92.7102 12.8507 92.6448 12.916C92.5888 12.972 92.5095 13 92.4068 13H91.4128ZM100.427 13C100.334 13 100.254 12.972 100.189 12.916C100.133 12.8507 100.105 12.7713 100.105 12.678V8.492C100.105 7.74533 99.9182 7.16667 99.5448 6.756C99.1715 6.336 98.5695 6.126 97.7388 6.126H95.1068C95.0135 6.126 94.9342 6.098 94.8688 6.042C94.8128 5.97667 94.7848 5.89733 94.7848 5.804V5.328C94.7848 5.23467 94.8128 5.16 94.8688 5.104C94.9342 5.03867 95.0135 5.006 95.1068 5.006H97.8088C99.0222 5.006 99.9182 5.3 100.497 5.888C101.085 6.476 101.379 7.33 101.379 8.45V12.678C101.379 12.7713 101.346 12.8507 101.281 12.916C101.225 12.972 101.15 13 101.057 13H100.427ZM95.1068 13C95.0135 13 94.9342 12.972 94.8688 12.916C94.8128 12.8507 94.7848 12.7713 94.7848 12.678V8.002C94.7848 7.90867 94.8128 7.834 94.8688 7.778C94.9342 7.71267 95.0135 7.68 95.1068 7.68H95.7368C95.8395 7.68 95.9188 7.71267 95.9748 7.778C96.0308 7.834 96.0588 7.90867 96.0588 8.002V12.678C96.0588 12.7713 96.0308 12.8507 95.9748 12.916C95.9188 12.972 95.8395 13 95.7368 13H95.1068ZM106.953 6.154H103.551C103.448 6.154 103.369 6.126 103.313 6.07C103.257 6.00467 103.229 5.92533 103.229 5.832V5.328C103.229 5.23467 103.257 5.16 103.313 5.104C103.369 5.03867 103.448 5.006 103.551 5.006H107.107C107.685 5.006 108.199 5.14133 108.647 5.412C109.104 5.68267 109.459 6.07467 109.711 6.588C109.972 7.092 110.103 7.70333 110.103 8.422V12.678C110.103 12.7713 110.07 12.8507 110.005 12.916C109.949 12.972 109.874 13 109.781 13H106.169C106.075 13 105.996 12.972 105.931 12.916C105.875 12.8507 105.847 12.7713 105.847 12.678V12.202C105.847 12.1087 105.875 12.034 105.931 11.978C105.996 11.9127 106.075 11.88 106.169 11.88H108.829V8.506C108.829 8.03 108.745 7.61467 108.577 7.26C108.418 6.90533 108.194 6.63467 107.905 6.448C107.625 6.252 107.307 6.154 106.953 6.154ZM103.411 13C103.327 13 103.257 12.9673 103.201 12.902C103.145 12.8367 103.121 12.7573 103.131 12.664L104.321 5.804C104.339 5.71067 104.381 5.64067 104.447 5.594C104.512 5.538 104.591 5.51933 104.685 5.538L105.245 5.566C105.338 5.57533 105.413 5.61733 105.469 5.692C105.525 5.75733 105.539 5.83667 105.511 5.93L104.405 12.664C104.395 12.7573 104.353 12.8367 104.279 12.902C104.213 12.9673 104.134 13 104.041 13H103.411ZM115.549 13.14C114.383 13.14 113.515 12.8367 112.945 12.23C112.376 11.6233 112.091 10.76 112.091 9.64V5.328C112.091 5.23467 112.119 5.16 112.175 5.104C112.241 5.03867 112.32 5.006 112.413 5.006H115.787C116.618 5.006 117.281 5.132 117.775 5.384C118.27 5.636 118.629 6.00933 118.853 6.504C119.087 6.98933 119.217 7.59133 119.245 8.31C119.255 8.40333 119.259 8.55267 119.259 8.758C119.259 8.96333 119.259 9.16867 119.259 9.374C119.259 9.57933 119.255 9.72867 119.245 9.822C119.227 10.5313 119.091 11.138 118.839 11.642C118.587 12.1367 118.191 12.51 117.649 12.762C117.117 13.014 116.417 13.14 115.549 13.14ZM115.549 11.992C116.436 11.992 117.061 11.81 117.425 11.446C117.789 11.0727 117.981 10.508 117.999 9.752C118.009 9.65867 118.013 9.51867 118.013 9.332C118.013 9.14533 118.013 8.96333 118.013 8.786C118.013 8.60867 118.009 8.47333 117.999 8.38C117.981 7.63333 117.766 7.07333 117.355 6.7C116.954 6.31733 116.408 6.126 115.717 6.126H113.309V9.64C113.309 10.396 113.496 10.9793 113.869 11.39C114.243 11.7913 114.803 11.992 115.549 11.992ZM121.314 9.752C121.22 9.752 121.141 9.724 121.076 9.668C121.02 9.60267 120.992 9.52333 120.992 9.43V5.328C120.992 5.23467 121.02 5.16 121.076 5.104C121.141 5.03867 121.22 5.006 121.314 5.006H121.972C122.074 5.006 122.154 5.03867 122.21 5.104C122.266 5.16 122.294 5.23467 122.294 5.328V9.43C122.294 9.52333 122.266 9.60267 122.21 9.668C122.154 9.724 122.074 9.752 121.972 9.752H121.314ZM127.745 13.14C126.578 13.14 125.71 12.8367 125.141 12.23C124.571 11.6233 124.287 10.76 124.287 9.64V5.328C124.287 5.23467 124.315 5.16 124.371 5.104C124.436 5.03867 124.515 5.006 124.609 5.006H127.983C128.813 5.006 129.476 5.132 129.971 5.384C130.465 5.636 130.825 6.00933 131.049 6.504C131.282 6.98933 131.413 7.59133 131.441 8.31C131.45 8.40333 131.455 8.55267 131.455 8.758C131.455 8.96333 131.455 9.16867 131.455 9.374C131.455 9.57933 131.45 9.72867 131.441 9.822C131.422 10.5313 131.287 11.138 131.035 11.642C130.783 12.1367 130.386 12.51 129.845 12.762C129.313 13.014 128.613 13.14 127.745 13.14ZM127.745 11.992C128.631 11.992 129.257 11.81 129.621 11.446C129.985 11.0727 130.176 10.508 130.195 9.752C130.204 9.65867 130.209 9.51867 130.209 9.332C130.209 9.14533 130.209 8.96333 130.209 8.786C130.209 8.60867 130.204 8.47333 130.195 8.38C130.176 7.63333 129.961 7.07333 129.551 6.7C129.149 6.31733 128.603 6.126 127.913 6.126H125.505V9.64C125.505 10.396 125.691 10.9793 126.065 11.39C126.438 11.7913 126.998 11.992 127.745 11.992Z" fill="#2F4B6F"/>
<path d="M4.06907 110.213C3.97573 110.213 3.8964 110.185 3.83107 110.129C3.77507 110.064 3.74707 109.984 3.74707 109.891V108.911C3.74707 108.818 3.77507 108.743 3.83107 108.687C3.8964 108.622 3.97573 108.589 4.06907 108.589H5.06307C5.16573 108.589 5.24507 108.622 5.30107 108.687C5.3664 108.743 5.39907 108.818 5.39907 108.911V109.891C5.39907 109.984 5.3664 110.064 5.30107 110.129C5.24507 110.185 5.16573 110.213 5.06307 110.213H4.06907ZM4.06907 115.113C3.97573 115.113 3.8964 115.085 3.83107 115.029C3.77507 114.964 3.74707 114.884 3.74707 114.791V113.811C3.74707 113.718 3.77507 113.643 3.83107 113.587C3.8964 113.522 3.97573 113.489 4.06907 113.489H5.06307C5.16573 113.489 5.24507 113.522 5.30107 113.587C5.3664 113.643 5.39907 113.718 5.39907 113.811V114.791C5.39907 114.884 5.3664 114.964 5.30107 115.029C5.24507 115.085 5.16573 115.113 5.06307 115.113H4.06907ZM11.5813 110.605C11.5813 109.858 11.3899 109.28 11.0073 108.869C10.6339 108.449 10.0319 108.239 9.20127 108.239H7.14327C7.04994 108.239 6.9706 108.211 6.90527 108.155C6.84927 108.09 6.82127 108.01 6.82127 107.917V107.441C6.82127 107.348 6.84927 107.273 6.90527 107.217C6.9706 107.152 7.04994 107.119 7.14327 107.119H9.27127C10.0833 107.119 10.7506 107.245 11.2733 107.497C11.8053 107.74 12.2019 108.113 12.4633 108.617C12.7246 109.112 12.8553 109.751 12.8553 110.535V116.527C12.8553 116.62 12.8226 116.695 12.7573 116.751C12.7013 116.816 12.6266 116.849 12.5333 116.849H11.9033C11.8006 116.849 11.7213 116.816 11.6653 116.751C11.6093 116.695 11.5813 116.62 11.5813 116.527V110.605ZM16.6553 115.239C16.5713 115.267 16.492 115.253 16.4173 115.197C16.3426 115.15 16.3053 115.08 16.3053 114.987V114.343C16.3053 114.259 16.3286 114.184 16.3753 114.119C16.4313 114.054 16.5106 114.002 16.6133 113.965L17.1593 113.755C17.5233 113.606 17.8546 113.419 18.1533 113.195C18.4613 112.962 18.6993 112.649 18.8673 112.257C19.0446 111.865 19.1333 111.352 19.1333 110.717C19.1333 110.11 19.0586 109.63 18.9093 109.275C18.7693 108.911 18.5266 108.654 18.1813 108.505C17.8453 108.346 17.3833 108.267 16.7953 108.267H16.3753C16.282 108.267 16.2026 108.239 16.1373 108.183C16.0813 108.118 16.0533 108.038 16.0533 107.945V107.441C16.0533 107.348 16.0813 107.273 16.1373 107.217C16.2026 107.152 16.282 107.119 16.3753 107.119H16.9913C17.8406 107.119 18.5173 107.24 19.0213 107.483C19.5253 107.726 19.8846 108.118 20.0993 108.659C20.3233 109.191 20.4353 109.891 20.4353 110.759C20.4353 111.412 20.3466 111.977 20.1693 112.453C19.992 112.929 19.7493 113.335 19.4413 113.671C19.1426 114.007 18.802 114.287 18.4193 114.511C18.0366 114.726 17.64 114.903 17.2293 115.043L16.6553 115.239ZM16.6833 108.267L15.0173 108.253C14.924 108.253 14.8446 108.225 14.7793 108.169C14.7233 108.113 14.6953 108.038 14.6953 107.945V105.495C14.6953 105.402 14.7233 105.327 14.7793 105.271C14.8446 105.206 14.924 105.173 15.0173 105.173H15.6053C15.6986 105.173 15.7733 105.206 15.8293 105.271C15.8946 105.327 15.9273 105.402 15.9273 105.495V107.119H16.7113L16.6833 108.267ZM26.2511 114.063C26.8577 114.072 27.3664 113.96 27.7771 113.727C28.1971 113.494 28.5144 113.162 28.7291 112.733C28.9531 112.294 29.0651 111.795 29.0651 111.235V107.441C29.0651 107.348 29.0931 107.273 29.1491 107.217C29.2144 107.152 29.2937 107.119 29.3871 107.119H29.9611C30.0637 107.119 30.1431 107.152 30.1991 107.217C30.2551 107.273 30.2831 107.348 30.2831 107.441V111.333C30.2831 111.93 30.1897 112.472 30.0031 112.957C29.8164 113.433 29.5504 113.844 29.2051 114.189C28.8597 114.525 28.4491 114.782 27.9731 114.959C27.5064 115.136 26.9884 115.216 26.4191 115.197H25.3691C24.7624 115.197 24.2164 115.057 23.7311 114.777C23.2457 114.497 22.8631 114.105 22.5831 113.601C22.3031 113.097 22.1631 112.514 22.1631 111.851V107.441C22.1631 107.348 22.1911 107.273 22.2471 107.217C22.3124 107.152 22.3917 107.119 22.4851 107.119H23.0731C23.1664 107.119 23.2411 107.152 23.2971 107.217C23.3624 107.273 23.3951 107.348 23.3951 107.441L23.4371 111.571C23.4371 112.374 23.6611 112.99 24.1091 113.419C24.5571 113.848 25.1264 114.063 25.8171 114.063H26.2511ZM23.1431 112.425L23.1151 111.403C23.8057 111.394 24.3331 111.291 24.6971 111.095C25.0611 110.89 25.3131 110.619 25.4531 110.283C25.6024 109.947 25.6771 109.578 25.6771 109.177V107.441C25.6771 107.348 25.7051 107.273 25.7611 107.217C25.8171 107.152 25.8964 107.119 25.9991 107.119H26.5731C26.6664 107.119 26.7411 107.152 26.7971 107.217C26.8624 107.273 26.8951 107.348 26.8951 107.441V109.233C26.8951 109.84 26.7597 110.386 26.4891 110.871C26.2184 111.356 25.8031 111.739 25.2431 112.019C24.6924 112.299 23.9924 112.434 23.1431 112.425ZM35.7419 108.267H32.3399C32.2372 108.267 32.1579 108.239 32.1019 108.183C32.0459 108.118 32.0179 108.038 32.0179 107.945V107.441C32.0179 107.348 32.0459 107.273 32.1019 107.217C32.1579 107.152 32.2372 107.119 32.3399 107.119H35.8959C36.4745 107.119 36.9879 107.254 37.4359 107.525C37.8932 107.796 38.2479 108.188 38.4999 108.701C38.7612 109.205 38.8919 109.816 38.8919 110.535V114.791C38.8919 114.884 38.8592 114.964 38.7939 115.029C38.7379 115.085 38.6632 115.113 38.5699 115.113H34.9579C34.8645 115.113 34.7852 115.085 34.7199 115.029C34.6639 114.964 34.6359 114.884 34.6359 114.791V114.315C34.6359 114.222 34.6639 114.147 34.7199 114.091C34.7852 114.026 34.8645 113.993 34.9579 113.993H37.6179V110.619C37.6179 110.143 37.5339 109.728 37.3659 109.373C37.2072 109.018 36.9832 108.748 36.6939 108.561C36.4139 108.365 36.0965 108.267 35.7419 108.267ZM32.1999 115.113C32.1159 115.113 32.0459 115.08 31.9899 115.015C31.9339 114.95 31.9105 114.87 31.9199 114.777L33.1099 107.917C33.1285 107.824 33.1705 107.754 33.2359 107.707C33.3012 107.651 33.3805 107.632 33.4739 107.651L34.0339 107.679C34.1272 107.688 34.2019 107.73 34.2579 107.805C34.3139 107.87 34.3279 107.95 34.2999 108.043L33.1939 114.777C33.1845 114.87 33.1425 114.95 33.0679 115.015C33.0025 115.08 32.9232 115.113 32.8299 115.113H32.1999ZM50.0382 115.113C49.9448 115.113 49.8655 115.085 49.8002 115.029C49.7442 114.964 49.7162 114.884 49.7162 114.791V110.605C49.7162 109.858 49.5295 109.28 49.1562 108.869C48.7828 108.449 48.1808 108.239 47.3502 108.239H44.7182C44.6248 108.239 44.5455 108.211 44.4802 108.155C44.4242 108.09 44.3962 108.01 44.3962 107.917V107.441C44.3962 107.348 44.4242 107.273 44.4802 107.217C44.5455 107.152 44.6248 107.119 44.7182 107.119H47.4202C48.6335 107.119 49.5295 107.413 50.1082 108.001C50.6962 108.589 50.9902 109.443 50.9902 110.563V114.791C50.9902 114.884 50.9575 114.964 50.8922 115.029C50.8362 115.085 50.7615 115.113 50.6682 115.113H50.0382ZM44.7182 115.113C44.6248 115.113 44.5455 115.085 44.4802 115.029C44.4242 114.964 44.3962 114.884 44.3962 114.791V110.115C44.3962 110.022 44.4242 109.947 44.4802 109.891C44.5455 109.826 44.6248 109.793 44.7182 109.793H45.3482C45.4508 109.793 45.5302 109.826 45.5862 109.891C45.6422 109.947 45.6702 110.022 45.6702 110.115V114.791C45.6702 114.884 45.6422 114.964 45.5862 115.029C45.5302 115.085 45.4508 115.113 45.3482 115.113H44.7182ZM57.0401 114.063C57.6468 114.072 58.1555 113.96 58.5661 113.727C58.9861 113.494 59.3035 113.162 59.5181 112.733C59.7421 112.294 59.8541 111.795 59.8541 111.235V107.441C59.8541 107.348 59.8821 107.273 59.9381 107.217C60.0035 107.152 60.0828 107.119 60.1761 107.119H60.7501C60.8528 107.119 60.9321 107.152 60.9881 107.217C61.0441 107.273 61.0721 107.348 61.0721 107.441V111.333C61.0721 111.93 60.9788 112.472 60.7921 112.957C60.6055 113.433 60.3395 113.844 59.9941 114.189C59.6488 114.525 59.2381 114.782 58.7621 114.959C58.2955 115.136 57.7775 115.216 57.2081 115.197H56.1581C55.5515 115.197 55.0055 115.057 54.5201 114.777C54.0348 114.497 53.6521 114.105 53.3721 113.601C53.0921 113.097 52.9521 112.514 52.9521 111.851V107.441C52.9521 107.348 52.9801 107.273 53.0361 107.217C53.1015 107.152 53.1808 107.119 53.2741 107.119H53.8621C53.9555 107.119 54.0301 107.152 54.0861 107.217C54.1515 107.273 54.1841 107.348 54.1841 107.441L54.2261 111.571C54.2261 112.374 54.4501 112.99 54.8981 113.419C55.3461 113.848 55.9155 114.063 56.6061 114.063H57.0401ZM53.9321 112.425L53.9041 111.403C54.5948 111.394 55.1221 111.291 55.4861 111.095C55.8501 110.89 56.1021 110.619 56.2421 110.283C56.3915 109.947 56.4661 109.578 56.4661 109.177V107.441C56.4661 107.348 56.4941 107.273 56.5501 107.217C56.6061 107.152 56.6855 107.119 56.7881 107.119H57.3621C57.4555 107.119 57.5301 107.152 57.5861 107.217C57.6515 107.273 57.6841 107.348 57.6841 107.441V109.233C57.6841 109.84 57.5488 110.386 57.2781 110.871C57.0075 111.356 56.5921 111.739 56.0321 112.019C55.4815 112.299 54.7815 112.434 53.9321 112.425ZM63.3529 117.787C63.2596 117.787 63.1803 117.754 63.1149 117.689C63.0589 117.633 63.0309 117.558 63.0309 117.465V110.115C63.0309 110.022 63.0589 109.947 63.1149 109.891C63.1803 109.826 63.2596 109.793 63.3529 109.793H63.9689C64.0716 109.793 64.1509 109.826 64.2069 109.891C64.2629 109.947 64.2909 110.022 64.2909 110.115V117.465C64.2909 117.558 64.2629 117.633 64.2069 117.689C64.1509 117.754 64.0716 117.787 63.9689 117.787H63.3529ZM66.0409 115.239C65.9569 115.267 65.8776 115.253 65.8029 115.197C65.7376 115.15 65.7049 115.08 65.7049 114.987V114.343C65.7049 114.259 65.7283 114.184 65.7749 114.119C65.8309 114.054 65.9103 114.002 66.0129 113.965L66.5449 113.755C66.9183 113.606 67.2543 113.419 67.5529 113.195C67.8609 112.962 68.0989 112.649 68.2669 112.257C68.4443 111.865 68.5329 111.352 68.5329 110.717C68.5329 110.11 68.4583 109.63 68.3089 109.275C68.1596 108.911 67.9123 108.654 67.5669 108.505C67.2309 108.346 66.7736 108.267 66.1949 108.267H63.3529C63.2596 108.267 63.1803 108.239 63.1149 108.183C63.0589 108.118 63.0309 108.038 63.0309 107.945V107.441C63.0309 107.348 63.0589 107.273 63.1149 107.217C63.1803 107.152 63.2596 107.119 63.3529 107.119H66.3769C67.2356 107.119 67.9123 107.24 68.4069 107.483C68.9109 107.726 69.2703 108.118 69.4849 108.659C69.7089 109.191 69.8209 109.891 69.8209 110.759C69.8209 111.412 69.7323 111.977 69.5549 112.453C69.3776 112.929 69.1349 113.335 68.8269 113.671C68.5283 114.007 68.1876 114.287 67.8049 114.511C67.4316 114.726 67.0396 114.903 66.6289 115.043L66.0409 115.239ZM71.7806 115.113C71.6873 115.113 71.6079 115.085 71.5426 115.029C71.4866 114.964 71.4586 114.884 71.4586 114.791V114.315C71.4586 114.222 71.4866 114.147 71.5426 114.091C71.6079 114.026 71.6873 113.993 71.7806 113.993H75.7986V110.605C75.7986 109.858 75.6119 109.28 75.2386 108.869C74.8653 108.449 74.2633 108.239 73.4326 108.239H71.9206C71.8273 108.239 71.7479 108.211 71.6826 108.155C71.6266 108.09 71.5986 108.01 71.5986 107.917V107.441C71.5986 107.348 71.6266 107.273 71.6826 107.217C71.7479 107.152 71.8273 107.119 71.9206 107.119H73.5026C74.3053 107.119 74.9726 107.25 75.5046 107.511C76.0366 107.772 76.4333 108.16 76.6946 108.673C76.9653 109.177 77.1006 109.807 77.1006 110.563V113.993H77.6186C77.7119 113.993 77.7866 114.026 77.8426 114.091C77.9079 114.147 77.9406 114.222 77.9406 114.315V114.791C77.9406 114.884 77.9079 114.964 77.8426 115.029C77.7866 115.085 77.7119 115.113 77.6186 115.113H71.7806ZM83.2238 108.239C83.1304 108.239 83.0511 108.211 82.9858 108.155C82.9298 108.09 82.9018 108.01 82.9018 107.917V107.441C82.9018 107.348 82.9298 107.273 82.9858 107.217C83.0511 107.152 83.1304 107.119 83.2238 107.119H86.2618C87.0644 107.119 87.7271 107.25 88.2498 107.511C88.7818 107.763 89.1784 108.146 89.4398 108.659C89.7011 109.163 89.8318 109.788 89.8318 110.535V114.791C89.8318 114.884 89.7991 114.964 89.7338 115.029C89.6778 115.085 89.6031 115.113 89.5098 115.113H88.8798C88.7771 115.113 88.6978 115.085 88.6418 115.029C88.5858 114.964 88.5578 114.884 88.5578 114.791V110.605C88.5578 109.858 88.3664 109.28 87.9838 108.869C87.6104 108.449 87.0084 108.239 86.1778 108.239H83.2238ZM84.4838 107.553H84.8338C84.9738 107.553 85.0764 107.59 85.1418 107.665C85.2164 107.73 85.2491 107.814 85.2398 107.917C85.1651 108.309 85.0998 108.664 85.0438 108.981C84.9971 109.298 84.9644 109.616 84.9458 109.933C84.9271 110.241 84.9178 110.591 84.9178 110.983L84.9458 114.791C84.9458 114.884 84.9178 114.964 84.8618 115.029C84.8058 115.085 84.7311 115.113 84.6378 115.113L82.6498 115.085C82.5564 115.085 82.4771 115.057 82.4118 115.001C82.3558 114.945 82.3278 114.866 82.3278 114.763V114.315C82.3278 114.222 82.3558 114.147 82.4118 114.091C82.4771 114.026 82.5564 113.993 82.6498 113.993L83.7278 114.007V111.039C83.7278 110.656 83.7324 110.306 83.7418 109.989C83.7511 109.662 83.7791 109.336 83.8258 109.009C83.8724 108.682 83.9471 108.314 84.0498 107.903C84.0778 107.8 84.1198 107.716 84.1758 107.651C84.2411 107.586 84.3438 107.553 84.4838 107.553ZM93.0399 108.267V109.359C93.0493 109.695 93.0913 109.975 93.1659 110.199C93.2406 110.423 93.3853 110.563 93.5999 110.619L94.1179 110.759C94.1926 110.778 94.2486 110.829 94.2859 110.913C94.3326 110.988 94.3559 111.081 94.3559 111.193V111.543C94.3559 111.646 94.3046 111.72 94.2019 111.767C94.0993 111.814 93.9873 111.828 93.8659 111.809L93.3199 111.697C93.0213 111.622 92.7646 111.492 92.5499 111.305C92.3353 111.109 92.1719 110.848 92.0599 110.521C91.9573 110.185 91.9059 109.784 91.9059 109.317V107.441C91.9059 107.348 91.9339 107.273 91.9899 107.217C92.0459 107.152 92.1253 107.119 92.2279 107.119H94.8179C95.5179 107.119 96.1013 107.259 96.5679 107.539C97.0346 107.81 97.3893 108.206 97.6319 108.729C97.8746 109.242 98.0053 109.863 98.0239 110.591C98.0333 110.731 98.0379 110.908 98.0379 111.123C98.0379 111.328 98.0333 111.501 98.0239 111.641C98.0053 112.36 97.8746 112.98 97.6319 113.503C97.3893 114.026 97.0346 114.427 96.5679 114.707C96.1013 114.978 95.5179 115.113 94.8179 115.113H92.3959C92.3026 115.113 92.2233 115.085 92.1579 115.029C92.1019 114.964 92.0739 114.884 92.0739 114.791V114.287C92.0739 114.194 92.1019 114.119 92.1579 114.063C92.2233 113.998 92.3026 113.965 92.3959 113.965H94.7479C95.3919 113.965 95.8866 113.76 96.2319 113.349C96.5866 112.929 96.7826 112.346 96.8199 111.599C96.8293 111.459 96.8339 111.3 96.8339 111.123C96.8339 110.936 96.8293 110.773 96.8199 110.633C96.8013 109.886 96.6099 109.308 96.2459 108.897C95.8913 108.477 95.3919 108.267 94.7479 108.267H93.0399ZM103.251 115.253C102.084 115.253 101.216 114.95 100.647 114.343C100.077 113.736 99.7926 112.873 99.7926 111.753V107.441C99.7926 107.348 99.8206 107.273 99.8766 107.217C99.942 107.152 100.021 107.119 100.115 107.119H103.489C104.319 107.119 104.982 107.245 105.477 107.497C105.971 107.749 106.331 108.122 106.555 108.617C106.788 109.102 106.919 109.704 106.947 110.423C106.956 110.516 106.961 110.666 106.961 110.871C106.961 111.076 106.961 111.282 106.961 111.487C106.961 111.692 106.956 111.842 106.947 111.935C106.928 112.644 106.793 113.251 106.541 113.755C106.289 114.25 105.892 114.623 105.351 114.875C104.819 115.127 104.119 115.253 103.251 115.253ZM103.251 114.105C104.137 114.105 104.763 113.923 105.127 113.559C105.491 113.186 105.682 112.621 105.701 111.865C105.71 111.772 105.715 111.632 105.715 111.445C105.715 111.258 105.715 111.076 105.715 110.899C105.715 110.722 105.71 110.586 105.701 110.493C105.682 109.746 105.467 109.186 105.057 108.813C104.655 108.43 104.109 108.239 103.419 108.239H101.011V111.753C101.011 112.509 101.197 113.092 101.571 113.503C101.944 113.904 102.504 114.105 103.251 114.105ZM109.113 115.113C109.019 115.113 108.94 115.085 108.875 115.029C108.819 114.964 108.791 114.884 108.791 114.791V107.441C108.791 107.348 108.819 107.273 108.875 107.217C108.94 107.152 109.019 107.119 109.113 107.119H109.771C109.873 107.119 109.953 107.152 110.009 107.217C110.065 107.273 110.093 107.348 110.093 107.441V114.791C110.093 114.884 110.065 114.964 110.009 115.029C109.953 115.085 109.873 115.113 109.771 115.113H109.113ZM117.892 115.113C117.798 115.113 117.719 115.085 117.654 115.029C117.598 114.964 117.57 114.884 117.57 114.791V110.605C117.57 109.858 117.383 109.28 117.01 108.869C116.636 108.449 116.034 108.239 115.204 108.239H112.572C112.478 108.239 112.399 108.211 112.334 108.155C112.278 108.09 112.25 108.01 112.25 107.917V107.441C112.25 107.348 112.278 107.273 112.334 107.217C112.399 107.152 112.478 107.119 112.572 107.119H115.274C116.487 107.119 117.383 107.413 117.962 108.001C118.55 108.589 118.844 109.443 118.844 110.563V114.791C118.844 114.884 118.811 114.964 118.746 115.029C118.69 115.085 118.615 115.113 118.522 115.113H117.892ZM112.572 115.113C112.478 115.113 112.399 115.085 112.334 115.029C112.278 114.964 112.25 114.884 112.25 114.791V110.115C112.25 110.022 112.278 109.947 112.334 109.891C112.399 109.826 112.478 109.793 112.572 109.793H113.202C113.304 109.793 113.384 109.826 113.44 109.891C113.496 109.947 113.524 110.022 113.524 110.115V114.791C113.524 114.884 113.496 114.964 113.44 115.029C113.384 115.085 113.304 115.113 113.202 115.113H112.572ZM127.373 114.651C127.28 114.651 127.201 114.623 127.135 114.567C127.079 114.502 127.051 114.422 127.051 114.329V111.417H124.181C124.088 111.417 124.009 111.389 123.943 111.333C123.887 111.268 123.859 111.188 123.859 111.095V110.647C123.859 110.554 123.887 110.479 123.943 110.423C124.009 110.358 124.088 110.325 124.181 110.325H127.051V107.497C127.051 107.404 127.079 107.329 127.135 107.273C127.201 107.208 127.28 107.175 127.373 107.175H127.863C127.957 107.175 128.031 107.208 128.087 107.273C128.153 107.329 128.185 107.404 128.185 107.497V110.325H131.069C131.163 110.325 131.237 110.358 131.293 110.423C131.359 110.479 131.391 110.554 131.391 110.647V111.095C131.391 111.188 131.359 111.268 131.293 111.333C131.237 111.389 131.163 111.417 131.069 111.417H128.185V114.329C128.185 114.422 128.153 114.502 128.087 114.567C128.031 114.623 127.957 114.651 127.863 114.651H127.373Z" fill="#2F4B6F"/>
</svg>
