<svg width="133" height="424" viewBox="0 0 133 424" fill="none" xmlns="http://www.w3.org/2000/svg">
<path d="M62.3386 314.1C62.2453 314.1 62.1659 314.072 62.1006 314.016C62.0446 313.951 62.0166 313.871 62.0166 313.778V312.798C62.0166 312.705 62.0446 312.63 62.1006 312.574C62.1659 312.509 62.2453 312.476 62.3386 312.476H63.3326C63.4353 312.476 63.5146 312.509 63.5706 312.574C63.6359 312.63 63.6686 312.705 63.6686 312.798V313.778C63.6686 313.871 63.6359 313.951 63.5706 314.016C63.5146 314.072 63.4353 314.1 63.3326 314.1H62.3386ZM62.3386 319C62.2453 319 62.1659 318.972 62.1006 318.916C62.0446 318.851 62.0166 318.771 62.0166 318.678V317.698C62.0166 317.605 62.0446 317.53 62.1006 317.474C62.1659 317.409 62.2453 317.376 62.3386 317.376H63.3326C63.4353 317.376 63.5146 317.409 63.5706 317.474C63.6359 317.53 63.6686 317.605 63.6686 317.698V318.678C63.6686 318.771 63.6359 318.851 63.5706 318.916C63.5146 318.972 63.4353 319 63.3326 319H62.3386ZM66.0326 320.736C65.9393 320.736 65.86 320.703 65.7946 320.638C65.7386 320.582 65.7106 320.507 65.7106 320.414V311.328C65.7106 311.235 65.7386 311.16 65.7946 311.104C65.86 311.039 65.9393 311.006 66.0326 311.006H66.6626C66.7653 311.006 66.8446 311.039 66.9006 311.104C66.9566 311.16 66.9846 311.235 66.9846 311.328V320.414C66.9846 320.507 66.9566 320.582 66.9006 320.638C66.8446 320.703 66.7653 320.736 66.6626 320.736H66.0326ZM69.4643 319C69.3709 319 69.2916 318.972 69.2263 318.916C69.1703 318.851 69.1423 318.771 69.1423 318.678V311.328C69.1423 311.235 69.1703 311.16 69.2263 311.104C69.2916 311.039 69.3709 311.006 69.4643 311.006H70.1223C70.2249 311.006 70.3043 311.039 70.3603 311.104C70.4163 311.16 70.4443 311.235 70.4443 311.328V318.678C70.4443 318.771 70.4163 318.851 70.3603 318.916C70.3043 318.972 70.2249 319 70.1223 319H69.4643ZM73.7353 312.154V313.246C73.7446 313.582 73.7866 313.862 73.8613 314.086C73.9359 314.31 74.0806 314.45 74.2953 314.506L74.8133 314.646C74.8879 314.665 74.9439 314.716 74.9813 314.8C75.0279 314.875 75.0513 314.968 75.0513 315.08V315.43C75.0513 315.533 74.9999 315.607 74.8973 315.654C74.7946 315.701 74.6826 315.715 74.5613 315.696L74.0153 315.584C73.7166 315.509 73.4599 315.379 73.2453 315.192C73.0306 314.996 72.8673 314.735 72.7553 314.408C72.6526 314.072 72.6013 313.671 72.6013 313.204V311.328C72.6013 311.235 72.6293 311.16 72.6853 311.104C72.7413 311.039 72.8206 311.006 72.9233 311.006H75.5133C76.2133 311.006 76.7966 311.146 77.2633 311.426C77.7299 311.697 78.0846 312.093 78.3273 312.616C78.5699 313.129 78.7006 313.75 78.7193 314.478C78.7286 314.618 78.7333 314.795 78.7333 315.01C78.7333 315.215 78.7286 315.388 78.7193 315.528C78.7006 316.247 78.5699 316.867 78.3273 317.39C78.0846 317.913 77.7299 318.314 77.2633 318.594C76.7966 318.865 76.2133 319 75.5133 319H73.0913C72.9979 319 72.9186 318.972 72.8533 318.916C72.7973 318.851 72.7693 318.771 72.7693 318.678V318.174C72.7693 318.081 72.7973 318.006 72.8533 317.95C72.9186 317.885 72.9979 317.852 73.0913 317.852H75.4433C76.0873 317.852 76.5819 317.647 76.9273 317.236C77.2819 316.816 77.4779 316.233 77.5153 315.486C77.5246 315.346 77.5293 315.187 77.5293 315.01C77.5293 314.823 77.5246 314.66 77.5153 314.52C77.4966 313.773 77.3053 313.195 76.9413 312.784C76.5866 312.364 76.0873 312.154 75.4433 312.154H73.7353ZM82.1572 319.126C82.0732 319.154 81.9939 319.14 81.9192 319.084C81.8446 319.037 81.8072 318.967 81.8072 318.874V318.23C81.8072 318.146 81.8306 318.071 81.8772 318.006C81.9332 317.941 82.0126 317.889 82.1152 317.852L82.6612 317.642C83.0252 317.493 83.3566 317.306 83.6552 317.082C83.9632 316.849 84.2012 316.536 84.3692 316.144C84.5466 315.752 84.6352 315.239 84.6352 314.604C84.6352 313.997 84.5606 313.517 84.4112 313.162C84.2712 312.798 84.0286 312.541 83.6832 312.392C83.3472 312.233 82.8852 312.154 82.2972 312.154H81.8772C81.7839 312.154 81.7046 312.126 81.6392 312.07C81.5832 312.005 81.5552 311.925 81.5552 311.832V311.328C81.5552 311.235 81.5832 311.16 81.6392 311.104C81.7046 311.039 81.7839 311.006 81.8772 311.006H82.4932C83.3426 311.006 84.0192 311.127 84.5232 311.37C85.0272 311.613 85.3866 312.005 85.6012 312.546C85.8252 313.078 85.9372 313.778 85.9372 314.646C85.9372 315.299 85.8486 315.864 85.6712 316.34C85.4939 316.816 85.2512 317.222 84.9432 317.558C84.6446 317.894 84.3039 318.174 83.9212 318.398C83.5386 318.613 83.1419 318.79 82.7312 318.93L82.1572 319.126ZM82.1852 312.154L80.5192 312.14C80.4259 312.14 80.3466 312.112 80.2812 312.056C80.2252 312 80.1972 311.925 80.1972 311.832V309.382C80.1972 309.289 80.2252 309.214 80.2812 309.158C80.3466 309.093 80.4259 309.06 80.5192 309.06H81.1072C81.2006 309.06 81.2752 309.093 81.3312 309.158C81.3966 309.214 81.4292 309.289 81.4292 309.382V311.006H82.2132L82.1852 312.154ZM91.235 319.14C89.9844 319.14 89.0837 318.841 88.533 318.244C87.9824 317.637 87.707 316.793 87.707 315.71V311.328C87.707 311.235 87.735 311.16 87.791 311.104C87.8564 311.039 87.9357 311.006 88.029 311.006H88.603C88.7057 311.006 88.785 311.039 88.841 311.104C88.897 311.16 88.925 311.235 88.925 311.328V315.64C88.925 316.396 89.1164 316.979 89.499 317.39C89.8817 317.791 90.4604 317.992 91.235 317.992C92.0097 317.992 92.5744 317.805 92.929 317.432C93.293 317.059 93.4844 316.499 93.503 315.752C93.5124 315.659 93.5124 315.519 93.503 315.332C93.503 315.136 93.503 314.94 93.503 314.744C93.503 314.548 93.503 314.403 93.503 314.31C93.4844 313.535 93.3164 312.971 92.999 312.616C92.691 312.261 92.285 312.084 91.781 312.084C91.6224 312.084 91.4404 312.112 91.235 312.168C91.0297 312.224 90.857 312.299 90.717 312.392C90.633 312.439 90.5444 312.443 90.451 312.406C90.3577 312.359 90.311 312.285 90.311 312.182V311.748C90.311 311.655 90.3204 311.575 90.339 311.51C90.3577 311.435 90.409 311.37 90.493 311.314C90.6797 311.202 90.8804 311.113 91.095 311.048C91.3097 310.973 91.5944 310.936 91.949 310.936C92.5557 310.936 93.0644 311.053 93.475 311.286C93.8857 311.51 94.1984 311.86 94.413 312.336C94.6277 312.812 94.7444 313.423 94.763 314.17C94.7724 314.263 94.777 314.422 94.777 314.646C94.777 314.87 94.777 315.099 94.777 315.332C94.777 315.565 94.7724 315.729 94.763 315.822C94.7444 316.531 94.6137 317.138 94.371 317.642C94.1377 318.137 93.7644 318.51 93.251 318.762C92.747 319.014 92.075 319.14 91.235 319.14ZM104.221 319C104.128 319 104.048 318.972 103.983 318.916C103.927 318.851 103.899 318.771 103.899 318.678V314.492C103.899 313.745 103.712 313.167 103.339 312.756C102.966 312.336 102.364 312.126 101.533 312.126H99.6989C99.6056 312.126 99.5262 312.098 99.4609 312.042C99.4049 311.977 99.3769 311.897 99.3769 311.804V311.328C99.3769 311.235 99.4049 311.16 99.4609 311.104C99.5262 311.039 99.6056 311.006 99.6989 311.006H101.603C102.406 311.006 103.068 311.132 103.591 311.384C104.123 311.636 104.52 312.019 104.781 312.532C105.042 313.036 105.173 313.666 105.173 314.422V318.678C105.173 318.771 105.14 318.851 105.075 318.916C105.019 318.972 104.944 319 104.851 319H104.221ZM108.38 312.154V313.246C108.389 313.582 108.431 313.862 108.506 314.086C108.58 314.31 108.725 314.45 108.94 314.506L109.458 314.646C109.532 314.665 109.588 314.716 109.626 314.8C109.672 314.875 109.696 314.968 109.696 315.08V315.43C109.696 315.533 109.644 315.607 109.542 315.654C109.439 315.701 109.327 315.715 109.206 315.696L108.66 315.584C108.361 315.509 108.104 315.379 107.89 315.192C107.675 314.996 107.512 314.735 107.4 314.408C107.297 314.072 107.246 313.671 107.246 313.204V311.328C107.246 311.235 107.274 311.16 107.33 311.104C107.386 311.039 107.465 311.006 107.568 311.006H110.158C110.858 311.006 111.441 311.146 111.908 311.426C112.374 311.697 112.729 312.093 112.972 312.616C113.214 313.129 113.345 313.75 113.364 314.478C113.373 314.618 113.378 314.795 113.378 315.01C113.378 315.215 113.373 315.388 113.364 315.528C113.345 316.247 113.214 316.867 112.972 317.39C112.729 317.913 112.374 318.314 111.908 318.594C111.441 318.865 110.858 319 110.158 319H107.736C107.642 319 107.563 318.972 107.498 318.916C107.442 318.851 107.414 318.771 107.414 318.678V318.174C107.414 318.081 107.442 318.006 107.498 317.95C107.563 317.885 107.642 317.852 107.736 317.852H110.088C110.732 317.852 111.226 317.647 111.572 317.236C111.926 316.816 112.122 316.233 112.16 315.486C112.169 315.346 112.174 315.187 112.174 315.01C112.174 314.823 112.169 314.66 112.16 314.52C112.141 313.773 111.95 313.195 111.586 312.784C111.231 312.364 110.732 312.154 110.088 312.154H108.38ZM118.59 319.14C117.424 319.14 116.556 318.837 115.986 318.23C115.417 317.623 115.132 316.76 115.132 315.64V311.328C115.132 311.235 115.16 311.16 115.216 311.104C115.282 311.039 115.361 311.006 115.454 311.006H118.828C119.659 311.006 120.322 311.132 120.816 311.384C121.311 311.636 121.67 312.009 121.894 312.504C122.128 312.989 122.258 313.591 122.286 314.31C122.296 314.403 122.3 314.553 122.3 314.758C122.3 314.963 122.3 315.169 122.3 315.374C122.3 315.579 122.296 315.729 122.286 315.822C122.268 316.531 122.132 317.138 121.88 317.642C121.628 318.137 121.232 318.51 120.69 318.762C120.158 319.014 119.458 319.14 118.59 319.14ZM118.59 317.992C119.477 317.992 120.102 317.81 120.466 317.446C120.83 317.073 121.022 316.508 121.04 315.752C121.05 315.659 121.054 315.519 121.054 315.332C121.054 315.145 121.054 314.963 121.054 314.786C121.054 314.609 121.05 314.473 121.04 314.38C121.022 313.633 120.807 313.073 120.396 312.7C119.995 312.317 119.449 312.126 118.758 312.126H116.35V315.64C116.35 316.396 116.537 316.979 116.91 317.39C117.284 317.791 117.844 317.992 118.59 317.992ZM127.562 312.154H124.16C124.058 312.154 123.978 312.126 123.922 312.07C123.866 312.005 123.838 311.925 123.838 311.832V311.328C123.838 311.235 123.866 311.16 123.922 311.104C123.978 311.039 124.058 311.006 124.16 311.006H127.716C128.295 311.006 128.808 311.141 129.256 311.412C129.714 311.683 130.068 312.075 130.32 312.588C130.582 313.092 130.712 313.703 130.712 314.422V318.678C130.712 318.771 130.68 318.851 130.614 318.916C130.558 318.972 130.484 319 130.39 319H126.778C126.685 319 126.606 318.972 126.54 318.916C126.484 318.851 126.456 318.771 126.456 318.678V318.202C126.456 318.109 126.484 318.034 126.54 317.978C126.606 317.913 126.685 317.88 126.778 317.88H129.438V314.506C129.438 314.03 129.354 313.615 129.186 313.26C129.028 312.905 128.804 312.635 128.514 312.448C128.234 312.252 127.917 312.154 127.562 312.154ZM124.02 319C123.936 319 123.866 318.967 123.81 318.902C123.754 318.837 123.731 318.757 123.74 318.664L124.93 311.804C124.949 311.711 124.991 311.641 125.056 311.594C125.122 311.538 125.201 311.519 125.294 311.538L125.854 311.566C125.948 311.575 126.022 311.617 126.078 311.692C126.134 311.757 126.148 311.837 126.12 311.93L125.014 318.664C125.005 318.757 124.963 318.837 124.888 318.902C124.823 318.967 124.744 319 124.65 319H124.02Z" fill="#2F4B6F"/>
<path d="M90.9128 414.581C90.8195 414.581 90.7402 414.553 90.6748 414.497C90.6188 414.432 90.5908 414.353 90.5908 414.259V413.279C90.5908 413.186 90.6188 413.111 90.6748 413.055C90.7402 412.99 90.8195 412.957 90.9128 412.957H91.9068C92.0095 412.957 92.0888 412.99 92.1448 413.055C92.2102 413.111 92.2428 413.186 92.2428 413.279V414.259C92.2428 414.353 92.2102 414.432 92.1448 414.497C92.0888 414.553 92.0095 414.581 91.9068 414.581H90.9128ZM90.9128 419.481C90.8195 419.481 90.7402 419.453 90.6748 419.397C90.6188 419.332 90.5908 419.253 90.5908 419.159V418.179C90.5908 418.086 90.6188 418.011 90.6748 417.955C90.7402 417.89 90.8195 417.857 90.9128 417.857H91.9068C92.0095 417.857 92.0888 417.89 92.1448 417.955C92.2102 418.011 92.2428 418.086 92.2428 418.179V419.159C92.2428 419.253 92.2102 419.332 92.1448 419.397C92.0888 419.453 92.0095 419.481 91.9068 419.481H90.9128ZM99.9268 419.481C99.8335 419.481 99.7542 419.453 99.6888 419.397C99.6328 419.332 99.6048 419.253 99.6048 419.159V414.973C99.6048 414.227 99.4182 413.648 99.0448 413.237C98.6715 412.817 98.0695 412.607 97.2388 412.607H94.6068C94.5135 412.607 94.4342 412.579 94.3688 412.523C94.3128 412.458 94.2848 412.379 94.2848 412.285V411.809C94.2848 411.716 94.3128 411.641 94.3688 411.585C94.4342 411.52 94.5135 411.487 94.6068 411.487H97.3088C98.5222 411.487 99.4182 411.781 99.9968 412.369C100.585 412.957 100.879 413.811 100.879 414.931V419.159C100.879 419.253 100.846 419.332 100.781 419.397C100.725 419.453 100.65 419.481 100.557 419.481H99.9268ZM94.6068 419.481C94.5135 419.481 94.4342 419.453 94.3688 419.397C94.3128 419.332 94.2848 419.253 94.2848 419.159V414.483C94.2848 414.39 94.3128 414.315 94.3688 414.259C94.4342 414.194 94.5135 414.161 94.6068 414.161H95.2368C95.3395 414.161 95.4188 414.194 95.4748 414.259C95.5308 414.315 95.5588 414.39 95.5588 414.483V419.159C95.5588 419.253 95.5308 419.332 95.4748 419.397C95.4188 419.453 95.3395 419.481 95.2368 419.481H94.6068ZM106.453 412.635H103.051C102.948 412.635 102.869 412.607 102.813 412.551C102.757 412.486 102.729 412.407 102.729 412.313V411.809C102.729 411.716 102.757 411.641 102.813 411.585C102.869 411.52 102.948 411.487 103.051 411.487H106.607C107.185 411.487 107.699 411.623 108.147 411.893C108.604 412.164 108.959 412.556 109.211 413.069C109.472 413.573 109.603 414.185 109.603 414.903V419.159C109.603 419.253 109.57 419.332 109.505 419.397C109.449 419.453 109.374 419.481 109.281 419.481H105.669C105.575 419.481 105.496 419.453 105.431 419.397C105.375 419.332 105.347 419.253 105.347 419.159V418.683C105.347 418.59 105.375 418.515 105.431 418.459C105.496 418.394 105.575 418.361 105.669 418.361H108.329V414.987C108.329 414.511 108.245 414.096 108.077 413.741C107.918 413.387 107.694 413.116 107.405 412.929C107.125 412.733 106.807 412.635 106.453 412.635ZM102.911 419.481C102.827 419.481 102.757 419.449 102.701 419.383C102.645 419.318 102.621 419.239 102.631 419.145L103.821 412.285C103.839 412.192 103.881 412.122 103.947 412.075C104.012 412.019 104.091 412.001 104.185 412.019L104.745 412.047C104.838 412.057 104.913 412.099 104.969 412.173C105.025 412.239 105.039 412.318 105.011 412.411L103.905 419.145C103.895 419.239 103.853 419.318 103.779 419.383C103.713 419.449 103.634 419.481 103.541 419.481H102.911ZM115.049 419.621C113.883 419.621 113.015 419.318 112.445 418.711C111.876 418.105 111.591 417.241 111.591 416.121V411.809C111.591 411.716 111.619 411.641 111.675 411.585C111.741 411.52 111.82 411.487 111.913 411.487H115.287C116.118 411.487 116.781 411.613 117.275 411.865C117.77 412.117 118.129 412.491 118.353 412.985C118.587 413.471 118.717 414.073 118.745 414.791C118.755 414.885 118.759 415.034 118.759 415.239C118.759 415.445 118.759 415.65 118.759 415.855C118.759 416.061 118.755 416.21 118.745 416.303C118.727 417.013 118.591 417.619 118.339 418.123C118.087 418.618 117.691 418.991 117.149 419.243C116.617 419.495 115.917 419.621 115.049 419.621ZM115.049 418.473C115.936 418.473 116.561 418.291 116.925 417.927C117.289 417.554 117.481 416.989 117.499 416.233C117.509 416.14 117.513 416 117.513 415.813C117.513 415.627 117.513 415.445 117.513 415.267C117.513 415.09 117.509 414.955 117.499 414.861C117.481 414.115 117.266 413.555 116.855 413.181C116.454 412.799 115.908 412.607 115.217 412.607H112.809V416.121C112.809 416.877 112.996 417.461 113.369 417.871C113.743 418.273 114.303 418.473 115.049 418.473ZM120.814 416.233C120.72 416.233 120.641 416.205 120.576 416.149C120.52 416.084 120.492 416.005 120.492 415.911V411.809C120.492 411.716 120.52 411.641 120.576 411.585C120.641 411.52 120.72 411.487 120.814 411.487H121.472C121.574 411.487 121.654 411.52 121.71 411.585C121.766 411.641 121.794 411.716 121.794 411.809V415.911C121.794 416.005 121.766 416.084 121.71 416.149C121.654 416.205 121.574 416.233 121.472 416.233H120.814ZM127.245 419.621C126.078 419.621 125.21 419.318 124.641 418.711C124.071 418.105 123.787 417.241 123.787 416.121V411.809C123.787 411.716 123.815 411.641 123.871 411.585C123.936 411.52 124.015 411.487 124.109 411.487H127.483C128.313 411.487 128.976 411.613 129.471 411.865C129.965 412.117 130.325 412.491 130.549 412.985C130.782 413.471 130.913 414.073 130.941 414.791C130.95 414.885 130.955 415.034 130.955 415.239C130.955 415.445 130.955 415.65 130.955 415.855C130.955 416.061 130.95 416.21 130.941 416.303C130.922 417.013 130.787 417.619 130.535 418.123C130.283 418.618 129.886 418.991 129.345 419.243C128.813 419.495 128.113 419.621 127.245 419.621ZM127.245 418.473C128.131 418.473 128.757 418.291 129.121 417.927C129.485 417.554 129.676 416.989 129.695 416.233C129.704 416.14 129.709 416 129.709 415.813C129.709 415.627 129.709 415.445 129.709 415.267C129.709 415.09 129.704 414.955 129.695 414.861C129.676 414.115 129.461 413.555 129.051 413.181C128.649 412.799 128.103 412.607 127.413 412.607H125.005V416.121C125.005 416.877 125.191 417.461 125.565 417.871C125.938 418.273 126.498 418.473 127.245 418.473Z" fill="#2F4B6F"/>
<path d="M80.9032 8.1C80.8099 8.1 80.7306 8.072 80.6652 8.016C80.6092 7.95067 80.5812 7.87133 80.5812 7.778V6.798C80.5812 6.70467 80.6092 6.63 80.6652 6.574C80.7306 6.50867 80.8099 6.476 80.9032 6.476H81.8972C81.9999 6.476 82.0792 6.50867 82.1352 6.574C82.2006 6.63 82.2332 6.70467 82.2332 6.798V7.778C82.2332 7.87133 82.2006 7.95067 82.1352 8.016C82.0792 8.072 81.9999 8.1 81.8972 8.1H80.9032ZM80.9032 13C80.8099 13 80.7306 12.972 80.6652 12.916C80.6092 12.8507 80.5812 12.7713 80.5812 12.678V11.698C80.5812 11.6047 80.6092 11.53 80.6652 11.474C80.7306 11.4087 80.8099 11.376 80.9032 11.376H81.8972C81.9999 11.376 82.0792 11.4087 82.1352 11.474C82.2006 11.53 82.2332 11.6047 82.2332 11.698V12.678C82.2332 12.7713 82.2006 12.8507 82.1352 12.916C82.0792 12.972 81.9999 13 81.8972 13H80.9032ZM84.4993 9.752C84.4059 9.752 84.3266 9.724 84.2613 9.668C84.2053 9.60267 84.1773 9.52333 84.1773 9.43V5.328C84.1773 5.23467 84.2053 5.16 84.2613 5.104C84.3266 5.03867 84.4059 5.006 84.4993 5.006H85.1573C85.2599 5.006 85.3393 5.03867 85.3953 5.104C85.4513 5.16 85.4793 5.23467 85.4793 5.328V9.43C85.4793 9.52333 85.4513 9.60267 85.3953 9.668C85.3393 9.724 85.2599 9.752 85.1573 9.752H84.4993ZM91.0145 13.14C89.7638 13.14 88.8632 12.8413 88.3125 12.244C87.7618 11.6373 87.4865 10.7927 87.4865 9.71V5.328C87.4865 5.23467 87.5145 5.16 87.5705 5.104C87.6358 5.03867 87.7152 5.006 87.8085 5.006H88.3825C88.4852 5.006 88.5645 5.03867 88.6205 5.104C88.6765 5.16 88.7045 5.23467 88.7045 5.328V9.64C88.7045 10.396 88.8958 10.9793 89.2785 11.39C89.6612 11.7913 90.2398 11.992 91.0145 11.992C91.7892 11.992 92.3538 11.8053 92.7085 11.432C93.0725 11.0587 93.2638 10.4987 93.2825 9.752C93.2918 9.65867 93.2918 9.51867 93.2825 9.332C93.2825 9.136 93.2825 8.94 93.2825 8.744C93.2825 8.548 93.2825 8.40333 93.2825 8.31C93.2638 7.53533 93.0958 6.97067 92.7785 6.616C92.4705 6.26133 92.0645 6.084 91.5605 6.084C91.4018 6.084 91.2198 6.112 91.0145 6.168C90.8092 6.224 90.6365 6.29867 90.4965 6.392C90.4125 6.43867 90.3238 6.44333 90.2305 6.406C90.1372 6.35933 90.0905 6.28467 90.0905 6.182V5.748C90.0905 5.65467 90.0998 5.57533 90.1185 5.51C90.1372 5.43533 90.1885 5.37 90.2725 5.314C90.4592 5.202 90.6598 5.11333 90.8745 5.048C91.0892 4.97333 91.3738 4.936 91.7285 4.936C92.3352 4.936 92.8438 5.05267 93.2545 5.286C93.6652 5.51 93.9778 5.86 94.1925 6.336C94.4072 6.812 94.5238 7.42333 94.5425 8.17C94.5518 8.26333 94.5565 8.422 94.5565 8.646C94.5565 8.87 94.5565 9.09867 94.5565 9.332C94.5565 9.56533 94.5518 9.72867 94.5425 9.822C94.5238 10.5313 94.3932 11.138 94.1505 11.642C93.9172 12.1367 93.5438 12.51 93.0305 12.762C92.5265 13.014 91.8545 13.14 91.0145 13.14ZM100.774 13C100.68 13 100.601 12.972 100.536 12.916C100.48 12.8507 100.452 12.7713 100.452 12.678V8.492C100.452 7.74533 100.265 7.16667 99.8918 6.756C99.5185 6.336 98.9165 6.126 98.0858 6.126H96.2518C96.1585 6.126 96.0792 6.098 96.0138 6.042C95.9578 5.97667 95.9298 5.89733 95.9298 5.804V5.328C95.9298 5.23467 95.9578 5.16 96.0138 5.104C96.0792 5.03867 96.1585 5.006 96.2518 5.006H98.1558C98.9585 5.006 99.6212 5.132 100.144 5.384C100.676 5.636 101.072 6.01867 101.334 6.532C101.595 7.036 101.726 7.666 101.726 8.422V12.678C101.726 12.7713 101.693 12.8507 101.628 12.916C101.572 12.972 101.497 13 101.404 13H100.774ZM104.933 6.154V7.246C104.942 7.582 104.984 7.862 105.059 8.086C105.133 8.31 105.278 8.45 105.493 8.506L106.011 8.646C106.085 8.66467 106.141 8.716 106.179 8.8C106.225 8.87467 106.249 8.968 106.249 9.08V9.43C106.249 9.53267 106.197 9.60733 106.095 9.654C105.992 9.70067 105.88 9.71467 105.759 9.696L105.213 9.584C104.914 9.50933 104.657 9.37867 104.443 9.192C104.228 8.996 104.065 8.73467 103.953 8.408C103.85 8.072 103.799 7.67067 103.799 7.204V5.328C103.799 5.23467 103.827 5.16 103.883 5.104C103.939 5.03867 104.018 5.006 104.121 5.006H106.711C107.411 5.006 107.994 5.146 108.461 5.426C108.927 5.69667 109.282 6.09333 109.525 6.616C109.767 7.12933 109.898 7.75 109.917 8.478C109.926 8.618 109.931 8.79533 109.931 9.01C109.931 9.21533 109.926 9.388 109.917 9.528C109.898 10.2467 109.767 10.8673 109.525 11.39C109.282 11.9127 108.927 12.314 108.461 12.594C107.994 12.8647 107.411 13 106.711 13H104.289C104.195 13 104.116 12.972 104.051 12.916C103.995 12.8507 103.967 12.7713 103.967 12.678V12.174C103.967 12.0807 103.995 12.006 104.051 11.95C104.116 11.8847 104.195 11.852 104.289 11.852H106.641C107.285 11.852 107.779 11.6467 108.125 11.236C108.479 10.816 108.675 10.2327 108.713 9.486C108.722 9.346 108.727 9.18733 108.727 9.01C108.727 8.82333 108.722 8.66 108.713 8.52C108.694 7.77333 108.503 7.19467 108.139 6.784C107.784 6.364 107.285 6.154 106.641 6.154H104.933ZM115.523 13C115.43 13 115.35 12.972 115.285 12.916C115.229 12.8507 115.201 12.7713 115.201 12.678V5.328C115.201 5.23467 115.229 5.16 115.285 5.104C115.35 5.03867 115.43 5.006 115.523 5.006H118.197C119 5.006 119.662 5.13667 120.185 5.398C120.708 5.65 121.095 6.028 121.347 6.532C121.608 7.036 121.739 7.666 121.739 8.422V12.678C121.739 12.7713 121.711 12.8507 121.655 12.916C121.599 12.972 121.52 13 121.417 13H115.523ZM116.405 11.88H120.493V8.492C120.493 7.74533 120.306 7.16667 119.933 6.756C119.56 6.336 118.958 6.126 118.127 6.126H116.405V11.88ZM127.79 11.95C128.397 11.9593 128.906 11.8473 129.316 11.614C129.736 11.3807 130.054 11.0493 130.268 10.62C130.492 10.1813 130.604 9.682 130.604 9.122V5.328C130.604 5.23467 130.632 5.16 130.688 5.104C130.754 5.03867 130.833 5.006 130.926 5.006H131.5C131.603 5.006 131.682 5.03867 131.738 5.104C131.794 5.16 131.822 5.23467 131.822 5.328V9.22C131.822 9.81733 131.729 10.3587 131.542 10.844C131.356 11.32 131.09 11.7307 130.744 12.076C130.399 12.412 129.988 12.6687 129.512 12.846C129.046 13.0233 128.528 13.1027 127.958 13.084H126.908C126.302 13.084 125.756 12.944 125.27 12.664C124.785 12.384 124.402 11.992 124.122 11.488C123.842 10.984 123.702 10.4007 123.702 9.738V5.328C123.702 5.23467 123.73 5.16 123.786 5.104C123.852 5.03867 123.931 5.006 124.024 5.006H124.612C124.706 5.006 124.78 5.03867 124.836 5.104C124.902 5.16 124.934 5.23467 124.934 5.328L124.976 9.458C124.976 10.2607 125.2 10.8767 125.648 11.306C126.096 11.7353 126.666 11.95 127.356 11.95H127.79ZM124.682 10.312L124.654 9.29C125.345 9.28067 125.872 9.178 126.236 8.982C126.6 8.77667 126.852 8.506 126.992 8.17C127.142 7.834 127.216 7.46533 127.216 7.064V5.328C127.216 5.23467 127.244 5.16 127.3 5.104C127.356 5.03867 127.436 5.006 127.538 5.006H128.112C128.206 5.006 128.28 5.03867 128.336 5.104C128.402 5.16 128.434 5.23467 128.434 5.328V7.12C128.434 7.72667 128.299 8.27267 128.028 8.758C127.758 9.24333 127.342 9.626 126.782 9.906C126.232 10.186 125.532 10.3213 124.682 10.312Z" fill="#2F4B6F"/>
<path d="M85.3857 109.1C85.2923 109.1 85.213 109.072 85.1477 109.016C85.0917 108.951 85.0637 108.871 85.0637 108.778V107.798C85.0637 107.705 85.0917 107.63 85.1477 107.574C85.213 107.509 85.2923 107.476 85.3857 107.476H86.3797C86.4823 107.476 86.5617 107.509 86.6177 107.574C86.683 107.63 86.7157 107.705 86.7157 107.798V108.778C86.7157 108.871 86.683 108.951 86.6177 109.016C86.5617 109.072 86.4823 109.1 86.3797 109.1H85.3857ZM85.3857 114C85.2923 114 85.213 113.972 85.1477 113.916C85.0917 113.851 85.0637 113.771 85.0637 113.678V112.698C85.0637 112.605 85.0917 112.53 85.1477 112.474C85.213 112.409 85.2923 112.376 85.3857 112.376H86.3797C86.4823 112.376 86.5617 112.409 86.6177 112.474C86.683 112.53 86.7157 112.605 86.7157 112.698V113.678C86.7157 113.771 86.683 113.851 86.6177 113.916C86.5617 113.972 86.4823 114 86.3797 114H85.3857ZM94.3997 114C94.3064 114 94.227 113.972 94.1617 113.916C94.1057 113.851 94.0777 113.771 94.0777 113.678V109.492C94.0777 108.745 93.891 108.167 93.5177 107.756C93.1444 107.336 92.5424 107.126 91.7117 107.126H89.0797C88.9864 107.126 88.907 107.098 88.8417 107.042C88.7857 106.977 88.7577 106.897 88.7577 106.804V106.328C88.7577 106.235 88.7857 106.16 88.8417 106.104C88.907 106.039 88.9864 106.006 89.0797 106.006H91.7817C92.995 106.006 93.891 106.3 94.4697 106.888C95.0577 107.476 95.3517 108.33 95.3517 109.45V113.678C95.3517 113.771 95.319 113.851 95.2537 113.916C95.1977 113.972 95.123 114 95.0297 114H94.3997ZM89.0797 114C88.9864 114 88.907 113.972 88.8417 113.916C88.7857 113.851 88.7577 113.771 88.7577 113.678V109.002C88.7577 108.909 88.7857 108.834 88.8417 108.778C88.907 108.713 88.9864 108.68 89.0797 108.68H89.7097C89.8124 108.68 89.8917 108.713 89.9477 108.778C90.0037 108.834 90.0317 108.909 90.0317 109.002V113.678C90.0317 113.771 90.0037 113.851 89.9477 113.916C89.8917 113.972 89.8124 114 89.7097 114H89.0797ZM97.7477 114C97.6543 114 97.575 113.972 97.5097 113.916C97.4537 113.851 97.4257 113.771 97.4257 113.678V106.328C97.4257 106.235 97.4537 106.16 97.5097 106.104C97.575 106.039 97.6543 106.006 97.7477 106.006H100.464C101.276 106.006 101.943 106.137 102.466 106.398C102.998 106.65 103.394 107.033 103.656 107.546C103.917 108.05 104.048 108.685 104.048 109.45V113.678C104.048 113.771 104.015 113.851 103.95 113.916C103.894 113.972 103.819 114 103.726 114H103.096C102.993 114 102.914 113.972 102.858 113.916C102.802 113.851 102.774 113.771 102.774 113.678V109.492C102.774 108.745 102.587 108.167 102.214 107.756C101.84 107.336 101.234 107.126 100.394 107.126H98.6997V113.678C98.6997 113.771 98.6717 113.851 98.6157 113.916C98.5597 113.972 98.4803 114 98.3777 114H97.7477ZM107.255 107.154V108.246C107.264 108.582 107.306 108.862 107.381 109.086C107.456 109.31 107.6 109.45 107.815 109.506L108.333 109.646C108.408 109.665 108.464 109.716 108.501 109.8C108.548 109.875 108.571 109.968 108.571 110.08V110.43C108.571 110.533 108.52 110.607 108.417 110.654C108.314 110.701 108.202 110.715 108.081 110.696L107.535 110.584C107.236 110.509 106.98 110.379 106.765 110.192C106.55 109.996 106.387 109.735 106.275 109.408C106.172 109.072 106.121 108.671 106.121 108.204V106.328C106.121 106.235 106.149 106.16 106.205 106.104C106.261 106.039 106.34 106.006 106.443 106.006H109.033C109.733 106.006 110.316 106.146 110.783 106.426C111.25 106.697 111.604 107.093 111.847 107.616C112.09 108.129 112.22 108.75 112.239 109.478C112.248 109.618 112.253 109.795 112.253 110.01C112.253 110.215 112.248 110.388 112.239 110.528C112.22 111.247 112.09 111.867 111.847 112.39C111.604 112.913 111.25 113.314 110.783 113.594C110.316 113.865 109.733 114 109.033 114H106.611C106.518 114 106.438 113.972 106.373 113.916C106.317 113.851 106.289 113.771 106.289 113.678V113.174C106.289 113.081 106.317 113.006 106.373 112.95C106.438 112.885 106.518 112.852 106.611 112.852H108.963C109.607 112.852 110.102 112.647 110.447 112.236C110.802 111.816 110.998 111.233 111.035 110.486C111.044 110.346 111.049 110.187 111.049 110.01C111.049 109.823 111.044 109.66 111.035 109.52C111.016 108.773 110.825 108.195 110.461 107.784C110.106 107.364 109.607 107.154 108.963 107.154H107.255ZM118.068 112.95C118.674 112.959 119.183 112.847 119.594 112.614C120.014 112.381 120.331 112.049 120.546 111.62C120.77 111.181 120.882 110.682 120.882 110.122V106.328C120.882 106.235 120.91 106.16 120.966 106.104C121.031 106.039 121.11 106.006 121.204 106.006H121.778C121.88 106.006 121.96 106.039 122.016 106.104C122.072 106.16 122.1 106.235 122.1 106.328V110.22C122.1 110.817 122.006 111.359 121.82 111.844C121.633 112.32 121.367 112.731 121.022 113.076C120.676 113.412 120.266 113.669 119.79 113.846C119.323 114.023 118.805 114.103 118.236 114.084H117.186C116.579 114.084 116.033 113.944 115.548 113.664C115.062 113.384 114.68 112.992 114.4 112.488C114.12 111.984 113.98 111.401 113.98 110.738V106.328C113.98 106.235 114.008 106.16 114.064 106.104C114.129 106.039 114.208 106.006 114.302 106.006H114.89C114.983 106.006 115.058 106.039 115.114 106.104C115.179 106.16 115.212 106.235 115.212 106.328L115.254 110.458C115.254 111.261 115.478 111.877 115.926 112.306C116.374 112.735 116.943 112.95 117.634 112.95H118.068ZM114.96 111.312L114.932 110.29C115.622 110.281 116.15 110.178 116.514 109.982C116.878 109.777 117.13 109.506 117.27 109.17C117.419 108.834 117.494 108.465 117.494 108.064V106.328C117.494 106.235 117.522 106.16 117.578 106.104C117.634 106.039 117.713 106.006 117.816 106.006H118.39C118.483 106.006 118.558 106.039 118.614 106.104C118.679 106.16 118.712 106.235 118.712 106.328V108.12C118.712 108.727 118.576 109.273 118.306 109.758C118.035 110.243 117.62 110.626 117.06 110.906C116.509 111.186 115.809 111.321 114.96 111.312ZM127.558 107.154H124.156C124.054 107.154 123.974 107.126 123.918 107.07C123.862 107.005 123.834 106.925 123.834 106.832V106.328C123.834 106.235 123.862 106.16 123.918 106.104C123.974 106.039 124.054 106.006 124.156 106.006H127.712C128.291 106.006 128.804 106.141 129.252 106.412C129.71 106.683 130.064 107.075 130.316 107.588C130.578 108.092 130.708 108.703 130.708 109.422V113.678C130.708 113.771 130.676 113.851 130.61 113.916C130.554 113.972 130.48 114 130.386 114H126.774C126.681 114 126.602 113.972 126.536 113.916C126.48 113.851 126.452 113.771 126.452 113.678V113.202C126.452 113.109 126.48 113.034 126.536 112.978C126.602 112.913 126.681 112.88 126.774 112.88H129.434V109.506C129.434 109.03 129.35 108.615 129.182 108.26C129.024 107.905 128.8 107.635 128.51 107.448C128.23 107.252 127.913 107.154 127.558 107.154ZM124.016 114C123.932 114 123.862 113.967 123.806 113.902C123.75 113.837 123.727 113.757 123.736 113.664L124.926 106.804C124.945 106.711 124.987 106.641 125.052 106.594C125.118 106.538 125.197 106.519 125.29 106.538L125.85 106.566C125.944 106.575 126.018 106.617 126.074 106.692C126.13 106.757 126.144 106.837 126.116 106.93L125.01 113.664C125.001 113.757 124.959 113.837 124.884 113.902C124.819 113.967 124.74 114 124.646 114H124.016Z" fill="#2F4B6F"/>
<path d="M96.3073 211.1C96.214 211.1 96.1347 211.072 96.0693 211.016C96.0133 210.951 95.9853 210.871 95.9853 210.778V209.798C95.9853 209.705 96.0133 209.63 96.0693 209.574C96.1347 209.509 96.214 209.476 96.3073 209.476H97.3013C97.404 209.476 97.4833 209.509 97.5393 209.574C97.6047 209.63 97.6373 209.705 97.6373 209.798V210.778C97.6373 210.871 97.6047 210.951 97.5393 211.016C97.4833 211.072 97.404 211.1 97.3013 211.1H96.3073ZM96.3073 216C96.214 216 96.1347 215.972 96.0693 215.916C96.0133 215.851 95.9853 215.771 95.9853 215.678V214.698C95.9853 214.605 96.0133 214.53 96.0693 214.474C96.1347 214.409 96.214 214.376 96.3073 214.376H97.3013C97.404 214.376 97.4833 214.409 97.5393 214.474C97.6047 214.53 97.6373 214.605 97.6373 214.698V215.678C97.6373 215.771 97.6047 215.851 97.5393 215.916C97.4833 215.972 97.404 216 97.3013 216H96.3073ZM101.032 216.126C100.948 216.154 100.869 216.14 100.794 216.084C100.72 216.037 100.682 215.967 100.682 215.874V215.23C100.682 215.146 100.706 215.071 100.752 215.006C100.808 214.941 100.888 214.889 100.99 214.852L101.536 214.642C101.9 214.493 102.232 214.306 102.53 214.082C102.838 213.849 103.076 213.536 103.244 213.144C103.422 212.752 103.51 212.239 103.51 211.604C103.51 210.997 103.436 210.517 103.286 210.162C103.146 209.798 102.904 209.541 102.558 209.392C102.222 209.233 101.76 209.154 101.172 209.154H100.752C100.659 209.154 100.58 209.126 100.514 209.07C100.458 209.005 100.43 208.925 100.43 208.832V208.328C100.43 208.235 100.458 208.16 100.514 208.104C100.58 208.039 100.659 208.006 100.752 208.006H101.368C102.218 208.006 102.894 208.127 103.398 208.37C103.902 208.613 104.262 209.005 104.476 209.546C104.7 210.078 104.812 210.778 104.812 211.646C104.812 212.299 104.724 212.864 104.546 213.34C104.369 213.816 104.126 214.222 103.818 214.558C103.52 214.894 103.179 215.174 102.796 215.398C102.414 215.613 102.017 215.79 101.606 215.93L101.032 216.126ZM101.06 209.154L99.3942 209.14C99.3009 209.14 99.2216 209.112 99.1562 209.056C99.1002 209 99.0722 208.925 99.0722 208.832V206.382C99.0722 206.289 99.1002 206.214 99.1562 206.158C99.2216 206.093 99.3009 206.06 99.3942 206.06H99.9822C100.076 206.06 100.15 206.093 100.206 206.158C100.272 206.214 100.304 206.289 100.304 206.382V208.006H101.088L101.06 209.154ZM106.876 212.752C106.783 212.752 106.703 212.724 106.638 212.668C106.582 212.603 106.554 212.523 106.554 212.43V208.328C106.554 208.235 106.582 208.16 106.638 208.104C106.703 208.039 106.783 208.006 106.876 208.006H107.534C107.637 208.006 107.716 208.039 107.772 208.104C107.828 208.16 107.856 208.235 107.856 208.328V212.43C107.856 212.523 107.828 212.603 107.772 212.668C107.716 212.724 107.637 212.752 107.534 212.752H106.876ZM110.157 212.752C110.064 212.752 109.985 212.724 109.919 212.668C109.863 212.603 109.835 212.523 109.835 212.43V208.328C109.835 208.235 109.863 208.16 109.919 208.104C109.985 208.039 110.064 208.006 110.157 208.006H110.815C110.918 208.006 110.997 208.039 111.053 208.104C111.109 208.16 111.137 208.235 111.137 208.328V212.43C111.137 212.523 111.109 212.603 111.053 212.668C110.997 212.724 110.918 212.752 110.815 212.752H110.157ZM116.715 209.154H113.313C113.21 209.154 113.131 209.126 113.075 209.07C113.019 209.005 112.991 208.925 112.991 208.832V208.328C112.991 208.235 113.019 208.16 113.075 208.104C113.131 208.039 113.21 208.006 113.313 208.006H116.869C117.447 208.006 117.961 208.141 118.409 208.412C118.866 208.683 119.221 209.075 119.473 209.588C119.734 210.092 119.865 210.703 119.865 211.422V215.678C119.865 215.771 119.832 215.851 119.767 215.916C119.711 215.972 119.636 216 119.543 216H115.931C115.837 216 115.758 215.972 115.693 215.916C115.637 215.851 115.609 215.771 115.609 215.678V215.202C115.609 215.109 115.637 215.034 115.693 214.978C115.758 214.913 115.837 214.88 115.931 214.88H118.591V211.506C118.591 211.03 118.507 210.615 118.339 210.26C118.18 209.905 117.956 209.635 117.667 209.448C117.387 209.252 117.069 209.154 116.715 209.154ZM113.173 216C113.089 216 113.019 215.967 112.963 215.902C112.907 215.837 112.883 215.757 112.893 215.664L114.083 208.804C114.101 208.711 114.143 208.641 114.209 208.594C114.274 208.538 114.353 208.519 114.447 208.538L115.007 208.566C115.1 208.575 115.175 208.617 115.231 208.692C115.287 208.757 115.301 208.837 115.273 208.93L114.167 215.664C114.157 215.757 114.115 215.837 114.041 215.902C113.975 215.967 113.896 216 113.803 216H113.173ZM122.161 212.752C122.068 212.752 121.989 212.724 121.923 212.668C121.867 212.603 121.839 212.523 121.839 212.43V208.328C121.839 208.235 121.867 208.16 121.923 208.104C121.989 208.039 122.068 208.006 122.161 208.006H122.819C122.922 208.006 123.001 208.039 123.057 208.104C123.113 208.16 123.141 208.235 123.141 208.328V212.43C123.141 212.523 123.113 212.603 123.057 212.668C123.001 212.724 122.922 212.752 122.819 212.752H122.161ZM130.664 216C130.562 216 130.482 215.972 130.426 215.916C130.37 215.86 130.319 215.813 130.272 215.776L125.134 208.552C125.069 208.449 125.036 208.361 125.036 208.286C125.036 208.211 125.064 208.146 125.12 208.09C125.186 208.034 125.256 208.006 125.33 208.006H125.974C126.086 208.006 126.17 208.034 126.226 208.09C126.292 208.146 126.343 208.197 126.38 208.244L131.532 215.454C131.57 215.519 131.593 215.571 131.602 215.608C131.621 215.645 131.63 215.683 131.63 215.72C131.63 215.795 131.602 215.86 131.546 215.916C131.49 215.972 131.42 216 131.336 216H130.664ZM125.204 216C125.111 216 125.032 215.972 124.966 215.916C124.91 215.851 124.882 215.771 124.882 215.678V213.578C124.882 213.149 124.924 212.743 125.008 212.36C125.092 211.968 125.256 211.599 125.498 211.254C125.75 210.899 126.124 210.568 126.618 210.26L127.262 211.198C126.926 211.413 126.674 211.66 126.506 211.94C126.338 212.211 126.226 212.495 126.17 212.794C126.114 213.083 126.086 213.363 126.086 213.634V215.678C126.086 215.771 126.054 215.851 125.988 215.916C125.932 215.972 125.858 216 125.764 216H125.204ZM129.544 213.438L128.97 212.472C129.428 212.257 129.75 212.033 129.936 211.8C130.132 211.567 130.249 211.324 130.286 211.072C130.324 210.811 130.342 210.54 130.342 210.26V208.328C130.342 208.235 130.37 208.16 130.426 208.104C130.492 208.039 130.571 208.006 130.664 208.006H131.252C131.346 208.006 131.42 208.039 131.476 208.104C131.542 208.16 131.574 208.235 131.574 208.328V210.33C131.574 210.722 131.528 211.1 131.434 211.464C131.341 211.828 131.15 212.173 130.86 212.5C130.58 212.827 130.142 213.139 129.544 213.438Z" fill="#2F4B6F"/>
</svg>
