<svg width="133" height="424" viewBox="0 0 133 424" fill="none" xmlns="http://www.w3.org/2000/svg">
<path d="M62.8386 313.732C62.7453 313.732 62.6659 313.704 62.6006 313.648C62.5446 313.582 62.5166 313.503 62.5166 313.41V312.43C62.5166 312.336 62.5446 312.262 62.6006 312.206C62.6659 312.14 62.7453 312.108 62.8386 312.108H63.8326C63.9353 312.108 64.0146 312.14 64.0706 312.206C64.1359 312.262 64.1686 312.336 64.1686 312.43V313.41C64.1686 313.503 64.1359 313.582 64.0706 313.648C64.0146 313.704 63.9353 313.732 63.8326 313.732H62.8386ZM62.8386 318.632C62.7453 318.632 62.6659 318.604 62.6006 318.548C62.5446 318.482 62.5166 318.403 62.5166 318.31V317.33C62.5166 317.236 62.5446 317.162 62.6006 317.106C62.6659 317.04 62.7453 317.008 62.8386 317.008H63.8326C63.9353 317.008 64.0146 317.04 64.0706 317.106C64.1359 317.162 64.1686 317.236 64.1686 317.33V318.31C64.1686 318.403 64.1359 318.482 64.0706 318.548C64.0146 318.604 63.9353 318.632 63.8326 318.632H62.8386ZM66.5326 320.368C66.4393 320.368 66.36 320.335 66.2946 320.27C66.2386 320.214 66.2106 320.139 66.2106 320.046V310.96C66.2106 310.866 66.2386 310.792 66.2946 310.736C66.36 310.67 66.4393 310.638 66.5326 310.638H67.1626C67.2653 310.638 67.3446 310.67 67.4006 310.736C67.4566 310.792 67.4846 310.866 67.4846 310.96V320.046C67.4846 320.139 67.4566 320.214 67.4006 320.27C67.3446 320.335 67.2653 320.368 67.1626 320.368H66.5326ZM69.9643 318.632C69.8709 318.632 69.7916 318.604 69.7263 318.548C69.6703 318.482 69.6423 318.403 69.6423 318.31V310.96C69.6423 310.866 69.6703 310.792 69.7263 310.736C69.7916 310.67 69.8709 310.638 69.9643 310.638H70.6223C70.7249 310.638 70.8043 310.67 70.8603 310.736C70.9163 310.792 70.9443 310.866 70.9443 310.96V318.31C70.9443 318.403 70.9163 318.482 70.8603 318.548C70.8043 318.604 70.7249 318.632 70.6223 318.632H69.9643ZM74.2353 311.786V312.878C74.2446 313.214 74.2866 313.494 74.3613 313.718C74.4359 313.942 74.5806 314.082 74.7953 314.138L75.3133 314.278C75.3879 314.296 75.4439 314.348 75.4813 314.432C75.5279 314.506 75.5513 314.6 75.5513 314.712V315.062C75.5513 315.164 75.4999 315.239 75.3973 315.286C75.2946 315.332 75.1826 315.346 75.0613 315.328L74.5153 315.216C74.2166 315.141 73.9599 315.01 73.7453 314.824C73.5306 314.628 73.3673 314.366 73.2553 314.04C73.1526 313.704 73.1013 313.302 73.1013 312.836V310.96C73.1013 310.866 73.1293 310.792 73.1853 310.736C73.2413 310.67 73.3206 310.638 73.4233 310.638H76.0133C76.7133 310.638 77.2966 310.778 77.7633 311.058C78.2299 311.328 78.5846 311.725 78.8273 312.248C79.0699 312.761 79.2006 313.382 79.2193 314.11C79.2286 314.25 79.2333 314.427 79.2333 314.642C79.2333 314.847 79.2286 315.02 79.2193 315.16C79.2006 315.878 79.0699 316.499 78.8273 317.022C78.5846 317.544 78.2299 317.946 77.7633 318.226C77.2966 318.496 76.7133 318.632 76.0133 318.632H73.5913C73.4979 318.632 73.4186 318.604 73.3533 318.548C73.2973 318.482 73.2693 318.403 73.2693 318.31V317.806C73.2693 317.712 73.2973 317.638 73.3533 317.582C73.4186 317.516 73.4979 317.484 73.5913 317.484H75.9433C76.5873 317.484 77.0819 317.278 77.4273 316.868C77.7819 316.448 77.9779 315.864 78.0153 315.118C78.0246 314.978 78.0293 314.819 78.0293 314.642C78.0293 314.455 78.0246 314.292 78.0153 314.152C77.9966 313.405 77.8053 312.826 77.4413 312.416C77.0866 311.996 76.5873 311.786 75.9433 311.786H74.2353ZM82.6572 318.758C82.5732 318.786 82.4939 318.772 82.4192 318.716C82.3446 318.669 82.3072 318.599 82.3072 318.506V317.862C82.3072 317.778 82.3306 317.703 82.3772 317.638C82.4332 317.572 82.5126 317.521 82.6152 317.484L83.1612 317.274C83.5252 317.124 83.8566 316.938 84.1552 316.714C84.4632 316.48 84.7012 316.168 84.8692 315.776C85.0466 315.384 85.1352 314.87 85.1352 314.236C85.1352 313.629 85.0606 313.148 84.9112 312.794C84.7712 312.43 84.5286 312.173 84.1832 312.024C83.8472 311.865 83.3852 311.786 82.7972 311.786H82.3772C82.2839 311.786 82.2046 311.758 82.1392 311.702C82.0832 311.636 82.0552 311.557 82.0552 311.464V310.96C82.0552 310.866 82.0832 310.792 82.1392 310.736C82.2046 310.67 82.2839 310.638 82.3772 310.638H82.9932C83.8426 310.638 84.5192 310.759 85.0232 311.002C85.5272 311.244 85.8866 311.636 86.1012 312.178C86.3252 312.71 86.4372 313.41 86.4372 314.278C86.4372 314.931 86.3486 315.496 86.1712 315.972C85.9939 316.448 85.7512 316.854 85.4432 317.19C85.1446 317.526 84.8039 317.806 84.4212 318.03C84.0386 318.244 83.6419 318.422 83.2312 318.562L82.6572 318.758ZM82.6852 311.786L81.0192 311.772C80.9259 311.772 80.8466 311.744 80.7812 311.688C80.7252 311.632 80.6972 311.557 80.6972 311.464V309.014C80.6972 308.92 80.7252 308.846 80.7812 308.79C80.8466 308.724 80.9259 308.692 81.0192 308.692H81.6072C81.7006 308.692 81.7752 308.724 81.8312 308.79C81.8966 308.846 81.9292 308.92 81.9292 309.014V310.638H82.7132L82.6852 311.786ZM91.735 318.772C90.4844 318.772 89.5837 318.473 89.033 317.876C88.4824 317.269 88.207 316.424 88.207 315.342V310.96C88.207 310.866 88.235 310.792 88.291 310.736C88.3564 310.67 88.4357 310.638 88.529 310.638H89.103C89.2057 310.638 89.285 310.67 89.341 310.736C89.397 310.792 89.425 310.866 89.425 310.96V315.272C89.425 316.028 89.6164 316.611 89.999 317.022C90.3817 317.423 90.9604 317.624 91.735 317.624C92.5097 317.624 93.0744 317.437 93.429 317.064C93.793 316.69 93.9844 316.13 94.003 315.384C94.0124 315.29 94.0124 315.15 94.003 314.964C94.003 314.768 94.003 314.572 94.003 314.376C94.003 314.18 94.003 314.035 94.003 313.942C93.9844 313.167 93.8164 312.602 93.499 312.248C93.191 311.893 92.785 311.716 92.281 311.716C92.1224 311.716 91.9404 311.744 91.735 311.8C91.5297 311.856 91.357 311.93 91.217 312.024C91.133 312.07 91.0444 312.075 90.951 312.038C90.8577 311.991 90.811 311.916 90.811 311.814V311.38C90.811 311.286 90.8204 311.207 90.839 311.142C90.8577 311.067 90.909 311.002 90.993 310.946C91.1797 310.834 91.3804 310.745 91.595 310.68C91.8097 310.605 92.0944 310.568 92.449 310.568C93.0557 310.568 93.5644 310.684 93.975 310.918C94.3857 311.142 94.6984 311.492 94.913 311.968C95.1277 312.444 95.2444 313.055 95.263 313.802C95.2724 313.895 95.277 314.054 95.277 314.278C95.277 314.502 95.277 314.73 95.277 314.964C95.277 315.197 95.2724 315.36 95.263 315.454C95.2444 316.163 95.1137 316.77 94.871 317.274C94.6377 317.768 94.2644 318.142 93.751 318.394C93.247 318.646 92.575 318.772 91.735 318.772ZM104.721 318.632C104.628 318.632 104.548 318.604 104.483 318.548C104.427 318.482 104.399 318.403 104.399 318.31V314.124C104.399 313.377 104.212 312.798 103.839 312.388C103.466 311.968 102.864 311.758 102.033 311.758H100.199C100.106 311.758 100.026 311.73 99.9609 311.674C99.9049 311.608 99.8769 311.529 99.8769 311.436V310.96C99.8769 310.866 99.9049 310.792 99.9609 310.736C100.026 310.67 100.106 310.638 100.199 310.638H102.103C102.906 310.638 103.568 310.764 104.091 311.016C104.623 311.268 105.02 311.65 105.281 312.164C105.542 312.668 105.673 313.298 105.673 314.054V318.31C105.673 318.403 105.64 318.482 105.575 318.548C105.519 318.604 105.444 318.632 105.351 318.632H104.721ZM108.88 311.786V312.878C108.889 313.214 108.931 313.494 109.006 313.718C109.08 313.942 109.225 314.082 109.44 314.138L109.958 314.278C110.032 314.296 110.088 314.348 110.126 314.432C110.172 314.506 110.196 314.6 110.196 314.712V315.062C110.196 315.164 110.144 315.239 110.042 315.286C109.939 315.332 109.827 315.346 109.706 315.328L109.16 315.216C108.861 315.141 108.604 315.01 108.39 314.824C108.175 314.628 108.012 314.366 107.9 314.04C107.797 313.704 107.746 313.302 107.746 312.836V310.96C107.746 310.866 107.774 310.792 107.83 310.736C107.886 310.67 107.965 310.638 108.068 310.638H110.658C111.358 310.638 111.941 310.778 112.408 311.058C112.874 311.328 113.229 311.725 113.472 312.248C113.714 312.761 113.845 313.382 113.864 314.11C113.873 314.25 113.878 314.427 113.878 314.642C113.878 314.847 113.873 315.02 113.864 315.16C113.845 315.878 113.714 316.499 113.472 317.022C113.229 317.544 112.874 317.946 112.408 318.226C111.941 318.496 111.358 318.632 110.658 318.632H108.236C108.142 318.632 108.063 318.604 107.998 318.548C107.942 318.482 107.914 318.403 107.914 318.31V317.806C107.914 317.712 107.942 317.638 107.998 317.582C108.063 317.516 108.142 317.484 108.236 317.484H110.588C111.232 317.484 111.726 317.278 112.072 316.868C112.426 316.448 112.622 315.864 112.66 315.118C112.669 314.978 112.674 314.819 112.674 314.642C112.674 314.455 112.669 314.292 112.66 314.152C112.641 313.405 112.45 312.826 112.086 312.416C111.731 311.996 111.232 311.786 110.588 311.786H108.88ZM119.09 318.772C117.924 318.772 117.056 318.468 116.486 317.862C115.917 317.255 115.632 316.392 115.632 315.272V310.96C115.632 310.866 115.66 310.792 115.716 310.736C115.782 310.67 115.861 310.638 115.954 310.638H119.328C120.159 310.638 120.822 310.764 121.316 311.016C121.811 311.268 122.17 311.641 122.394 312.136C122.628 312.621 122.758 313.223 122.786 313.942C122.796 314.035 122.8 314.184 122.8 314.39C122.8 314.595 122.8 314.8 122.8 315.006C122.8 315.211 122.796 315.36 122.786 315.454C122.768 316.163 122.632 316.77 122.38 317.274C122.128 317.768 121.732 318.142 121.19 318.394C120.658 318.646 119.958 318.772 119.09 318.772ZM119.09 317.624C119.977 317.624 120.602 317.442 120.966 317.078C121.33 316.704 121.522 316.14 121.54 315.384C121.55 315.29 121.554 315.15 121.554 314.964C121.554 314.777 121.554 314.595 121.554 314.418C121.554 314.24 121.55 314.105 121.54 314.012C121.522 313.265 121.307 312.705 120.896 312.332C120.495 311.949 119.949 311.758 119.258 311.758H116.85V315.272C116.85 316.028 117.037 316.611 117.41 317.022C117.784 317.423 118.344 317.624 119.09 317.624ZM128.062 311.786H124.66C124.558 311.786 124.478 311.758 124.422 311.702C124.366 311.636 124.338 311.557 124.338 311.464V310.96C124.338 310.866 124.366 310.792 124.422 310.736C124.478 310.67 124.558 310.638 124.66 310.638H128.216C128.795 310.638 129.308 310.773 129.756 311.044C130.214 311.314 130.568 311.706 130.82 312.22C131.082 312.724 131.212 313.335 131.212 314.054V318.31C131.212 318.403 131.18 318.482 131.114 318.548C131.058 318.604 130.984 318.632 130.89 318.632H127.278C127.185 318.632 127.106 318.604 127.04 318.548C126.984 318.482 126.956 318.403 126.956 318.31V317.834C126.956 317.74 126.984 317.666 127.04 317.61C127.106 317.544 127.185 317.512 127.278 317.512H129.938V314.138C129.938 313.662 129.854 313.246 129.686 312.892C129.528 312.537 129.304 312.266 129.014 312.08C128.734 311.884 128.417 311.786 128.062 311.786ZM124.52 318.632C124.436 318.632 124.366 318.599 124.31 318.534C124.254 318.468 124.231 318.389 124.24 318.296L125.43 311.436C125.449 311.342 125.491 311.272 125.556 311.226C125.622 311.17 125.701 311.151 125.794 311.17L126.354 311.198C126.448 311.207 126.522 311.249 126.578 311.324C126.634 311.389 126.648 311.468 126.62 311.562L125.514 318.296C125.505 318.389 125.463 318.468 125.388 318.534C125.323 318.599 125.244 318.632 125.15 318.632H124.52Z" fill="#2F4B6F"/>
<path d="M80.5126 8.1C80.4193 8.1 80.3399 8.072 80.2746 8.016C80.2186 7.95067 80.1906 7.87133 80.1906 7.778V6.798C80.1906 6.70467 80.2186 6.63 80.2746 6.574C80.3399 6.50867 80.4193 6.476 80.5126 6.476H81.5066C81.6093 6.476 81.6886 6.50867 81.7446 6.574C81.8099 6.63 81.8426 6.70467 81.8426 6.798V7.778C81.8426 7.87133 81.8099 7.95067 81.7446 8.016C81.6886 8.072 81.6093 8.1 81.5066 8.1H80.5126ZM80.5126 13C80.4193 13 80.3399 12.972 80.2746 12.916C80.2186 12.8507 80.1906 12.7713 80.1906 12.678V11.698C80.1906 11.6047 80.2186 11.53 80.2746 11.474C80.3399 11.4087 80.4193 11.376 80.5126 11.376H81.5066C81.6093 11.376 81.6886 11.4087 81.7446 11.474C81.8099 11.53 81.8426 11.6047 81.8426 11.698V12.678C81.8426 12.7713 81.8099 12.8507 81.7446 12.916C81.6886 12.972 81.6093 13 81.5066 13H80.5126ZM84.1086 9.752C84.0153 9.752 83.936 9.724 83.8706 9.668C83.8146 9.60267 83.7866 9.52333 83.7866 9.43V5.328C83.7866 5.23467 83.8146 5.16 83.8706 5.104C83.936 5.03867 84.0153 5.006 84.1086 5.006H84.7666C84.8693 5.006 84.9486 5.03867 85.0046 5.104C85.0606 5.16 85.0886 5.23467 85.0886 5.328V9.43C85.0886 9.52333 85.0606 9.60267 85.0046 9.668C84.9486 9.724 84.8693 9.752 84.7666 9.752H84.1086ZM90.6239 13.14C89.3732 13.14 88.4726 12.8413 87.9219 12.244C87.3712 11.6373 87.0959 10.7927 87.0959 9.71V5.328C87.0959 5.23467 87.1239 5.16 87.1799 5.104C87.2452 5.03867 87.3246 5.006 87.4179 5.006H87.9919C88.0946 5.006 88.1739 5.03867 88.2299 5.104C88.2859 5.16 88.3139 5.23467 88.3139 5.328V9.64C88.3139 10.396 88.5052 10.9793 88.8879 11.39C89.2706 11.7913 89.8492 11.992 90.6239 11.992C91.3986 11.992 91.9632 11.8053 92.3179 11.432C92.6819 11.0587 92.8732 10.4987 92.8919 9.752C92.9012 9.65867 92.9012 9.51867 92.8919 9.332C92.8919 9.136 92.8919 8.94 92.8919 8.744C92.8919 8.548 92.8919 8.40333 92.8919 8.31C92.8732 7.53533 92.7052 6.97067 92.3879 6.616C92.0799 6.26133 91.6739 6.084 91.1699 6.084C91.0112 6.084 90.8292 6.112 90.6239 6.168C90.4186 6.224 90.2459 6.29867 90.1059 6.392C90.0219 6.43867 89.9332 6.44333 89.8399 6.406C89.7466 6.35933 89.6999 6.28467 89.6999 6.182V5.748C89.6999 5.65467 89.7092 5.57533 89.7279 5.51C89.7466 5.43533 89.7979 5.37 89.8819 5.314C90.0686 5.202 90.2692 5.11333 90.4839 5.048C90.6986 4.97333 90.9832 4.936 91.3379 4.936C91.9446 4.936 92.4532 5.05267 92.8639 5.286C93.2746 5.51 93.5872 5.86 93.8019 6.336C94.0166 6.812 94.1332 7.42333 94.1519 8.17C94.1612 8.26333 94.1659 8.422 94.1659 8.646C94.1659 8.87 94.1659 9.09867 94.1659 9.332C94.1659 9.56533 94.1612 9.72867 94.1519 9.822C94.1332 10.5313 94.0026 11.138 93.7599 11.642C93.5266 12.1367 93.1532 12.51 92.6399 12.762C92.1359 13.014 91.4639 13.14 90.6239 13.14ZM100.383 13C100.29 13 100.211 12.972 100.145 12.916C100.089 12.8507 100.061 12.7713 100.061 12.678V8.492C100.061 7.74533 99.8745 7.16667 99.5012 6.756C99.1279 6.336 98.5259 6.126 97.6952 6.126H95.8612C95.7679 6.126 95.6885 6.098 95.6232 6.042C95.5672 5.97667 95.5392 5.89733 95.5392 5.804V5.328C95.5392 5.23467 95.5672 5.16 95.6232 5.104C95.6885 5.03867 95.7679 5.006 95.8612 5.006H97.7652C98.5679 5.006 99.2305 5.132 99.7532 5.384C100.285 5.636 100.682 6.01867 100.943 6.532C101.205 7.036 101.335 7.666 101.335 8.422V12.678C101.335 12.7713 101.303 12.8507 101.237 12.916C101.181 12.972 101.107 13 101.013 13H100.383ZM104.542 6.154V7.246C104.551 7.582 104.593 7.862 104.668 8.086C104.743 8.31 104.887 8.45 105.102 8.506L105.62 8.646C105.695 8.66467 105.751 8.716 105.788 8.8C105.835 8.87467 105.858 8.968 105.858 9.08V9.43C105.858 9.53267 105.807 9.60733 105.704 9.654C105.601 9.70067 105.489 9.71467 105.368 9.696L104.822 9.584C104.523 9.50933 104.267 9.37867 104.052 9.192C103.837 8.996 103.674 8.73467 103.562 8.408C103.459 8.072 103.408 7.67067 103.408 7.204V5.328C103.408 5.23467 103.436 5.16 103.492 5.104C103.548 5.03867 103.627 5.006 103.73 5.006H106.32C107.02 5.006 107.603 5.146 108.07 5.426C108.537 5.69667 108.891 6.09333 109.134 6.616C109.377 7.12933 109.507 7.75 109.526 8.478C109.535 8.618 109.54 8.79533 109.54 9.01C109.54 9.21533 109.535 9.388 109.526 9.528C109.507 10.2467 109.377 10.8673 109.134 11.39C108.891 11.9127 108.537 12.314 108.07 12.594C107.603 12.8647 107.02 13 106.32 13H103.898C103.805 13 103.725 12.972 103.66 12.916C103.604 12.8507 103.576 12.7713 103.576 12.678V12.174C103.576 12.0807 103.604 12.006 103.66 11.95C103.725 11.8847 103.805 11.852 103.898 11.852H106.25C106.894 11.852 107.389 11.6467 107.734 11.236C108.089 10.816 108.285 10.2327 108.322 9.486C108.331 9.346 108.336 9.18733 108.336 9.01C108.336 8.82333 108.331 8.66 108.322 8.52C108.303 7.77333 108.112 7.19467 107.748 6.784C107.393 6.364 106.894 6.154 106.25 6.154H104.542ZM115.132 13C115.039 13 114.96 12.972 114.894 12.916C114.838 12.8507 114.81 12.7713 114.81 12.678V5.328C114.81 5.23467 114.838 5.16 114.894 5.104C114.96 5.03867 115.039 5.006 115.132 5.006H117.806C118.609 5.006 119.272 5.13667 119.794 5.398C120.317 5.65 120.704 6.028 120.956 6.532C121.218 7.036 121.348 7.666 121.348 8.422V12.678C121.348 12.7713 121.32 12.8507 121.264 12.916C121.208 12.972 121.129 13 121.026 13H115.132ZM116.014 11.88H120.102V8.492C120.102 7.74533 119.916 7.16667 119.542 6.756C119.169 6.336 118.567 6.126 117.736 6.126H116.014V11.88ZM127.4 11.95C128.006 11.9593 128.515 11.8473 128.926 11.614C129.346 11.3807 129.663 11.0493 129.878 10.62C130.102 10.1813 130.214 9.682 130.214 9.122V5.328C130.214 5.23467 130.242 5.16 130.298 5.104C130.363 5.03867 130.442 5.006 130.536 5.006H131.11C131.212 5.006 131.292 5.03867 131.348 5.104C131.404 5.16 131.432 5.23467 131.432 5.328V9.22C131.432 9.81733 131.338 10.3587 131.152 10.844C130.965 11.32 130.699 11.7307 130.354 12.076C130.008 12.412 129.598 12.6687 129.122 12.846C128.655 13.0233 128.137 13.1027 127.568 13.084H126.518C125.911 13.084 125.365 12.944 124.88 12.664C124.394 12.384 124.012 11.992 123.732 11.488C123.452 10.984 123.312 10.4007 123.312 9.738V5.328C123.312 5.23467 123.34 5.16 123.396 5.104C123.461 5.03867 123.54 5.006 123.634 5.006H124.222C124.315 5.006 124.39 5.03867 124.446 5.104C124.511 5.16 124.544 5.23467 124.544 5.328L124.586 9.458C124.586 10.2607 124.81 10.8767 125.258 11.306C125.706 11.7353 126.275 11.95 126.966 11.95H127.4ZM124.292 10.312L124.264 9.29C124.954 9.28067 125.482 9.178 125.846 8.982C126.21 8.77667 126.462 8.506 126.602 8.17C126.751 7.834 126.826 7.46533 126.826 7.064V5.328C126.826 5.23467 126.854 5.16 126.91 5.104C126.966 5.03867 127.045 5.006 127.148 5.006H127.722C127.815 5.006 127.89 5.03867 127.946 5.104C128.011 5.16 128.044 5.23467 128.044 5.328V7.12C128.044 7.72667 127.908 8.27267 127.638 8.758C127.367 9.24333 126.952 9.626 126.392 9.906C125.841 10.186 125.141 10.3213 124.292 10.312Z" fill="#2F4B6F"/>
<path d="M113.184 414.213C113.091 414.213 113.012 414.185 112.946 414.129C112.89 414.064 112.862 413.984 112.862 413.891V412.911C112.862 412.818 112.89 412.743 112.946 412.687C113.012 412.622 113.091 412.589 113.184 412.589H114.178C114.281 412.589 114.36 412.622 114.416 412.687C114.482 412.743 114.514 412.818 114.514 412.911V413.891C114.514 413.984 114.482 414.064 114.416 414.129C114.36 414.185 114.281 414.213 114.178 414.213H113.184ZM113.184 419.113C113.091 419.113 113.012 419.085 112.946 419.029C112.89 418.964 112.862 418.884 112.862 418.791V417.811C112.862 417.718 112.89 417.643 112.946 417.587C113.012 417.522 113.091 417.489 113.184 417.489H114.178C114.281 417.489 114.36 417.522 114.416 417.587C114.482 417.643 114.514 417.718 114.514 417.811V418.791C114.514 418.884 114.482 418.964 114.416 419.029C114.36 419.085 114.281 419.113 114.178 419.113H113.184ZM117.909 419.239C117.825 419.267 117.746 419.253 117.671 419.197C117.597 419.15 117.559 419.08 117.559 418.987V418.343C117.559 418.259 117.583 418.184 117.629 418.119C117.685 418.054 117.765 418.002 117.867 417.965L118.413 417.755C118.777 417.606 119.109 417.419 119.407 417.195C119.715 416.962 119.953 416.649 120.121 416.257C120.299 415.865 120.387 415.352 120.387 414.717C120.387 414.11 120.313 413.63 120.163 413.275C120.023 412.911 119.781 412.654 119.435 412.505C119.099 412.346 118.637 412.267 118.049 412.267H117.629C117.536 412.267 117.457 412.239 117.391 412.183C117.335 412.118 117.307 412.038 117.307 411.945V411.441C117.307 411.348 117.335 411.273 117.391 411.217C117.457 411.152 117.536 411.119 117.629 411.119H118.245C119.095 411.119 119.771 411.24 120.275 411.483C120.779 411.726 121.139 412.118 121.353 412.659C121.577 413.191 121.689 413.891 121.689 414.759C121.689 415.412 121.601 415.977 121.423 416.453C121.246 416.929 121.003 417.335 120.695 417.671C120.397 418.007 120.056 418.287 119.673 418.511C119.291 418.726 118.894 418.903 118.483 419.043L117.909 419.239ZM117.937 412.267L116.271 412.253C116.178 412.253 116.099 412.225 116.033 412.169C115.977 412.113 115.949 412.038 115.949 411.945V409.495C115.949 409.402 115.977 409.327 116.033 409.271C116.099 409.206 116.178 409.173 116.271 409.173H116.859C116.953 409.173 117.027 409.206 117.083 409.271C117.149 409.327 117.181 409.402 117.181 409.495V411.119H117.965L117.937 412.267ZM123.753 415.865C123.66 415.865 123.58 415.837 123.515 415.781C123.459 415.716 123.431 415.636 123.431 415.543V411.441C123.431 411.348 123.459 411.273 123.515 411.217C123.58 411.152 123.66 411.119 123.753 411.119H124.411C124.514 411.119 124.593 411.152 124.649 411.217C124.705 411.273 124.733 411.348 124.733 411.441V415.543C124.733 415.636 124.705 415.716 124.649 415.781C124.593 415.837 124.514 415.865 124.411 415.865H123.753ZM130.478 419.113C130.385 419.113 130.31 419.085 130.254 419.029C130.208 418.964 130.175 418.884 130.156 418.791L129.302 414.493C129.209 413.998 129.097 413.588 128.966 413.261C128.845 412.925 128.677 412.673 128.462 412.505C128.257 412.328 127.972 412.239 127.608 412.239H127.104C127.011 412.239 126.932 412.211 126.866 412.155C126.81 412.09 126.782 412.01 126.782 411.917V411.413C126.782 411.32 126.81 411.245 126.866 411.189C126.932 411.124 127.011 411.091 127.104 411.091H127.622C128.248 411.091 128.752 411.217 129.134 411.469C129.517 411.712 129.82 412.08 130.044 412.575C130.278 413.07 130.469 413.686 130.618 414.423L131.458 418.791C131.477 418.884 131.454 418.964 131.388 419.029C131.323 419.085 131.244 419.113 131.15 419.113H130.478ZM128.672 418.399C128.327 418.632 128 418.814 127.692 418.945C127.394 419.066 127.081 419.16 126.754 419.225C126.661 419.234 126.582 419.225 126.516 419.197C126.451 419.169 126.418 419.108 126.418 419.015V418.315C126.418 418.156 126.516 418.04 126.712 417.965C126.778 417.937 126.899 417.895 127.076 417.839C127.254 417.783 127.445 417.713 127.65 417.629C127.856 417.536 128.033 417.442 128.182 417.349C128.416 417.2 128.644 417.008 128.868 416.775C129.092 416.532 129.279 416.285 129.428 416.033C129.587 415.772 129.666 415.543 129.666 415.347L130.478 415.249C130.469 415.65 130.38 416.056 130.212 416.467C130.044 416.878 129.825 417.251 129.554 417.587C129.284 417.923 128.99 418.194 128.672 418.399Z" fill="#2F4B6F"/>
<path d="M85.995 108.732C85.9017 108.732 85.8224 108.704 85.757 108.648C85.701 108.582 85.673 108.503 85.673 108.41V107.43C85.673 107.336 85.701 107.262 85.757 107.206C85.8224 107.14 85.9017 107.108 85.995 107.108H86.989C87.0917 107.108 87.171 107.14 87.227 107.206C87.2924 107.262 87.325 107.336 87.325 107.43V108.41C87.325 108.503 87.2924 108.582 87.227 108.648C87.171 108.704 87.0917 108.732 86.989 108.732H85.995ZM85.995 113.632C85.9017 113.632 85.8224 113.604 85.757 113.548C85.701 113.482 85.673 113.403 85.673 113.31V112.33C85.673 112.236 85.701 112.162 85.757 112.106C85.8224 112.04 85.9017 112.008 85.995 112.008H86.989C87.0917 112.008 87.171 112.04 87.227 112.106C87.2924 112.162 87.325 112.236 87.325 112.33V113.31C87.325 113.403 87.2924 113.482 87.227 113.548C87.171 113.604 87.0917 113.632 86.989 113.632H85.995ZM95.0091 113.632C94.9157 113.632 94.8364 113.604 94.7711 113.548C94.7151 113.482 94.6871 113.403 94.6871 113.31V109.124C94.6871 108.377 94.5004 107.798 94.1271 107.388C93.7537 106.968 93.1517 106.758 92.3211 106.758H89.6891C89.5957 106.758 89.5164 106.73 89.4511 106.674C89.3951 106.608 89.3671 106.529 89.3671 106.436V105.96C89.3671 105.866 89.3951 105.792 89.4511 105.736C89.5164 105.67 89.5957 105.638 89.6891 105.638H92.3911C93.6044 105.638 94.5004 105.932 95.0791 106.52C95.6671 107.108 95.9611 107.962 95.9611 109.082V113.31C95.9611 113.403 95.9284 113.482 95.8631 113.548C95.8071 113.604 95.7324 113.632 95.6391 113.632H95.0091ZM89.6891 113.632C89.5957 113.632 89.5164 113.604 89.4511 113.548C89.3951 113.482 89.3671 113.403 89.3671 113.31V108.634C89.3671 108.54 89.3951 108.466 89.4511 108.41C89.5164 108.344 89.5957 108.312 89.6891 108.312H90.3191C90.4217 108.312 90.5011 108.344 90.5571 108.41C90.6131 108.466 90.6411 108.54 90.6411 108.634V113.31C90.6411 113.403 90.6131 113.482 90.5571 113.548C90.5011 113.604 90.4217 113.632 90.3191 113.632H89.6891ZM98.357 113.632C98.2637 113.632 98.1844 113.604 98.119 113.548C98.063 113.482 98.035 113.403 98.035 113.31V105.96C98.035 105.866 98.063 105.792 98.119 105.736C98.1844 105.67 98.2637 105.638 98.357 105.638H101.073C101.885 105.638 102.552 105.768 103.075 106.03C103.607 106.282 104.004 106.664 104.265 107.178C104.526 107.682 104.657 108.316 104.657 109.082V113.31C104.657 113.403 104.624 113.482 104.559 113.548C104.503 113.604 104.428 113.632 104.335 113.632H103.705C103.602 113.632 103.523 113.604 103.467 113.548C103.411 113.482 103.383 113.403 103.383 113.31V109.124C103.383 108.377 103.196 107.798 102.823 107.388C102.45 106.968 101.843 106.758 101.003 106.758H99.309V113.31C99.309 113.403 99.281 113.482 99.225 113.548C99.169 113.604 99.0897 113.632 98.987 113.632H98.357ZM107.864 106.786V107.878C107.874 108.214 107.916 108.494 107.99 108.718C108.065 108.942 108.21 109.082 108.424 109.138L108.942 109.278C109.017 109.296 109.073 109.348 109.11 109.432C109.157 109.506 109.18 109.6 109.18 109.712V110.062C109.18 110.164 109.129 110.239 109.026 110.286C108.924 110.332 108.812 110.346 108.69 110.328L108.144 110.216C107.846 110.141 107.589 110.01 107.374 109.824C107.16 109.628 106.996 109.366 106.884 109.04C106.782 108.704 106.73 108.302 106.73 107.836V105.96C106.73 105.866 106.758 105.792 106.814 105.736C106.87 105.67 106.95 105.638 107.052 105.638H109.642C110.342 105.638 110.926 105.778 111.392 106.058C111.859 106.328 112.214 106.725 112.456 107.248C112.699 107.761 112.83 108.382 112.848 109.11C112.858 109.25 112.862 109.427 112.862 109.642C112.862 109.847 112.858 110.02 112.848 110.16C112.83 110.878 112.699 111.499 112.456 112.022C112.214 112.544 111.859 112.946 111.392 113.226C110.926 113.496 110.342 113.632 109.642 113.632H107.22C107.127 113.632 107.048 113.604 106.982 113.548C106.926 113.482 106.898 113.403 106.898 113.31V112.806C106.898 112.712 106.926 112.638 106.982 112.582C107.048 112.516 107.127 112.484 107.22 112.484H109.572C110.216 112.484 110.711 112.278 111.056 111.868C111.411 111.448 111.607 110.864 111.644 110.118C111.654 109.978 111.658 109.819 111.658 109.642C111.658 109.455 111.654 109.292 111.644 109.152C111.626 108.405 111.434 107.826 111.07 107.416C110.716 106.996 110.216 106.786 109.572 106.786H107.864ZM118.677 112.582C119.284 112.591 119.792 112.479 120.203 112.246C120.623 112.012 120.94 111.681 121.155 111.252C121.379 110.813 121.491 110.314 121.491 109.754V105.96C121.491 105.866 121.519 105.792 121.575 105.736C121.64 105.67 121.72 105.638 121.813 105.638H122.387C122.49 105.638 122.569 105.67 122.625 105.736C122.681 105.792 122.709 105.866 122.709 105.96V109.852C122.709 110.449 122.616 110.99 122.429 111.476C122.242 111.952 121.976 112.362 121.631 112.708C121.286 113.044 120.875 113.3 120.399 113.478C119.932 113.655 119.414 113.734 118.845 113.716H117.795C117.188 113.716 116.642 113.576 116.157 113.296C115.672 113.016 115.289 112.624 115.009 112.12C114.729 111.616 114.589 111.032 114.589 110.37V105.96C114.589 105.866 114.617 105.792 114.673 105.736C114.738 105.67 114.818 105.638 114.911 105.638H115.499C115.592 105.638 115.667 105.67 115.723 105.736C115.788 105.792 115.821 105.866 115.821 105.96L115.863 110.09C115.863 110.892 116.087 111.508 116.535 111.938C116.983 112.367 117.552 112.582 118.243 112.582H118.677ZM115.569 110.944L115.541 109.922C116.232 109.912 116.759 109.81 117.123 109.614C117.487 109.408 117.739 109.138 117.879 108.802C118.028 108.466 118.103 108.097 118.103 107.696V105.96C118.103 105.866 118.131 105.792 118.187 105.736C118.243 105.67 118.322 105.638 118.425 105.638H118.999C119.092 105.638 119.167 105.67 119.223 105.736C119.288 105.792 119.321 105.866 119.321 105.96V107.752C119.321 108.358 119.186 108.904 118.915 109.39C118.644 109.875 118.229 110.258 117.669 110.538C117.118 110.818 116.418 110.953 115.569 110.944ZM128.168 106.786H124.766C124.663 106.786 124.584 106.758 124.528 106.702C124.472 106.636 124.444 106.557 124.444 106.464V105.96C124.444 105.866 124.472 105.792 124.528 105.736C124.584 105.67 124.663 105.638 124.766 105.638H128.322C128.901 105.638 129.414 105.773 129.862 106.044C130.319 106.314 130.674 106.706 130.926 107.22C131.187 107.724 131.318 108.335 131.318 109.054V113.31C131.318 113.403 131.285 113.482 131.22 113.548C131.164 113.604 131.089 113.632 130.996 113.632H127.384C127.291 113.632 127.211 113.604 127.146 113.548C127.09 113.482 127.062 113.403 127.062 113.31V112.834C127.062 112.74 127.09 112.666 127.146 112.61C127.211 112.544 127.291 112.512 127.384 112.512H130.044V109.138C130.044 108.662 129.96 108.246 129.792 107.892C129.633 107.537 129.409 107.266 129.12 107.08C128.84 106.884 128.523 106.786 128.168 106.786ZM124.626 113.632C124.542 113.632 124.472 113.599 124.416 113.534C124.36 113.468 124.337 113.389 124.346 113.296L125.536 106.436C125.555 106.342 125.597 106.272 125.662 106.226C125.727 106.17 125.807 106.151 125.9 106.17L126.46 106.198C126.553 106.207 126.628 106.249 126.684 106.324C126.74 106.389 126.754 106.468 126.726 106.562L125.62 113.296C125.611 113.389 125.569 113.468 125.494 113.534C125.429 113.599 125.349 113.632 125.256 113.632H124.626Z" fill="#2F4B6F"/>
<path d="M95.9167 210.732C95.8234 210.732 95.7441 210.704 95.6787 210.648C95.6227 210.582 95.5947 210.503 95.5947 210.41V209.43C95.5947 209.336 95.6227 209.262 95.6787 209.206C95.7441 209.14 95.8234 209.108 95.9167 209.108H96.9107C97.0134 209.108 97.0927 209.14 97.1487 209.206C97.2141 209.262 97.2467 209.336 97.2467 209.43V210.41C97.2467 210.503 97.2141 210.582 97.1487 210.648C97.0927 210.704 97.0134 210.732 96.9107 210.732H95.9167ZM95.9167 215.632C95.8234 215.632 95.7441 215.604 95.6787 215.548C95.6227 215.482 95.5947 215.403 95.5947 215.31V214.33C95.5947 214.236 95.6227 214.162 95.6787 214.106C95.7441 214.04 95.8234 214.008 95.9167 214.008H96.9107C97.0134 214.008 97.0927 214.04 97.1487 214.106C97.2141 214.162 97.2467 214.236 97.2467 214.33V215.31C97.2467 215.403 97.2141 215.482 97.1487 215.548C97.0927 215.604 97.0134 215.632 96.9107 215.632H95.9167ZM100.642 215.758C100.558 215.786 100.478 215.772 100.404 215.716C100.329 215.669 100.292 215.599 100.292 215.506V214.862C100.292 214.778 100.315 214.703 100.362 214.638C100.418 214.572 100.497 214.521 100.6 214.484L101.146 214.274C101.51 214.124 101.841 213.938 102.14 213.714C102.448 213.48 102.686 213.168 102.854 212.776C103.031 212.384 103.12 211.87 103.12 211.236C103.12 210.629 103.045 210.148 102.896 209.794C102.756 209.43 102.513 209.173 102.168 209.024C101.832 208.865 101.37 208.786 100.782 208.786H100.362C100.268 208.786 100.189 208.758 100.124 208.702C100.068 208.636 100.04 208.557 100.04 208.464V207.96C100.04 207.866 100.068 207.792 100.124 207.736C100.189 207.67 100.268 207.638 100.362 207.638H100.978C101.827 207.638 102.504 207.759 103.008 208.002C103.512 208.244 103.871 208.636 104.086 209.178C104.31 209.71 104.422 210.41 104.422 211.278C104.422 211.931 104.333 212.496 104.156 212.972C103.978 213.448 103.736 213.854 103.428 214.19C103.129 214.526 102.788 214.806 102.406 215.03C102.023 215.244 101.626 215.422 101.216 215.562L100.642 215.758ZM100.67 208.786L99.0036 208.772C98.9103 208.772 98.8309 208.744 98.7656 208.688C98.7096 208.632 98.6816 208.557 98.6816 208.464V206.014C98.6816 205.92 98.7096 205.846 98.7656 205.79C98.8309 205.724 98.9103 205.692 99.0036 205.692H99.5916C99.6849 205.692 99.7596 205.724 99.8156 205.79C99.8809 205.846 99.9136 205.92 99.9136 206.014V207.638H100.698L100.67 208.786ZM106.485 212.384C106.392 212.384 106.313 212.356 106.247 212.3C106.191 212.234 106.163 212.155 106.163 212.062V207.96C106.163 207.866 106.191 207.792 106.247 207.736C106.313 207.67 106.392 207.638 106.485 207.638H107.143C107.246 207.638 107.325 207.67 107.381 207.736C107.437 207.792 107.465 207.866 107.465 207.96V212.062C107.465 212.155 107.437 212.234 107.381 212.3C107.325 212.356 107.246 212.384 107.143 212.384H106.485ZM109.767 212.384C109.673 212.384 109.594 212.356 109.529 212.3C109.473 212.234 109.445 212.155 109.445 212.062V207.96C109.445 207.866 109.473 207.792 109.529 207.736C109.594 207.67 109.673 207.638 109.767 207.638H110.425C110.527 207.638 110.607 207.67 110.663 207.736C110.719 207.792 110.747 207.866 110.747 207.96V212.062C110.747 212.155 110.719 212.234 110.663 212.3C110.607 212.356 110.527 212.384 110.425 212.384H109.767ZM116.324 208.786H112.922C112.819 208.786 112.74 208.758 112.684 208.702C112.628 208.636 112.6 208.557 112.6 208.464V207.96C112.6 207.866 112.628 207.792 112.684 207.736C112.74 207.67 112.819 207.638 112.922 207.638H116.478C117.057 207.638 117.57 207.773 118.018 208.044C118.475 208.314 118.83 208.706 119.082 209.22C119.343 209.724 119.474 210.335 119.474 211.054V215.31C119.474 215.403 119.441 215.482 119.376 215.548C119.32 215.604 119.245 215.632 119.152 215.632H115.54C115.447 215.632 115.367 215.604 115.302 215.548C115.246 215.482 115.218 215.403 115.218 215.31V214.834C115.218 214.74 115.246 214.666 115.302 214.61C115.367 214.544 115.447 214.512 115.54 214.512H118.2V211.138C118.2 210.662 118.116 210.246 117.948 209.892C117.789 209.537 117.565 209.266 117.276 209.08C116.996 208.884 116.679 208.786 116.324 208.786ZM112.782 215.632C112.698 215.632 112.628 215.599 112.572 215.534C112.516 215.468 112.493 215.389 112.502 215.296L113.692 208.436C113.711 208.342 113.753 208.272 113.818 208.226C113.883 208.17 113.963 208.151 114.056 208.17L114.616 208.198C114.709 208.207 114.784 208.249 114.84 208.324C114.896 208.389 114.91 208.468 114.882 208.562L113.776 215.296C113.767 215.389 113.725 215.468 113.65 215.534C113.585 215.599 113.505 215.632 113.412 215.632H112.782ZM121.771 212.384C121.677 212.384 121.598 212.356 121.533 212.3C121.477 212.234 121.449 212.155 121.449 212.062V207.96C121.449 207.866 121.477 207.792 121.533 207.736C121.598 207.67 121.677 207.638 121.771 207.638H122.429C122.531 207.638 122.611 207.67 122.667 207.736C122.723 207.792 122.751 207.866 122.751 207.96V212.062C122.751 212.155 122.723 212.234 122.667 212.3C122.611 212.356 122.531 212.384 122.429 212.384H121.771ZM130.274 215.632C130.171 215.632 130.092 215.604 130.036 215.548C129.98 215.492 129.928 215.445 129.882 215.408L124.744 208.184C124.678 208.081 124.646 207.992 124.646 207.918C124.646 207.843 124.674 207.778 124.73 207.722C124.795 207.666 124.865 207.638 124.94 207.638H125.584C125.696 207.638 125.78 207.666 125.836 207.722C125.901 207.778 125.952 207.829 125.99 207.876L131.142 215.086C131.179 215.151 131.202 215.202 131.212 215.24C131.23 215.277 131.24 215.314 131.24 215.352C131.24 215.426 131.212 215.492 131.156 215.548C131.1 215.604 131.03 215.632 130.946 215.632H130.274ZM124.814 215.632C124.72 215.632 124.641 215.604 124.576 215.548C124.52 215.482 124.492 215.403 124.492 215.31V213.21C124.492 212.78 124.534 212.374 124.618 211.992C124.702 211.6 124.865 211.231 125.108 210.886C125.36 210.531 125.733 210.2 126.228 209.892L126.872 210.83C126.536 211.044 126.284 211.292 126.116 211.572C125.948 211.842 125.836 212.127 125.78 212.426C125.724 212.715 125.696 212.995 125.696 213.266V215.31C125.696 215.403 125.663 215.482 125.598 215.548C125.542 215.604 125.467 215.632 125.374 215.632H124.814ZM129.154 213.07L128.58 212.104C129.037 211.889 129.359 211.665 129.546 211.432C129.742 211.198 129.858 210.956 129.896 210.704C129.933 210.442 129.952 210.172 129.952 209.892V207.96C129.952 207.866 129.98 207.792 130.036 207.736C130.101 207.67 130.18 207.638 130.274 207.638H130.862C130.955 207.638 131.03 207.67 131.086 207.736C131.151 207.792 131.184 207.866 131.184 207.96V209.962C131.184 210.354 131.137 210.732 131.044 211.096C130.95 211.46 130.759 211.805 130.47 212.132C130.19 212.458 129.751 212.771 129.154 213.07Z" fill="#2F4B6F"/>
</svg>
