<svg width="28" height="9" viewBox="0 0 28 9" fill="none" xmlns="http://www.w3.org/2000/svg">
<path d="M5.27605 8.8584C5.17605 8.8584 5.09105 8.8284 5.02105 8.7684C4.96105 8.6984 4.93105 8.6134 4.93105 8.5134V4.0284C4.93105 3.2284 4.73105 2.6084 4.33105 2.1684C3.93105 1.7184 3.28605 1.4934 2.39605 1.4934H0.431054C0.331054 1.4934 0.246054 1.4634 0.176054 1.4034C0.116054 1.3334 0.0860544 1.2484 0.0860544 1.1484V0.638398C0.0860544 0.538398 0.116054 0.458398 0.176054 0.398398C0.246054 0.328398 0.331054 0.293398 0.431054 0.293398H2.47105C3.33105 0.293398 4.04105 0.428398 4.60105 0.698398C5.17105 0.968398 5.59605 1.3784 5.87605 1.9284C6.15605 2.4684 6.29605 3.1434 6.29605 3.9534V8.5134C6.29605 8.6134 6.26105 8.6984 6.19105 8.7684C6.13105 8.8284 6.05105 8.8584 5.95105 8.8584H5.27605ZM8.53199 8.8584C8.43199 8.8584 8.34699 8.8284 8.27699 8.7684C8.21699 8.6984 8.18699 8.6134 8.18699 8.5134V0.638398C8.18699 0.538398 8.21699 0.458398 8.27699 0.398398C8.34699 0.328398 8.43199 0.293398 8.53199 0.293398H9.23699C9.34699 0.293398 9.43199 0.328398 9.49199 0.398398C9.55199 0.458398 9.58199 0.538398 9.58199 0.638398V8.5134C9.58199 8.6134 9.55199 8.6984 9.49199 8.7684C9.43199 8.8284 9.34699 8.8584 9.23699 8.8584H8.53199ZM12.8081 8.8584C12.5881 8.8584 12.4781 8.7484 12.4781 8.5284V3.1734C12.4781 2.5834 12.5481 2.1234 12.6881 1.7934C12.8281 1.4634 12.9981 1.2984 13.1981 1.2984H14.6831C14.4331 1.2984 14.2281 1.4884 14.0681 1.8684C13.9181 2.2484 13.8431 2.7184 13.8431 3.2784V8.5284C13.8431 8.6284 13.8081 8.7084 13.7381 8.7684C13.6681 8.8284 13.5831 8.8584 13.4831 8.8584H12.8081ZM11.5481 1.4934C11.4481 1.4934 11.3631 1.4634 11.2931 1.4034C11.2331 1.3334 11.2031 1.2484 11.2031 1.1484V0.638398C11.2031 0.538398 11.2331 0.458398 11.2931 0.398398C11.3631 0.328398 11.4481 0.293398 11.5481 0.293398H15.1781C15.2881 0.293398 15.3731 0.328398 15.4331 0.398398C15.4931 0.458398 15.5231 0.538398 15.5231 0.638398V1.1484C15.5231 1.2484 15.4931 1.3334 15.4331 1.4034C15.3731 1.4634 15.2881 1.4934 15.1781 1.4934H11.5481ZM17.391 5.3784C17.291 5.3784 17.206 5.3484 17.136 5.2884C17.076 5.2184 17.046 5.1334 17.046 5.0334V0.638398C17.046 0.538398 17.076 0.458398 17.136 0.398398C17.206 0.328398 17.291 0.293398 17.391 0.293398H18.096C18.206 0.293398 18.291 0.328398 18.351 0.398398C18.411 0.458398 18.441 0.538398 18.441 0.638398V5.0334C18.441 5.1334 18.411 5.2184 18.351 5.2884C18.291 5.3484 18.206 5.3784 18.096 5.3784H17.391ZM26.1716 8.8584C26.0616 8.8584 25.9766 8.8284 25.9166 8.7684C25.8566 8.7084 25.8016 8.6584 25.7516 8.6184L20.2466 0.878398C20.1766 0.768398 20.1416 0.673398 20.1416 0.593398C20.1416 0.513398 20.1716 0.443398 20.2316 0.383398C20.3016 0.323398 20.3766 0.293398 20.4566 0.293398H21.1466C21.2666 0.293398 21.3566 0.323398 21.4166 0.383398C21.4866 0.443398 21.5416 0.498398 21.5816 0.548398L27.1016 8.2734C27.1416 8.3434 27.1666 8.3984 27.1766 8.4384C27.1966 8.4784 27.2066 8.5184 27.2066 8.5584C27.2066 8.6384 27.1766 8.7084 27.1166 8.7684C27.0566 8.8284 26.9816 8.8584 26.8916 8.8584H26.1716ZM20.3216 8.8584C20.2216 8.8584 20.1366 8.8284 20.0666 8.7684C20.0066 8.6984 19.9766 8.6134 19.9766 8.5134V6.2634C19.9766 5.8034 20.0216 5.3684 20.1116 4.9584C20.2016 4.5384 20.3766 4.1434 20.6366 3.7734C20.9066 3.3934 21.3066 3.0384 21.8366 2.7084L22.5266 3.7134C22.1666 3.9434 21.8966 4.2084 21.7166 4.5084C21.5366 4.7984 21.4166 5.1034 21.3566 5.4234C21.2966 5.7334 21.2666 6.0334 21.2666 6.3234V8.5134C21.2666 8.6134 21.2316 8.6984 21.1616 8.7684C21.1016 8.8284 21.0216 8.8584 20.9216 8.8584H20.3216ZM24.9716 6.1134L24.3566 5.0784C24.8466 4.8484 25.1916 4.6084 25.3916 4.3584C25.6016 4.1084 25.7266 3.8484 25.7666 3.5784C25.8066 3.2984 25.8266 3.0084 25.8266 2.7084V0.638398C25.8266 0.538398 25.8566 0.458398 25.9166 0.398398C25.9866 0.328398 26.0716 0.293398 26.1716 0.293398H26.8016C26.9016 0.293398 26.9816 0.328398 27.0416 0.398398C27.1116 0.458398 27.1466 0.538398 27.1466 0.638398V2.7834C27.1466 3.2034 27.0966 3.6084 26.9966 3.9984C26.8966 4.3884 26.6916 4.7584 26.3816 5.1084C26.0816 5.4584 25.6116 5.7934 24.9716 6.1134Z" fill="#2F4B6F"/>
</svg>
