<svg width="96" height="25" viewBox="0 0 96 25" fill="none" xmlns="http://www.w3.org/2000/svg">
<path d="M64.6613 13.126C64.5773 13.154 64.498 13.14 64.4233 13.084C64.3487 13.0373 64.3113 12.9673 64.3113 12.874V12.23C64.3113 12.146 64.3347 12.0713 64.3813 12.006C64.4373 11.9407 64.5167 11.8893 64.6193 11.852L65.1653 11.642C65.5293 11.4927 65.8607 11.306 66.1593 11.082C66.4673 10.8487 66.7053 10.536 66.8733 10.144C67.0507 9.752 67.1393 9.23867 67.1393 8.604C67.1393 7.99733 67.0647 7.51667 66.9153 7.162C66.7753 6.798 66.5327 6.54133 66.1873 6.392C65.8513 6.23333 65.3893 6.154 64.8013 6.154H64.3813C64.288 6.154 64.2087 6.126 64.1433 6.07C64.0873 6.00467 64.0593 5.92533 64.0593 5.832V5.328C64.0593 5.23467 64.0873 5.16 64.1433 5.104C64.2087 5.03867 64.288 5.006 64.3813 5.006H64.9973C65.8467 5.006 66.5233 5.12733 67.0273 5.37C67.5313 5.61267 67.8907 6.00467 68.1053 6.546C68.3293 7.078 68.4413 7.778 68.4413 8.646C68.4413 9.29933 68.3527 9.864 68.1753 10.34C67.998 10.816 67.7553 11.222 67.4473 11.558C67.1487 11.894 66.808 12.174 66.4253 12.398C66.0427 12.6127 65.646 12.79 65.2353 12.93L64.6613 13.126ZM64.6893 6.154L63.0233 6.14C62.93 6.14 62.8507 6.112 62.7853 6.056C62.7293 6 62.7013 5.92533 62.7013 5.832V3.382C62.7013 3.28867 62.7293 3.214 62.7853 3.158C62.8507 3.09267 62.93 3.06 63.0233 3.06H63.6113C63.7047 3.06 63.7793 3.09267 63.8353 3.158C63.9007 3.214 63.9333 3.28867 63.9333 3.382V5.006H64.7173L64.6893 6.154ZM70.5051 9.752C70.4118 9.752 70.3325 9.724 70.2671 9.668C70.2111 9.60267 70.1831 9.52333 70.1831 9.43V5.328C70.1831 5.23467 70.2111 5.16 70.2671 5.104C70.3325 5.03867 70.4118 5.006 70.5051 5.006H71.1631C71.2658 5.006 71.3451 5.03867 71.4011 5.104C71.4571 5.16 71.4851 5.23467 71.4851 5.328V9.43C71.4851 9.52333 71.4571 9.60267 71.4011 9.668C71.3451 9.724 71.2658 9.752 71.1631 9.752H70.5051ZM73.7864 9.752C73.693 9.752 73.6137 9.724 73.5484 9.668C73.4924 9.60267 73.4644 9.52333 73.4644 9.43V5.328C73.4644 5.23467 73.4924 5.16 73.5484 5.104C73.6137 5.03867 73.693 5.006 73.7864 5.006H74.4444C74.547 5.006 74.6264 5.03867 74.6824 5.104C74.7384 5.16 74.7664 5.23467 74.7664 5.328V9.43C74.7664 9.52333 74.7384 9.60267 74.6824 9.668C74.6264 9.724 74.547 9.752 74.4444 9.752H73.7864ZM80.3436 6.154H76.9416C76.839 6.154 76.7596 6.126 76.7036 6.07C76.6476 6.00467 76.6196 5.92533 76.6196 5.832V5.328C76.6196 5.23467 76.6476 5.16 76.7036 5.104C76.7596 5.03867 76.839 5.006 76.9416 5.006H80.4976C81.0763 5.006 81.5896 5.14133 82.0376 5.412C82.495 5.68267 82.8496 6.07467 83.1016 6.588C83.363 7.092 83.4936 7.70333 83.4936 8.422V12.678C83.4936 12.7713 83.461 12.8507 83.3956 12.916C83.3396 12.972 83.265 13 83.1716 13H79.5596C79.4663 13 79.387 12.972 79.3216 12.916C79.2656 12.8507 79.2376 12.7713 79.2376 12.678V12.202C79.2376 12.1087 79.2656 12.034 79.3216 11.978C79.387 11.9127 79.4663 11.88 79.5596 11.88H82.2196V8.506C82.2196 8.03 82.1356 7.61467 81.9676 7.26C81.809 6.90533 81.585 6.63467 81.2956 6.448C81.0156 6.252 80.6983 6.154 80.3436 6.154ZM76.8016 13C76.7176 13 76.6476 12.9673 76.5916 12.902C76.5356 12.8367 76.5123 12.7573 76.5216 12.664L77.7116 5.804C77.7303 5.71067 77.7723 5.64067 77.8376 5.594C77.903 5.538 77.9823 5.51933 78.0756 5.538L78.6356 5.566C78.729 5.57533 78.8036 5.61733 78.8596 5.692C78.9156 5.75733 78.9296 5.83667 78.9016 5.93L77.7956 12.664C77.7863 12.7573 77.7443 12.8367 77.6696 12.902C77.6043 12.9673 77.525 13 77.4316 13H76.8016ZM85.7903 9.752C85.6969 9.752 85.6176 9.724 85.5523 9.668C85.4963 9.60267 85.4683 9.52333 85.4683 9.43V5.328C85.4683 5.23467 85.4963 5.16 85.5523 5.104C85.6176 5.03867 85.6969 5.006 85.7903 5.006H86.4483C86.5509 5.006 86.6303 5.03867 86.6863 5.104C86.7423 5.16 86.7703 5.23467 86.7703 5.328V9.43C86.7703 9.52333 86.7423 9.60267 86.6863 9.668C86.6303 9.724 86.5509 9.752 86.4483 9.752H85.7903ZM94.2935 13C94.1909 13 94.1115 12.972 94.0555 12.916C93.9995 12.86 93.9482 12.8133 93.9015 12.776L88.7635 5.552C88.6982 5.44933 88.6655 5.36067 88.6655 5.286C88.6655 5.21133 88.6935 5.146 88.7495 5.09C88.8149 5.034 88.8849 5.006 88.9595 5.006H89.6035C89.7155 5.006 89.7995 5.034 89.8555 5.09C89.9209 5.146 89.9722 5.19733 90.0095 5.244L95.1615 12.454C95.1989 12.5193 95.2222 12.5707 95.2315 12.608C95.2502 12.6453 95.2595 12.6827 95.2595 12.72C95.2595 12.7947 95.2315 12.86 95.1755 12.916C95.1195 12.972 95.0495 13 94.9655 13H94.2935ZM88.8335 13C88.7402 13 88.6609 12.972 88.5955 12.916C88.5395 12.8507 88.5115 12.7713 88.5115 12.678V10.578C88.5115 10.1487 88.5535 9.74267 88.6375 9.36C88.7215 8.968 88.8849 8.59933 89.1275 8.254C89.3795 7.89933 89.7529 7.568 90.2475 7.26L90.8915 8.198C90.5555 8.41267 90.3035 8.66 90.1355 8.94C89.9675 9.21067 89.8555 9.49533 89.7995 9.794C89.7435 10.0833 89.7155 10.3633 89.7155 10.634V12.678C89.7155 12.7713 89.6829 12.8507 89.6175 12.916C89.5615 12.972 89.4869 13 89.3935 13H88.8335ZM93.1735 10.438L92.5995 9.472C93.0569 9.25733 93.3789 9.03333 93.5655 8.8C93.7615 8.56667 93.8782 8.324 93.9155 8.072C93.9529 7.81067 93.9715 7.54 93.9715 7.26V5.328C93.9715 5.23467 93.9995 5.16 94.0555 5.104C94.1209 5.03867 94.2002 5.006 94.2935 5.006H94.8815C94.9749 5.006 95.0495 5.03867 95.1055 5.104C95.1709 5.16 95.2035 5.23467 95.2035 5.328V7.33C95.2035 7.722 95.1569 8.1 95.0635 8.464C94.9702 8.828 94.7789 9.17333 94.4895 9.5C94.2095 9.82667 93.7709 10.1393 93.1735 10.438Z" fill="#2F4B6F"/>
</svg>
