<svg width="417" height="409" viewBox="0 0 417 409" fill="none" xmlns="http://www.w3.org/2000/svg">
<path d="M196.669 399.896C195.997 399.896 195.445 399.688 195.013 399.272C194.581 398.84 194.365 398.28 194.365 397.592C194.365 396.888 194.581 396.328 195.013 395.912C195.445 395.48 195.997 395.264 196.669 395.264C197.373 395.264 197.933 395.48 198.349 395.912C198.781 396.328 198.997 396.888 198.997 397.592C198.997 398.28 198.781 398.84 198.349 399.272C197.933 399.688 197.373 399.896 196.669 399.896ZM196.669 391.184C195.997 391.184 195.445 390.976 195.013 390.56C194.581 390.144 194.365 389.584 194.365 388.88C194.365 388.176 194.581 387.616 195.013 387.2C195.445 386.784 195.997 386.576 196.669 386.576C197.373 386.576 197.933 386.784 198.349 387.2C198.781 387.616 198.997 388.176 198.997 388.88C198.997 389.584 198.781 390.144 198.349 390.56C197.933 390.976 197.373 391.184 196.669 391.184ZM211.724 391.206V399.632H208.548V391.182C208.548 389.971 208.286 389.128 207.763 388.651C207.247 388.167 206.376 387.925 205.15 387.925H200.275V385.089H205.337C206.876 385.089 208.111 385.296 209.04 385.71C209.978 386.116 210.657 386.768 211.079 387.667C211.509 388.557 211.724 389.737 211.724 391.206ZM221.585 399.866C219.429 399.866 217.843 399.366 216.827 398.366C215.811 397.358 215.304 395.811 215.304 393.725V385.089H218.468V393.655C218.468 394.819 218.718 395.671 219.218 396.21C219.718 396.749 220.515 397.018 221.608 397.018C222.405 397.018 223.081 396.866 223.636 396.561C224.19 396.249 224.612 395.71 224.901 394.944C225.19 394.171 225.335 393.1 225.335 391.733C225.335 390.382 225.182 389.374 224.878 388.71C224.573 388.038 224.069 387.702 223.366 387.702C222.686 387.702 221.975 387.925 221.233 388.37V385.499C221.968 385.061 222.854 384.843 223.893 384.843C225.565 384.843 226.765 385.389 227.491 386.483C228.225 387.569 228.593 389.311 228.593 391.71C228.593 394.538 228.03 396.604 226.905 397.909C225.788 399.214 224.015 399.866 221.585 399.866ZM234.844 385.089V392.811H231.68V385.089H234.844ZM238.178 392.284C238.178 391.768 238.229 391.233 238.33 390.678C238.44 390.116 238.588 389.593 238.776 389.108C238.963 388.616 239.182 388.221 239.432 387.925H237.217V385.089H245.35C247.701 385.089 249.404 385.585 250.459 386.577C251.522 387.569 252.053 389.167 252.053 391.37V392.307C252.053 394.8 251.451 396.682 250.248 397.956C249.045 399.229 247.272 399.866 244.928 399.866C242.631 399.866 240.932 399.268 239.83 398.073C238.729 396.87 238.178 395.061 238.178 392.647V392.284ZM242.186 387.925C241.709 388.753 241.471 390.143 241.471 392.096V392.624C241.471 394.093 241.764 395.198 242.35 395.94C242.936 396.675 243.819 397.042 244.998 397.042C246.311 397.042 247.26 396.663 247.846 395.905C248.44 395.147 248.737 393.917 248.737 392.214V391.346C248.737 390.128 248.451 389.253 247.881 388.721C247.319 388.19 246.397 387.925 245.115 387.925H242.186ZM257.824 385.089V392.811H254.66V385.089H257.824ZM274.611 396.796V399.632H261.052V396.796H269.888V391.616C269.888 390.249 269.63 389.292 269.115 388.745C268.607 388.198 267.736 387.925 266.501 387.925H261.603V385.089H266.548C268.83 385.089 270.482 385.565 271.505 386.518C272.537 387.471 273.052 389.034 273.052 391.206V396.796H274.611ZM279.913 385.089V392.811H276.749V385.089H279.913ZM287.384 385.089V392.811H284.22V385.089H287.384ZM303.678 396.796V399.632H290.12V396.796H298.956V391.616C298.956 390.249 298.698 389.292 298.182 388.745C297.674 388.198 296.803 387.925 295.569 387.925H290.67V385.089H295.616C297.897 385.089 299.549 385.565 300.573 386.518C301.604 387.471 302.12 389.034 302.12 391.206V396.796H303.678ZM318.578 391.206V399.632H315.402V391.182C315.402 389.987 315.149 389.147 314.641 388.663C314.133 388.171 313.25 387.925 311.992 387.925H306.051V385.089H312.192C313.731 385.089 314.965 385.296 315.895 385.71C316.832 386.124 317.512 386.78 317.934 387.678C318.363 388.569 318.578 389.745 318.578 391.206ZM309.449 390.796V399.632H306.285V390.796H309.449ZM330.835 385.089V392.811H327.671V385.089H330.835ZM340.814 399.866C338.657 399.866 337.071 399.366 336.056 398.366C335.04 397.358 334.532 395.811 334.532 393.725V385.089H337.696V393.655C337.696 394.819 337.946 395.671 338.446 396.21C338.946 396.749 339.743 397.018 340.837 397.018C341.634 397.018 342.31 396.866 342.864 396.561C343.419 396.249 343.841 395.71 344.13 394.944C344.419 394.171 344.564 393.1 344.564 391.733C344.564 390.382 344.411 389.374 344.107 388.71C343.802 388.038 343.298 387.702 342.595 387.702C341.915 387.702 341.204 387.925 340.462 388.37V385.499C341.196 385.061 342.083 384.843 343.122 384.843C344.794 384.843 345.993 385.389 346.72 386.483C347.454 387.569 347.821 389.311 347.821 391.71C347.821 394.538 347.259 396.604 346.134 397.909C345.017 399.214 343.243 399.866 340.814 399.866ZM360.776 391.206V399.632H357.6V391.182C357.6 389.971 357.339 389.128 356.815 388.651C356.3 388.167 355.429 387.925 354.202 387.925H349.327V385.089H354.389C355.929 385.089 357.163 385.296 358.093 385.71C359.03 386.116 359.71 386.768 360.132 387.667C360.561 388.557 360.776 389.737 360.776 391.206ZM373.567 391.639C373.567 390.389 373.282 389.46 372.711 388.85C372.141 388.233 371.243 387.925 370.016 387.925H367.309V391.065H370.157V393.901H364.11V385.089H370.04C372.336 385.089 374.032 385.624 375.125 386.694C376.219 387.764 376.766 389.428 376.766 391.686V392.647C376.766 397.303 374.372 399.632 369.582 399.632H364.239V396.796H369.512C370.864 396.796 371.875 396.448 372.547 395.753C373.227 395.057 373.567 394.014 373.567 392.624V391.639Z" fill="#2F4B6F"/>
<g filter="url(#filter0_d_1157_17019)">
<rect x="4" y="207" width="353" height="59" rx="29.5" fill="white"/>
</g>
<path d="M62.4387 143.16C62.0787 143.16 61.772 143.047 61.5187 142.82C61.2787 142.593 61.1587 142.28 61.1587 141.88C61.1587 141.48 61.2787 141.167 61.5187 140.94C61.772 140.713 62.0787 140.6 62.4387 140.6C62.7987 140.6 63.0987 140.713 63.3387 140.94C63.592 141.167 63.7187 141.48 63.7187 141.88C63.7187 142.28 63.592 142.593 63.3387 142.82C63.0987 143.047 62.7987 143.16 62.4387 143.16ZM62.4387 134.68C62.0787 134.68 61.772 134.567 61.5187 134.34C61.2787 134.113 61.1587 133.8 61.1587 133.4C61.1587 133 61.2787 132.687 61.5187 132.46C61.772 132.233 62.0787 132.12 62.4387 132.12C62.7987 132.12 63.0987 132.233 63.3387 132.46C63.592 132.687 63.7187 133 63.7187 133.4C63.7187 133.8 63.592 134.113 63.3387 134.34C63.0987 134.567 62.7987 134.68 62.4387 134.68ZM76.987 135.979V143H66.7234V131.018H71.9675C73.7644 131.018 75.0502 131.402 75.8249 132.17C76.5997 132.938 76.987 134.208 76.987 135.979ZM68.5202 141.34H75.1804V135.959C75.1804 134.774 74.9395 133.931 74.4577 133.43C73.9825 132.928 73.1459 132.678 71.948 132.678H68.5202V141.34ZM81.4643 131.018V137.316H79.6674V131.018H81.4643ZM86.674 139.064L85.8927 143H83.9982L84.8185 139.104C85.0529 137.984 85.2677 137.196 85.463 136.74C85.6584 136.278 85.9025 135.904 86.1955 135.617C86.4949 135.331 86.8953 135.087 87.3966 134.885L84.5744 131.018H86.7912L91.1955 137.082C91.6838 136.626 92.0711 136.076 92.3576 135.432C92.6505 134.781 92.8426 134.035 92.9338 133.195L93.1584 131.018H95.0138L94.7892 133.156C94.7176 133.872 94.5874 134.501 94.3986 135.041C94.2684 135.412 94.1121 135.767 93.9298 136.105C93.7476 136.438 93.5132 136.783 93.2267 137.141C92.9468 137.499 92.5822 137.899 92.133 138.342L95.6584 143H93.3732L88.217 135.998C87.6961 136.252 87.325 136.691 87.1037 137.316C87.0386 137.479 86.9702 137.707 86.8986 138C86.8335 138.293 86.7586 138.648 86.674 139.064ZM106.952 141.34V143H96.493V141.34H103.856V135.959C103.856 134.761 103.612 133.915 103.124 133.42C102.642 132.925 101.806 132.678 100.614 132.678H96.952V131.018H100.634C102.431 131.018 103.716 131.402 104.491 132.17C105.266 132.938 105.653 134.208 105.653 135.979V141.34H106.952ZM118.529 135.979V143H116.722V135.959C116.722 134.761 116.478 133.915 115.99 133.42C115.508 132.925 114.671 132.678 113.48 132.678H108.929V131.018H113.509C114.707 131.018 115.674 131.187 116.41 131.525C117.145 131.857 117.683 132.388 118.021 133.117C118.36 133.84 118.529 134.794 118.529 135.979ZM110.921 135.217V143H109.125V135.217H110.921ZM136.761 135.979V143H126.497V131.018H131.741C133.538 131.018 134.824 131.402 135.599 132.17C136.373 132.938 136.761 134.208 136.761 135.979ZM128.294 141.34H134.954V135.959C134.954 134.774 134.713 133.931 134.231 133.43C133.756 132.928 132.92 132.678 131.722 132.678H128.294V141.34ZM141.238 131.018V137.316H139.441V131.018H141.238ZM149.563 143.195C147.903 143.195 146.682 142.779 145.901 141.945C145.12 141.105 144.729 139.816 144.729 138.078V131.018H146.526V138.02C146.526 139.23 146.763 140.116 147.239 140.676C147.721 141.236 148.505 141.516 149.592 141.516C150.445 141.516 151.138 141.343 151.672 140.998C152.206 140.653 152.597 140.109 152.844 139.367C153.098 138.618 153.225 137.635 153.225 136.418C153.225 135.064 153.082 134.074 152.795 133.449C152.509 132.818 152.021 132.502 151.331 132.502C150.666 132.502 150.025 132.714 149.407 133.137V131.418C149.908 131.021 150.608 130.822 151.506 130.822C152.841 130.822 153.775 131.262 154.309 132.141C154.843 133.013 155.11 134.439 155.11 136.418C155.11 138.755 154.664 140.471 153.772 141.564C152.88 142.652 151.477 143.195 149.563 143.195ZM165.056 135.979V143H163.249V135.959C163.249 134.774 163.008 133.931 162.527 133.43C162.051 132.928 161.215 132.678 160.017 132.678H156.355V131.018H160.036C161.234 131.018 162.201 131.187 162.937 131.525C163.672 131.857 164.21 132.388 164.548 133.117C164.887 133.84 165.056 134.794 165.056 135.979ZM175.715 136.34C175.715 135.109 175.445 134.191 174.904 133.586C174.364 132.98 173.514 132.678 172.355 132.678H169.66V136.057H172.033V137.717H167.834V131.018H172.375C174.12 131.018 175.415 131.454 176.262 132.326C177.115 133.192 177.541 134.543 177.541 136.379V137.18C177.541 141.06 175.705 143 172.033 143H167.941V141.34H172.082C173.319 141.34 174.234 140.998 174.826 140.314C175.419 139.624 175.715 138.586 175.715 137.199V136.34ZM189.508 135.979V143H187.702V135.959C187.702 134.761 187.458 133.915 186.969 133.42C186.488 132.925 185.651 132.678 184.46 132.678H179.909V131.018H184.489C185.687 131.018 186.654 131.187 187.389 131.525C188.125 131.857 188.662 132.388 189.001 133.117C189.339 133.84 189.508 134.794 189.508 135.979ZM181.901 135.217V143H180.104V135.217H181.901ZM199.811 141.145C199.589 141.802 199.238 142.277 198.756 142.57C198.274 142.857 197.516 143 196.481 143H196.373V141.34H196.539C196.988 141.34 197.346 141.255 197.613 141.086C197.874 140.917 198.059 140.66 198.17 140.314C198.281 139.963 198.336 139.432 198.336 138.723V132.678H196.481V131.018H202.955C204.752 131.018 206.041 131.402 206.822 132.17C207.604 132.932 207.994 134.201 207.994 135.979V143H206.197V135.959C206.197 134.761 205.953 133.915 205.465 133.42C204.983 132.925 204.14 132.678 202.936 132.678H200.133V138.361C200.133 139.559 200.025 140.487 199.811 141.145ZM212.706 139.064L211.925 143H210.03L210.85 139.104C211.085 137.984 211.3 137.196 211.495 136.74C211.69 136.278 211.934 135.904 212.227 135.617C212.527 135.331 212.927 135.087 213.429 134.885L210.606 131.018H212.823L217.227 137.082C217.716 136.626 218.103 136.076 218.389 135.432C218.682 134.781 218.874 134.035 218.966 133.195L219.19 131.018H221.046L220.821 133.156C220.749 133.872 220.619 134.501 220.43 135.041C220.3 135.412 220.144 135.767 219.962 136.105C219.779 136.438 219.545 136.783 219.259 137.141C218.979 137.499 218.614 137.899 218.165 138.342L221.69 143H219.405L214.249 135.998C213.728 136.252 213.357 136.691 213.136 137.316C213.07 137.479 213.002 137.707 212.93 138C212.865 138.293 212.79 138.648 212.706 139.064ZM230.117 131.018V137.316H228.321V131.018H230.117ZM239.194 130.822C240.77 130.822 241.919 131.304 242.642 132.268C243.371 133.225 243.735 134.748 243.735 136.838V143H237.856V141.34H241.919V137.062C241.919 135.467 241.714 134.309 241.304 133.586C240.894 132.863 240.197 132.502 239.214 132.502C238.335 132.502 237.612 132.899 237.046 133.693C236.473 134.501 235.949 135.904 235.474 137.902L234.253 143H232.319L233.657 137.756C233.807 137.144 233.96 136.59 234.116 136.096C234.272 135.601 234.425 135.161 234.575 134.777L232.134 131.018H234.253L235.474 133C235.981 132.232 236.525 131.678 237.104 131.34C237.684 130.995 238.38 130.822 239.194 130.822ZM248.213 131.018V137.316H246.416V131.018H248.213ZM251.987 141.418C253.237 140.956 254.304 140.37 255.19 139.66C256.082 138.957 256.759 138.189 257.221 137.355C257.69 136.522 257.924 135.676 257.924 134.816C257.924 133.391 257.163 132.678 255.639 132.678H250.786V126.74H252.582V131.018H255.825C258.435 131.018 259.741 132.18 259.741 134.504C259.741 135.702 259.454 136.851 258.881 137.951C258.308 139.051 257.501 140.041 256.459 140.92C255.222 141.975 253.732 142.814 251.987 143.439V141.418ZM271.171 141.789C270.722 142.089 270.162 142.333 269.491 142.521C268.827 142.71 267.994 142.85 266.991 142.941C265.989 143.033 264.748 143.085 263.271 143.098L260.985 131.018H262.851L264.052 137.18L264.765 137.043C265.155 136.952 265.478 136.835 265.732 136.691C265.985 136.542 266.187 136.333 266.337 136.066C266.461 135.858 266.555 135.601 266.62 135.295C266.685 134.989 266.734 134.624 266.767 134.201L267.011 131.018H268.866L268.564 134.221C268.518 134.761 268.463 135.23 268.398 135.627C268.332 136.018 268.254 136.333 268.163 136.574C268 137.062 267.756 137.44 267.431 137.707C267.105 137.967 266.565 138.199 265.81 138.4L264.345 138.742L264.823 141.262H265.058C266.366 141.262 267.415 141.187 268.202 141.037C268.99 140.881 269.612 140.64 270.068 140.314C270.373 140.093 270.631 139.82 270.839 139.494C271.047 139.169 271.223 138.739 271.366 138.205C271.51 137.671 271.63 136.984 271.728 136.145L272.343 131.018H274.228L273.603 136.076C273.472 137.209 273.303 138.143 273.095 138.879C272.887 139.608 272.626 140.201 272.314 140.656C272.008 141.105 271.627 141.483 271.171 141.789ZM285.961 135.979V143H284.154V135.959C284.154 134.761 283.91 133.915 283.422 133.42C282.94 132.925 282.103 132.678 280.912 132.678H276.361V131.018H280.941C282.139 131.018 283.106 131.187 283.842 131.525C284.577 131.857 285.114 132.388 285.453 133.117C285.792 133.84 285.961 134.794 285.961 135.979ZM278.353 135.217V143H276.556V135.217H278.353ZM295.55 139.064L294.769 143H292.874L293.695 139.104C293.929 137.984 294.144 137.196 294.339 136.74C294.534 136.278 294.779 135.904 295.072 135.617C295.371 135.331 295.771 135.087 296.273 134.885L293.45 131.018H295.667L300.072 137.082C300.56 136.626 300.947 136.076 301.234 135.432C301.527 134.781 301.719 134.035 301.81 133.195L302.034 131.018H303.89L303.665 133.156C303.594 133.872 303.463 134.501 303.275 135.041C303.144 135.412 302.988 135.767 302.806 136.105C302.624 136.438 302.389 136.783 302.103 137.141C301.823 137.499 301.458 137.899 301.009 138.342L304.534 143H302.249L297.093 135.998C296.572 136.252 296.201 136.691 295.98 137.316C295.915 137.479 295.846 137.707 295.775 138C295.71 138.293 295.635 138.648 295.55 139.064ZM310.75 135.656V143H305.271V141.34H308.953V136.164C308.953 135.109 308.901 134.364 308.797 133.928C308.693 133.479 308.51 133.16 308.25 132.971C307.996 132.775 307.628 132.678 307.146 132.678H305.828V131.018H307.088C308.13 131.018 308.891 131.161 309.373 131.447C309.855 131.74 310.203 132.219 310.418 132.883C310.639 133.54 310.75 134.465 310.75 135.656Z" fill="#2F4B6F"/>
<path d="M131.856 106C131.856 106 131.842 105.807 131.816 105.42C131.789 105.02 131.762 104.493 131.736 103.84C131.709 103.173 131.696 102.453 131.696 101.68V95.6H133.656L133.696 95.76C133.642 96 133.602 96.3267 133.576 96.74C133.562 97.14 133.549 97.5267 133.536 97.9C133.536 98.2733 133.536 98.5333 133.536 98.68V101.68C133.536 102.453 133.522 103.173 133.496 103.84C133.469 104.493 133.442 105.02 133.416 105.42C133.389 105.807 133.376 106 133.376 106H131.856ZM132.656 110.16C132.296 110.16 131.989 110.047 131.736 109.82C131.496 109.593 131.376 109.28 131.376 108.88C131.376 108.48 131.496 108.167 131.736 107.94C131.989 107.713 132.296 107.6 132.656 107.6C133.016 107.6 133.316 107.713 133.556 107.94C133.809 108.167 133.936 108.48 133.936 108.88C133.936 109.28 133.809 109.593 133.556 109.82C133.316 110.047 133.016 110.16 132.656 110.16ZM137.554 106C137.554 106 137.54 105.807 137.514 105.42C137.487 105.02 137.46 104.493 137.434 103.84C137.407 103.173 137.394 102.453 137.394 101.68V95.6H139.354L139.394 95.76C139.34 96 139.3 96.3267 139.274 96.74C139.26 97.14 139.247 97.5267 139.234 97.9C139.234 98.2733 139.234 98.5333 139.234 98.68V101.68C139.234 102.453 139.22 103.173 139.194 103.84C139.167 104.493 139.14 105.02 139.114 105.42C139.087 105.807 139.074 106 139.074 106H137.554ZM138.354 110.16C137.994 110.16 137.687 110.047 137.434 109.82C137.194 109.593 137.074 109.28 137.074 108.88C137.074 108.48 137.194 108.167 137.434 107.94C137.687 107.713 137.994 107.6 138.354 107.6C138.714 107.6 139.014 107.713 139.254 107.94C139.507 108.167 139.634 108.48 139.634 108.88C139.634 109.28 139.507 109.593 139.254 109.82C139.014 110.047 138.714 110.16 138.354 110.16ZM150.174 102.979V113.76H148.367V102.959C148.367 101.774 148.126 100.931 147.644 100.43C147.169 99.9284 146.332 99.6777 145.135 99.6777H141.472V98.0176H145.154C146.352 98.0176 147.319 98.1868 148.054 98.5254C148.79 98.8574 149.327 99.388 149.666 100.117C150.004 100.84 150.174 101.794 150.174 102.979ZM153.03 108.418C154.28 107.956 155.347 107.37 156.233 106.66C157.125 105.957 157.802 105.189 158.264 104.355C158.733 103.522 158.967 102.676 158.967 101.816C158.967 100.391 158.206 99.6777 156.682 99.6777H151.829V93.7402H153.625V98.0176H156.868C159.478 98.0176 160.784 99.1797 160.784 101.504C160.784 102.702 160.497 103.851 159.924 104.951C159.351 106.051 158.544 107.041 157.502 107.92C156.265 108.975 154.775 109.814 153.03 110.439V108.418ZM178.801 102.979V110H168.537V98.0176H173.781C175.578 98.0176 176.864 98.4017 177.639 99.1699C178.413 99.9382 178.801 101.208 178.801 102.979ZM170.334 108.34H176.994V102.959C176.994 101.774 176.753 100.931 176.271 100.43C175.796 99.9284 174.96 99.6777 173.762 99.6777H170.334V108.34ZM183.688 98.0176V110H181.891V98.0176H183.688ZM187.052 108.418C188.302 107.956 189.37 107.37 190.255 106.66C191.147 105.957 191.824 105.189 192.286 104.355C192.755 103.522 192.99 102.676 192.99 101.816C192.99 100.391 192.228 99.6777 190.704 99.6777H185.851V93.7402H187.648V98.0176H190.89C193.501 98.0176 194.806 99.1797 194.806 101.504C194.806 102.702 194.52 103.851 193.947 104.951C193.374 106.051 192.566 107.041 191.525 107.92C190.288 108.975 188.797 109.814 187.052 110.439V108.418ZM206.236 108.789C205.787 109.089 205.227 109.333 204.557 109.521C203.893 109.71 203.059 109.85 202.057 109.941C201.054 110.033 199.814 110.085 198.336 110.098L196.051 98.0176H197.916L199.117 104.18L199.83 104.043C200.221 103.952 200.543 103.835 200.797 103.691C201.051 103.542 201.253 103.333 201.402 103.066C201.526 102.858 201.621 102.601 201.686 102.295C201.751 101.989 201.8 101.624 201.832 101.201L202.076 98.0176H203.932L203.629 101.221C203.583 101.761 203.528 102.23 203.463 102.627C203.398 103.018 203.32 103.333 203.229 103.574C203.066 104.062 202.822 104.44 202.496 104.707C202.171 104.967 201.63 105.199 200.875 105.4L199.41 105.742L199.889 108.262H200.123C201.432 108.262 202.48 108.187 203.268 108.037C204.055 107.881 204.677 107.64 205.133 107.314C205.439 107.093 205.696 106.82 205.904 106.494C206.113 106.169 206.288 105.739 206.432 105.205C206.575 104.671 206.695 103.984 206.793 103.145L207.408 98.0176H209.293L208.668 103.076C208.538 104.209 208.369 105.143 208.16 105.879C207.952 106.608 207.691 107.201 207.379 107.656C207.073 108.105 206.692 108.483 206.236 108.789ZM217.199 110.24C217.026 110.16 216.839 110.02 216.639 109.82C216.453 109.607 216.359 109.32 216.359 108.96C216.359 108.52 216.479 108.187 216.719 107.96C216.973 107.72 217.279 107.6 217.639 107.6C217.999 107.6 218.299 107.707 218.539 107.92C218.793 108.133 218.919 108.48 218.919 108.96C218.919 109.28 218.873 109.567 218.779 109.82C218.686 110.073 218.599 110.293 218.519 110.48L217.319 113.12H215.799V112.96L217.199 110.24ZM223.721 98.0176V104.316H221.924V98.0176H223.721ZM228.696 98.0176V104.316H226.899V98.0176H228.696ZM241.259 102.979V110H239.453V102.959C239.453 101.761 239.209 100.915 238.72 100.42C238.239 99.9251 237.402 99.6777 236.211 99.6777H231.66V98.0176H236.24C237.438 98.0176 238.405 98.1868 239.14 98.5254C239.876 98.8574 240.413 99.388 240.752 100.117C241.09 100.84 241.259 101.794 241.259 102.979ZM233.652 102.217V110H231.855V102.217H233.652Z" fill="#2F4B6F"/>
<path d="M144.661 39C144.397 39 144.169 38.916 143.977 38.748C143.809 38.58 143.725 38.376 143.725 38.136V27.444C143.725 26.052 143.389 24.996 142.717 24.276C142.045 23.532 140.965 23.16 139.477 23.16H131.413C131.149 23.16 130.933 23.076 130.765 22.908C130.597 22.74 130.513 22.524 130.513 22.26V19.344C130.513 19.08 130.597 18.864 130.765 18.696C130.933 18.528 131.149 18.444 131.413 18.444H139.657C142.897 18.444 145.357 19.176 147.037 20.64C148.741 22.08 149.593 24.348 149.593 27.444V38.1C149.593 38.364 149.497 38.58 149.305 38.748C149.137 38.916 148.921 39 148.657 39H144.661ZM131.413 39C131.149 39 130.933 38.916 130.765 38.748C130.597 38.58 130.513 38.364 130.513 38.1V27.444C130.513 27.204 130.597 27 130.765 26.832C130.933 26.64 131.149 26.544 131.413 26.544H135.445C135.709 26.544 135.925 26.64 136.093 26.832C136.261 27 136.345 27.204 136.345 27.444V38.1C136.345 38.364 136.261 38.58 136.093 38.748C135.925 38.916 135.709 39 135.445 39H131.413ZM164.229 23.376H153.753C153.489 23.376 153.273 23.292 153.105 23.124C152.937 22.956 152.853 22.74 152.853 22.476V19.344C152.853 19.08 152.937 18.864 153.105 18.696C153.273 18.528 153.489 18.444 153.753 18.444H165.093C166.701 18.444 168.129 18.756 169.377 19.38C170.649 20.004 171.645 20.964 172.365 22.26C173.085 23.556 173.445 25.212 173.445 27.228V38.1C173.445 38.364 173.361 38.58 173.193 38.748C173.025 38.916 172.809 39 172.545 39H162.789C162.549 39 162.333 38.916 162.141 38.748C161.973 38.58 161.889 38.364 161.889 38.1V35.184C161.889 34.92 161.973 34.704 162.141 34.536C162.333 34.368 162.549 34.284 162.789 34.284H167.613V27.516C167.613 26.628 167.469 25.872 167.181 25.248C166.893 24.624 166.485 24.156 165.957 23.844C165.453 23.532 164.877 23.376 164.229 23.376ZM153.465 39C153.225 39 153.009 38.916 152.817 38.748C152.625 38.556 152.553 38.34 152.601 38.1L156.417 22.044C156.465 21.804 156.573 21.6 156.741 21.432C156.909 21.264 157.113 21.192 157.353 21.216L160.737 21.252C161.001 21.252 161.229 21.36 161.421 21.576C161.613 21.792 161.673 22.032 161.601 22.296L158.325 38.1C158.301 38.34 158.193 38.556 158.001 38.748C157.833 38.916 157.617 39 157.353 39H153.465ZM188.737 34.572C190.009 34.596 191.137 34.356 192.121 33.852C193.105 33.324 193.861 32.604 194.389 31.692C194.941 30.78 195.217 29.76 195.217 28.632V19.308C195.217 19.068 195.301 18.864 195.469 18.696C195.661 18.528 195.877 18.444 196.117 18.444H199.717C199.981 18.444 200.197 18.528 200.365 18.696C200.533 18.864 200.617 19.08 200.617 19.344V28.848C200.617 30.456 200.341 31.908 199.789 33.204C199.237 34.5 198.457 35.604 197.449 36.516C196.465 37.428 195.325 38.124 194.029 38.604C192.733 39.084 191.329 39.312 189.817 39.288H186.433C184.489 39.288 182.809 38.916 181.393 38.172C180.001 37.404 178.933 36.384 178.189 35.112C177.445 33.84 177.073 32.436 177.073 30.9V19.344C177.073 19.08 177.157 18.864 177.325 18.696C177.517 18.528 177.733 18.444 177.973 18.444H181.573C181.813 18.444 182.017 18.528 182.185 18.696C182.377 18.864 182.473 19.068 182.473 19.308L182.509 28.308C182.509 30.324 183.013 31.872 184.021 32.952C185.053 34.032 186.337 34.572 187.873 34.572H188.737ZM181.897 32.124V28.164C183.025 28.14 183.901 27.912 184.525 27.48C185.149 27.048 185.593 26.448 185.857 25.68C186.121 24.888 186.253 23.94 186.253 22.836V19.38C186.253 19.092 186.337 18.864 186.505 18.696C186.673 18.528 186.889 18.444 187.153 18.444H190.717C190.957 18.444 191.161 18.54 191.329 18.732C191.521 18.924 191.617 19.14 191.617 19.38V22.908C191.617 24.852 191.233 26.52 190.465 27.912C189.721 29.28 188.617 30.336 187.153 31.08C185.713 31.8 183.961 32.148 181.897 32.124ZM215.007 39C214.743 39 214.515 38.916 214.323 38.748C214.155 38.58 214.071 38.376 214.071 38.136V27.444C214.071 26.052 213.735 24.996 213.063 24.276C212.391 23.532 211.311 23.16 209.823 23.16H204.423C204.183 23.16 203.967 23.076 203.775 22.908C203.607 22.74 203.523 22.524 203.523 22.26V19.344C203.523 19.08 203.607 18.864 203.775 18.696C203.967 18.528 204.183 18.444 204.423 18.444H210.039C212.199 18.444 214.011 18.732 215.475 19.308C216.939 19.884 218.043 20.82 218.787 22.116C219.555 23.388 219.939 25.092 219.939 27.228V38.1C219.939 38.364 219.843 38.58 219.651 38.748C219.483 38.916 219.267 39 219.003 39H215.007ZM237.823 39C237.559 39 237.331 38.916 237.139 38.748C236.971 38.58 236.887 38.376 236.887 38.136V27.444C236.887 26.052 236.551 24.996 235.879 24.276C235.207 23.532 234.127 23.16 232.639 23.16H224.575C224.311 23.16 224.095 23.076 223.927 22.908C223.759 22.74 223.675 22.524 223.675 22.26V19.344C223.675 19.08 223.759 18.864 223.927 18.696C224.095 18.528 224.311 18.444 224.575 18.444H232.819C236.059 18.444 238.519 19.176 240.199 20.64C241.903 22.08 242.755 24.348 242.755 27.444V38.1C242.755 38.364 242.659 38.58 242.467 38.748C242.299 38.916 242.083 39 241.819 39H237.823ZM224.575 39C224.311 39 224.095 38.916 223.927 38.748C223.759 38.58 223.675 38.364 223.675 38.1V27.444C223.675 27.204 223.759 27 223.927 26.832C224.095 26.64 224.311 26.544 224.575 26.544H228.607C228.871 26.544 229.087 26.64 229.255 26.832C229.423 27 229.507 27.204 229.507 27.444V38.1C229.507 38.364 229.423 38.58 229.255 38.748C229.087 38.916 228.871 39 228.607 39H224.575Z" fill="#2F4B6F"/>
<rect x="163.672" y="207" width="192.828" height="59" rx="29.5" fill="#6D94E4"/>
<path d="M228.048 237.574V246H224.872V237.551C224.872 236.34 224.611 235.496 224.087 235.02C223.572 234.535 222.701 234.293 221.474 234.293H216.599V231.457H221.661C223.201 231.457 224.435 231.664 225.365 232.078C226.302 232.484 226.982 233.137 227.404 234.035C227.833 234.926 228.048 236.105 228.048 237.574ZM237.909 246.234C235.753 246.234 234.167 245.734 233.151 244.734C232.136 243.727 231.628 242.18 231.628 240.094V231.457H234.792V240.023C234.792 241.188 235.042 242.039 235.542 242.578C236.042 243.117 236.839 243.387 237.933 243.387C238.729 243.387 239.405 243.234 239.96 242.93C240.515 242.617 240.937 242.078 241.226 241.312C241.515 240.539 241.659 239.469 241.659 238.102C241.659 236.75 241.507 235.742 241.202 235.078C240.897 234.406 240.394 234.07 239.69 234.07C239.011 234.07 238.3 234.293 237.558 234.738V231.867C238.292 231.43 239.179 231.211 240.218 231.211C241.89 231.211 243.089 231.758 243.815 232.852C244.55 233.938 244.917 235.68 244.917 238.078C244.917 240.906 244.354 242.973 243.229 244.277C242.112 245.582 240.339 246.234 237.909 246.234ZM251.169 231.457V239.18H248.005V231.457H251.169ZM254.502 238.652C254.502 238.137 254.553 237.602 254.655 237.047C254.764 236.484 254.912 235.961 255.1 235.477C255.287 234.984 255.506 234.59 255.756 234.293H253.541V231.457H261.674C264.026 231.457 265.729 231.953 266.784 232.945C267.846 233.938 268.377 235.535 268.377 237.738V238.676C268.377 241.168 267.776 243.051 266.573 244.324C265.369 245.598 263.596 246.234 261.252 246.234C258.955 246.234 257.256 245.637 256.155 244.441C255.053 243.238 254.502 241.43 254.502 239.016V238.652ZM258.51 234.293C258.034 235.121 257.795 236.512 257.795 238.465V238.992C257.795 240.461 258.088 241.566 258.674 242.309C259.26 243.043 260.143 243.41 261.323 243.41C262.635 243.41 263.584 243.031 264.17 242.273C264.764 241.516 265.061 240.285 265.061 238.582V237.715C265.061 236.496 264.776 235.621 264.205 235.09C263.643 234.559 262.721 234.293 261.44 234.293H258.51ZM274.148 231.457V239.18H270.984V231.457H274.148ZM290.935 243.164V246H277.377V243.164H286.213V237.984C286.213 236.617 285.955 235.66 285.439 235.113C284.931 234.566 284.06 234.293 282.826 234.293H277.927V231.457H282.873C285.154 231.457 286.806 231.934 287.83 232.887C288.861 233.84 289.377 235.402 289.377 237.574V243.164H290.935ZM296.238 231.457V239.18H293.074V231.457H296.238ZM303.708 231.457V239.18H300.544V231.457H303.708ZM320.003 243.164V246H306.444V243.164H315.28V237.984C315.28 236.617 315.022 235.66 314.507 235.113C313.999 234.566 313.128 234.293 311.893 234.293H306.995V231.457H311.94C314.221 231.457 315.874 231.934 316.897 232.887C317.928 233.84 318.444 235.402 318.444 237.574V243.164H320.003Z" fill="white"/>
<path d="M64.61 237.574V246H61.4342V237.551C61.4342 236.355 61.1803 235.516 60.6725 235.031C60.1647 234.539 59.2819 234.293 58.0241 234.293H52.0827V231.457H58.2233C59.7624 231.457 60.9967 231.664 61.9264 232.078C62.8639 232.492 63.5436 233.148 63.9655 234.047C64.3952 234.938 64.61 236.113 64.61 237.574ZM55.4811 237.164V246H52.3171V237.164H55.4811ZM77.9632 237.961C77.9632 236.648 77.7132 235.711 77.2132 235.148C76.7132 234.578 75.8382 234.293 74.5882 234.293H71.4593V246H68.2952V231.457H74.5882C76.9007 231.457 78.5687 231.938 79.5921 232.898C80.6234 233.852 81.139 235.41 81.139 237.574V246H77.9632V237.961ZM93.9297 238.008C93.9297 236.758 93.6445 235.828 93.0742 235.219C92.5039 234.602 91.6055 234.293 90.3789 234.293H87.6719V237.434H90.5195V240.27H84.4727V231.457H90.4023C92.6992 231.457 94.3945 231.992 95.4883 233.062C96.582 234.133 97.1289 235.797 97.1289 238.055V239.016C97.1289 243.672 94.7344 246 89.9453 246H84.6016V243.164H89.875C91.2266 243.164 92.2383 242.816 92.9102 242.121C93.5898 241.426 93.9297 240.383 93.9297 238.992V238.008ZM112.521 244.559C111.881 244.918 111.091 245.215 110.154 245.449C109.224 245.676 108.064 245.844 106.674 245.953C105.291 246.062 103.599 246.117 101.599 246.117L98.8571 231.457H102.174L103.451 238.465L104.306 238.301C104.838 238.199 105.228 238.027 105.478 237.785C105.736 237.535 105.931 237.164 106.064 236.672C106.127 236.43 106.185 236.094 106.24 235.664C106.302 235.227 106.361 234.695 106.416 234.07L106.591 231.457H109.826L109.474 235.465C109.427 236.012 109.361 236.504 109.275 236.941C109.189 237.379 109.08 237.758 108.947 238.078C108.689 238.719 108.326 239.219 107.857 239.578C107.396 239.938 106.662 240.238 105.654 240.48L103.896 240.891L104.377 243.293H104.658C105.634 243.293 106.498 243.254 107.248 243.176C108.006 243.09 108.65 242.961 109.181 242.789C109.892 242.57 110.478 242.266 110.939 241.875C111.4 241.477 111.763 240.949 112.029 240.293C112.295 239.629 112.482 238.789 112.591 237.773L113.33 231.457H116.599L115.849 237.691C115.693 239.035 115.474 240.148 115.193 241.031C114.92 241.914 114.564 242.633 114.127 243.188C113.697 243.734 113.162 244.191 112.521 244.559ZM126.824 231.387C128.816 231.387 130.265 231.973 131.171 233.145C132.077 234.309 132.531 236.129 132.531 238.605V246H124.972V243.164H129.343V238.852C129.343 237.203 129.144 236.023 128.745 235.312C128.355 234.594 127.663 234.234 126.671 234.234C125.757 234.234 124.988 234.691 124.363 235.605C123.738 236.543 123.156 238.105 122.617 240.293L121.199 246H117.824L119.406 239.93C119.601 239.195 119.788 238.539 119.968 237.961C120.156 237.383 120.335 236.887 120.507 236.473L117.601 231.621H121.105L122.206 233.684C122.675 232.965 123.316 232.402 124.128 231.996C124.949 231.59 125.847 231.387 126.824 231.387Z" fill="#2F4B6F"/>
<defs>
<filter id="filter0_d_1157_17019" x="0" y="207" width="361" height="67" filterUnits="userSpaceOnUse" color-interpolation-filters="sRGB">
<feFlood flood-opacity="0" result="BackgroundImageFix"/>
<feColorMatrix in="SourceAlpha" type="matrix" values="0 0 0 0 0 0 0 0 0 0 0 0 0 0 0 0 0 0 127 0" result="hardAlpha"/>
<feOffset dy="4"/>
<feGaussianBlur stdDeviation="2"/>
<feComposite in2="hardAlpha" operator="out"/>
<feColorMatrix type="matrix" values="0 0 0 0 0 0 0 0 0 0 0 0 0 0 0 0 0 0 0.25 0"/>
<feBlend mode="normal" in2="BackgroundImageFix" result="effect1_dropShadow_1157_17019"/>
<feBlend mode="normal" in="SourceGraphic" in2="effect1_dropShadow_1157_17019" result="shape"/>
</filter>
</defs>
</svg>
