<svg width="384" height="407" viewBox="0 0 384 407" fill="none" xmlns="http://www.w3.org/2000/svg">
<path d="M62.4387 137.16C62.0787 137.16 61.772 137.047 61.5187 136.82C61.2787 136.593 61.1587 136.28 61.1587 135.88C61.1587 135.48 61.2787 135.167 61.5187 134.94C61.772 134.713 62.0787 134.6 62.4387 134.6C62.7987 134.6 63.0987 134.713 63.3387 134.94C63.592 135.167 63.7187 135.48 63.7187 135.88C63.7187 136.28 63.592 136.593 63.3387 136.82C63.0987 137.047 62.7987 137.16 62.4387 137.16ZM62.4387 128.68C62.0787 128.68 61.772 128.567 61.5187 128.34C61.2787 128.113 61.1587 127.8 61.1587 127.4C61.1587 127 61.2787 126.687 61.5187 126.46C61.772 126.233 62.0787 126.12 62.4387 126.12C62.7987 126.12 63.0987 126.233 63.3387 126.46C63.592 126.687 63.7187 127 63.7187 127.4C63.7187 127.8 63.592 128.113 63.3387 128.34C63.0987 128.567 62.7987 128.68 62.4387 128.68ZM76.987 129.979V137H66.7234V125.018H71.9675C73.7644 125.018 75.0502 125.402 75.8249 126.17C76.5997 126.938 76.987 128.208 76.987 129.979ZM68.5202 135.34H75.1804V129.959C75.1804 128.774 74.9395 127.931 74.4577 127.43C73.9825 126.928 73.1459 126.678 71.948 126.678H68.5202V135.34ZM81.4643 125.018V131.316H79.6674V125.018H81.4643ZM86.674 133.064L85.8927 137H83.9982L84.8185 133.104C85.0529 131.984 85.2677 131.196 85.463 130.74C85.6584 130.278 85.9025 129.904 86.1955 129.617C86.4949 129.331 86.8953 129.087 87.3966 128.885L84.5744 125.018H86.7912L91.1955 131.082C91.6838 130.626 92.0711 130.076 92.3576 129.432C92.6505 128.781 92.8426 128.035 92.9338 127.195L93.1584 125.018H95.0138L94.7892 127.156C94.7176 127.872 94.5874 128.501 94.3986 129.041C94.2684 129.412 94.1121 129.767 93.9298 130.105C93.7476 130.438 93.5132 130.783 93.2267 131.141C92.9468 131.499 92.5822 131.899 92.133 132.342L95.6584 137H93.3732L88.217 129.998C87.6961 130.252 87.325 130.691 87.1037 131.316C87.0386 131.479 86.9702 131.707 86.8986 132C86.8335 132.293 86.7586 132.648 86.674 133.064ZM106.952 135.34V137H96.493V135.34H103.856V129.959C103.856 128.761 103.612 127.915 103.124 127.42C102.642 126.925 101.806 126.678 100.614 126.678H96.952V125.018H100.634C102.431 125.018 103.716 125.402 104.491 126.17C105.266 126.938 105.653 128.208 105.653 129.979V135.34H106.952ZM118.529 129.979V137H116.722V129.959C116.722 128.761 116.478 127.915 115.99 127.42C115.508 126.925 114.671 126.678 113.48 126.678H108.929V125.018H113.509C114.707 125.018 115.674 125.187 116.41 125.525C117.145 125.857 117.683 126.388 118.021 127.117C118.36 127.84 118.529 128.794 118.529 129.979ZM110.921 129.217V137H109.125V129.217H110.921ZM136.761 129.979V137H126.497V125.018H131.741C133.538 125.018 134.824 125.402 135.599 126.17C136.373 126.938 136.761 128.208 136.761 129.979ZM128.294 135.34H134.954V129.959C134.954 128.774 134.713 127.931 134.231 127.43C133.756 126.928 132.92 126.678 131.722 126.678H128.294V135.34ZM141.238 125.018V131.316H139.441V125.018H141.238ZM149.563 137.195C147.903 137.195 146.682 136.779 145.901 135.945C145.12 135.105 144.729 133.816 144.729 132.078V125.018H146.526V132.02C146.526 133.23 146.763 134.116 147.239 134.676C147.721 135.236 148.505 135.516 149.592 135.516C150.445 135.516 151.138 135.343 151.672 134.998C152.206 134.653 152.597 134.109 152.844 133.367C153.098 132.618 153.225 131.635 153.225 130.418C153.225 129.064 153.082 128.074 152.795 127.449C152.509 126.818 152.021 126.502 151.331 126.502C150.666 126.502 150.025 126.714 149.407 127.137V125.418C149.908 125.021 150.608 124.822 151.506 124.822C152.841 124.822 153.775 125.262 154.309 126.141C154.843 127.013 155.11 128.439 155.11 130.418C155.11 132.755 154.664 134.471 153.772 135.564C152.88 136.652 151.477 137.195 149.563 137.195ZM165.056 129.979V137H163.249V129.959C163.249 128.774 163.008 127.931 162.527 127.43C162.051 126.928 161.215 126.678 160.017 126.678H156.355V125.018H160.036C161.234 125.018 162.201 125.187 162.937 125.525C163.672 125.857 164.21 126.388 164.548 127.117C164.887 127.84 165.056 128.794 165.056 129.979ZM175.715 130.34C175.715 129.109 175.445 128.191 174.904 127.586C174.364 126.98 173.514 126.678 172.355 126.678H169.66V130.057H172.033V131.717H167.834V125.018H172.375C174.12 125.018 175.415 125.454 176.262 126.326C177.115 127.192 177.541 128.543 177.541 130.379V131.18C177.541 135.06 175.705 137 172.033 137H167.941V135.34H172.082C173.319 135.34 174.234 134.998 174.826 134.314C175.419 133.624 175.715 132.586 175.715 131.199V130.34ZM189.508 129.979V137H187.702V129.959C187.702 128.761 187.458 127.915 186.969 127.42C186.488 126.925 185.651 126.678 184.46 126.678H179.909V125.018H184.489C185.687 125.018 186.654 125.187 187.389 125.525C188.125 125.857 188.662 126.388 189.001 127.117C189.339 127.84 189.508 128.794 189.508 129.979ZM181.901 129.217V137H180.104V129.217H181.901ZM199.811 135.145C199.589 135.802 199.238 136.277 198.756 136.57C198.274 136.857 197.516 137 196.481 137H196.373V135.34H196.539C196.988 135.34 197.346 135.255 197.613 135.086C197.874 134.917 198.059 134.66 198.17 134.314C198.281 133.963 198.336 133.432 198.336 132.723V126.678H196.481V125.018H202.955C204.752 125.018 206.041 125.402 206.822 126.17C207.604 126.932 207.994 128.201 207.994 129.979V137H206.197V129.959C206.197 128.761 205.953 127.915 205.465 127.42C204.983 126.925 204.14 126.678 202.936 126.678H200.133V132.361C200.133 133.559 200.025 134.487 199.811 135.145ZM212.706 133.064L211.925 137H210.03L210.85 133.104C211.085 131.984 211.3 131.196 211.495 130.74C211.69 130.278 211.934 129.904 212.227 129.617C212.527 129.331 212.927 129.087 213.429 128.885L210.606 125.018H212.823L217.227 131.082C217.716 130.626 218.103 130.076 218.389 129.432C218.682 128.781 218.874 128.035 218.966 127.195L219.19 125.018H221.046L220.821 127.156C220.749 127.872 220.619 128.501 220.43 129.041C220.3 129.412 220.144 129.767 219.962 130.105C219.779 130.438 219.545 130.783 219.259 131.141C218.979 131.499 218.614 131.899 218.165 132.342L221.69 137H219.405L214.249 129.998C213.728 130.252 213.357 130.691 213.136 131.316C213.07 131.479 213.002 131.707 212.93 132C212.865 132.293 212.79 132.648 212.706 133.064ZM230.117 125.018V131.316H228.321V125.018H230.117ZM239.194 124.822C240.77 124.822 241.919 125.304 242.642 126.268C243.371 127.225 243.735 128.748 243.735 130.838V137H237.856V135.34H241.919V131.062C241.919 129.467 241.714 128.309 241.304 127.586C240.894 126.863 240.197 126.502 239.214 126.502C238.335 126.502 237.612 126.899 237.046 127.693C236.473 128.501 235.949 129.904 235.474 131.902L234.253 137H232.319L233.657 131.756C233.807 131.144 233.96 130.59 234.116 130.096C234.272 129.601 234.425 129.161 234.575 128.777L232.134 125.018H234.253L235.474 127C235.981 126.232 236.525 125.678 237.104 125.34C237.684 124.995 238.38 124.822 239.194 124.822ZM248.213 125.018V131.316H246.416V125.018H248.213ZM251.987 135.418C253.237 134.956 254.304 134.37 255.19 133.66C256.082 132.957 256.759 132.189 257.221 131.355C257.69 130.522 257.924 129.676 257.924 128.816C257.924 127.391 257.163 126.678 255.639 126.678H250.786V120.74H252.582V125.018H255.825C258.435 125.018 259.741 126.18 259.741 128.504C259.741 129.702 259.454 130.851 258.881 131.951C258.308 133.051 257.501 134.041 256.459 134.92C255.222 135.975 253.732 136.814 251.987 137.439V135.418ZM271.171 135.789C270.722 136.089 270.162 136.333 269.491 136.521C268.827 136.71 267.994 136.85 266.991 136.941C265.989 137.033 264.748 137.085 263.271 137.098L260.985 125.018H262.851L264.052 131.18L264.765 131.043C265.155 130.952 265.478 130.835 265.732 130.691C265.985 130.542 266.187 130.333 266.337 130.066C266.461 129.858 266.555 129.601 266.62 129.295C266.685 128.989 266.734 128.624 266.767 128.201L267.011 125.018H268.866L268.564 128.221C268.518 128.761 268.463 129.23 268.398 129.627C268.332 130.018 268.254 130.333 268.163 130.574C268 131.062 267.756 131.44 267.431 131.707C267.105 131.967 266.565 132.199 265.81 132.4L264.345 132.742L264.823 135.262H265.058C266.366 135.262 267.415 135.187 268.202 135.037C268.99 134.881 269.612 134.64 270.068 134.314C270.373 134.093 270.631 133.82 270.839 133.494C271.047 133.169 271.223 132.739 271.366 132.205C271.51 131.671 271.63 130.984 271.728 130.145L272.343 125.018H274.228L273.603 130.076C273.472 131.209 273.303 132.143 273.095 132.879C272.887 133.608 272.626 134.201 272.314 134.656C272.008 135.105 271.627 135.483 271.171 135.789ZM285.961 129.979V137H284.154V129.959C284.154 128.761 283.91 127.915 283.422 127.42C282.94 126.925 282.103 126.678 280.912 126.678H276.361V125.018H280.941C282.139 125.018 283.106 125.187 283.842 125.525C284.577 125.857 285.114 126.388 285.453 127.117C285.792 127.84 285.961 128.794 285.961 129.979ZM278.353 129.217V137H276.556V129.217H278.353ZM295.55 133.064L294.769 137H292.874L293.695 133.104C293.929 131.984 294.144 131.196 294.339 130.74C294.534 130.278 294.779 129.904 295.072 129.617C295.371 129.331 295.771 129.087 296.273 128.885L293.45 125.018H295.667L300.072 131.082C300.56 130.626 300.947 130.076 301.234 129.432C301.527 128.781 301.719 128.035 301.81 127.195L302.034 125.018H303.89L303.665 127.156C303.594 127.872 303.463 128.501 303.275 129.041C303.144 129.412 302.988 129.767 302.806 130.105C302.624 130.438 302.389 130.783 302.103 131.141C301.823 131.499 301.458 131.899 301.009 132.342L304.534 137H302.249L297.093 129.998C296.572 130.252 296.201 130.691 295.98 131.316C295.915 131.479 295.846 131.707 295.775 132C295.71 132.293 295.635 132.648 295.55 133.064ZM310.75 129.656V137H305.271V135.34H308.953V130.164C308.953 129.109 308.901 128.364 308.797 127.928C308.693 127.479 308.51 127.16 308.25 126.971C307.996 126.775 307.628 126.678 307.146 126.678H305.828V125.018H307.088C308.13 125.018 308.891 125.161 309.373 125.447C309.855 125.74 310.203 126.219 310.418 126.883C310.639 127.54 310.75 128.465 310.75 129.656Z" fill="#2F4B6F"/>
<path d="M131.856 100C131.856 100 131.842 99.8067 131.816 99.42C131.789 99.02 131.762 98.4933 131.736 97.84C131.709 97.1733 131.696 96.4533 131.696 95.68V89.6H133.656L133.696 89.76C133.642 90 133.602 90.3267 133.576 90.74C133.562 91.14 133.549 91.5267 133.536 91.9C133.536 92.2733 133.536 92.5333 133.536 92.68V95.68C133.536 96.4533 133.522 97.1733 133.496 97.84C133.469 98.4933 133.442 99.02 133.416 99.42C133.389 99.8067 133.376 100 133.376 100H131.856ZM132.656 104.16C132.296 104.16 131.989 104.047 131.736 103.82C131.496 103.593 131.376 103.28 131.376 102.88C131.376 102.48 131.496 102.167 131.736 101.94C131.989 101.713 132.296 101.6 132.656 101.6C133.016 101.6 133.316 101.713 133.556 101.94C133.809 102.167 133.936 102.48 133.936 102.88C133.936 103.28 133.809 103.593 133.556 103.82C133.316 104.047 133.016 104.16 132.656 104.16ZM137.554 100C137.554 100 137.54 99.8067 137.514 99.42C137.487 99.02 137.46 98.4933 137.434 97.84C137.407 97.1733 137.394 96.4533 137.394 95.68V89.6H139.354L139.394 89.76C139.34 90 139.3 90.3267 139.274 90.74C139.26 91.14 139.247 91.5267 139.234 91.9C139.234 92.2733 139.234 92.5333 139.234 92.68V95.68C139.234 96.4533 139.22 97.1733 139.194 97.84C139.167 98.4933 139.14 99.02 139.114 99.42C139.087 99.8067 139.074 100 139.074 100H137.554ZM138.354 104.16C137.994 104.16 137.687 104.047 137.434 103.82C137.194 103.593 137.074 103.28 137.074 102.88C137.074 102.48 137.194 102.167 137.434 101.94C137.687 101.713 137.994 101.6 138.354 101.6C138.714 101.6 139.014 101.713 139.254 101.94C139.507 102.167 139.634 102.48 139.634 102.88C139.634 103.28 139.507 103.593 139.254 103.82C139.014 104.047 138.714 104.16 138.354 104.16ZM150.174 96.9785V107.76H148.367V96.959C148.367 95.7741 148.126 94.931 147.644 94.4297C147.169 93.9284 146.332 93.6777 145.135 93.6777H141.472V92.0176H145.154C146.352 92.0176 147.319 92.1868 148.054 92.5254C148.79 92.8574 149.327 93.388 149.666 94.1172C150.004 94.8398 150.174 95.7936 150.174 96.9785ZM153.03 102.418C154.28 101.956 155.347 101.37 156.233 100.66C157.125 99.957 157.802 99.1888 158.264 98.3555C158.733 97.5221 158.967 96.6758 158.967 95.8164C158.967 94.3906 158.206 93.6777 156.682 93.6777H151.829V87.7402H153.625V92.0176H156.868C159.478 92.0176 160.784 93.1797 160.784 95.5039C160.784 96.7018 160.497 97.8509 159.924 98.9512C159.351 100.051 158.544 101.041 157.502 101.92C156.265 102.975 154.775 103.814 153.03 104.439V102.418ZM178.801 96.9785V104H168.537V92.0176H173.781C175.578 92.0176 176.864 92.4017 177.639 93.1699C178.413 93.9382 178.801 95.2077 178.801 96.9785ZM170.334 102.34H176.994V96.959C176.994 95.7741 176.753 94.931 176.271 94.4297C175.796 93.9284 174.96 93.6777 173.762 93.6777H170.334V102.34ZM183.688 92.0176V104H181.891V92.0176H183.688ZM187.052 102.418C188.302 101.956 189.37 101.37 190.255 100.66C191.147 99.957 191.824 99.1888 192.286 98.3555C192.755 97.5221 192.99 96.6758 192.99 95.8164C192.99 94.3906 192.228 93.6777 190.704 93.6777H185.851V87.7402H187.648V92.0176H190.89C193.501 92.0176 194.806 93.1797 194.806 95.5039C194.806 96.7018 194.52 97.8509 193.947 98.9512C193.374 100.051 192.566 101.041 191.525 101.92C190.288 102.975 188.797 103.814 187.052 104.439V102.418ZM206.236 102.789C205.787 103.089 205.227 103.333 204.557 103.521C203.893 103.71 203.059 103.85 202.057 103.941C201.054 104.033 199.814 104.085 198.336 104.098L196.051 92.0176H197.916L199.117 98.1797L199.83 98.043C200.221 97.9518 200.543 97.8346 200.797 97.6914C201.051 97.5417 201.253 97.3333 201.402 97.0664C201.526 96.8581 201.621 96.6009 201.686 96.2949C201.751 95.9889 201.8 95.6243 201.832 95.2012L202.076 92.0176H203.932L203.629 95.2207C203.583 95.7611 203.528 96.2298 203.463 96.627C203.398 97.0176 203.32 97.3333 203.229 97.5742C203.066 98.0625 202.822 98.4401 202.496 98.707C202.171 98.9674 201.63 99.1986 200.875 99.4004L199.41 99.7422L199.889 102.262H200.123C201.432 102.262 202.48 102.187 203.268 102.037C204.055 101.881 204.677 101.64 205.133 101.314C205.439 101.093 205.696 100.82 205.904 100.494C206.113 100.169 206.288 99.7389 206.432 99.2051C206.575 98.6712 206.695 97.9844 206.793 97.1445L207.408 92.0176H209.293L208.668 97.0762C208.538 98.209 208.369 99.1432 208.16 99.8789C207.952 100.608 207.691 101.201 207.379 101.656C207.073 102.105 206.692 102.483 206.236 102.789ZM217.199 104.24C217.026 104.16 216.839 104.02 216.639 103.82C216.453 103.607 216.359 103.32 216.359 102.96C216.359 102.52 216.479 102.187 216.719 101.96C216.973 101.72 217.279 101.6 217.639 101.6C217.999 101.6 218.299 101.707 218.539 101.92C218.793 102.133 218.919 102.48 218.919 102.96C218.919 103.28 218.873 103.567 218.779 103.82C218.686 104.073 218.599 104.293 218.519 104.48L217.319 107.12H215.799V106.96L217.199 104.24ZM223.721 92.0176V98.3164H221.924V92.0176H223.721ZM228.696 92.0176V98.3164H226.899V92.0176H228.696ZM241.259 96.9785V104H239.453V96.959C239.453 95.7611 239.209 94.9147 238.72 94.4199C238.239 93.9251 237.402 93.6777 236.211 93.6777H231.66V92.0176H236.24C237.438 92.0176 238.405 92.1868 239.14 92.5254C239.876 92.8574 240.413 93.388 240.752 94.1172C241.09 94.8398 241.259 95.7936 241.259 96.9785ZM233.652 96.2168V104H231.855V96.2168H233.652Z" fill="#2F4B6F"/>
<path d="M270.729 397.896C270.057 397.896 269.505 397.688 269.073 397.272C268.641 396.84 268.425 396.28 268.425 395.592C268.425 394.888 268.641 394.328 269.073 393.912C269.505 393.48 270.057 393.264 270.729 393.264C271.433 393.264 271.993 393.48 272.409 393.912C272.841 394.328 273.057 394.888 273.057 395.592C273.057 396.28 272.841 396.84 272.409 397.272C271.993 397.688 271.433 397.896 270.729 397.896ZM270.729 389.184C270.057 389.184 269.505 388.976 269.073 388.56C268.641 388.144 268.425 387.584 268.425 386.88C268.425 386.176 268.641 385.616 269.073 385.2C269.505 384.784 270.057 384.576 270.729 384.576C271.433 384.576 271.993 384.784 272.409 385.2C272.841 385.616 273.057 386.176 273.057 386.88C273.057 387.584 272.841 388.144 272.409 388.56C271.993 388.976 271.433 389.184 270.729 389.184ZM289.241 389.206V397.632H275.917V383.089H282.69C285.003 383.089 286.671 383.565 287.694 384.518C288.726 385.464 289.241 387.026 289.241 389.206ZM279.081 394.796H286.065V389.569C286.065 388.241 285.815 387.303 285.315 386.757C284.815 386.202 283.94 385.925 282.69 385.925H279.081V394.796ZM295.692 393.389L294.965 397.632H291.684L292.669 392.78C292.95 391.436 293.208 390.479 293.442 389.909C293.676 389.331 293.965 388.874 294.309 388.538C294.661 388.194 295.145 387.889 295.762 387.624L292.376 383.089H296.219L300.965 389.663C301.458 389.218 301.833 388.694 302.09 388.093C302.348 387.491 302.532 386.678 302.641 385.655L302.887 383.089H306.122L305.84 385.866C305.755 386.655 305.598 387.354 305.372 387.964C305.215 388.378 305.024 388.768 304.798 389.135C304.571 389.495 304.274 389.878 303.907 390.284C303.548 390.682 303.071 391.147 302.477 391.678L306.848 397.632H303.028L297.18 389.522C296.766 389.764 296.469 390.116 296.29 390.577C296.204 390.811 296.11 391.163 296.008 391.632C295.907 392.1 295.801 392.686 295.692 393.389ZM321.338 389.206V397.632H318.162V389.182C318.162 387.987 317.909 387.147 317.401 386.663C316.893 386.171 316.01 385.925 314.752 385.925H308.811V383.089H314.951C316.491 383.089 317.725 383.296 318.655 383.71C319.592 384.124 320.272 384.78 320.694 385.678C321.123 386.569 321.338 387.745 321.338 389.206ZM312.209 388.796V397.632H309.045V388.796H312.209ZM333.595 383.089V390.811H330.431V383.089H333.595ZM343.574 397.866C341.417 397.866 339.831 397.366 338.816 396.366C337.8 395.358 337.292 393.811 337.292 391.725V383.089H340.456V391.655C340.456 392.819 340.706 393.671 341.206 394.21C341.706 394.749 342.503 395.018 343.597 395.018C344.394 395.018 345.07 394.866 345.624 394.561C346.179 394.249 346.601 393.71 346.89 392.944C347.179 392.171 347.324 391.1 347.324 389.733C347.324 388.382 347.171 387.374 346.867 386.71C346.562 386.038 346.058 385.702 345.355 385.702C344.675 385.702 343.964 385.925 343.222 386.37V383.499C343.956 383.061 344.843 382.843 345.882 382.843C347.554 382.843 348.753 383.389 349.48 384.483C350.214 385.569 350.581 387.311 350.581 389.71C350.581 392.538 350.019 394.604 348.894 395.909C347.777 397.214 346.003 397.866 343.574 397.866ZM363.536 389.206V397.632H360.36V389.182C360.36 387.971 360.099 387.128 359.575 386.651C359.06 386.167 358.188 385.925 356.962 385.925H352.087V383.089H357.149C358.688 383.089 359.923 383.296 360.853 383.71C361.79 384.116 362.47 384.768 362.892 385.667C363.321 386.557 363.536 387.737 363.536 389.206ZM376.327 389.639C376.327 388.389 376.042 387.46 375.471 386.85C374.901 386.233 374.003 385.925 372.776 385.925H370.069V389.065H372.917V391.901H366.87V383.089H372.799C375.096 383.089 376.792 383.624 377.885 384.694C378.979 385.764 379.526 387.428 379.526 389.686V390.647C379.526 395.303 377.132 397.632 372.342 397.632H366.999V394.796H372.272C373.624 394.796 374.635 394.448 375.307 393.753C375.987 393.057 376.327 392.014 376.327 390.624V389.639Z" fill="#2F4B6F"/>
<path d="M144.661 39C144.397 39 144.169 38.916 143.977 38.748C143.809 38.58 143.725 38.376 143.725 38.136V27.444C143.725 26.052 143.389 24.996 142.717 24.276C142.045 23.532 140.965 23.16 139.477 23.16H131.413C131.149 23.16 130.933 23.076 130.765 22.908C130.597 22.74 130.513 22.524 130.513 22.26V19.344C130.513 19.08 130.597 18.864 130.765 18.696C130.933 18.528 131.149 18.444 131.413 18.444H139.657C142.897 18.444 145.357 19.176 147.037 20.64C148.741 22.08 149.593 24.348 149.593 27.444V38.1C149.593 38.364 149.497 38.58 149.305 38.748C149.137 38.916 148.921 39 148.657 39H144.661ZM131.413 39C131.149 39 130.933 38.916 130.765 38.748C130.597 38.58 130.513 38.364 130.513 38.1V27.444C130.513 27.204 130.597 27 130.765 26.832C130.933 26.64 131.149 26.544 131.413 26.544H135.445C135.709 26.544 135.925 26.64 136.093 26.832C136.261 27 136.345 27.204 136.345 27.444V38.1C136.345 38.364 136.261 38.58 136.093 38.748C135.925 38.916 135.709 39 135.445 39H131.413ZM164.229 23.376H153.753C153.489 23.376 153.273 23.292 153.105 23.124C152.937 22.956 152.853 22.74 152.853 22.476V19.344C152.853 19.08 152.937 18.864 153.105 18.696C153.273 18.528 153.489 18.444 153.753 18.444H165.093C166.701 18.444 168.129 18.756 169.377 19.38C170.649 20.004 171.645 20.964 172.365 22.26C173.085 23.556 173.445 25.212 173.445 27.228V38.1C173.445 38.364 173.361 38.58 173.193 38.748C173.025 38.916 172.809 39 172.545 39H162.789C162.549 39 162.333 38.916 162.141 38.748C161.973 38.58 161.889 38.364 161.889 38.1V35.184C161.889 34.92 161.973 34.704 162.141 34.536C162.333 34.368 162.549 34.284 162.789 34.284H167.613V27.516C167.613 26.628 167.469 25.872 167.181 25.248C166.893 24.624 166.485 24.156 165.957 23.844C165.453 23.532 164.877 23.376 164.229 23.376ZM153.465 39C153.225 39 153.009 38.916 152.817 38.748C152.625 38.556 152.553 38.34 152.601 38.1L156.417 22.044C156.465 21.804 156.573 21.6 156.741 21.432C156.909 21.264 157.113 21.192 157.353 21.216L160.737 21.252C161.001 21.252 161.229 21.36 161.421 21.576C161.613 21.792 161.673 22.032 161.601 22.296L158.325 38.1C158.301 38.34 158.193 38.556 158.001 38.748C157.833 38.916 157.617 39 157.353 39H153.465ZM188.737 34.572C190.009 34.596 191.137 34.356 192.121 33.852C193.105 33.324 193.861 32.604 194.389 31.692C194.941 30.78 195.217 29.76 195.217 28.632V19.308C195.217 19.068 195.301 18.864 195.469 18.696C195.661 18.528 195.877 18.444 196.117 18.444H199.717C199.981 18.444 200.197 18.528 200.365 18.696C200.533 18.864 200.617 19.08 200.617 19.344V28.848C200.617 30.456 200.341 31.908 199.789 33.204C199.237 34.5 198.457 35.604 197.449 36.516C196.465 37.428 195.325 38.124 194.029 38.604C192.733 39.084 191.329 39.312 189.817 39.288H186.433C184.489 39.288 182.809 38.916 181.393 38.172C180.001 37.404 178.933 36.384 178.189 35.112C177.445 33.84 177.073 32.436 177.073 30.9V19.344C177.073 19.08 177.157 18.864 177.325 18.696C177.517 18.528 177.733 18.444 177.973 18.444H181.573C181.813 18.444 182.017 18.528 182.185 18.696C182.377 18.864 182.473 19.068 182.473 19.308L182.509 28.308C182.509 30.324 183.013 31.872 184.021 32.952C185.053 34.032 186.337 34.572 187.873 34.572H188.737ZM181.897 32.124V28.164C183.025 28.14 183.901 27.912 184.525 27.48C185.149 27.048 185.593 26.448 185.857 25.68C186.121 24.888 186.253 23.94 186.253 22.836V19.38C186.253 19.092 186.337 18.864 186.505 18.696C186.673 18.528 186.889 18.444 187.153 18.444H190.717C190.957 18.444 191.161 18.54 191.329 18.732C191.521 18.924 191.617 19.14 191.617 19.38V22.908C191.617 24.852 191.233 26.52 190.465 27.912C189.721 29.28 188.617 30.336 187.153 31.08C185.713 31.8 183.961 32.148 181.897 32.124ZM215.007 39C214.743 39 214.515 38.916 214.323 38.748C214.155 38.58 214.071 38.376 214.071 38.136V27.444C214.071 26.052 213.735 24.996 213.063 24.276C212.391 23.532 211.311 23.16 209.823 23.16H204.423C204.183 23.16 203.967 23.076 203.775 22.908C203.607 22.74 203.523 22.524 203.523 22.26V19.344C203.523 19.08 203.607 18.864 203.775 18.696C203.967 18.528 204.183 18.444 204.423 18.444H210.039C212.199 18.444 214.011 18.732 215.475 19.308C216.939 19.884 218.043 20.82 218.787 22.116C219.555 23.388 219.939 25.092 219.939 27.228V38.1C219.939 38.364 219.843 38.58 219.651 38.748C219.483 38.916 219.267 39 219.003 39H215.007ZM237.823 39C237.559 39 237.331 38.916 237.139 38.748C236.971 38.58 236.887 38.376 236.887 38.136V27.444C236.887 26.052 236.551 24.996 235.879 24.276C235.207 23.532 234.127 23.16 232.639 23.16H224.575C224.311 23.16 224.095 23.076 223.927 22.908C223.759 22.74 223.675 22.524 223.675 22.26V19.344C223.675 19.08 223.759 18.864 223.927 18.696C224.095 18.528 224.311 18.444 224.575 18.444H232.819C236.059 18.444 238.519 19.176 240.199 20.64C241.903 22.08 242.755 24.348 242.755 27.444V38.1C242.755 38.364 242.659 38.58 242.467 38.748C242.299 38.916 242.083 39 241.819 39H237.823ZM224.575 39C224.311 39 224.095 38.916 223.927 38.748C223.759 38.58 223.675 38.364 223.675 38.1V27.444C223.675 27.204 223.759 27 223.927 26.832C224.095 26.64 224.311 26.544 224.575 26.544H228.607C228.871 26.544 229.087 26.64 229.255 26.832C229.423 27 229.507 27.204 229.507 27.444V38.1C229.507 38.364 229.423 38.58 229.255 38.748C229.087 38.916 228.871 39 228.607 39H224.575Z" fill="#2F4B6F"/>
<g filter="url(#filter0_d_1253_17023)">
<rect x="4" y="201" width="353" height="59" rx="29.5" fill="#6D94E4"/>
</g>
<rect x="159.242" y="201" width="200.211" height="59" rx="29.5" fill="white"/>
<path d="M228.04 240H224.865V231.551C224.865 230.34 224.603 229.496 224.079 229.02C223.564 228.535 222.693 228.293 221.466 228.293H216.591V225.457H221.654C223.958 225.457 225.599 225.93 226.576 226.875C227.552 227.812 228.04 229.379 228.04 231.574V240ZM237.901 240.234C235.745 240.234 234.159 239.734 233.144 238.734C232.128 237.727 231.62 236.18 231.62 234.094V225.457H234.784V234.023C234.784 235.188 235.034 236.039 235.534 236.578C236.034 237.117 236.831 237.387 237.925 237.387C238.831 237.387 239.554 237.211 240.093 236.859C240.64 236.5 241.034 235.957 241.276 235.23C241.526 234.504 241.651 233.461 241.651 232.102C241.651 230.75 241.499 229.742 241.194 229.078C240.89 228.406 240.386 228.07 239.683 228.07C238.995 228.07 238.284 228.293 237.55 228.738V225.867C238.276 225.43 239.163 225.211 240.21 225.211C241.882 225.211 243.081 225.758 243.808 226.852C244.542 227.938 244.909 229.68 244.909 232.078C244.909 234.906 244.347 236.973 243.222 238.277C242.104 239.582 240.331 240.234 237.901 240.234ZM247.997 225.457H251.161V233.18H247.997V225.457ZM254.494 232.652C254.494 231.879 254.608 231.074 254.834 230.238C255.069 229.395 255.373 228.746 255.748 228.293H253.534V225.457H261.666C264.018 225.457 265.721 225.953 266.776 226.945C267.838 227.938 268.369 229.535 268.369 231.738V232.676C268.369 235.168 267.768 237.051 266.565 238.324C265.362 239.598 263.588 240.234 261.244 240.234C258.948 240.234 257.248 239.637 256.147 238.441C255.045 237.238 254.494 235.43 254.494 233.016V232.652ZM258.502 228.293C258.026 229.121 257.787 230.512 257.787 232.465V232.992C257.787 235.938 258.963 237.41 261.315 237.41C262.627 237.41 263.576 237.031 264.162 236.273C264.756 235.516 265.053 234.285 265.053 232.582V231.715C265.053 230.496 264.768 229.621 264.198 229.09C263.635 228.559 262.713 228.293 261.432 228.293H258.502ZM270.977 225.457H274.141V233.18H270.977V225.457ZM277.427 228.293V225.457H282.373C284.654 225.457 286.306 225.934 287.33 226.887C288.361 227.84 288.877 229.402 288.877 231.574V237.164H290.435V240H276.877V237.164H285.713V231.984C285.713 230.617 285.455 229.66 284.939 229.113C284.431 228.566 283.56 228.293 282.326 228.293H277.427ZM292.574 225.457H295.738V233.18H292.574V225.457ZM299.552 225.457H302.716V233.18H299.552V225.457ZM306.003 228.293V225.457H310.948C313.229 225.457 314.882 225.934 315.905 226.887C316.936 227.84 317.452 229.402 317.452 231.574V237.164H319.01V240H305.452V237.164H314.288V231.984C314.288 230.617 314.03 229.66 313.514 229.113C313.007 228.566 312.135 228.293 310.901 228.293H306.003Z" fill="#2F4B6F"/>
<path d="M64.61 231.574V240H61.4342V231.551C61.4342 230.355 61.1803 229.516 60.6725 229.031C60.1647 228.539 59.2819 228.293 58.0241 228.293H52.0827V225.457H58.2233C59.7624 225.457 60.9967 225.664 61.9264 226.078C62.8639 226.492 63.5436 227.148 63.9655 228.047C64.3952 228.938 64.61 230.113 64.61 231.574ZM55.4811 231.164V240H52.3171V231.164H55.4811ZM77.9632 231.961C77.9632 230.648 77.7132 229.711 77.2132 229.148C76.7132 228.578 75.8382 228.293 74.5882 228.293H71.4593V240H68.2952V225.457H74.5882C76.9007 225.457 78.5687 225.938 79.5921 226.898C80.6234 227.852 81.139 229.41 81.139 231.574V240H77.9632V231.961ZM93.9297 232.008C93.9297 230.758 93.6445 229.828 93.0742 229.219C92.5039 228.602 91.6055 228.293 90.3789 228.293H87.6719V231.434H90.5195V234.27H84.4727V225.457H90.4023C92.6992 225.457 94.3945 225.992 95.4883 227.062C96.582 228.133 97.1289 229.797 97.1289 232.055V233.016C97.1289 237.672 94.7344 240 89.9453 240H84.6016V237.164H89.875C91.2266 237.164 92.2383 236.816 92.9102 236.121C93.5898 235.426 93.9297 234.383 93.9297 232.992V232.008ZM112.521 238.559C111.881 238.918 111.091 239.215 110.154 239.449C109.224 239.676 108.064 239.844 106.674 239.953C105.291 240.062 103.599 240.117 101.599 240.117L98.8571 225.457H102.174L103.451 232.465L104.306 232.301C104.838 232.199 105.228 232.027 105.478 231.785C105.736 231.535 105.931 231.164 106.064 230.672C106.127 230.43 106.185 230.094 106.24 229.664C106.302 229.227 106.361 228.695 106.416 228.07L106.591 225.457H109.826L109.474 229.465C109.427 230.012 109.361 230.504 109.275 230.941C109.189 231.379 109.08 231.758 108.947 232.078C108.689 232.719 108.326 233.219 107.857 233.578C107.396 233.938 106.662 234.238 105.654 234.48L103.896 234.891L104.377 237.293H104.658C105.634 237.293 106.498 237.254 107.248 237.176C108.006 237.09 108.65 236.961 109.181 236.789C109.892 236.57 110.478 236.266 110.939 235.875C111.4 235.477 111.763 234.949 112.029 234.293C112.295 233.629 112.482 232.789 112.591 231.773L113.33 225.457H116.599L115.849 231.691C115.693 233.035 115.474 234.148 115.193 235.031C114.92 235.914 114.564 236.633 114.127 237.188C113.697 237.734 113.162 238.191 112.521 238.559ZM126.824 225.387C128.816 225.387 130.265 225.973 131.171 227.145C132.077 228.309 132.531 230.129 132.531 232.605V240H124.972V237.164H129.343V232.852C129.343 231.203 129.144 230.023 128.745 229.312C128.355 228.594 127.663 228.234 126.671 228.234C125.757 228.234 124.988 228.691 124.363 229.605C123.738 230.543 123.156 232.105 122.617 234.293L121.199 240H117.824L119.406 233.93C119.601 233.195 119.788 232.539 119.968 231.961C120.156 231.383 120.335 230.887 120.507 230.473L117.601 225.621H121.105L122.206 227.684C122.675 226.965 123.316 226.402 124.128 225.996C124.949 225.59 125.847 225.387 126.824 225.387Z" fill="#2F4B6F"/>
<defs>
<filter id="filter0_d_1253_17023" x="0" y="201" width="361" height="67" filterUnits="userSpaceOnUse" color-interpolation-filters="sRGB">
<feFlood flood-opacity="0" result="BackgroundImageFix"/>
<feColorMatrix in="SourceAlpha" type="matrix" values="0 0 0 0 0 0 0 0 0 0 0 0 0 0 0 0 0 0 127 0" result="hardAlpha"/>
<feOffset dy="4"/>
<feGaussianBlur stdDeviation="2"/>
<feComposite in2="hardAlpha" operator="out"/>
<feColorMatrix type="matrix" values="0 0 0 0 0 0 0 0 0 0 0 0 0 0 0 0 0 0 0.25 0"/>
<feBlend mode="normal" in2="BackgroundImageFix" result="effect1_dropShadow_1253_17023"/>
<feBlend mode="normal" in="SourceGraphic" in2="effect1_dropShadow_1253_17023" result="shape"/>
</filter>
</defs>
</svg>
