<svg width="19" height="15" viewBox="0 0 19 15" fill="none" xmlns="http://www.w3.org/2000/svg">
<path d="M2.26094 2.0564L8.47863 6.96794C9.05641 7.42435 9.86547 7.42435 10.4432 6.96794L16.6609 2.0564M4.02094 14.2439H14.9009C15.797 14.2439 16.2451 14.2439 16.5873 14.0668C16.8884 13.911 17.1332 13.6624 17.2865 13.3566C17.4609 13.009 17.4609 12.554 17.4609 11.6439V3.8439C17.4609 2.93381 17.4609 2.47877 17.2865 2.13116C17.1332 1.8254 16.8884 1.57681 16.5873 1.42101C16.2451 1.2439 15.797 1.2439 14.9009 1.2439H4.02094C3.12485 1.2439 2.67681 1.2439 2.33455 1.42101C2.03349 1.57681 1.78872 1.8254 1.63533 2.13116C1.46094 2.47877 1.46094 2.93381 1.46094 3.8439V11.6439C1.46094 12.554 1.46094 13.009 1.63533 13.3566C1.78872 13.6624 2.03349 13.911 2.33455 14.0668C2.67681 14.2439 3.12485 14.2439 4.02094 14.2439Z" stroke="#92BBEF" stroke-width="1.35"/>
<rect x="1.71094" y="1.4939" width="15.5" height="12.5" stroke="#D6E5F9" stroke-width="0.5"/>
</svg>
