<svg width="801" height="435" viewBox="0 0 801 435" fill="none" xmlns="http://www.w3.org/2000/svg">
<path d="M161.603 386.844C235.872 480.815 435.006 406.991 507.141 399.156C579.276 391.321 791.503 323.07 696.147 115.959C600.79 -91.152 361.95 33.8005 298.642 76.1896C239.285 115.911 54.1199 250.961 161.648 386.844H161.603Z" fill="#FDE4E7"/>
<path d="M606.933 160.859C608.437 164.146 645.964 204.868 645.964 204.868L627.077 234.088L591.953 167.908L606.933 160.764V160.859Z" fill="#232E62"/>
<path d="M606.8 406.049L602.847 379.044C601.59 370.042 600.085 361.064 599.03 352.015L593.393 297.671L572.125 300.624L579.895 355.111C581.198 363.398 589.934 401.477 591.439 407.954C589.912 409.931 584.14 417.122 580.367 417.646C578.335 418.054 576.507 419.219 575.214 420.931C573.92 422.643 573.247 424.789 573.315 426.982C573.315 426.982 607.608 428.815 609.832 422.719C611.831 417.242 609.562 411.717 606.89 406.049H606.8Z" fill="#ABC7FF"/>
<path d="M673.391 398.214C671.28 393.451 666.654 391.26 661.713 389.522L661.87 389.308L632.226 351.205L617.336 290.979L596.562 297.195L614.192 359.111V359.564C614.655 361.128 615.49 362.539 616.617 363.66L650.17 399.167C650.17 399.167 651.876 408.692 649.271 412.503C646.666 416.313 643.095 423.505 645.97 426.243C645.97 426.243 656.009 425.267 660.343 418.075C664.677 410.883 676.064 404.263 673.391 398.333V398.214Z" fill="#ABC7FF"/>
<path d="M724.083 373.686C725.723 382.521 728.575 398.857 728.014 407.025H727.093C725.007 407.017 722.984 406.272 721.344 404.906C719.284 403.314 716.935 402.194 714.445 401.616C711.955 401.038 709.379 401.015 706.881 401.548C705.048 401.826 703.326 402.642 701.909 403.905C700.492 405.167 699.436 406.826 698.863 408.692C698.151 410.331 697.092 411.773 695.767 412.905C694.442 414.037 692.889 414.828 691.228 415.217H690.913C690.913 415.217 687.589 382.64 695.652 375.353C700.952 370.59 710.676 368.756 716.964 368.208C718.598 368.074 720.222 368.575 721.533 369.618C722.843 370.661 723.75 372.175 724.083 373.876V373.686Z" fill="#6D94E4"/>
<path d="M711.097 387.26L700.137 389.641C699.853 389.71 699.557 389.699 699.278 389.61C698.999 389.522 698.747 389.358 698.546 389.135C698.344 388.912 698.201 388.637 698.129 388.338C698.058 388.038 698.061 387.724 698.138 387.426L699.957 379.711C700.203 378.654 700.783 377.718 701.601 377.06C702.418 376.401 703.423 376.059 704.449 376.091H716.576C717.035 376.091 717.475 376.284 717.799 376.628C718.123 376.972 718.306 377.438 718.306 377.925C718.288 380.077 717.584 382.16 716.307 383.833C715.031 385.507 713.258 386.673 711.276 387.141L711.097 387.26Z" fill="white"/>
<path d="M768.904 412.955H714.039V402.048H768.904V412.955Z" fill="#232E62"/>
<path d="M722.098 413.455C722.098 415.98 721.392 418.448 720.07 420.547C718.747 422.646 716.867 424.282 714.667 425.248C712.468 426.214 710.048 426.467 707.713 425.974C705.378 425.482 703.233 424.266 701.549 422.481C699.866 420.696 698.719 418.422 698.255 415.945C697.79 413.469 698.029 410.903 698.94 408.571C699.851 406.238 701.394 404.245 703.373 402.842C705.353 401.44 707.68 400.691 710.061 400.691C711.642 400.691 713.207 401.021 714.667 401.663C716.128 402.304 717.455 403.244 718.573 404.43C719.69 405.615 720.577 407.022 721.182 408.571C721.787 410.119 722.098 411.779 722.098 413.455Z" fill="#232E62"/>
<path d="M690.82 415.17C690.105 415.17 689.42 414.869 688.914 414.333C688.409 413.797 688.125 413.07 688.125 412.312V393.261C688.125 392.503 688.409 391.776 688.914 391.24C689.42 390.704 690.105 390.403 690.82 390.403C691.173 390.403 691.522 390.477 691.848 390.621C692.174 390.765 692.469 390.976 692.718 391.241C692.966 391.507 693.163 391.822 693.296 392.169C693.428 392.516 693.495 392.887 693.492 393.261V412.312C693.495 412.686 693.428 413.057 693.296 413.404C693.163 413.75 692.966 414.066 692.718 414.331C692.469 414.597 692.174 414.808 691.848 414.952C691.522 415.096 691.173 415.17 690.82 415.17Z" fill="#6BB9C8"/>
<path d="M716.873 413.455C716.873 414.868 716.478 416.25 715.738 417.424C714.997 418.599 713.945 419.515 712.714 420.056C711.483 420.596 710.128 420.738 708.821 420.462C707.515 420.187 706.314 419.506 705.372 418.507C704.43 417.508 703.788 416.235 703.528 414.849C703.268 413.463 703.401 412.027 703.911 410.721C704.421 409.416 705.285 408.3 706.393 407.515C707.501 406.73 708.803 406.311 710.136 406.311C711.923 406.311 713.636 407.064 714.9 408.404C716.163 409.743 716.873 411.56 716.873 413.455Z" fill="#6D94E4"/>
<path d="M787.731 413.455C787.731 415.98 787.025 418.448 785.702 420.547C784.38 422.646 782.5 424.282 780.3 425.248C778.101 426.214 775.68 426.467 773.345 425.974C771.01 425.482 768.865 424.266 767.182 422.481C765.498 420.696 764.352 418.422 763.888 415.945C763.423 413.469 763.661 410.903 764.573 408.571C765.484 406.238 767.027 404.245 769.006 402.842C770.986 401.44 773.313 400.691 775.694 400.691C777.275 400.691 778.84 401.021 780.3 401.663C781.761 402.304 783.088 403.244 784.206 404.43C785.323 405.615 786.21 407.022 786.815 408.571C787.42 410.119 787.731 411.779 787.731 413.455Z" fill="#232E62"/>
<path d="M782.451 413.455C782.451 414.868 782.056 416.25 781.316 417.424C780.576 418.599 779.523 419.515 778.292 420.056C777.061 420.596 775.707 420.738 774.4 420.462C773.093 420.187 771.892 419.506 770.95 418.507C770.008 417.508 769.366 416.235 769.106 414.849C768.846 413.463 768.979 412.027 769.489 410.721C769.999 409.416 770.863 408.3 771.971 407.515C773.079 406.73 774.381 406.311 775.714 406.311C777.501 406.311 779.214 407.064 780.478 408.404C781.741 409.743 782.451 411.56 782.451 413.455Z" fill="#6D94E4"/>
<path d="M800.611 402.048H726.747L724.299 371.685C724.146 371.136 724.14 370.553 724.281 370C724.422 369.447 724.705 368.947 725.099 368.555C725.492 368.162 725.98 367.893 726.509 367.778C727.038 367.662 727.587 367.704 728.094 367.899C730.254 368.736 732.532 369.179 734.832 369.209L782.937 369.899C785.219 369.936 787.435 370.727 789.274 372.161C791.114 373.595 792.486 375.601 793.2 377.901L800.701 402.048H800.611Z" fill="#F973A7"/>
<path d="M787.728 416.479C786.948 416.479 786.199 416.151 785.648 415.566C785.096 414.981 784.786 414.187 784.786 413.36C784.786 410.802 783.828 408.349 782.122 406.54C780.416 404.731 778.103 403.715 775.69 403.715C773.278 403.715 770.965 404.731 769.259 406.54C767.553 408.349 766.595 410.802 766.595 413.36C766.595 414.187 766.285 414.981 765.733 415.566C765.182 416.151 764.433 416.479 763.653 416.479C762.873 416.479 762.124 416.151 761.573 415.566C761.021 414.981 760.711 414.187 760.711 413.36C760.711 409.147 762.289 405.107 765.098 402.128C767.908 399.149 771.718 397.476 775.69 397.476C779.663 397.476 783.473 399.149 786.282 402.128C789.092 405.107 790.67 409.147 790.67 413.36C790.67 414.187 790.36 414.981 789.808 415.566C789.256 416.151 788.508 416.479 787.728 416.479Z" fill="#232E62"/>
<path d="M690.82 418.361C690.109 418.344 689.427 418.054 688.902 417.544C688.377 417.035 688.043 416.341 687.964 415.591C687.884 414.841 688.064 414.085 688.469 413.465C688.875 412.845 689.479 412.401 690.169 412.217H690.483C691.702 411.934 692.842 411.358 693.816 410.532C694.79 409.705 695.571 408.652 696.098 407.454C696.96 405.154 698.314 403.097 700.051 401.444C701.789 399.792 703.864 398.588 706.114 397.928C708.918 396.966 711.917 396.834 714.787 397.547C717.657 398.261 720.288 399.793 722.396 401.977L723.115 402.596C723.418 402.849 723.672 403.164 723.861 403.521C724.051 403.878 724.172 404.272 724.218 404.678C724.263 405.085 724.233 405.498 724.129 405.892C724.024 406.287 723.848 406.656 723.609 406.978C723.37 407.3 723.074 407.569 722.737 407.77C722.4 407.97 722.029 408.099 721.645 408.147C721.261 408.196 720.872 408.164 720.5 408.053C720.128 407.942 719.78 407.755 719.476 407.502C719.207 407.287 718.937 407.025 718.623 406.74C717.237 405.215 715.469 404.142 713.527 403.649C711.585 403.155 709.551 403.261 707.664 403.953C706.243 404.359 704.935 405.12 703.848 406.173C702.762 407.225 701.93 408.538 701.42 410.002C700.514 412.069 699.172 413.887 697.498 415.316C695.823 416.744 693.861 417.746 691.764 418.242H691.472C691.256 418.275 691.036 418.275 690.82 418.242V418.361Z" fill="#232E62"/>
<path d="M738.034 405.454C737.762 405.45 737.501 405.342 737.298 405.149C737.096 404.956 736.966 404.692 736.934 404.406L733.655 369.328C733.639 369.174 733.653 369.019 733.694 368.871C733.735 368.724 733.804 368.586 733.896 368.466C733.988 368.347 734.101 368.248 734.229 368.175C734.358 368.102 734.498 368.057 734.643 368.042C734.934 368.015 735.223 368.109 735.45 368.305C735.676 368.501 735.822 368.782 735.856 369.09L739.134 404.168C739.16 404.476 739.071 404.783 738.886 405.023C738.702 405.263 738.436 405.418 738.146 405.454H738.034Z" fill="#232E62"/>
<path d="M750.451 405.454C750.179 405.45 749.917 405.342 749.715 405.149C749.512 404.956 749.383 404.692 749.35 404.406L746.071 369.328C746.053 369.174 746.064 369.018 746.104 368.868C746.144 368.719 746.212 368.58 746.305 368.46C746.397 368.339 746.512 368.24 746.642 368.168C746.771 368.097 746.914 368.054 747.059 368.042C747.35 368.015 747.64 368.109 747.866 368.305C748.093 368.501 748.238 368.782 748.272 369.09L751.551 404.168C751.567 404.321 751.553 404.476 751.512 404.624C751.47 404.772 751.402 404.91 751.31 405.029C751.218 405.149 751.105 405.248 750.976 405.321C750.848 405.394 750.708 405.439 750.563 405.454H750.451Z" fill="#232E62"/>
<path d="M762.864 405.454C762.592 405.45 762.331 405.342 762.128 405.149C761.926 404.956 761.796 404.692 761.764 404.406L758.53 369.328C758.514 369.174 758.528 369.019 758.569 368.871C758.61 368.724 758.679 368.586 758.771 368.466C758.863 368.347 758.976 368.248 759.104 368.175C759.232 368.102 759.373 368.057 759.518 368.042C759.809 368.015 760.098 368.109 760.325 368.305C760.551 368.501 760.697 368.782 760.731 369.09L764.009 404.168C764.035 404.476 763.946 404.783 763.761 405.023C763.577 405.263 763.311 405.418 763.021 405.454H762.864Z" fill="#232E62"/>
<path d="M775.284 405.454C775.012 405.45 774.75 405.342 774.548 405.149C774.346 404.956 774.216 404.692 774.183 404.406L770.905 369.328C770.889 369.174 770.903 369.019 770.944 368.871C770.985 368.724 771.054 368.586 771.146 368.466C771.238 368.347 771.351 368.248 771.479 368.175C771.607 368.102 771.748 368.057 771.893 368.042C772.184 368.015 772.473 368.109 772.7 368.305C772.926 368.501 773.072 368.782 773.106 369.09L776.497 404.168C776.522 404.476 776.433 404.783 776.249 405.023C776.064 405.263 775.799 405.418 775.509 405.454H775.284Z" fill="#232E62"/>
<path d="M787.502 403.215C787.229 403.217 786.965 403.11 786.761 402.917C786.558 402.723 786.43 402.456 786.402 402.167L783.235 369.328C783.217 369.174 783.228 369.017 783.268 368.868C783.308 368.719 783.376 368.58 783.469 368.46C783.561 368.339 783.676 368.24 783.806 368.168C783.935 368.097 784.078 368.053 784.224 368.042C784.368 368.025 784.514 368.039 784.654 368.083C784.793 368.127 784.923 368.2 785.036 368.297C785.149 368.395 785.242 368.515 785.311 368.651C785.38 368.787 785.422 368.936 785.436 369.09L788.491 401.929C788.522 402.235 788.438 402.542 788.257 402.783C788.077 403.024 787.813 403.179 787.525 403.215H787.502Z" fill="#232E62"/>
<path d="M690.821 416.432H690.619C679.031 414.051 673.529 374.21 668.161 335.583C664.456 308.745 660.638 281.001 655.518 277.096C655.276 276.884 654.977 276.759 654.664 276.739L642.312 288.288L641.818 309.578C641.819 309.732 641.789 309.885 641.732 310.027C641.675 310.169 641.592 310.297 641.487 310.404C641.382 310.511 641.258 310.594 641.122 310.648C640.986 310.703 640.841 310.728 640.695 310.721C640.551 310.718 640.408 310.685 640.276 310.623C640.144 310.562 640.024 310.473 639.924 310.363C639.824 310.252 639.745 310.122 639.693 309.979C639.64 309.836 639.614 309.684 639.617 309.531L640.112 287.717C640.135 287.398 640.271 287.1 640.493 286.883L653.474 274.738C653.629 274.597 653.814 274.499 654.013 274.452C654.504 274.365 655.006 274.386 655.489 274.513C655.972 274.64 656.425 274.871 656.82 275.191C662.682 279.692 666.23 305.435 670.295 335.25C675.011 369.518 680.895 412.169 690.934 414.122C691.221 414.185 691.473 414.365 691.637 414.624C691.801 414.882 691.863 415.197 691.81 415.503C691.763 415.77 691.629 416.012 691.432 416.185C691.236 416.359 690.988 416.455 690.732 416.456L690.821 416.432Z" fill="#232E62"/>
<path d="M642.688 284.621L642.126 283.24L642.53 283.478L644.058 286.05C643.608 285.55 643.159 285.074 642.688 284.621ZM656.611 278.239L652.412 272.452C652.205 272.16 651.937 271.922 651.63 271.756C651.322 271.591 650.983 271.503 650.638 271.5L633.255 230.754L632.806 229.73L631.683 228.491L604.734 198.986L592 213.274L620.724 239.208L637.747 273.619C637.14 275.405 636.579 277.215 636.062 279.025V279.215C635.982 279.49 635.954 279.779 635.981 280.066C636.008 280.352 636.089 280.63 636.22 280.882L639.296 286.836V287.003C639.41 287.222 639.572 287.41 639.768 287.55C640.711 288.336 641.834 289.17 642.575 289.932C642.89 290.211 643.288 290.364 643.698 290.364C644.109 290.364 644.506 290.211 644.821 289.932C645.086 289.701 645.282 289.394 645.386 289.047C645.489 288.7 645.496 288.329 645.405 287.979C645.726 288.225 646.103 288.377 646.498 288.419C646.892 288.461 647.29 288.391 647.651 288.217C647.714 287.951 647.829 287.701 647.989 287.485C648.148 287.268 648.348 287.089 648.576 286.959C648.804 286.829 649.056 286.751 649.314 286.73C649.572 286.709 649.832 286.745 650.076 286.836C650.492 286.535 650.79 286.083 650.914 285.566C651.038 285.049 650.98 284.501 650.75 284.026C651.098 284.361 651.544 284.561 652.014 284.591C652.483 284.621 652.948 284.481 653.333 284.193C653.633 283.895 653.851 283.515 653.961 283.095C654.072 282.675 654.072 282.231 653.961 281.811C654.322 281.985 654.72 282.055 655.115 282.013C655.509 281.971 655.886 281.819 656.207 281.573C656.443 281.374 656.638 281.128 656.782 280.847C656.926 280.567 657.015 280.259 657.045 279.941C657.074 279.623 657.043 279.303 656.953 278.998C656.863 278.693 656.716 278.411 656.522 278.168L656.611 278.239Z" fill="#F3AE9D"/>
<path d="M616.107 270.309L610.851 226.086L623.787 209.797L611.39 198.843C610.178 197.771 594.21 184.84 594.21 184.84L573.01 191.579C573.01 191.579 555.874 207.225 562.612 210.488C563.164 210.766 563.756 210.943 564.364 211.012C564.364 215.274 564.364 242.97 564.364 256.52C564.377 261.401 565.962 266.131 568.855 269.928L551.922 315.651C570.225 326.486 605.304 346.466 640.968 301.005L616.107 270.309Z" fill="#F49DC3"/>
<path d="M575.988 197.808C581.886 193.462 594.894 186.432 595.415 184.802C595.42 184.779 595.425 184.757 595.43 184.734C595.428 184.755 595.423 184.778 595.415 184.802C593.481 193.671 587.506 210.654 578.938 208.165C577.48 207.68 574.336 205.982 573.432 203.073C571.083 206.35 565.621 212.522 562.561 211C559.501 209.478 560.736 205.953 561.736 204.38C563.521 201.087 568.268 194.006 572.97 192.029C572.01 195.656 571.438 201.161 575.988 197.808Z" fill="white"/>
<path d="M577.253 304.601C577.253 305.684 576.95 306.743 576.382 307.644C575.814 308.545 575.008 309.247 574.064 309.661C573.12 310.076 572.082 310.184 571.08 309.973C570.078 309.762 569.157 309.24 568.435 308.474C567.712 307.708 567.22 306.732 567.021 305.67C566.822 304.607 566.924 303.506 567.315 302.505C567.706 301.504 568.368 300.649 569.218 300.047C570.067 299.445 571.066 299.124 572.087 299.124C573.457 299.124 574.771 299.701 575.74 300.728C576.708 301.755 577.253 303.148 577.253 304.601Z" fill="white"/>
<path d="M601.69 314.293C601.69 315.377 601.387 316.436 600.82 317.336C600.252 318.237 599.445 318.939 598.501 319.354C597.558 319.768 596.519 319.877 595.517 319.665C594.515 319.454 593.595 318.932 592.872 318.166C592.15 317.4 591.658 316.424 591.459 315.362C591.259 314.299 591.362 313.198 591.753 312.197C592.144 311.196 592.806 310.341 593.655 309.739C594.504 309.137 595.503 308.816 596.525 308.816C597.895 308.816 599.209 309.393 600.177 310.42C601.146 311.447 601.69 312.841 601.69 314.293Z" fill="white"/>
<path d="M629.026 302.029C629.026 303.112 628.723 304.171 628.155 305.072C627.588 305.973 626.781 306.675 625.837 307.089C624.894 307.504 623.855 307.612 622.853 307.401C621.851 307.19 620.931 306.668 620.208 305.902C619.486 305.136 618.994 304.16 618.795 303.098C618.595 302.035 618.698 300.934 619.088 299.933C619.479 298.932 620.141 298.077 620.991 297.475C621.84 296.873 622.839 296.552 623.861 296.552C625.231 296.552 626.544 297.129 627.513 298.156C628.482 299.183 629.026 300.576 629.026 302.029Z" fill="white"/>
<path d="M609.299 279.453C609.299 280.537 608.996 281.596 608.429 282.496C607.861 283.397 607.055 284.099 606.111 284.514C605.167 284.928 604.128 285.037 603.126 284.825C602.124 284.614 601.204 284.092 600.482 283.326C599.759 282.56 599.267 281.584 599.068 280.522C598.869 279.459 598.971 278.358 599.362 277.357C599.753 276.356 600.415 275.501 601.264 274.899C602.114 274.297 603.112 273.976 604.134 273.976C604.813 273.973 605.486 274.112 606.114 274.387C606.742 274.661 607.313 275.064 607.793 275.573C608.273 276.083 608.654 276.688 608.912 277.354C609.171 278.02 609.302 278.733 609.299 279.453Z" fill="white"/>
<path d="M612.104 210.202C612.104 211.286 611.801 212.344 611.234 213.245C610.666 214.146 609.859 214.848 608.915 215.263C607.972 215.677 606.933 215.786 605.931 215.574C604.929 215.363 604.009 214.841 603.286 214.075C602.564 213.309 602.072 212.333 601.873 211.271C601.673 210.208 601.776 209.107 602.167 208.106C602.558 207.105 603.22 206.25 604.069 205.648C604.918 205.046 605.917 204.725 606.939 204.725C608.309 204.725 609.622 205.302 610.591 206.329C611.56 207.356 612.104 208.75 612.104 210.202Z" fill="white"/>
<path d="M584.565 282.12C584.565 283.204 584.262 284.263 583.695 285.163C583.127 286.064 582.32 286.766 581.376 287.181C580.433 287.595 579.394 287.704 578.392 287.492C577.39 287.281 576.47 286.759 575.747 285.993C575.025 285.227 574.533 284.251 574.334 283.189C574.134 282.126 574.237 281.025 574.628 280.024C575.018 279.024 575.681 278.168 576.53 277.566C577.379 276.964 578.378 276.643 579.4 276.643C580.77 276.643 582.083 277.22 583.052 278.247C584.021 279.275 584.565 280.668 584.565 282.12Z" fill="white"/>
<path d="M580.284 256.687C580.284 257.77 579.981 258.829 579.413 259.73C578.846 260.631 578.039 261.333 577.095 261.747C576.151 262.162 575.113 262.27 574.111 262.059C573.109 261.848 572.188 261.326 571.466 260.56C570.744 259.794 570.252 258.818 570.052 257.756C569.853 256.693 569.955 255.592 570.346 254.591C570.737 253.59 571.399 252.735 572.249 252.133C573.098 251.531 574.097 251.21 575.118 251.21C576.488 251.21 577.802 251.787 578.771 252.814C579.74 253.841 580.284 255.234 580.284 256.687Z" fill="white"/>
<path d="M603.167 245.733C603.171 246.817 602.872 247.878 602.307 248.782C601.742 249.686 600.937 250.392 599.993 250.81C599.05 251.228 598.011 251.34 597.007 251.131C596.004 250.923 595.081 250.403 594.357 249.638C593.632 248.873 593.138 247.897 592.937 246.834C592.736 245.771 592.837 244.668 593.227 243.666C593.617 242.664 594.279 241.807 595.129 241.204C595.979 240.601 596.979 240.279 598.001 240.279C599.367 240.279 600.678 240.853 601.646 241.875C602.614 242.897 603.161 244.284 603.167 245.733Z" fill="white"/>
<path d="M580.284 229.253C580.284 230.337 579.981 231.396 579.413 232.296C578.846 233.197 578.039 233.899 577.095 234.314C576.151 234.728 575.113 234.837 574.111 234.625C573.109 234.414 572.188 233.892 571.466 233.126C570.744 232.36 570.252 231.385 570.052 230.322C569.853 229.26 569.955 228.158 570.346 227.157C570.737 226.157 571.399 225.301 572.249 224.699C573.098 224.097 574.097 223.776 575.118 223.776C576.488 223.776 577.802 224.353 578.771 225.38C579.74 226.408 580.284 227.801 580.284 229.253Z" fill="white"/>
<path d="M578.865 236.898C576.956 229.92 570.017 217.489 557.193 220.442C556.605 220.58 556.044 220.822 555.531 221.157C554.628 220.281 553.659 219.484 552.634 218.775C554.627 216.015 555.91 212.754 556.359 209.31C556.807 205.867 556.406 202.359 555.194 199.129C554.393 196.968 553.212 194.988 551.713 193.294C552.331 192.665 552.792 191.884 553.056 191.02C553.319 190.156 553.377 189.237 553.224 188.343C553.071 187.45 552.712 186.611 552.179 185.9C551.646 185.19 550.955 184.631 550.168 184.272C549.381 183.914 548.523 183.767 547.67 183.846C546.817 183.925 545.996 184.226 545.279 184.724C544.563 185.221 543.974 185.898 543.564 186.696C543.154 187.493 542.938 188.385 542.932 189.293C537.533 189.578 532.383 191.785 528.312 195.557C527.836 195.984 527.421 196.481 527.077 197.033C526.039 196.452 524.846 196.262 523.692 196.493C522.539 196.725 521.494 197.364 520.727 198.307C519.961 199.249 519.519 200.44 519.473 201.683C519.427 202.927 519.78 204.15 520.474 205.154C521.068 206.022 521.888 206.688 522.834 207.069C523.779 207.449 524.809 207.529 525.797 207.297C526.352 210.36 527.249 213.342 528.469 216.18V216.322C527.319 217.607 526.632 219.281 526.531 221.049C526.429 222.817 526.92 224.567 527.915 225.99C528.911 227.413 530.348 228.417 531.973 228.827C533.599 229.237 535.309 229.025 536.801 228.229C538.105 228.213 539.402 228.029 540.664 227.682C540.664 228.706 540.821 229.777 540.934 230.92C539.905 230.88 538.887 231.144 537.992 231.683C537.332 232.066 536.751 232.583 536.281 233.205C535.811 233.827 535.462 234.542 535.253 235.307C535.045 236.073 534.981 236.875 535.065 237.667C535.15 238.459 535.381 239.225 535.746 239.922C538.531 245.185 531.254 250.4 530.962 250.639C529.783 251.559 528.981 252.924 528.722 254.452C528.462 255.981 528.765 257.556 529.567 258.855C530.37 260.155 531.611 261.078 533.036 261.437C534.46 261.795 535.961 261.562 537.228 260.783C537.543 260.593 537.834 260.355 538.149 260.117C540.194 258.524 542.022 256.641 543.584 254.52C543.846 255.7 544.176 256.861 544.572 257.997C543.36 259.542 542.742 261.515 542.843 263.522C543.102 268.023 542.846 272.541 542.079 276.977C540.593 277.833 539.413 279.181 538.72 280.816C538.027 282.451 537.858 284.282 538.241 286.029C538.623 287.775 539.535 289.34 540.837 290.484C542.139 291.628 543.758 292.287 545.448 292.361H545.829C547.192 292.363 548.541 292.073 549.796 291.508C551.05 290.944 552.183 290.116 553.128 289.075C557.238 284.645 558.338 275.858 558.361 267.832C558.608 267.832 558.833 267.832 559.08 267.832C559.887 270.226 560.503 272.688 560.921 275.191C559.986 276.386 559.392 277.839 559.208 279.38C559.024 280.921 559.258 282.485 559.882 283.89C560.507 285.295 561.496 286.481 562.734 287.311C563.972 288.141 565.408 288.579 566.872 288.574C567.712 288.57 568.546 288.425 569.343 288.146C570.674 287.655 571.894 286.877 572.926 285.86C573.958 284.844 574.78 283.611 575.339 282.24C578.169 275.381 574.62 263.998 571.14 255.64C570.708 254.597 570.073 253.663 569.275 252.901C569.195 248.367 568.414 243.878 566.962 239.613C566.365 237.858 565.675 236.141 564.896 234.469C566.251 236.207 567.28 238.203 567.928 240.351C568.36 241.889 569.35 243.182 570.681 243.946C572.012 244.709 573.574 244.881 575.025 244.423C576.475 243.965 577.694 242.915 578.415 241.504C579.135 240.093 579.297 238.436 578.865 236.898Z" fill="#D3C5F2"/>
<path d="M537.953 207.749C538.514 209.249 538.514 210.631 537.953 210.845C537.391 211.059 536.538 210.035 535.999 208.464C535.46 206.892 535.437 205.582 535.999 205.368C536.56 205.153 537.414 206.177 537.953 207.749Z" fill="#232E62"/>
<path d="M531.21 210.488C531.749 211.964 531.749 213.369 531.21 213.584C530.671 213.798 529.795 212.774 529.256 211.202C528.717 209.631 528.717 208.321 529.256 208.106C529.795 207.892 530.671 208.916 531.21 210.488Z" fill="#232E62"/>
<path d="M524.787 206.272C523.679 206.272 522.616 205.806 521.833 204.975C521.05 204.144 520.609 203.018 520.609 201.843C520.609 200.668 521.05 199.542 521.833 198.711C522.616 197.88 523.679 197.414 524.787 197.414C524.932 197.407 525.077 197.432 525.213 197.487C525.349 197.541 525.473 197.624 525.578 197.731C525.683 197.838 525.766 197.966 525.823 198.108C525.88 198.25 525.91 198.402 525.909 198.557C525.912 198.71 525.887 198.862 525.834 199.005C525.782 199.148 525.703 199.278 525.603 199.389C525.503 199.499 525.383 199.588 525.251 199.65C525.119 199.711 524.976 199.744 524.831 199.747C524.309 199.766 523.815 200.001 523.454 200.401C523.093 200.802 522.894 201.337 522.9 201.891C522.912 202.438 523.125 202.959 523.495 203.342C523.864 203.725 524.36 203.939 524.876 203.939C525.166 203.945 525.443 204.07 525.648 204.287C525.853 204.505 525.971 204.798 525.977 205.106C525.977 205.413 525.865 205.709 525.664 205.931C525.463 206.153 525.189 206.284 524.899 206.296L524.787 206.272Z" fill="#232E62"/>
<path d="M551.113 191.484C550.994 191.509 550.872 191.509 550.753 191.484C550.475 191.381 550.245 191.166 550.115 190.885C549.985 190.604 549.964 190.281 550.057 189.984C550.23 189.463 550.2 188.89 549.975 188.392C549.75 187.894 549.347 187.512 548.856 187.328C548.364 187.145 547.824 187.177 547.355 187.416C546.885 187.654 546.524 188.081 546.352 188.603C546.235 188.862 546.032 189.066 545.782 189.177C545.532 189.288 545.253 189.297 544.997 189.202C544.741 189.108 544.527 188.917 544.396 188.666C544.264 188.414 544.225 188.121 544.285 187.84C544.467 187.293 544.748 186.789 545.113 186.357C545.478 185.925 545.92 185.574 546.413 185.323C546.906 185.072 547.441 184.926 547.988 184.894C548.534 184.863 549.081 184.945 549.597 185.138C550.113 185.33 550.588 185.628 550.996 186.015C551.403 186.402 551.735 186.871 551.971 187.394C552.208 187.917 552.345 188.484 552.375 189.063C552.405 189.643 552.327 190.222 552.146 190.77C552.071 190.998 551.932 191.196 551.747 191.337C551.562 191.477 551.34 191.554 551.113 191.555V191.484Z" fill="#232E62"/>
<path d="M536.512 228.134C532.515 227.825 530.359 222.419 530.269 222.181C530.214 222.038 530.187 221.886 530.188 221.732C530.188 221.579 530.218 221.427 530.274 221.285C530.33 221.144 530.413 221.016 530.516 220.908C530.619 220.8 530.741 220.714 530.875 220.657C531.009 220.599 531.153 220.569 531.298 220.57C531.443 220.571 531.586 220.603 531.719 220.662C531.853 220.722 531.974 220.809 532.076 220.918C532.177 221.028 532.258 221.157 532.312 221.3C532.784 222.49 534.558 225.634 536.669 225.824C536.815 225.83 536.958 225.867 537.09 225.933C537.221 226 537.339 226.093 537.435 226.209C537.532 226.325 537.606 226.46 537.651 226.607C537.697 226.754 537.714 226.909 537.702 227.063C537.68 227.358 537.555 227.633 537.351 227.836C537.148 228.038 536.881 228.153 536.602 228.158L536.512 228.134Z" fill="#232E62"/>
<path d="M532.78 220.561L530.535 222.3C530.33 222.491 530.066 222.596 529.794 222.596C529.521 222.596 529.257 222.491 529.052 222.3L527.458 220.656C527.339 220.534 527.247 220.385 527.189 220.22C527.13 220.056 527.107 219.879 527.121 219.704C527.134 219.526 527.182 219.353 527.263 219.197C527.345 219.041 527.457 218.905 527.593 218.799L530.445 216.608C530.582 216.502 530.74 216.43 530.907 216.397C531.074 216.364 531.246 216.371 531.41 216.418C531.572 216.459 531.722 216.538 531.85 216.649C531.979 216.76 532.082 216.901 532.152 217.061L533.14 219.18C533.258 219.434 533.287 219.725 533.221 220C533.155 220.276 532.999 220.517 532.78 220.68V220.561Z" fill="#232E62"/>
<path d="M549.428 227.396C546.782 229.466 543.697 230.815 540.444 231.325C540.149 231.368 539.85 231.348 539.562 231.267C539.274 231.186 539.004 231.046 538.768 230.855C538.531 230.664 538.332 230.425 538.182 230.152C538.033 229.88 537.935 229.578 537.895 229.265C537.856 228.953 537.874 228.635 537.95 228.33C538.026 228.025 538.158 227.738 538.339 227.487C538.519 227.236 538.744 227.026 539.002 226.867C539.259 226.708 539.543 226.605 539.838 226.563C542.148 226.123 544.352 225.197 546.32 223.839C548.287 222.481 549.977 220.719 551.291 218.656C551.64 218.132 552.171 217.776 552.766 217.667C553.362 217.557 553.975 217.703 554.469 218.073C554.964 218.442 555.299 219.005 555.403 219.637C555.506 220.269 555.368 220.918 555.02 221.443C553.495 223.753 551.62 225.781 549.472 227.444L549.428 227.396Z" fill="white"/>
<path d="M562.357 255.734C561.965 255.439 561.673 255.018 561.523 254.534C561.374 254.05 561.375 253.527 561.526 253.043C561.84 252.066 561.968 251.033 561.904 250.003C561.84 248.973 561.584 247.967 561.152 247.042C560.72 246.117 560.12 245.291 559.387 244.613C558.653 243.935 557.8 243.417 556.877 243.089C546.928 239.16 544.885 226.8 544.795 226.276C544.74 225.961 544.746 225.638 544.812 225.326C544.878 225.013 545.003 224.718 545.179 224.458C545.355 224.198 545.579 223.978 545.837 223.812C546.095 223.646 546.382 223.536 546.681 223.49C546.976 223.432 547.28 223.438 547.573 223.506C547.866 223.575 548.144 223.705 548.389 223.89C548.634 224.074 548.842 224.308 549 224.579C549.157 224.85 549.263 225.152 549.309 225.467C549.309 225.467 551.015 235.588 558.471 238.541C559.946 239.072 561.308 239.906 562.479 240.996C563.649 242.085 564.606 243.409 565.294 244.89C565.982 246.372 566.389 247.983 566.49 249.631C566.591 251.279 566.384 252.932 565.883 254.496C565.796 254.8 565.653 255.083 565.461 255.327C565.27 255.571 565.035 255.773 564.769 255.919C564.503 256.066 564.212 256.154 563.914 256.18C563.615 256.205 563.315 256.167 563.03 256.068C562.79 255.997 562.562 255.884 562.357 255.734Z" fill="white"/>
<path d="M562.298 232.468C561.901 230.872 561.212 229.375 560.269 228.062C559.326 226.749 558.148 225.647 556.802 224.817C555.457 223.988 553.97 223.448 552.427 223.228C550.885 223.009 549.317 223.114 547.812 223.538L548.846 228.301C550.733 227.785 552.737 228.082 554.419 229.125C556.102 230.169 557.328 231.876 557.829 233.873C557.959 234.365 558.234 234.799 558.614 235.112C558.994 235.425 559.459 235.6 559.94 235.612C560.176 235.671 560.422 235.671 560.658 235.612C560.951 235.53 561.224 235.386 561.463 235.189C561.701 234.992 561.9 234.746 562.047 234.466C562.193 234.186 562.285 233.877 562.317 233.559C562.349 233.24 562.319 232.918 562.231 232.611L562.298 232.468Z" fill="white"/>
<path d="M548.558 243.018C548.371 242.584 548.033 242.242 547.615 242.065C547.196 241.887 546.73 241.888 546.312 242.065L544.874 242.732L547.929 240.065C548.243 239.786 548.452 239.396 548.518 238.967C548.583 238.537 548.5 238.097 548.285 237.727C548.07 237.357 547.736 237.082 547.345 236.951C546.953 236.821 546.531 236.844 546.155 237.017L545.661 237.231C545.967 236.927 546.152 236.509 546.177 236.064C546.195 235.828 546.169 235.59 546.1 235.364C546.03 235.138 545.919 234.93 545.773 234.75C545.626 234.57 545.448 234.424 545.247 234.318C545.047 234.213 544.828 234.15 544.605 234.135L542.494 233.969L536.61 231.706H536.318C535.722 231.567 535.099 231.685 534.585 232.033C534.071 232.382 533.709 232.932 533.578 233.564C533.447 234.195 533.558 234.856 533.887 235.401C534.215 235.946 534.734 236.33 535.33 236.469L541.573 237.946H541.82H542.09L544.583 237.803L543.437 238.327L535.465 236.564C535.174 236.498 534.874 236.494 534.582 236.552C534.29 236.61 534.011 236.728 533.762 236.901C533.514 237.074 533.3 237.297 533.134 237.558C532.967 237.819 532.851 238.113 532.792 238.422C532.73 238.73 532.726 239.048 532.78 239.358C532.835 239.668 532.947 239.963 533.11 240.227C533.273 240.491 533.483 240.717 533.73 240.894C533.976 241.07 534.253 241.193 534.544 241.256L543.168 243.161H543.437C543.615 243.196 543.798 243.196 543.976 243.161L543.594 243.328L535.644 241.565C535.349 241.5 535.045 241.496 534.749 241.555C534.453 241.614 534.17 241.735 533.918 241.909C533.666 242.084 533.448 242.31 533.278 242.573C533.108 242.837 532.989 243.134 532.927 243.447C532.865 243.759 532.862 244.082 532.917 244.396C532.973 244.71 533.086 245.01 533.251 245.277C533.416 245.545 533.629 245.775 533.878 245.956C534.126 246.136 534.406 246.263 534.701 246.328H534.948C534.574 246.456 534.238 246.687 533.974 246.996C533.709 247.305 533.527 247.683 533.443 248.09C533.381 248.399 533.377 248.717 533.432 249.027C533.486 249.337 533.598 249.632 533.761 249.895C533.924 250.159 534.135 250.386 534.381 250.562C534.627 250.739 534.904 250.862 535.195 250.924L542.876 252.615H543.168C543.403 252.664 543.646 252.657 543.879 252.595C544.112 252.534 544.329 252.418 544.515 252.258L547.255 249.877C547.508 249.652 547.693 249.353 547.787 249.018C547.881 248.682 547.88 248.325 547.784 247.99C547.689 247.656 547.502 247.358 547.249 247.134C546.995 246.911 546.685 246.771 546.357 246.733L548.086 245.209C548.372 244.958 548.574 244.617 548.663 244.236C548.752 243.854 548.723 243.452 548.58 243.09L548.558 243.018Z" fill="#F3AE9D"/>
<path d="M595.352 178.553C594.63 177.64 594.278 176.46 594.375 175.273C594.472 174.085 595.009 172.987 595.869 172.219L605.436 163.669C606.294 162.9 607.405 162.524 608.525 162.622C609.645 162.72 610.682 163.285 611.41 164.193C612.135 165.103 612.49 166.281 612.397 167.469C612.305 168.656 611.772 169.756 610.916 170.528L601.326 179.101C600.465 179.867 599.352 180.239 598.232 180.137C597.112 180.034 596.077 179.465 595.352 178.553Z" fill="#ABC7FF"/>
<path d="M591.174 166.598L570.445 173.457L572.938 193.746L572.669 196.914C572.636 197.269 572.7 197.628 572.852 197.946C573.004 198.265 573.239 198.531 573.529 198.713C573.819 198.896 574.152 198.987 574.488 198.976C574.825 198.965 575.152 198.853 575.431 198.652L592.634 186.745L591.174 166.503V166.598Z" fill="#F3AE9D"/>
<path d="M583.668 169.623L579.311 170.551L570.328 173.481L572.057 187.531C577.29 184.506 581.512 178.005 583.556 169.646L583.668 169.623Z" fill="#232E62"/>
<path d="M595.145 161.574C589.059 176.505 575.135 184.507 564.064 179.41C552.992 174.314 548.972 158.097 555.08 143.165C561.189 128.234 575.113 120.256 586.162 125.329C597.211 130.401 601.254 146.761 595.145 161.574Z" fill="#F3AE9D"/>
<path d="M610.67 146.737C610.131 140.308 607.077 117.922 590.166 118.589C587.526 118.571 584.903 119.047 582.418 119.994C582.037 119.708 575.052 114.898 563.441 120.471C551.494 126.186 553.605 144.594 553.605 144.594H584.889C584.889 145.618 585.091 146.666 585.248 147.761C586.573 156.501 590.166 163.36 593.76 164.622C593.082 165.976 592.332 167.288 591.514 168.551L592.727 176.338C607.504 173.362 612.647 159.073 610.693 146.737H610.67Z" fill="#232E62"/>
<path d="M557.397 163.121C554.77 163.645 552.479 163.002 552.232 161.692C551.985 160.383 553.961 158.906 556.566 158.382L557.397 163.145V163.121Z" fill="#F3AE9D"/>
<path d="M555.625 164.479C554.958 164.483 554.294 164.395 553.648 164.217C551.74 163.693 551.268 162.55 551.156 161.836C550.796 159.811 552.997 157.835 556.366 157.073C556.509 157.045 556.656 157.048 556.798 157.082C556.94 157.115 557.074 157.177 557.193 157.266C557.312 157.355 557.414 157.467 557.491 157.598C557.569 157.728 557.621 157.873 557.646 158.025C557.698 158.328 557.636 158.641 557.472 158.895C557.308 159.15 557.055 159.325 556.77 159.383C554.367 159.859 553.312 161.026 553.334 161.312C553.356 161.597 554.794 162.288 557.197 161.812C557.344 161.784 557.496 161.787 557.642 161.82C557.788 161.854 557.927 161.918 558.05 162.009C558.173 162.1 558.278 162.215 558.359 162.349C558.44 162.482 558.495 162.632 558.522 162.788C558.548 162.944 558.546 163.105 558.514 163.26C558.482 163.415 558.421 163.562 558.336 163.693C558.25 163.823 558.141 163.935 558.015 164.02C557.889 164.106 557.749 164.165 557.601 164.193C556.948 164.315 556.287 164.378 555.625 164.384V164.479Z" fill="#232E62"/>
<path d="M600.273 156.644C600.441 158.311 600.14 159.994 599.407 161.479C598.673 162.965 597.541 164.187 596.153 164.99C594.765 165.793 593.184 166.142 591.609 165.992C590.034 165.842 588.536 165.201 587.305 164.148C586.074 163.096 585.165 161.68 584.693 160.08C584.221 158.48 584.207 156.767 584.652 155.159C585.098 153.55 585.983 152.118 587.197 151.042C588.41 149.967 589.897 149.298 591.469 149.119C592.512 148.997 593.567 149.094 594.575 149.405C595.582 149.716 596.522 150.235 597.339 150.932C598.157 151.629 598.837 152.49 599.341 153.466C599.844 154.442 600.161 155.514 600.273 156.62V156.644Z" fill="#F3AE9D"/>
<path d="M594.876 160.835C594.73 160.883 594.573 160.883 594.427 160.835L589.756 158.454C589.634 158.382 589.531 158.279 589.456 158.155C589.382 158.03 589.338 157.887 589.329 157.74C589.323 157.593 589.35 157.447 589.409 157.314C589.468 157.182 589.556 157.066 589.666 156.977L593.798 153.882C593.976 153.787 594.18 153.765 594.373 153.82C594.565 153.875 594.731 154.003 594.839 154.18C594.948 154.357 594.991 154.57 594.96 154.779C594.93 154.987 594.828 155.177 594.674 155.311L591.71 157.43L595.146 159.24C595.242 159.288 595.328 159.356 595.398 159.44C595.468 159.525 595.522 159.623 595.556 159.73C595.589 159.837 595.602 159.95 595.593 160.062C595.585 160.174 595.555 160.283 595.505 160.383C595.445 160.509 595.356 160.616 595.246 160.695C595.136 160.774 595.009 160.822 594.876 160.835Z" fill="#232E62"/>
<path d="M344.939 426.124H247.988C239.554 426.124 231.465 422.572 225.502 416.248C219.538 409.924 216.188 401.347 216.188 392.404V390.308C216.188 381.365 219.538 372.788 225.502 366.464C231.465 360.14 239.554 356.587 247.988 356.587H344.939C353.373 356.587 361.461 360.14 367.425 366.464C373.389 372.788 376.739 381.365 376.739 390.308V392.404C376.739 401.347 373.389 409.924 367.425 416.248C361.461 422.572 353.373 426.124 344.939 426.124Z" fill="#F49DC3"/>
<path d="M462.087 395.928L451.891 347.038L427.547 365.827L437.765 414.717C451.397 418.218 491.664 408.597 491.664 408.597L462.087 395.928Z" fill="#F3AE9D"/>
<path d="M436.894 413.836L435.209 421.957C435.074 422.592 435.076 423.251 435.214 423.885C435.353 424.52 435.624 425.113 436.008 425.621C436.392 426.129 436.879 426.538 437.433 426.819C437.986 427.1 438.593 427.245 439.207 427.244H503.189C504.269 427.237 505.323 426.898 506.224 426.268C507.125 425.638 507.834 424.744 508.264 423.694C508.695 422.645 508.829 421.485 508.65 420.356C508.47 419.228 507.985 418.179 507.254 417.337C504.827 414.446 501.837 412.148 498.491 410.603C495.145 409.057 491.522 408.299 487.873 408.383C468.806 408.383 436.894 413.836 436.894 413.836Z" fill="white"/>
<path d="M468.578 393.499L423.415 270.952C421.605 266.11 418.179 262.143 413.789 259.807C409.399 257.471 404.352 256.928 399.61 258.283L398.913 258.497L277.641 293.789L290.936 340.775L393.276 305.411L433.903 408.383L468.578 393.499Z" fill="#6D94E4"/>
<path d="M448.615 413.836L446.93 421.957C446.8 422.592 446.805 423.249 446.945 423.881C447.085 424.514 447.356 425.105 447.739 425.612C448.123 426.119 448.608 426.528 449.159 426.81C449.711 427.093 450.315 427.241 450.928 427.244H514.911C515.992 427.242 517.049 426.906 517.953 426.278C518.858 425.649 519.57 424.755 520.003 423.705C520.437 422.655 520.573 421.493 520.394 420.362C520.215 419.232 519.73 418.18 518.998 417.337C516.571 414.446 513.581 412.148 510.235 410.603C506.889 409.057 503.266 408.299 499.617 408.383C480.527 408.383 448.615 413.836 448.615 413.836Z" fill="white"/>
<path d="M473.647 395.928L444.16 353.063L419.883 371.876L449.37 414.741C462.98 418.242 503.269 408.621 503.269 408.621L473.669 395.928H473.647Z" fill="#F3AE9D"/>
<path d="M399.473 291.456C397.083 288.31 393.888 285.962 390.271 284.695C386.653 283.427 382.768 283.294 379.081 284.312L378.295 284.526L314.807 301.863L249.297 319.628L252.239 333.035C252.239 333.035 261.896 359.778 286.802 360.159C312.471 360.54 377.105 329.773 377.105 329.773L443.535 413.455L472.484 388.308L399.473 291.408V291.456Z" fill="#6D94E4"/>
<path d="M415.512 188.412L353.259 193.508L306.434 164.145C303.59 161.704 300.23 160.03 296.643 159.264L271.939 154.096C271.939 154.096 242.744 168.384 241.014 208.202C239.24 246.518 241.014 274.619 241.486 290.598C241.958 306.578 245.82 333.273 253.972 338.417C262.125 343.561 316.855 281.835 316.855 281.835L315.103 203.891L342.883 221.323L343.175 221.514C345.641 223.068 348.529 223.697 351.373 223.3L418.005 214.131L415.512 188.412Z" fill="#AB85FF"/>
<path d="M265.531 158.43L296.635 168.432L292.234 162.264L299.308 131.568L272.763 131.425L265.531 158.43Z" fill="#F3AE9D"/>
<path d="M293.089 158.502L299.287 131.544L272.742 131.401V138.545C277.616 148.904 285.072 156.192 293.134 158.478L293.089 158.502Z" fill="#232E62"/>
<path d="M318.354 111.731C318.848 135.307 306.833 154.739 291.539 155.096C276.245 155.453 263.399 136.64 262.905 113.064C262.411 89.4884 274.426 70.0561 289.72 69.6751C305.014 69.2941 317.837 88.131 318.354 111.731Z" fill="#F3AE9D"/>
<path d="M312.156 131.901C318.063 132.449 323.048 130.329 323.385 127.138C323.722 123.947 319.073 120.994 313.167 120.447L312.224 131.853L312.156 131.901Z" fill="#F3AE9D"/>
<path d="M317.024 84.2729C316.889 72.223 303.302 60.6017 286.93 59.4348C274.579 58.5775 268.964 66.2694 268.964 66.2694C268.964 66.2694 256.365 66.579 250.212 84.0586C250.202 84.1056 250.202 84.1544 250.212 84.2014C250.01 84.7492 249.83 85.3207 249.65 85.9161C240.555 113.326 245.159 132.139 239.836 145.451C236.333 154.215 220.163 175.552 220.163 175.552C215.505 182.434 212.936 190.658 212.797 199.128C219.197 192.627 226.272 189.031 227.35 189.364C226.429 190.222 225.575 191.103 224.767 191.984C222.286 194.79 220.385 198.115 219.187 201.746C217.989 205.376 217.519 209.233 217.809 213.067C218.099 216.901 219.141 220.629 220.869 224.011C222.597 227.393 224.973 230.355 227.844 232.706L228.001 232.849C229.292 233.77 230.688 234.514 232.156 235.064L240.353 238.398C240.353 229.182 240.577 219.108 241.094 208.201C241.335 198.485 243.659 188.954 247.888 180.331C252.118 171.708 258.142 164.219 265.506 158.43L272.737 131.401L274.287 129.615V113.54V107.349L276.555 101.49C280.13 102.799 283.853 103.599 287.627 103.872C299.979 104.729 310.489 99.9187 314.846 92.322C315.983 95.4688 316.841 98.7218 317.406 102.038C321.066 99.8235 320.797 92.0125 316.934 84.2729H317.024Z" fill="#232E62"/>
<path d="M257.383 120.113C257.3 122.465 257.877 124.79 259.039 126.794C260.202 128.799 261.899 130.393 263.915 131.375C265.932 132.358 268.177 132.685 270.369 132.315C272.561 131.945 274.6 130.895 276.229 129.297C277.858 127.699 279.004 125.625 279.522 123.337C280.041 121.049 279.908 118.649 279.141 116.441C278.374 114.233 277.007 112.315 275.213 110.93C273.419 109.545 271.278 108.755 269.061 108.659C267.584 108.595 266.11 108.841 264.723 109.383C263.336 109.924 262.064 110.751 260.979 111.815C259.894 112.879 259.018 114.16 258.401 115.584C257.784 117.008 257.438 118.547 257.383 120.113Z" fill="#F3AE9D"/>
<path d="M265.484 125.305C265.273 125.313 265.066 125.247 264.893 125.118C264.721 124.989 264.593 124.804 264.529 124.59C264.466 124.377 264.47 124.147 264.541 123.937C264.612 123.726 264.746 123.546 264.923 123.423L269.841 120.351L265.192 117.518C265.084 117.451 264.989 117.363 264.913 117.257C264.837 117.151 264.782 117.03 264.751 116.902C264.719 116.773 264.713 116.639 264.731 116.508C264.748 116.377 264.791 116.25 264.855 116.136C264.982 115.905 265.19 115.735 265.433 115.664C265.677 115.593 265.937 115.626 266.158 115.755L272.199 119.47C272.346 119.554 272.468 119.678 272.555 119.828C272.642 119.979 272.69 120.151 272.693 120.328C272.691 120.505 272.647 120.679 272.565 120.833C272.482 120.987 272.364 121.116 272.222 121.209L265.889 125.162L265.484 125.305Z" fill="#232E62"/>
<path d="M438.668 180.506C438.668 192.651 428.225 202.51 415.334 202.51C402.443 202.51 392 192.651 392 180.506C392 168.361 402.443 158.645 415.334 158.645C428.225 158.645 438.668 168.48 438.668 180.625V180.506Z" fill="#F49DC3"/>
<path d="M406.3 183.102C405.723 182.356 404.898 181.873 403.995 181.753C403.092 181.633 402.181 181.886 401.449 182.459C400.977 182.864 389.726 192.27 385.593 205.606C385.572 205.78 385.572 205.956 385.593 206.13C384.66 206.411 383.812 206.949 383.138 207.689C382.463 208.429 381.986 209.346 381.753 210.345C381.498 210.564 381.304 210.852 381.192 211.179C380.534 212.919 380.408 214.835 380.832 216.656C380.976 216.996 381.209 217.285 381.504 217.488C381.799 217.691 382.143 217.799 382.494 217.799C382.741 217.789 382.985 217.733 383.213 217.632C383.181 218.202 383.273 218.773 383.482 219.299C383.621 219.643 383.853 219.936 384.149 220.139C384.445 220.343 384.791 220.448 385.144 220.442C385.407 220.444 385.667 220.388 385.908 220.275C386.097 220.177 386.271 220.048 386.424 219.894C386.445 220.114 386.491 220.329 386.559 220.537C386.706 220.88 386.943 221.17 387.242 221.373C387.541 221.575 387.889 221.682 388.243 221.681C388.506 221.681 388.766 221.624 389.007 221.514C389.43 221.296 389.76 220.92 389.935 220.457C390.109 219.995 390.115 219.48 389.95 219.013C389.964 218.204 390.093 217.401 390.332 216.632L390.759 216.251C391.205 216.666 391.735 216.968 392.308 217.132H392.713C393.147 217.12 393.563 216.945 393.888 216.638C394.212 216.332 394.424 215.914 394.486 215.458C394.548 215.002 394.455 214.537 394.225 214.146C393.995 213.755 393.643 213.463 393.229 213.322C393.013 213.149 392.81 212.958 392.623 212.75C392.646 212.409 392.646 212.067 392.623 211.726C392.621 210.669 392.349 209.632 391.837 208.726C392.007 208.46 392.143 208.172 392.241 207.868C395.7 196.723 405.716 188.341 405.716 188.246C406.445 187.643 406.921 186.76 407.039 185.787C407.157 184.815 406.907 183.832 406.344 183.054L406.3 183.102Z" fill="#F3AE9D"/>
<path d="M447.734 235.112C446.984 235.285 446.203 235.218 445.488 234.921C438.204 231.599 431.909 226.24 427.275 219.418C426.758 218.518 426.588 217.441 426.8 216.412C427.013 215.382 427.591 214.479 428.415 213.89C429.24 213.301 430.246 213.072 431.226 213.25C432.206 213.428 433.083 213.999 433.675 214.846C437.442 220.302 442.501 224.607 448.34 227.324C449.114 227.641 449.771 228.215 450.211 228.96C450.652 229.705 450.853 230.582 450.785 231.458C450.717 232.335 450.383 233.165 449.833 233.823C449.283 234.482 448.546 234.934 447.734 235.112Z" fill="#F3AE9D"/>
<path d="M449.846 237.85C449.846 237.85 445.22 236.612 444.771 233.469C444.321 230.325 444.546 219.442 449.846 216.299C455.146 213.155 455.955 217.132 455.955 217.132L449.846 237.85Z" fill="white"/>
<path d="M457.585 228.42C456.529 234.469 453.542 238.946 450.847 238.422C448.153 237.898 446.985 232.564 448.063 226.515C449.141 220.466 452.128 215.989 454.8 216.513C457.473 217.037 458.64 222.347 457.562 228.42H457.585Z" fill="#232E62"/>
<path d="M458.489 184.84C458.377 184.828 458.264 184.828 458.152 184.84C458.312 184.667 458.441 184.465 458.534 184.244C458.63 184.008 458.682 183.754 458.685 183.497C458.689 183.24 458.645 182.985 458.555 182.746C458.465 182.507 458.332 182.289 458.163 182.105C457.993 181.92 457.791 181.774 457.568 181.672C455.847 181.262 454.048 181.437 452.425 182.172H452.268H451.976C452.312 181.306 452.443 180.366 452.358 179.434C452.318 179.181 452.232 178.938 452.104 178.72C451.975 178.502 451.808 178.313 451.611 178.164C451.414 178.015 451.191 177.908 450.955 177.85C450.719 177.792 450.475 177.784 450.236 177.826C449.997 177.869 449.768 177.96 449.563 178.096C449.357 178.232 449.179 178.41 449.038 178.619C448.897 178.828 448.797 179.064 448.742 179.314C448.688 179.564 448.68 179.824 448.72 180.077C448.493 180.918 448.153 181.72 447.709 182.458C446.418 183.173 445.443 184.395 444.992 185.864H444.632C434.077 189.364 421.883 185.673 421.703 185.626C420.83 185.334 419.884 185.421 419.072 185.867C418.26 186.313 417.647 187.083 417.369 188.007C417.105 188.935 417.192 189.936 417.611 190.798C418.03 191.66 418.748 192.316 419.614 192.627C424.389 193.995 429.312 194.691 434.257 194.699C438.439 194.741 442.603 194.115 446.609 192.841C446.835 192.771 447.053 192.675 447.26 192.555C448.247 193.2 449.399 193.5 450.555 193.415C451.711 193.33 452.813 192.862 453.706 192.079C454.499 191.773 455.332 191.596 456.176 191.555C456.609 191.702 457.078 191.674 457.493 191.476C457.907 191.278 458.238 190.925 458.422 190.484C458.571 190.114 458.609 189.705 458.528 189.312C458.448 188.919 458.253 188.563 457.972 188.293C458.257 188.235 458.524 188.105 458.75 187.914C458.977 187.724 459.157 187.478 459.275 187.197C459.429 186.769 459.435 186.297 459.291 185.865C459.147 185.433 458.863 185.07 458.489 184.84Z" fill="#F3AE9D"/>
<path d="M428.398 247.066C427.598 247.084 426.812 246.834 426.153 246.352C419.698 241.469 414.627 234.806 411.488 227.086C411.139 226.082 411.175 224.972 411.588 223.996C412.001 223.019 412.758 222.253 413.698 221.86C414.637 221.468 415.683 221.481 416.614 221.897C417.544 222.313 418.283 223.099 418.674 224.085C421.29 230.299 425.422 235.659 430.644 239.612C431.33 240.109 431.847 240.828 432.118 241.661C432.388 242.494 432.398 243.398 432.146 244.237C431.894 245.077 431.393 245.808 430.718 246.322C430.043 246.836 429.229 247.105 428.398 247.09V247.066Z" fill="#F3AE9D"/>
<path d="M436.671 196.175C437.673 195.093 438.334 193.709 438.563 192.212C438.793 190.715 438.579 189.179 437.951 187.817C434.739 180.887 425.307 180.101 423.218 180.006L422.365 176.505L406.465 178.386L405.993 180.768C405.993 180.768 394.45 180.768 390.812 188.602C388.566 193.365 391.598 200.676 400.603 199.033C397.369 210.392 393.866 223.276 394.54 225.562C394.54 225.562 399.638 229.205 410.597 228.515C421.557 227.824 424.791 220.228 431.752 218.846C438.714 217.465 446.036 218.251 450.303 212.44L436.671 196.223V196.175Z" fill="#ABC7FF"/>
<path d="M431.884 251.234C431.884 251.234 427.235 249.972 426.786 246.852C426.337 243.732 426.561 232.825 431.884 229.682C437.206 226.539 437.993 230.492 437.993 230.492L431.884 251.234Z" fill="white"/>
<path d="M439.627 241.779C438.549 247.828 435.562 252.305 432.89 251.781C430.217 251.257 429.049 245.947 430.105 239.874C431.16 233.802 434.17 229.349 436.842 229.872C439.515 230.396 440.705 235.731 439.627 241.779Z" fill="#232E62"/>
<path d="M430.403 162.645C430.363 166.08 429.365 169.425 427.537 172.26C425.708 175.095 423.129 177.293 420.124 178.577C417.12 179.861 413.824 180.174 410.653 179.476C407.481 178.779 404.575 177.102 402.3 174.656C400.025 172.211 398.483 169.107 397.869 165.735C397.254 162.362 397.594 158.872 398.846 155.704C400.097 152.536 402.205 149.832 404.903 147.931C407.601 146.03 410.769 145.019 414.008 145.023C418.384 145.061 422.568 146.937 425.641 150.241C428.714 153.544 430.427 158.005 430.403 162.645Z" fill="#F3AE9D"/>
<path d="M413.805 150.453C413.805 150.453 411.559 162.36 405.36 167.122C404.098 167.963 403.057 169.129 402.334 170.512C401.612 171.894 401.231 173.448 401.228 175.029C401.228 175.029 384.856 158.121 400.038 145.761C402.584 143.717 405.692 142.613 408.886 142.618C410.627 142.621 412.353 142.951 413.984 143.594H414.209L415.399 143.07C416.249 142.708 417.156 142.522 418.072 142.523C419.072 142.519 420.06 142.746 420.969 143.189C424.652 144.928 434.039 151.191 430.401 164.17C430.401 164.17 428.155 149.881 422.72 149.381C422.72 149.381 426.583 154.334 426.291 157.716L412.637 159.383C412.637 159.383 415.691 152.905 413.805 150.357V150.453Z" fill="#F49DC3"/>
<path d="M416.613 164.955C416.613 166.146 416.029 167.122 415.31 167.122C414.592 167.122 414.008 166.146 414.008 164.955C414.008 163.765 414.592 162.788 415.31 162.788C416.029 162.788 416.613 163.765 416.613 164.955Z" fill="#232E62"/>
<path d="M424.846 164.574C424.846 165.765 424.24 166.741 423.521 166.741C422.803 166.741 422.219 165.765 422.219 164.574C422.219 163.383 422.803 162.407 423.521 162.407C424.24 162.407 424.846 163.383 424.846 164.574Z" fill="#232E62"/>
<path d="M442.703 216.036C442.599 215.732 442.438 215.454 442.229 215.218C442.021 214.983 441.769 214.795 441.49 214.665C441.21 214.536 440.909 214.469 440.604 214.467C440.299 214.465 439.997 214.529 439.716 214.655L437.134 215.727L441.737 212.583C442.279 212.287 442.688 211.774 442.873 211.157C443.059 210.541 443.005 209.872 442.726 209.297C442.446 208.722 441.962 208.289 441.381 208.092C440.799 207.896 440.168 207.952 439.626 208.249L428.644 212.822L429.228 212.583L418.381 214.798C418.059 214.86 417.743 214.956 417.438 215.084H417.281C416.944 214.298 416.854 213.822 417.011 213.607C418.965 211.44 420.762 209.226 422.581 206.916C423.045 206.328 423.299 205.586 423.299 204.82C423.299 204.054 423.045 203.312 422.581 202.724C422.327 202.388 422.011 202.109 421.652 201.905C421.294 201.702 420.9 201.577 420.495 201.539C420.09 201.502 419.682 201.551 419.295 201.685C418.909 201.819 418.552 202.035 418.246 202.319C416.27 204.082 414.137 205.868 412.026 207.511C410.925 208.321 409.892 209.107 408.859 209.892C408.32 210.226 407.826 210.535 407.354 210.774H407.197H407.017C403.89 212.318 400.853 214.06 397.922 215.989L396.462 217.299L395.586 217.132L391.656 238.374L400.415 240.017C402.797 240.685 405.221 241.171 407.669 241.47C412.536 242.101 417.469 241.819 422.244 240.636C422.972 240.636 423.688 240.448 424.332 240.089L431.542 236.136L432.26 235.778L438.346 230.515C438.743 230.176 439.02 229.704 439.13 229.176C439.24 228.647 439.178 228.095 438.953 227.61C438.824 227.299 438.641 227.016 438.414 226.777L439.806 225.586C440.227 225.301 440.546 224.875 440.713 224.376C440.88 223.877 440.885 223.333 440.728 222.83C440.571 222.327 440.26 221.895 439.845 221.6C439.43 221.306 438.934 221.166 438.436 221.204L441.827 218.989C442.294 218.695 442.645 218.231 442.814 217.684C442.984 217.137 442.96 216.543 442.748 216.013L442.703 216.036Z" fill="#F3AE9D"/>
<path d="M398.487 216.298L325.813 228.205L267.624 169.313L248.445 190.579L311.619 254.591L311.889 254.853C313.436 256.407 315.313 257.542 317.361 258.164C319.41 258.786 321.569 258.875 323.657 258.426L402.776 241.756L398.532 216.394L398.487 216.298Z" fill="#AB85FF"/>
<path d="M130.639 405.215C126.035 416.432 110.158 419.504 94.9088 412.931C80.3111 406.573 71.5526 391.499 75.842 379.949C80.1315 368.399 96.4359 365.279 111.573 372.233C126.709 379.187 135.243 393.975 130.639 405.215Z" fill="#F3AE9D"/>
<path d="M102 410.264C102.012 410.209 102.012 410.152 102 410.097C101.731 400.31 90.0528 384.426 90.0528 384.426H83.8544L69.5712 365.827L46.3497 392.022L59.8244 402.239L32.583 400.953L32.4033 401.572H27.9118L24.9922 419.004L28.0465 418.575L91.1981 423.528C92.783 423.614 94.3655 423.316 95.8254 422.656C97.2852 421.996 98.5841 420.992 99.6233 419.721C100.662 418.449 101.415 416.943 101.823 415.316C102.231 413.69 102.284 411.987 101.978 410.335L102 410.264Z" fill="#F3AE9D"/>
<path d="M25.8638 354.396C25.8638 354.396 16.0496 397.262 62.5824 402.501C62.5824 402.501 76.8432 384.783 91.5981 386.617L73.8564 367.566C58.1091 362.208 42.0853 357.811 25.8638 354.396Z" fill="white"/>
<path d="M94.2062 389.427C94.2062 389.427 107.232 373.329 117.45 375.567L88.6142 356.944L73.8594 367.566L94.2062 389.427Z" fill="white"/>
<path d="M38.5074 401.548L35.3857 394.785C34.4657 393.726 33.2528 393.004 31.9212 392.721C30.5897 392.439 29.208 392.611 27.9746 393.214C23.1459 395.683 18.6206 398.77 14.4999 402.406C3.60778 411.669 11.9621 404.025 6.32516 410.05C3.68622 412.89 1.7766 416.399 0.778049 420.243C0.697259 420.572 0.699047 420.918 0.783257 421.246C0.867468 421.575 1.03119 421.874 1.25814 422.115C1.4851 422.355 1.76743 422.529 2.07715 422.618C2.38687 422.708 2.71321 422.71 3.02384 422.624L28.6034 418.599C28.6034 418.599 24.3364 410.098 28.6034 405.716C31.9497 402.287 38.7095 401.453 38.7095 401.453L38.5074 401.548Z" fill="#232E62"/>
<path d="M128.745 327.915L104.738 296.981L91.0156 310.15L119.066 340.132L120.952 342.156L122.973 342.537L153.449 348.276L156.076 335.512L128.745 327.915Z" fill="#F3AE9D"/>
<path d="M77.4754 284.169C77.4754 284.169 66.9427 284.478 61.1486 292.456C55.3544 300.434 25.8672 354.373 25.8672 354.373C25.8672 354.373 46.3263 368.828 71.569 367.851C87.2895 367.232 88.6146 356.921 88.6146 356.921L110.691 306.768L111.297 305.411L105.93 289.979L77.4754 284.145V284.169Z" fill="#ABC7FF"/>
<path d="M125.217 314.675L105.724 332.535L87.9821 310.793C85.7509 308.051 84.6373 304.482 84.8857 300.869C85.1342 297.257 86.7243 293.897 89.3071 291.527C90.5849 290.351 92.0688 289.454 93.6739 288.887C95.279 288.32 96.9738 288.094 98.6614 288.223C100.349 288.351 101.996 288.831 103.508 289.635C105.021 290.439 106.369 291.551 107.476 292.908L125.217 314.675Z" fill="#ABC7FF"/>
<path d="M99.7931 282.764C104.285 288.241 104.285 296.123 99.7931 300.362C95.3015 304.601 87.8905 303.625 83.3315 298.147C78.7725 292.67 78.8399 284.788 83.3315 280.549C87.8231 276.31 95.2342 277.286 99.7931 282.764Z" fill="#F3AE9D"/>
<path d="M101.879 297.576C103.001 295.177 103.402 292.471 103.029 289.822C102.655 287.174 101.525 284.71 99.7907 282.764C95.2991 277.286 87.8656 276.286 83.3291 280.549C81.7876 282.093 80.7066 284.081 80.2196 286.27C79.7327 288.458 79.8612 290.749 80.5892 292.861C83.2993 295.793 86.7666 297.809 90.5549 298.657C94.3432 299.504 98.2832 299.145 101.879 297.624V297.576Z" fill="#232E62"/>
<path d="M76.0372 262.212C72.2868 278.072 78.7996 293.48 90.5675 296.6C102.335 299.719 114.889 289.455 118.617 273.476C122.345 257.497 115.855 242.208 104.087 239.112C92.3192 236.017 79.7653 246.257 76.0372 262.212Z" fill="#F3AE9D"/>
<path d="M118.906 246.066C116.323 237.541 107.093 230.206 95.4373 230.301C90.8221 230.137 86.2534 231.324 82.232 233.73C80.615 232.468 78.1223 232.825 74.4392 235.588C50.3418 253.734 79.6045 288.193 79.6045 288.193C77.3356 284.365 75.846 280.077 75.2311 275.603C74.6162 271.128 74.8896 266.567 76.0337 262.212C76.3245 260.971 76.6768 259.747 77.0892 258.545C78.9012 261.947 81.5557 264.759 84.7658 266.677C87.976 268.595 91.6195 269.546 95.3025 269.428C98.9147 269.619 102.526 269.041 105.925 267.728C109.323 266.415 112.438 264.394 115.088 261.783C123.622 265.546 126.586 258.14 126.586 258.14C121.174 257.306 120.231 249.948 118.906 246.066Z" fill="#232E62"/>
<path d="M66.8284 266.856C66.2645 268.428 66.1531 270.142 66.5083 271.782C66.8635 273.421 67.6694 274.912 68.8239 276.065C69.9784 277.219 71.4297 277.983 72.9941 278.262C74.5585 278.541 76.1656 278.321 77.6122 277.631C79.0588 276.94 80.2798 275.81 81.1207 274.384C81.9615 272.958 82.3844 271.299 82.3359 269.618C82.2874 267.936 81.7696 266.308 80.848 264.939C79.9265 263.57 78.6427 262.521 77.159 261.926C75.1721 261.136 72.9711 261.21 71.0359 262.134C69.1007 263.057 67.5882 264.755 66.8284 266.856Z" fill="#F3AE9D"/>
<path d="M71.0226 272.404C71.169 272.452 71.3255 272.452 71.4718 272.404L76.5922 271.261C76.7309 271.229 76.8594 271.16 76.9656 271.059C77.0718 270.959 77.152 270.832 77.1986 270.69C77.2408 270.548 77.2485 270.397 77.221 270.252C77.1935 270.106 77.1317 269.97 77.0413 269.856L73.7176 265.903C73.6444 265.824 73.5571 265.761 73.4607 265.718C73.3643 265.675 73.2607 265.653 73.1562 265.653C73.0516 265.653 72.9481 265.675 72.8516 265.718C72.7552 265.761 72.6679 265.824 72.5947 265.903C72.5171 265.979 72.4552 266.071 72.4128 266.174C72.3705 266.276 72.3487 266.387 72.3487 266.499C72.3487 266.61 72.3705 266.721 72.4128 266.824C72.4552 266.926 72.5171 267.018 72.5947 267.094L74.9752 269.952L71.2023 270.809C71.0972 270.832 70.9974 270.876 70.9087 270.94C70.82 271.004 70.7442 271.086 70.6856 271.181C70.6271 271.277 70.5871 271.383 70.5678 271.495C70.5486 271.607 70.5505 271.722 70.5735 271.833C70.607 271.972 70.6713 272.101 70.7612 272.209C70.851 272.316 70.9637 272.4 71.09 272.452L71.0226 272.404Z" fill="#232E62"/>
<path d="M109.946 285.335C109.373 285.314 108.809 285.177 108.284 284.931C107.069 284.341 105.989 283.48 105.118 282.406C105.014 282.3 104.931 282.172 104.875 282.031C104.818 281.89 104.789 281.738 104.789 281.585C104.789 281.431 104.818 281.28 104.875 281.138C104.931 280.997 105.014 280.87 105.118 280.763C105.324 280.546 105.602 280.425 105.892 280.425C106.183 280.425 106.461 280.546 106.667 280.763C108.262 282.644 109.811 283.144 110.058 282.882C110.305 282.621 110.058 280.954 108.441 279.096C108.337 278.989 108.255 278.862 108.198 278.721C108.142 278.58 108.113 278.428 108.113 278.274C108.113 278.121 108.142 277.969 108.198 277.828C108.255 277.687 108.337 277.559 108.441 277.453C108.647 277.236 108.926 277.115 109.216 277.115C109.506 277.115 109.785 277.236 109.991 277.453C112.237 280.168 112.933 283.168 111.473 284.597C111.016 285.028 110.422 285.258 109.811 285.24L109.946 285.335Z" fill="#232E62"/>
<path d="M154.589 331.868L147.672 378.901H187.288L162.427 330.463C162.017 329.653 161.377 329.001 160.599 328.597C159.82 328.194 158.941 328.061 158.087 328.216C157.233 328.371 156.446 328.808 155.838 329.463C155.231 330.118 154.833 330.96 154.701 331.868H154.589Z" fill="#232E62"/>
<path d="M167.102 349.943L164.25 351.253L165.777 350.896C166.113 350.785 166.477 350.821 166.789 350.995C167.101 351.169 167.334 351.468 167.439 351.825C167.543 352.181 167.509 352.568 167.345 352.898C167.181 353.228 166.899 353.476 166.563 353.587L164.452 354.492C164.701 354.541 164.932 354.666 165.116 354.852C165.299 355.038 165.428 355.277 165.485 355.54C165.555 355.841 165.53 356.159 165.412 356.443C165.294 356.728 165.091 356.962 164.834 357.111L163.958 357.635C164.063 357.793 164.139 357.971 164.182 358.159C164.269 358.455 164.256 358.774 164.145 359.061C164.035 359.347 163.833 359.584 163.576 359.731L159.691 362.112L159.264 362.255L154.772 363.755C154.367 363.862 153.943 363.862 153.537 363.755C150.741 363.947 147.935 363.608 145.25 362.755C143.895 362.364 142.573 361.854 141.298 361.231L139.905 360.707L104.399 357.04L102.378 356.849L100.334 355.016L82.8172 339.298L81.1328 337.774L94.1135 325.867L95.6631 327.558L108.981 341.846L141.545 347.633L141.994 347.347C143.505 346.528 145.074 345.835 146.687 345.276H147.249H147.608H147.788C148.08 345.276 148.394 345.061 148.731 344.942L150.707 343.966C152.055 343.251 153.402 342.442 154.682 341.584C155.061 341.297 155.531 341.181 155.99 341.261C156.449 341.342 156.859 341.612 157.13 342.013C157.401 342.414 157.511 342.913 157.435 343.4C157.359 343.887 157.104 344.321 156.726 344.609C155.491 345.728 154.278 346.8 152.998 347.824C152.998 347.824 152.998 348.229 152.998 348.681H153.537L159.825 348.514L166.091 347.086C166.436 347.015 166.794 347.09 167.087 347.294C167.381 347.499 167.588 347.817 167.663 348.181C167.728 348.499 167.684 348.831 167.541 349.119C167.397 349.406 167.162 349.631 166.877 349.753L167.102 349.943Z" fill="#F3AE9D"/>
<path d="M178.665 351.539L195.576 352.182C196.158 352.206 196.723 352.401 197.207 352.746C197.691 353.091 198.074 353.572 198.316 354.134C198.579 354.754 198.658 355.444 198.542 356.112C198.425 356.78 198.119 357.395 197.664 357.873L196.541 359.064C194.4 361.339 193.197 364.422 193.195 367.637V392.046C193.195 393.411 192.684 394.719 191.774 395.684C190.865 396.648 189.631 397.19 188.344 397.19H144.843C144.396 397.193 143.953 397.103 143.539 396.923C143.125 396.744 142.748 396.48 142.431 396.146C142.114 395.811 141.862 395.414 141.69 394.976C141.518 394.538 141.43 394.069 141.43 393.594V374.996C141.43 374.01 141.799 373.065 142.456 372.369C143.113 371.672 144.004 371.281 144.933 371.281H151.266C157.172 371.278 162.942 369.395 167.827 365.875C172.712 362.355 176.488 357.361 178.665 351.539Z" fill="#6D94E4"/>
<path d="M194.839 411.812H149.924C149.504 411.815 149.088 411.73 148.7 411.561C148.311 411.392 147.959 411.143 147.662 410.829C147.365 410.514 147.13 410.14 146.971 409.728C146.812 409.317 146.731 408.875 146.734 408.431V397.286H194.839V411.812Z" fill="#232E62"/>
<path d="M226.412 411.812H194.836V363.922H212.398C213.488 363.917 214.556 364.247 215.473 364.873C216.39 365.498 217.116 366.392 217.563 367.446L232.386 402.072C232.838 403.123 233.033 404.277 232.954 405.428C232.876 406.58 232.525 407.692 231.934 408.662C231.344 409.632 230.532 410.429 229.575 410.98C228.618 411.53 227.546 411.816 226.457 411.812H226.412Z" fill="#232E62"/>
<path d="M226.972 405.811C226.236 405.805 225.531 405.492 225.01 404.939C224.489 404.387 224.193 403.639 224.188 402.858V400.238C224.193 399.457 224.489 398.71 225.01 398.157C225.531 397.605 226.236 397.292 226.972 397.286C227.709 397.292 228.414 397.605 228.935 398.157C229.456 398.71 229.751 399.457 229.757 400.238V402.858C229.751 403.639 229.456 404.387 228.935 404.939C228.414 405.492 227.709 405.805 226.972 405.811Z" fill="#6D94E4"/>
<path d="M219.54 387.879H203.146C202.768 387.888 202.392 387.818 202.039 387.672C201.687 387.525 201.365 387.306 201.094 387.027C200.822 386.748 200.605 386.414 200.456 386.045C200.308 385.676 200.229 385.28 200.227 384.878V371.638C200.227 371.242 200.3 370.849 200.444 370.484C200.588 370.118 200.798 369.786 201.063 369.507C201.328 369.229 201.643 369.008 201.989 368.859C202.335 368.709 202.705 368.634 203.079 368.637H210.108C211.393 368.638 212.651 369.029 213.733 369.763C214.815 370.497 215.677 371.544 216.217 372.781L221.359 384.688C221.506 385.024 221.571 385.395 221.547 385.765C221.524 386.135 221.413 386.493 221.225 386.806C221.038 387.118 220.779 387.376 220.473 387.556C220.166 387.735 219.823 387.83 219.473 387.831L219.54 387.879Z" fill="white"/>
<path d="M206.965 394.499H200.25V393.047H206.965V394.499Z" fill="#6D94E4"/>
<path d="M172.194 415.837C172.194 418.074 171.569 420.261 170.397 422.121C169.224 423.981 167.558 425.431 165.609 426.287C163.66 427.144 161.515 427.368 159.446 426.931C157.376 426.495 155.476 425.417 153.984 423.835C152.492 422.253 151.476 420.238 151.064 418.044C150.653 415.849 150.864 413.575 151.671 411.508C152.479 409.441 153.846 407.674 155.6 406.431C157.355 405.188 159.417 404.525 161.527 404.525C164.354 404.531 167.064 405.725 169.063 407.845C171.063 409.965 172.189 412.839 172.194 415.837Z" fill="#232E62"/>
<path d="M166.053 415.837C166.053 416.779 165.79 417.7 165.297 418.483C164.803 419.266 164.102 419.877 163.281 420.237C162.46 420.598 161.557 420.692 160.686 420.508C159.814 420.324 159.014 419.871 158.386 419.205C157.758 418.539 157.33 417.69 157.157 416.766C156.983 415.842 157.072 414.884 157.412 414.014C157.752 413.144 158.328 412.4 159.067 411.877C159.805 411.353 160.674 411.074 161.562 411.074C162.753 411.074 163.896 411.576 164.738 412.469C165.58 413.362 166.053 414.574 166.053 415.837Z" fill="#6D94E4"/>
<path d="M218.148 415.837C218.148 418.074 217.522 420.261 216.35 422.121C215.178 423.981 213.512 425.431 211.562 426.287C209.613 427.144 207.468 427.368 205.399 426.931C203.33 426.495 201.429 425.417 199.937 423.835C198.445 422.253 197.429 420.238 197.017 418.044C196.606 415.849 196.817 413.575 197.625 411.508C198.432 409.441 199.799 407.674 201.553 406.431C203.308 405.188 205.37 404.525 207.48 404.525C210.307 404.531 213.017 405.725 215.017 407.845C217.016 409.965 218.142 412.839 218.148 415.837Z" fill="#232E62"/>
<path d="M211.999 415.837C211.999 416.779 211.735 417.7 211.242 418.483C210.748 419.266 210.047 419.877 209.226 420.237C208.405 420.598 207.502 420.692 206.631 420.508C205.76 420.324 204.959 419.871 204.331 419.205C203.703 418.539 203.275 417.69 203.102 416.766C202.929 415.842 203.018 414.884 203.358 414.014C203.697 413.144 204.273 412.4 205.012 411.877C205.75 411.353 206.619 411.074 207.507 411.074C208.698 411.074 209.841 411.576 210.683 412.469C211.526 413.362 211.999 414.574 211.999 415.837Z" fill="#6D94E4"/>
</svg>
