<svg width="317" height="50" viewBox="0 0 317 50" fill="none" xmlns="http://www.w3.org/2000/svg">
<path d="M240.845 13.724C240.682 14.207 240.424 14.5561 240.07 14.7713C239.716 14.9817 239.159 15.0869 238.399 15.0869H238.32V13.8675H238.442C238.772 13.8675 239.035 13.8053 239.231 13.681C239.422 13.5566 239.559 13.3678 239.64 13.1143C239.721 12.8561 239.762 12.4663 239.762 11.9451V7.50491H238.399V6.28548H243.155C244.475 6.28548 245.421 6.56762 245.995 7.13191C246.569 7.69141 246.856 8.62392 246.856 9.92943V15.0869H245.536V9.91508C245.536 9.03518 245.357 8.41351 244.998 8.05007C244.644 7.68663 244.025 7.50491 243.14 7.50491H241.082V11.6797C241.082 12.5596 241.003 13.241 240.845 13.724ZM250.446 6.28548V15.0869H249.126V6.28548H250.446ZM258.204 9.92943V15.0869H256.877V9.91508C256.877 9.04474 256.7 8.42546 256.346 8.05724C255.997 7.68902 255.382 7.50491 254.502 7.50491H251.812V6.28548H254.517C255.396 6.28548 256.107 6.40981 256.647 6.65848C257.187 6.90237 257.582 7.29211 257.831 7.8277C258.079 8.35851 258.204 9.05909 258.204 9.92943ZM261.786 6.28548V10.9121H260.466V6.28548H261.786ZM270.72 14.1974C270.39 14.4174 269.979 14.5967 269.486 14.7354C268.999 14.8741 268.387 14.9769 267.65 15.0439C266.914 15.1108 266.003 15.1491 264.917 15.1586L263.239 6.28548H264.609L265.491 10.8117L266.015 10.7113C266.302 10.6444 266.538 10.5583 266.725 10.4531C266.911 10.3431 267.06 10.1901 267.17 9.99399C267.26 9.84096 267.33 9.65207 267.378 9.42731C267.425 9.20255 267.461 8.93475 267.485 8.62392L267.665 6.28548H269.027L268.805 8.63826C268.772 9.03518 268.731 9.37949 268.683 9.6712C268.635 9.95812 268.578 10.1901 268.511 10.367C268.391 10.7256 268.212 11.003 267.973 11.1991C267.734 11.3904 267.337 11.5601 266.782 11.7084L265.706 11.9594L266.058 13.8101H266.23C267.191 13.8101 267.961 13.7551 268.54 13.6451C269.118 13.5303 269.575 13.3534 269.91 13.1143C270.134 12.9517 270.323 12.7509 270.476 12.5118C270.629 12.2727 270.759 11.957 270.864 11.5649C270.969 11.1728 271.057 10.6683 271.129 10.0514L271.581 6.28548H272.965L272.506 10.0012C272.411 10.8332 272.286 11.5195 272.133 12.0599C271.98 12.5954 271.789 13.0306 271.56 13.3654C271.335 13.6953 271.055 13.9727 270.72 14.1974ZM281.584 9.92943V15.0869H280.257V9.91508C280.257 9.03518 280.077 8.41351 279.719 8.05007C279.365 7.68663 278.75 7.50491 277.875 7.50491H274.533V6.28548H277.897C278.777 6.28548 279.487 6.40981 280.027 6.65848C280.568 6.90237 280.962 7.29211 281.211 7.8277C281.459 8.35851 281.584 9.05909 281.584 9.92943ZM275.996 9.36992V15.0869H274.676V9.36992H275.996ZM288.757 6.28548V17.8486H287.437V6.28548H288.757ZM296.658 10.1948C296.658 9.29102 296.459 8.61675 296.062 8.17201C295.665 7.72728 295.041 7.50491 294.19 7.50491H292.21V9.98681H293.953V11.2062H290.869V6.28548H294.204C295.486 6.28548 296.438 6.60588 297.059 7.24668C297.686 7.88269 297.999 8.87498 297.999 10.2235V10.8117C297.999 13.6619 296.65 15.0869 293.953 15.0869H290.948V13.8675H293.989C294.898 13.8675 295.57 13.6164 296.005 13.1143C296.44 12.6074 296.658 11.8447 296.658 10.8261V10.1948ZM301.216 6.28548V15.0869H299.896V6.28548H301.216ZM304.741 12.1961L304.167 15.0869H302.776L303.378 12.2248C303.551 11.4023 303.708 10.8237 303.852 10.4889C303.995 10.1494 304.175 9.87443 304.39 9.66402C304.61 9.45361 304.904 9.27428 305.272 9.12604L303.199 6.28548H304.827L308.062 10.74C308.421 10.4052 308.706 10.0012 308.916 9.52773C309.131 9.04952 309.272 8.50197 309.339 7.88509L309.504 6.28548H310.867L310.702 7.85639C310.65 8.38242 310.554 8.84389 310.415 9.24081C310.32 9.51339 310.205 9.77401 310.071 10.0227C309.937 10.2666 309.765 10.52 309.554 10.783C309.349 11.046 309.081 11.3401 308.751 11.6653L311.341 15.0869H309.662L305.875 9.94378C305.492 10.1303 305.219 10.4531 305.057 10.9121C305.009 11.0317 304.959 11.1991 304.906 11.4143C304.858 11.6295 304.803 11.8901 304.741 12.1961Z" fill="#2F2424"/>
<path d="M13.6497 9.92943V15.0869H12.3227V9.91508C12.3227 9.04474 12.1457 8.42546 11.7919 8.05724C11.4428 7.68902 10.8283 7.50491 9.94835 7.50491H7.25843V6.28548H9.9627C10.8426 6.28548 11.5527 6.40981 12.0931 6.65848C12.6335 6.90237 13.028 7.29211 13.2767 7.8277C13.5254 8.35851 13.6497 9.05909 13.6497 9.92943ZM17.627 13.724C17.4644 14.207 17.2062 14.5561 16.8523 14.7713C16.4984 14.9817 15.9413 15.0869 15.181 15.0869H15.1021V13.8675H15.224C15.554 13.8675 15.817 13.8053 16.013 13.681C16.2043 13.5566 16.3406 13.3678 16.4219 13.1143C16.5032 12.8561 16.5439 12.4663 16.5439 11.9451V7.50491H15.181V6.28548H19.9367C21.2566 6.28548 22.2035 6.56762 22.7773 7.13191C23.3512 7.69141 23.6381 8.62392 23.6381 9.92943V15.0869H22.3182V9.91508C22.3182 9.03518 22.1389 8.41351 21.7802 8.05007C21.4264 7.68663 20.8071 7.50491 19.9224 7.50491H17.8637V11.6797C17.8637 12.5596 17.7848 13.241 17.627 13.724ZM27.0989 12.1961L26.5251 15.0869H25.1335L25.736 12.2248C25.9082 11.4023 26.066 10.8237 26.2095 10.4889C26.3529 10.1494 26.5322 9.87443 26.7474 9.66402C26.9674 9.45361 27.2615 9.27428 27.6297 9.12604L25.5567 6.28548H27.185L30.4201 10.74C30.7787 10.4052 31.0633 10.0012 31.2737 9.52773C31.4889 9.04952 31.63 8.50197 31.6969 7.88509L31.8619 6.28548H33.2248L33.0598 7.85639C33.0072 8.38242 32.9116 8.84389 32.7729 9.24081C32.6772 9.51339 32.5625 9.77401 32.4286 10.0227C32.2947 10.2666 32.1225 10.52 31.9121 10.783C31.7065 11.046 31.4387 11.3401 31.1087 11.6653L33.6982 15.0869H32.0197L28.2323 9.94378C27.8497 10.1303 27.5771 10.4531 27.4145 10.9121C27.3667 11.0317 27.3165 11.1991 27.2639 11.4143C27.2161 11.6295 27.1611 11.8901 27.0989 12.1961ZM41.9937 13.8675V15.0869H34.3113V13.8675H39.7199V9.91508C39.7199 9.03518 39.5405 8.41351 39.1819 8.05007C38.828 7.68663 38.2135 7.50491 37.3384 7.50491H34.6484V6.28548H37.3527C38.6726 6.28548 39.617 6.56762 40.1861 7.13191C40.7552 7.69619 41.0397 8.6287 41.0397 9.92943V13.8675H41.9937ZM53.8003 14.1974C53.4704 14.4174 53.0591 14.5967 52.5665 14.7354C52.0788 14.8741 51.4667 14.9769 50.7302 15.0439C49.9938 15.1108 49.0828 15.1491 47.9973 15.1586L46.3187 6.28548H47.6888L48.5711 10.8117L49.0947 10.7113C49.3817 10.6444 49.6184 10.5583 49.8049 10.4531C49.9914 10.3431 50.1396 10.1901 50.2496 9.99399C50.3405 9.84096 50.4098 9.65207 50.4576 9.42731C50.5055 9.20255 50.5413 8.93475 50.5652 8.62392L50.7446 6.28548H52.1075L51.8851 8.63826C51.8516 9.03518 51.811 9.37949 51.7631 9.6712C51.7153 9.95812 51.6579 10.1901 51.591 10.367C51.4714 10.7256 51.2921 11.003 51.053 11.1991C50.8139 11.3904 50.417 11.5601 49.8623 11.7084L48.7863 11.9594L49.1378 13.8101H49.3099C50.2711 13.8101 51.0411 13.7551 51.6197 13.6451C52.1983 13.5303 52.655 13.3534 52.9898 13.1143C53.2145 12.9517 53.4034 12.7509 53.5564 12.5118C53.7095 12.2727 53.8386 11.957 53.9438 11.5649C54.049 11.1728 54.1375 10.6683 54.2092 10.0514L54.6611 6.28548H56.0455L55.5864 10.0012C55.4908 10.8332 55.3665 11.5195 55.2134 12.0599C55.0604 12.5954 54.8691 13.0306 54.6396 13.3654C54.4148 13.6953 54.1351 13.9727 53.8003 14.1974ZM59.0903 6.28548V15.0869H57.7704V6.28548H59.0903ZM65.7575 6.14201C66.9148 6.14201 67.7588 6.49589 68.2897 7.20364C68.8252 7.9066 69.093 9.02561 69.093 10.5607V15.0869H64.7748V13.8675H67.7588V10.7256C67.7588 9.55403 67.6082 8.70282 67.3069 8.17201C67.0057 7.6412 66.494 7.37579 65.7719 7.37579C65.1263 7.37579 64.5955 7.6675 64.1794 8.25092C63.7586 8.84389 63.3737 9.87443 63.0246 11.3425L62.1279 15.0869H60.7076L61.6904 11.2349C61.8004 10.7854 61.9127 10.3789 62.0275 10.0155C62.1423 9.65207 62.2547 9.32928 62.3646 9.04713L60.5714 6.28548H62.1279L63.0246 7.74162C63.3976 7.17734 63.7969 6.77086 64.2225 6.52219C64.6481 6.26874 65.1598 6.14201 65.7575 6.14201ZM72.3817 6.28548V10.9121H71.0619V6.28548H72.3817ZM81.6169 14.1974C81.287 14.4174 80.8757 14.5967 80.3832 14.7354C79.8954 14.8741 79.2833 14.9769 78.5468 15.0439C77.8104 15.1108 76.8994 15.1491 75.8139 15.1586L74.1354 6.28548H75.5054L76.3877 10.8117L76.9114 10.7113C77.1983 10.6444 77.435 10.5583 77.6215 10.4531C77.808 10.3431 77.9562 10.1901 78.0662 9.99399C78.1571 9.84096 78.2264 9.65207 78.2743 9.42731C78.3221 9.20255 78.3579 8.93475 78.3819 8.62392L78.5612 6.28548H79.9241L79.7017 8.63826C79.6682 9.03518 79.6276 9.37949 79.5798 9.6712C79.5319 9.95812 79.4746 10.1901 79.4076 10.367C79.2881 10.7256 79.1087 11.003 78.8696 11.1991C78.6305 11.3904 78.2336 11.5601 77.6789 11.7084L76.6029 11.9594L76.9544 13.8101H77.1266C78.0878 13.8101 78.8577 13.7551 79.4363 13.6451C80.0149 13.5303 80.4716 13.3534 80.8064 13.1143C81.0311 12.9517 81.22 12.7509 81.373 12.5118C81.5261 12.2727 81.6552 11.957 81.7604 11.5649C81.8656 11.1728 81.9541 10.6683 82.0258 10.0514L82.4777 6.28548H83.8621L83.403 10.0012C83.3074 10.8332 83.1831 11.5195 83.03 12.0599C82.877 12.5954 82.6857 13.0306 82.4562 13.3654C82.2314 13.6953 81.9517 13.9727 81.6169 14.1974ZM90.5041 6.28548V10.9121H89.1842V6.28548H90.5041ZM94.0295 12.1961L93.4556 15.0869H92.064L92.6666 12.2248C92.8387 11.4023 92.9965 10.8237 93.14 10.4889C93.2834 10.1494 93.4628 9.87443 93.678 9.66402C93.8979 9.45361 94.192 9.27428 94.5603 9.12604L92.4872 6.28548H94.1155L97.3506 10.74C97.7093 10.4052 97.9938 10.0012 98.2042 9.52773C98.4194 9.04952 98.5605 8.50197 98.6274 7.88509L98.7924 6.28548H100.155L99.9903 7.85639C99.9377 8.38242 99.8421 8.84389 99.7034 9.24081C99.6078 9.51339 99.493 9.77401 99.3591 10.0227C99.2252 10.2666 99.053 10.52 98.8426 10.783C98.637 11.046 98.3692 11.3401 98.0392 11.6653L100.629 15.0869H98.9502L95.1628 9.94378C94.7802 10.1303 94.5077 10.4531 94.3451 10.9121C94.2972 11.0317 94.247 11.1991 94.1944 11.4143C94.1466 11.6295 94.0916 11.8901 94.0295 12.1961ZM105.194 9.69272V15.0869H101.17V13.8675H103.874V10.0657C103.874 9.29102 103.836 8.74347 103.76 8.42307C103.683 8.09311 103.549 7.85878 103.358 7.7201C103.171 7.57664 102.901 7.50491 102.547 7.50491H101.579V6.28548H102.504C103.269 6.28548 103.829 6.39068 104.183 6.60109C104.537 6.81629 104.793 7.16777 104.95 7.65554C105.113 8.13854 105.194 8.81759 105.194 9.69272ZM109.179 13.724C109.016 14.207 108.758 14.5561 108.404 14.7713C108.05 14.9817 107.493 15.0869 106.733 15.0869H106.654V13.8675H106.776C107.106 13.8675 107.369 13.8053 107.565 13.681C107.756 13.5566 107.892 13.3678 107.974 13.1143C108.055 12.8561 108.096 12.4663 108.096 11.9451V7.50491H106.733V6.28548H111.488C112.808 6.28548 113.755 6.56762 114.329 7.13191C114.903 7.69141 115.19 8.62392 115.19 9.92943V15.0869H113.87V9.91508C113.87 9.03518 113.691 8.41351 113.332 8.05007C112.978 7.68663 112.359 7.50491 111.474 7.50491H109.415V11.6797C109.415 12.5596 109.337 13.241 109.179 13.724Z" fill="#2F2424"/>
<path d="M221.947 42.8529C221.784 43.3359 221.526 43.685 221.172 43.9002C220.818 44.1106 220.261 44.2158 219.501 44.2158H219.422V42.9964H219.544C219.874 42.9964 220.137 42.9342 220.333 42.8099C220.524 42.6856 220.66 42.4967 220.742 42.2432C220.823 41.985 220.864 41.5952 220.864 41.074V36.6338H219.501V35.4144H224.257C225.576 35.4144 226.523 35.6965 227.097 36.2608C227.671 36.8203 227.958 37.7528 227.958 39.0583V44.2158H226.638V39.044C226.638 38.1641 226.459 37.5424 226.1 37.179C225.746 36.8155 225.127 36.6338 224.242 36.6338H222.184V40.8086C222.184 41.6885 222.105 42.3699 221.947 42.8529ZM231.548 35.4144V44.2158H230.228V35.4144H231.548ZM239.8 39.044C239.8 38.1736 239.623 37.5544 239.27 37.1861C238.92 36.8179 238.306 36.6338 237.426 36.6338H235.202V44.2158H233.883V35.4144H237.44C238.76 35.4144 239.705 35.6965 240.274 36.2608C240.843 36.8251 241.127 37.7576 241.127 39.0583V44.2158H239.8V39.044ZM244.71 35.4144V44.2158H243.39V35.4144H244.71ZM253.658 38.1473C253.658 39.0464 253.477 39.9 253.113 40.7082C252.75 41.5163 252.236 42.2408 251.571 42.8816C250.906 43.5176 250.117 44.0269 249.204 44.4095V42.896C250.203 42.4464 250.971 41.8224 251.507 41.0238C252.047 40.2204 252.317 39.3214 252.317 38.3267C252.317 37.6859 252.176 37.2435 251.894 36.9996C251.617 36.7558 251.136 36.6338 250.452 36.6338H246.679V35.4144H250.395C251.576 35.4144 252.415 35.6272 252.912 36.0528C253.41 36.4736 253.658 37.1718 253.658 38.1473ZM248.365 38.4988V46.9775H247.045V38.4988H248.365ZM255.541 43.0538C256.459 42.7142 257.244 42.2839 257.894 41.7626C258.549 41.2461 259.047 40.6819 259.386 40.0697C259.73 39.4576 259.903 38.836 259.903 38.2047C259.903 37.1575 259.343 36.6338 258.224 36.6338H254.659V32.2725H255.979V35.4144H258.36C260.278 35.4144 261.237 36.268 261.237 37.9752C261.237 38.8551 261.026 39.6991 260.605 40.5073C260.185 41.3155 259.592 42.0424 258.827 42.6879C257.918 43.4626 256.823 44.0795 255.541 44.5386V43.0538ZM270.07 39.0583V44.2158H268.743V39.044C268.743 38.1641 268.564 37.5424 268.205 37.179C267.851 36.8155 267.237 36.6338 266.362 36.6338H263.019V35.4144H266.383C267.263 35.4144 267.973 35.5387 268.514 35.7874C269.054 36.0313 269.449 36.421 269.697 36.9566C269.946 37.4874 270.07 38.188 270.07 39.0583ZM264.482 38.4988V44.2158H263.163V38.4988H264.482ZM277.637 42.8529C277.475 43.3359 277.217 43.685 276.863 43.9002C276.509 44.1106 275.952 44.2158 275.191 44.2158H275.113V42.9964H275.234C275.564 42.9964 275.827 42.9342 276.024 42.8099C276.215 42.6856 276.351 42.4967 276.432 42.2432C276.514 41.985 276.554 41.5952 276.554 41.074V36.6338H275.191V35.4144H279.947C281.267 35.4144 282.214 35.6965 282.788 36.2608C283.362 36.8203 283.649 37.7528 283.649 39.0583V44.2158H282.329V39.044C282.329 38.1641 282.149 37.5424 281.791 37.179C281.437 36.8155 280.818 36.6338 279.933 36.6338H277.874V40.8086C277.874 41.6885 277.795 42.3699 277.637 42.8529ZM287.239 35.4144V44.2158H285.919V35.4144H287.239ZM294.996 39.0583V44.2158H293.669V39.044C293.669 38.1736 293.492 37.5544 293.138 37.1861C292.789 36.8179 292.175 36.6338 291.295 36.6338H288.605V35.4144H291.309C292.189 35.4144 292.899 35.5387 293.44 35.7874C293.98 36.0313 294.374 36.421 294.623 36.9566C294.872 37.4874 294.996 38.188 294.996 39.0583ZM298.579 35.4144V40.0411H297.259V35.4144H298.579ZM307.513 43.3264C307.183 43.5463 306.772 43.7257 306.279 43.8643C305.791 44.003 305.179 44.1058 304.443 44.1728C303.706 44.2397 302.795 44.278 301.71 44.2876L300.031 35.4144H301.401L302.284 39.9406L302.807 39.8402C303.094 39.7733 303.331 39.6872 303.517 39.582C303.704 39.472 303.852 39.319 303.962 39.1229C304.053 38.9699 304.122 38.781 304.17 38.5562C304.218 38.3315 304.254 38.0637 304.278 37.7528L304.457 35.4144H305.82L305.598 37.7672C305.564 38.1641 305.523 38.5084 305.476 38.8001C305.428 39.087 305.37 39.319 305.303 39.4959C305.184 39.8546 305.005 40.1319 304.765 40.328C304.526 40.5193 304.129 40.689 303.575 40.8373L302.499 41.0883L302.85 42.939H303.022C303.984 42.939 304.754 42.884 305.332 42.774C305.911 42.6592 306.367 42.4823 306.702 42.2432C306.927 42.0806 307.116 41.8798 307.269 41.6407C307.422 41.4016 307.551 41.0859 307.656 40.6938C307.761 40.3017 307.85 39.7972 307.922 39.1803L308.374 35.4144H309.758L309.299 39.1301C309.203 39.9622 309.079 40.6484 308.926 41.1888C308.773 41.7244 308.582 42.1595 308.352 42.4943C308.127 42.8242 307.848 43.1016 307.513 43.3264Z" fill="#2F2424"/>
<path d="M28.9344 42.8529C28.7718 43.3359 28.5136 43.685 28.1597 43.9002C27.8058 44.1106 27.2487 44.2158 26.4884 44.2158H26.4095V42.9964H26.5314C26.8614 42.9964 27.1244 42.9342 27.3205 42.8099C27.5117 42.6856 27.648 42.4967 27.7293 42.2432C27.8106 41.985 27.8513 41.5952 27.8513 41.074V36.6338H26.4884V35.4144H31.2442C32.564 35.4144 33.5109 35.6965 34.0847 36.2608C34.6586 36.8203 34.9455 37.7528 34.9455 39.0583V44.2158H33.6256V39.044C33.6256 38.1641 33.4463 37.5424 33.0877 37.179C32.7338 36.8155 32.1145 36.6338 31.2298 36.6338H29.1711V40.8086C29.1711 41.6885 29.0922 42.3699 28.9344 42.8529ZM38.5355 35.4144V44.2158H37.2156V35.4144H38.5355ZM42.19 35.4144V40.0411H40.8701V35.4144H42.19ZM48.0036 44.3593C46.7842 44.3593 45.8875 44.0532 45.3137 43.4411C44.7398 42.8242 44.4529 41.8774 44.4529 40.6006V35.4144H45.7727V40.5575C45.7727 41.447 45.9473 42.0974 46.2964 42.5086C46.6503 42.9199 47.2265 43.1255 48.0251 43.1255C48.6516 43.1255 49.1609 42.9988 49.553 42.7453C49.9451 42.4919 50.232 42.0926 50.4138 41.5474C50.6003 40.9975 50.6935 40.2754 50.6935 39.3811C50.6935 38.3865 50.5883 37.6596 50.3779 37.2005C50.1675 36.7366 49.8088 36.5047 49.3019 36.5047C48.8142 36.5047 48.3431 36.6601 47.8888 36.971V35.7085C48.257 35.4168 48.7711 35.2709 49.431 35.2709C50.4114 35.2709 51.0976 35.5937 51.4897 36.2393C51.8819 36.8801 52.0779 37.9274 52.0779 39.3811C52.0779 41.0979 51.7504 42.358 51.0952 43.1614C50.4401 43.96 49.4095 44.3593 48.0036 44.3593ZM59.3836 39.0583V44.2158H58.0565V39.044C58.0565 38.1736 57.8796 37.5544 57.5257 37.1861C57.1766 36.8179 56.5621 36.6338 55.6822 36.6338H52.9923V35.4144H55.6966C56.5765 35.4144 57.2866 35.5387 57.827 35.7874C58.3674 36.0313 58.7619 36.421 59.0106 36.9566C59.2592 37.4874 59.3836 38.188 59.3836 39.0583ZM67.2129 39.3237C67.2129 38.4199 67.0144 37.7457 66.6175 37.3009C66.2206 36.8562 65.5965 36.6338 64.7453 36.6338H62.7655V39.1157H64.5086V40.3352H61.4241V35.4144H64.7596C66.0412 35.4144 66.9929 35.7348 67.6145 36.3756C68.241 37.0116 68.5542 38.0039 68.5542 39.3524V39.9406C68.5542 42.7908 67.2057 44.2158 64.5086 44.2158H61.503V42.9964H64.5444C65.453 42.9964 66.1249 42.7453 66.5601 42.2432C66.9953 41.7363 67.2129 40.9736 67.2129 39.955V39.3237ZM75.7628 42.8529C75.6002 43.3359 75.342 43.685 74.9881 43.9002C74.6343 44.1106 74.0771 44.2158 73.3168 44.2158H73.2379V42.9964H73.3598C73.6898 42.9964 73.9528 42.9342 74.1489 42.8099C74.3402 42.6856 74.4764 42.4967 74.5577 42.2432C74.639 41.985 74.6797 41.5952 74.6797 41.074V36.6338H73.3168V35.4144H78.0726C79.3924 35.4144 80.3393 35.6965 80.9131 36.2608C81.487 36.8203 81.7739 37.7528 81.7739 39.0583V44.2158H80.4541V39.044C80.4541 38.1641 80.2747 37.5424 79.9161 37.179C79.5622 36.8155 78.9429 36.6338 78.0582 36.6338H75.9995V40.8086C75.9995 41.6885 75.9206 42.3699 75.7628 42.8529ZM85.3639 35.4144V44.2158H84.044V35.4144H85.3639ZM89.0184 35.4144V40.0411H87.6985V35.4144H89.0184ZM94.6455 38.8216V44.2158H90.6214V42.9964H93.3257V39.1946C93.3257 38.4199 93.2874 37.8724 93.2109 37.552C93.1344 37.222 93.0005 36.9877 92.8092 36.849C92.6227 36.7055 92.3525 36.6338 91.9986 36.6338H91.0302V35.4144H91.9556C92.7207 35.4144 93.2802 35.5196 93.6341 35.73C93.988 35.9452 94.2438 36.2967 94.4016 36.7845C94.5642 37.2674 94.6455 37.9465 94.6455 38.8216ZM98.2355 35.4144V40.0411H96.9156V35.4144H98.2355ZM105.964 36.6338V44.2158H104.637V36.6338H99.6161V35.4144H107.062V36.6338H105.964ZM112.89 35.2709C114.047 35.2709 114.891 35.6248 115.422 36.3325C115.957 37.0355 116.225 38.1545 116.225 39.6896V44.2158H111.907V42.9964H114.891V39.8546C114.891 38.6829 114.74 37.8317 114.439 37.3009C114.138 36.7701 113.626 36.5047 112.904 36.5047C112.259 36.5047 111.728 36.7964 111.312 37.3798C110.891 37.9728 110.506 39.0033 110.157 40.4714L109.26 44.2158H107.84L108.823 40.3638C108.933 39.9143 109.045 39.5079 109.16 39.1444C109.275 38.781 109.387 38.4582 109.497 38.176L107.704 35.4144H109.26L110.157 36.8705C110.53 36.3062 110.929 35.8998 111.355 35.6511C111.78 35.3976 112.292 35.2709 112.89 35.2709Z" fill="#2F2424"/>
</svg>
