<svg width="23" height="11" viewBox="0 0 23 11" fill="none" xmlns="http://www.w3.org/2000/svg">
<path d="M1.11417 3.1C1.02084 3.1 0.941505 3.072 0.876172 3.016C0.820172 2.95067 0.792172 2.87133 0.792172 2.778V1.798C0.792172 1.70467 0.820172 1.63 0.876172 1.574C0.941505 1.50867 1.02084 1.476 1.11417 1.476H2.10817C2.21084 1.476 2.29017 1.50867 2.34617 1.574C2.41151 1.63 2.44417 1.70467 2.44417 1.798V2.778C2.44417 2.87133 2.41151 2.95067 2.34617 3.016C2.29017 3.072 2.21084 3.1 2.10817 3.1H1.11417ZM1.11417 8C1.02084 8 0.941505 7.972 0.876172 7.916C0.820172 7.85067 0.792172 7.77133 0.792172 7.678V6.698C0.792172 6.60467 0.820172 6.53 0.876172 6.474C0.941505 6.40867 1.02084 6.376 1.11417 6.376H2.10817C2.21084 6.376 2.29017 6.40867 2.34617 6.474C2.41151 6.53 2.44417 6.60467 2.44417 6.698V7.678C2.44417 7.77133 2.41151 7.85067 2.34617 7.916C2.29017 7.972 2.21084 8 2.10817 8H1.11417ZM7.60438 8C7.39904 8 7.29638 7.89733 7.29638 7.692V2.694C7.29638 2.14333 7.36171 1.714 7.49238 1.406C7.62304 1.098 7.78638 0.944 7.98238 0.944H9.35438C9.12104 0.944 8.92971 1.12133 8.78038 1.476C8.64038 1.83067 8.57038 2.26933 8.57038 2.792V7.692C8.57038 7.78533 8.53771 7.86 8.47238 7.916C8.40704 7.972 8.32771 8 8.23438 8H7.60438ZM3.82438 1.126C3.73104 1.126 3.65171 1.098 3.58638 1.042C3.53038 0.976667 3.50238 0.897333 3.50238 0.804V0.327999C3.50238 0.234666 3.53038 0.16 3.58638 0.104C3.65171 0.0386662 3.73104 0.00599945 3.82438 0.00599945H9.83038C9.92371 0.00599945 9.99838 0.0386662 10.0544 0.104C10.1197 0.16 10.1524 0.234666 10.1524 0.327999V0.804C10.1524 0.897333 10.1197 0.976667 10.0544 1.042C9.99838 1.098 9.92371 1.126 9.83038 1.126H3.82438ZM12.1773 8C12.084 8 12.0047 7.972 11.9393 7.916C11.8833 7.85067 11.8553 7.77133 11.8553 7.678V0.327999C11.8553 0.234666 11.8833 0.16 11.9393 0.104C12.0047 0.0386662 12.084 0.00599945 12.1773 0.00599945H12.8353C12.938 0.00599945 13.0173 0.0386662 13.0733 0.104C13.1293 0.16 13.1573 0.234666 13.1573 0.327999V7.678C13.1573 7.77133 13.1293 7.85067 13.0733 7.916C13.0173 7.972 12.938 8 12.8353 8H12.1773ZM15.6363 10.674C15.543 10.674 15.4637 10.6413 15.3983 10.576C15.3423 10.52 15.3143 10.4453 15.3143 10.352V3.002C15.3143 2.90867 15.3423 2.834 15.3983 2.778C15.4637 2.71267 15.543 2.68 15.6363 2.68H16.2523C16.355 2.68 16.4343 2.71267 16.4903 2.778C16.5463 2.834 16.5743 2.90867 16.5743 3.002V10.352C16.5743 10.4453 16.5463 10.52 16.4903 10.576C16.4343 10.6413 16.355 10.674 16.2523 10.674H15.6363ZM18.3243 8.126C18.2403 8.154 18.161 8.14 18.0863 8.084C18.021 8.03733 17.9883 7.96733 17.9883 7.874V7.23C17.9883 7.146 18.0117 7.07133 18.0583 7.006C18.1143 6.94067 18.1937 6.88933 18.2963 6.852L18.8283 6.642C19.2017 6.49267 19.5377 6.306 19.8363 6.082C20.1443 5.84867 20.3823 5.536 20.5503 5.144C20.7277 4.752 20.8163 4.23867 20.8163 3.604C20.8163 2.99733 20.7417 2.51667 20.5923 2.162C20.443 1.798 20.1957 1.54133 19.8503 1.392C19.5143 1.23333 19.057 1.154 18.4783 1.154H15.6363C15.543 1.154 15.4637 1.126 15.3983 1.07C15.3423 1.00467 15.3143 0.925333 15.3143 0.832V0.327999C15.3143 0.234666 15.3423 0.16 15.3983 0.104C15.4637 0.0386662 15.543 0.00599945 15.6363 0.00599945H18.6603C19.519 0.00599945 20.1957 0.127333 20.6903 0.37C21.1943 0.612666 21.5537 1.00467 21.7683 1.546C21.9923 2.078 22.1043 2.778 22.1043 3.646C22.1043 4.29933 22.0157 4.864 21.8383 5.34C21.661 5.816 21.4183 6.222 21.1103 6.558C20.8117 6.894 20.471 7.174 20.0883 7.398C19.715 7.61267 19.323 7.79 18.9123 7.93L18.3243 8.126Z" fill="#2F4B6F"/>
</svg>
