<svg width="554" height="38" viewBox="0 0 554 38" fill="none" xmlns="http://www.w3.org/2000/svg">
<path d="M1.79475 37.7811C1.51865 37.7811 1.28397 37.6844 1.0907 37.4912C0.897429 37.2979 0.800794 37.0632 0.800794 36.7871V15.8312C0.800794 15.5552 0.897429 15.3205 1.0907 15.1272C1.28397 14.9339 1.51865 14.8373 1.79475 14.8373H4.94227C5.24598 14.8373 5.48066 14.9339 5.64632 15.1272C5.83959 15.3205 5.93622 15.5552 5.93622 15.8312V36.7871C5.93622 37.0632 5.83959 37.2979 5.64632 37.4912C5.48066 37.6844 5.24598 37.7811 4.94227 37.7811H1.79475ZM10.6989 30.3264C10.4228 30.3816 10.1743 30.3126 9.95345 30.1193C9.73258 29.9261 9.62214 29.6914 9.62214 29.4153V26.4748C9.62214 26.1987 9.70497 25.9503 9.87062 25.7294C10.0639 25.5085 10.3124 25.3428 10.6161 25.2324L12.0656 24.6526C13.0043 24.2661 13.8602 23.7829 14.6333 23.2031C15.4064 22.5957 16.0138 21.795 16.4556 20.801C16.8973 19.7795 17.1182 18.468 17.1182 16.8666C17.1182 15.3757 16.9387 14.1885 16.5798 13.3049C16.2485 12.3938 15.6549 11.745 14.799 11.3585C13.9707 10.9719 12.8387 10.7786 11.403 10.7786H1.79475C1.51865 10.7786 1.28397 10.682 1.0907 10.4887C0.897429 10.2955 0.800794 10.0608 0.800794 9.7847V7.17557C0.800794 6.89947 0.897429 6.67859 1.0907 6.51293C1.28397 6.31966 1.51865 6.22303 1.79475 6.22303H12.3555C14.868 6.22303 16.8559 6.60956 18.3192 7.38264C19.8102 8.1281 20.8731 9.28772 21.5082 10.8615C22.1708 12.4076 22.5021 14.3955 22.5021 16.8252C22.5021 18.7303 22.226 20.4007 21.6738 21.8364C21.1216 23.2721 20.3624 24.5145 19.396 25.5637C18.4297 26.5853 17.3391 27.4412 16.1243 28.1314C14.937 28.8217 13.6946 29.3739 12.3969 29.788L10.6989 30.3264ZM27.3696 29.8708C27.0659 29.8708 26.8175 29.7742 26.6242 29.5809C26.4309 29.3877 26.3343 29.153 26.3343 28.8769V26.4748C26.3343 26.1987 26.4309 25.9641 26.6242 25.7708C26.8175 25.5775 27.0659 25.4809 27.3696 25.4809H39.8355V29.0011C39.8355 29.2772 39.7389 29.4981 39.5456 29.6638C39.3523 29.8018 39.1176 29.8708 38.8415 29.8708H27.3696ZM36.0253 29.8708C35.7492 29.8708 35.5284 29.7742 35.3627 29.5809C35.197 29.3877 35.0866 29.153 35.0314 28.8769L34.3687 16.1212C34.3135 14.9063 34.1893 13.8848 33.996 13.0565C33.8304 12.2006 33.499 11.5517 33.0021 11.11C32.5327 10.6406 31.7734 10.4059 30.7242 10.4059H28.8192C28.5431 10.4059 28.3084 10.3093 28.1151 10.116C27.9218 9.92274 27.8252 9.68806 27.8252 9.41196V7.05132C27.8252 6.77522 27.9218 6.54054 28.1151 6.34727C28.3084 6.154 28.5431 6.05737 28.8192 6.05737H30.8071C32.4913 6.05737 33.8856 6.27825 34.99 6.72C36.122 7.13415 37.0193 7.76918 37.6819 8.62508C38.3722 9.48099 38.8691 10.544 39.1729 11.814C39.5042 13.0565 39.7112 14.4784 39.7941 16.0797L40.4567 28.8769C40.4843 29.153 40.4015 29.3877 40.2082 29.5809C40.015 29.7742 39.7665 29.8708 39.4628 29.8708H36.0253ZM49.3538 10.7786V13.1807C49.3814 13.9814 49.4918 14.644 49.6851 15.1686C49.8783 15.6656 50.2097 15.9831 50.679 16.1212L52.0457 16.5353C52.2666 16.5905 52.4323 16.7424 52.5427 16.9909C52.6807 17.2117 52.7498 17.4878 52.7498 17.8192L52.7912 19.3101C52.7912 19.6966 52.6117 19.9865 52.2528 20.1798C51.9215 20.3455 51.5487 20.4007 51.1346 20.3455L49.478 20.0141C48.5669 19.8485 47.7662 19.4757 47.076 18.8959C46.3857 18.2885 45.8473 17.4878 45.4608 16.4939C45.1018 15.4723 44.9224 14.2713 44.9224 12.8908V7.21698C44.9224 6.94088 45.0052 6.7062 45.1709 6.51293C45.3641 6.31966 45.6126 6.22303 45.9163 6.22303H53.9094C56.1734 6.22303 58.0371 6.65098 59.5004 7.50688C60.9913 8.33518 62.1095 9.53621 62.855 11.11C63.6004 12.6561 64.0146 14.506 64.0974 16.6595C64.125 17.0737 64.1388 17.5431 64.1388 18.0676C64.1388 18.5646 64.125 19.0202 64.0974 19.4343C64.0146 21.5603 63.6004 23.4101 62.855 24.9839C62.1095 26.5577 60.9913 27.7725 59.5004 28.6284C58.0371 29.4567 56.1734 29.8708 53.9094 29.8708H46.4133C46.1096 29.8708 45.8611 29.7742 45.6678 29.5809C45.5022 29.3877 45.4194 29.153 45.4194 28.8769V26.3092C45.4194 26.0331 45.5022 25.7984 45.6678 25.6051C45.8611 25.4119 46.1096 25.3152 46.4133 25.3152H53.7023C55.3589 25.3152 56.6704 24.8044 57.6367 23.7829C58.6307 22.7337 59.1691 21.2704 59.2519 19.3929C59.2795 18.9788 59.2933 18.537 59.2933 18.0676C59.2933 17.5707 59.2795 17.1151 59.2519 16.701C59.1967 14.8235 58.6721 13.374 57.6781 12.3524C56.6842 11.3032 55.3589 10.7786 53.7023 10.7786H49.3538ZM70.4863 10.613C70.2102 10.613 69.9755 10.5164 69.7822 10.3231C69.589 10.1298 69.4923 9.89513 69.4923 9.61904V7.21698C69.4923 6.94088 69.589 6.7062 69.7822 6.51293C69.9755 6.31966 70.2102 6.22303 70.4863 6.22303H80.6743C83.104 6.22303 85.1195 6.59576 86.7209 7.34122C88.3499 8.05908 89.5785 9.17728 90.4068 10.6958C91.2351 12.1868 91.6492 14.0642 91.6492 16.3282V28.8769C91.6492 29.153 91.5526 29.3877 91.3593 29.5809C91.1661 29.7742 90.9314 29.8708 90.6553 29.8708H87.3835C87.0798 29.8708 86.8313 29.788 86.638 29.6224C86.4724 29.4291 86.3896 29.1806 86.3896 28.8769V16.5353C86.3896 14.6578 85.9064 13.2083 84.94 12.1868C84.0013 11.1376 82.4966 10.613 80.4258 10.613H70.4863ZM74.9591 8.16952H76.3672C76.9746 8.16952 77.3887 8.29376 77.6096 8.54225C77.8581 8.79074 77.9547 9.08064 77.8995 9.41196C77.651 10.4059 77.444 11.3447 77.2783 12.2282C77.1403 13.0841 77.0298 13.9538 76.947 14.8373C76.8918 15.7208 76.8642 16.701 76.8642 17.7777L77.0712 28.8769C77.0712 29.153 76.9746 29.3877 76.7813 29.5809C76.6157 29.7742 76.381 29.8708 76.0773 29.8708L68.8711 29.8294C68.595 29.8294 68.3603 29.7328 68.1671 29.5395C67.9738 29.3463 67.8772 29.1116 67.8772 28.8355V26.5991C67.8772 26.323 67.9738 26.0883 68.1671 25.895C68.3603 25.7018 68.595 25.6051 68.8711 25.6051L72.1429 25.6465V17.902C72.1429 16.8804 72.1567 15.9279 72.1843 15.0444C72.2395 14.1609 72.3361 13.2635 72.4742 12.3524C72.6399 11.4413 72.8745 10.4473 73.1782 9.37055C73.2887 9.03923 73.4682 8.76313 73.7166 8.54225C73.9651 8.29376 74.3793 8.16952 74.9591 8.16952ZM113.581 29.8708C113.278 29.8708 113.029 29.788 112.836 29.6224C112.67 29.4291 112.587 29.1806 112.587 28.8769V16.5353C112.587 14.6578 112.104 13.2083 111.138 12.1868C110.199 11.1376 108.694 10.613 106.624 10.613H98.0921C97.816 10.613 97.5813 10.5164 97.3881 10.3231C97.1948 10.1298 97.0982 9.89513 97.0982 9.61904V7.21698C97.0982 6.94088 97.1948 6.7062 97.3881 6.51293C97.5813 6.31966 97.816 6.22303 98.0921 6.22303H106.831C110.503 6.22303 113.25 7.07893 115.072 8.79074C116.894 10.4749 117.806 13.0427 117.806 16.4939V28.8769C117.806 29.153 117.709 29.3877 117.516 29.5809C117.35 29.7742 117.115 29.8708 116.812 29.8708H113.581ZM98.0921 29.8708C97.816 29.8708 97.5813 29.7742 97.3881 29.5809C97.1948 29.3877 97.0982 29.153 97.0982 28.8769V15.8312C97.0982 15.5552 97.1948 15.3205 97.3881 15.1272C97.5813 14.9339 97.816 14.8373 98.0921 14.8373H101.364C101.64 14.8373 101.875 14.9339 102.068 15.1272C102.261 15.3205 102.358 15.5552 102.358 15.8312V28.8769C102.358 29.153 102.261 29.3877 102.068 29.5809C101.875 29.7742 101.64 29.8708 101.364 29.8708H98.0921ZM127.919 30.3264C127.671 30.3816 127.423 30.3126 127.174 30.1193C126.953 29.9261 126.843 29.6914 126.843 29.4153V26.4748C126.843 26.1987 126.926 25.9503 127.091 25.7294C127.284 25.5085 127.533 25.3428 127.837 25.2324L129.286 24.6526C130.225 24.2661 131.081 23.7829 131.854 23.2031C132.627 22.5957 133.234 21.795 133.676 20.801C134.118 19.7795 134.339 18.468 134.339 16.8666C134.339 15.3757 134.159 14.1885 133.8 13.3049C133.469 12.3938 132.889 11.745 132.061 11.3585C131.233 10.9719 130.087 10.7786 128.624 10.7786H127.505C127.229 10.7786 126.995 10.682 126.801 10.4887C126.608 10.2955 126.511 10.0608 126.511 9.7847V7.17557C126.511 6.89947 126.608 6.67859 126.801 6.51293C126.995 6.31966 127.229 6.22303 127.505 6.22303H129.617C132.102 6.22303 134.076 6.60956 135.54 7.38264C137.031 8.1281 138.108 9.28772 138.77 10.8615C139.433 12.4076 139.764 14.3955 139.764 16.8252C139.764 18.7303 139.474 20.4007 138.894 21.8364C138.342 23.2721 137.583 24.5145 136.617 25.5637C135.678 26.5853 134.601 27.4412 133.386 28.1314C132.171 28.8217 130.915 29.3739 129.617 29.788L127.919 30.3264ZM128.706 10.7786L122.743 10.7372C122.467 10.7372 122.232 10.6544 122.039 10.4887C121.845 10.2955 121.749 10.0608 121.749 9.7847V1.46033C121.749 1.18423 121.845 0.949549 122.039 0.756281C122.232 0.563011 122.467 0.466376 122.743 0.466376H125.725C126.028 0.466376 126.263 0.563011 126.429 0.756281C126.622 0.949549 126.718 1.18423 126.718 1.46033V6.22303H128.789L128.706 10.7786ZM154.002 32.1901C153.698 32.2729 153.422 32.2177 153.174 32.0244C152.953 31.8588 152.842 31.6379 152.842 31.3618V28.9597C152.842 28.6836 152.911 28.4489 153.05 28.2557C153.188 28.0348 153.395 27.8829 153.671 27.8001L162.575 25.2324C164.121 24.7906 165.308 24.2108 166.137 23.493C166.965 22.7475 167.545 21.8778 167.876 20.8838C168.207 19.8623 168.373 18.7303 168.373 17.4878V7.21698C168.373 6.91327 168.456 6.67859 168.621 6.51293C168.815 6.31966 169.063 6.22303 169.367 6.22303H172.597C172.901 6.22303 173.136 6.31966 173.301 6.51293C173.495 6.7062 173.591 6.94088 173.591 7.21698V19.0616C173.591 20.7734 173.191 22.3334 172.39 23.7415C171.617 25.1496 170.499 26.3644 169.036 27.386C167.572 28.3799 165.819 29.1254 163.776 29.6224L154.002 32.1901ZM159.386 28.8769L153.546 7.87962C153.491 7.65874 153.436 7.49308 153.381 7.38264C153.353 7.2722 153.339 7.16176 153.339 7.05132C153.339 6.83044 153.422 6.63717 153.588 6.47152C153.754 6.30586 153.947 6.22303 154.168 6.22303H157.729C158.254 6.22303 158.571 6.4301 158.682 6.84425L164.149 27.9244L159.386 28.8769ZM179.783 20.1798C179.507 20.1798 179.273 20.0832 179.079 19.8899C178.886 19.6966 178.789 19.4619 178.789 19.1858V7.21698C178.789 6.94088 178.886 6.7062 179.079 6.51293C179.273 6.31966 179.507 6.22303 179.783 6.22303H183.221C183.524 6.22303 183.759 6.31966 183.925 6.51293C184.118 6.7062 184.215 6.94088 184.215 7.21698V19.1858C184.215 19.4619 184.118 19.6966 183.925 19.8899C183.759 20.0832 183.524 20.1798 183.221 20.1798H179.783ZM200.317 29.8708C200.041 29.8708 199.82 29.7742 199.655 29.5809C199.489 29.3877 199.379 29.153 199.323 28.8769L196.838 16.2868C196.59 15.0168 196.3 13.9676 195.969 13.1393C195.637 12.311 195.182 11.6898 194.602 11.2756C194.05 10.8339 193.291 10.613 192.324 10.613H190.875C190.571 10.613 190.323 10.5164 190.129 10.3231C189.964 10.1298 189.881 9.89513 189.881 9.61904V7.05132C189.881 6.77522 189.964 6.54054 190.129 6.34727C190.323 6.154 190.571 6.05737 190.875 6.05737H192.407C194.478 6.05737 196.148 6.4163 197.418 7.13415C198.716 7.85201 199.724 8.9564 200.442 10.4473C201.187 11.9107 201.794 13.7881 202.264 16.0797L204.749 28.8769C204.804 29.153 204.721 29.3877 204.5 29.5809C204.307 29.7742 204.058 29.8708 203.755 29.8708H200.317ZM195.596 27.8001C194.519 28.4627 193.525 28.9873 192.614 29.3739C191.731 29.7328 190.806 30.0089 189.839 30.2022C189.563 30.2298 189.329 30.2022 189.135 30.1193C188.942 30.0365 188.845 29.857 188.845 29.5809V26.392C188.845 25.9226 189.135 25.5775 189.715 25.3566C189.908 25.2738 190.267 25.1496 190.792 24.9839C191.344 24.8182 191.924 24.625 192.531 24.4041C193.139 24.1556 193.663 23.9071 194.105 23.6586C194.768 23.2997 195.403 22.8165 196.01 22.2091C196.645 21.5741 197.184 20.9115 197.625 20.2212C198.067 19.531 198.329 18.8821 198.412 18.2747L200.814 18.1505C200.731 19.5862 200.455 20.9253 199.986 22.1677C199.544 23.4101 198.937 24.5145 198.164 25.4809C197.391 26.4196 196.535 27.1927 195.596 27.8001ZM220.398 10.7372L209.299 10.7786C209.023 10.7786 208.788 10.682 208.595 10.4887C208.401 10.2955 208.305 10.0608 208.305 9.7847V7.21698C208.305 6.94088 208.401 6.7062 208.595 6.51293C208.788 6.31966 209.023 6.22303 209.299 6.22303H221.102C222.869 6.22303 224.457 6.60956 225.865 7.38264C227.273 8.1281 228.363 9.2463 229.136 10.7372C229.937 12.2282 230.338 14.0918 230.338 16.3282V28.8769C230.338 29.153 230.241 29.3877 230.048 29.5809C229.882 29.7742 229.647 29.8708 229.344 29.8708H218.41C218.106 29.8708 217.858 29.7742 217.665 29.5809C217.499 29.3877 217.416 29.153 217.416 28.8769V26.4748C217.416 26.1987 217.499 25.9641 217.665 25.7708C217.858 25.5775 218.106 25.4809 218.41 25.4809H225.119V16.6181C225.119 15.4033 224.912 14.3541 224.498 13.4706C224.084 12.5871 223.518 11.9107 222.8 11.4413C222.082 10.9719 221.281 10.7372 220.398 10.7372ZM208.926 29.8708C208.678 29.8708 208.457 29.7742 208.263 29.5809C208.07 29.3877 208.001 29.1392 208.056 28.8355L211.991 9.49479C212.046 9.19108 212.17 8.9564 212.364 8.79074C212.557 8.62508 212.791 8.55606 213.068 8.58367L215.842 8.6665C216.146 8.69411 216.381 8.81835 216.546 9.03923C216.74 9.26011 216.809 9.5086 216.753 9.7847L213.192 28.8355C213.192 29.1392 213.081 29.3877 212.86 29.5809C212.64 29.7742 212.391 29.8708 212.115 29.8708H208.926ZM256.781 16.5353C256.781 14.6578 256.297 13.2083 255.331 12.1868C254.392 11.1376 252.888 10.613 250.817 10.613H244.48C244.204 10.613 243.97 10.5164 243.776 10.3231C243.583 10.1298 243.486 9.89513 243.486 9.61904V7.21698C243.486 6.94088 243.583 6.7062 243.776 6.51293C243.97 6.31966 244.204 6.22303 244.48 6.22303H251.024C253.454 6.22303 255.483 6.56815 257.112 7.2584C258.741 7.94864 259.956 9.03923 260.756 10.5302C261.585 11.9935 261.999 13.9262 261.999 16.3282V34.0123C261.999 34.2884 261.902 34.5231 261.709 34.7164C261.543 34.9096 261.309 35.0063 261.005 35.0063H257.774C257.471 35.0063 257.222 34.9096 257.029 34.7164C256.863 34.5507 256.781 34.316 256.781 34.0123V16.5353ZM272.75 30.3264C272.501 30.3816 272.253 30.3126 272.004 30.1193C271.783 29.9261 271.673 29.6914 271.673 29.4153V26.4748C271.673 26.1987 271.756 25.9503 271.921 25.7294C272.115 25.5085 272.363 25.3428 272.667 25.2324L274.116 24.6526C275.055 24.2661 275.911 23.7829 276.684 23.2031C277.457 22.5957 278.065 21.795 278.506 20.801C278.948 19.7795 279.169 18.468 279.169 16.8666C279.169 15.3757 278.99 14.1885 278.631 13.3049C278.299 12.3938 277.72 11.745 276.891 11.3585C276.063 10.9719 274.917 10.7786 273.454 10.7786H272.336C272.06 10.7786 271.825 10.682 271.632 10.4887C271.438 10.2955 271.342 10.0608 271.342 9.7847V7.17557C271.342 6.89947 271.438 6.67859 271.632 6.51293C271.825 6.31966 272.06 6.22303 272.336 6.22303H274.448C276.933 6.22303 278.907 6.60956 280.37 7.38264C281.861 8.1281 282.938 9.28772 283.6 10.8615C284.263 12.4076 284.594 14.3955 284.594 16.8252C284.594 18.7303 284.304 20.4007 283.725 21.8364C283.172 23.2721 282.413 24.5145 281.447 25.5637C280.508 26.5853 279.431 27.4412 278.217 28.1314C277.002 28.8217 275.745 29.3739 274.448 29.788L272.75 30.3264ZM273.537 10.7786L267.573 10.7372C267.297 10.7372 267.062 10.6544 266.869 10.4887C266.676 10.2955 266.579 10.0608 266.579 9.7847V1.46033C266.579 1.18423 266.676 0.949549 266.869 0.756281C267.062 0.563011 267.297 0.466376 267.573 0.466376H270.555C270.858 0.466376 271.093 0.563011 271.259 0.756281C271.452 0.949549 271.549 1.18423 271.549 1.46033V6.22303H273.619L273.537 10.7786ZM301.917 25.7708C303.546 25.7984 304.94 25.4947 306.1 24.8597C307.287 24.197 308.198 23.2859 308.833 22.1263C309.496 20.9667 309.827 19.6414 309.827 18.1505V7.21698C309.827 6.91327 309.91 6.67859 310.076 6.51293C310.269 6.31966 310.518 6.22303 310.821 6.22303H313.72C314.024 6.22303 314.259 6.31966 314.424 6.51293C314.618 6.7062 314.714 6.94088 314.714 7.21698V18.4404C314.714 20.235 314.411 21.864 313.803 23.3273C313.223 24.7906 312.395 26.0331 311.318 27.0546C310.241 28.0762 308.971 28.8631 307.508 29.4153C306.072 29.9399 304.499 30.1884 302.787 30.1608H299.267C297.251 30.1608 295.484 29.7466 293.965 28.9183C292.447 28.0624 291.26 26.9028 290.404 25.4395C289.575 23.9485 289.161 22.2643 289.161 20.3869V7.21698C289.161 6.94088 289.258 6.7062 289.451 6.51293C289.645 6.31966 289.879 6.22303 290.155 6.22303H293.096C293.372 6.22303 293.607 6.31966 293.8 6.51293C293.993 6.67859 294.09 6.91327 294.09 7.21698L294.173 18.4818C294.173 20.8286 294.794 22.6371 296.036 23.9071C297.306 25.1496 298.88 25.7708 300.757 25.7708H301.917ZM293.386 21.9606L293.344 18.1505C295.001 18.1229 296.285 17.8468 297.196 17.3222C298.107 16.77 298.742 16.0245 299.101 15.0858C299.46 14.1194 299.639 13.015 299.639 11.7726V7.2584C299.639 6.95469 299.722 6.7062 299.888 6.51293C300.081 6.31966 300.33 6.22303 300.633 6.22303H303.532C303.808 6.22303 304.043 6.31966 304.236 6.51293C304.43 6.7062 304.526 6.95469 304.526 7.2584V11.8968C304.526 13.94 304.112 15.7208 303.284 17.2394C302.455 18.7303 301.213 19.8899 299.556 20.7182C297.9 21.5465 295.843 21.9606 293.386 21.9606ZM341.318 29.8708C341.015 29.8708 340.766 29.788 340.573 29.6224C340.407 29.4291 340.324 29.1806 340.324 28.8769V16.5353C340.324 14.6578 339.841 13.2083 338.875 12.1868C337.936 11.1376 336.431 10.613 334.361 10.613H328.563C328.259 10.613 328.01 10.5164 327.817 10.3231C327.651 10.1298 327.569 9.89513 327.569 9.61904V7.21698C327.569 6.94088 327.651 6.7062 327.817 6.51293C328.01 6.31966 328.259 6.22303 328.563 6.22303H334.609C337.039 6.22303 339.054 6.58195 340.656 7.29981C342.285 7.99006 343.5 9.08064 344.3 10.5716C345.129 12.0625 345.543 13.9814 345.543 16.3282V28.8769C345.543 29.153 345.446 29.3877 345.253 29.5809C345.087 29.7742 344.852 29.8708 344.549 29.8708H341.318ZM361.733 30.285C357.922 30.285 355.148 29.3877 353.408 27.593C351.669 25.7708 350.799 23.2583 350.799 20.0556V7.21698C350.799 6.94088 350.882 6.7062 351.048 6.51293C351.241 6.31966 351.489 6.22303 351.793 6.22303H354.692C354.968 6.22303 355.203 6.31966 355.396 6.51293C355.589 6.7062 355.686 6.94088 355.686 7.21698V19.8485C355.686 21.7812 356.197 23.2445 357.218 24.2384C358.268 25.2324 359.772 25.7294 361.733 25.7294C363.665 25.7294 365.101 25.2738 366.04 24.3627C366.978 23.424 367.462 22.002 367.489 20.097C367.517 19.8209 367.517 19.4481 367.489 18.9788C367.489 18.4818 367.489 17.9986 367.489 17.5293C367.489 17.0323 367.489 16.6457 367.489 16.3696C367.462 14.4093 367.075 12.9598 366.33 12.0211C365.612 11.0547 364.632 10.5716 363.389 10.5716C362.975 10.5716 362.492 10.6406 361.94 10.7786C361.415 10.9167 360.973 11.0962 360.614 11.317C360.338 11.4551 360.062 11.4551 359.786 11.317C359.538 11.179 359.413 10.9443 359.413 10.613V8.37659C359.413 8.10049 359.441 7.85201 359.496 7.63113C359.579 7.38264 359.758 7.17557 360.035 7.00991C360.532 6.73381 361.084 6.51293 361.691 6.34727C362.326 6.154 363.168 6.05737 364.217 6.05737C366.15 6.05737 367.724 6.40249 368.939 7.09274C370.154 7.78298 371.065 8.84596 371.672 10.2817C372.28 11.6898 372.597 13.4844 372.625 15.6656C372.652 15.9417 372.666 16.3973 372.666 17.0323C372.666 17.6673 372.666 18.3023 372.666 18.9374C372.666 19.5724 372.652 20.0279 372.625 20.304C372.569 22.4024 372.155 24.2108 371.382 25.7294C370.637 27.2203 369.477 28.3523 367.903 29.1254C366.33 29.8985 364.273 30.285 361.733 30.285ZM378.202 20.1798C377.926 20.1798 377.691 20.0832 377.498 19.8899C377.305 19.6966 377.208 19.4619 377.208 19.1858V7.21698C377.208 6.94088 377.305 6.7062 377.498 6.51293C377.691 6.31966 377.926 6.22303 378.202 6.22303H381.64C381.943 6.22303 382.178 6.31966 382.344 6.51293C382.537 6.7062 382.633 6.94088 382.633 7.21698V19.1858C382.633 19.4619 382.537 19.6966 382.344 19.8899C382.178 20.0832 381.943 20.1798 381.64 20.1798H378.202ZM398.57 30.285C394.953 30.285 392.262 29.3739 390.495 27.5516C388.755 25.7294 387.885 23.1893 387.885 19.9313V7.21698C387.885 6.94088 387.982 6.7062 388.175 6.51293C388.369 6.31966 388.603 6.22303 388.879 6.22303H399.15C401.746 6.22303 403.802 6.60956 405.321 7.38264C406.867 8.15571 407.985 9.28772 408.676 10.7786C409.393 12.242 409.794 14.009 409.877 16.0797C409.904 16.3558 409.918 16.7838 409.918 17.3636C409.918 17.9158 409.918 18.4818 409.918 19.0616C409.918 19.6138 409.904 20.0279 409.877 20.304C409.821 22.4024 409.407 24.2108 408.634 25.7294C407.889 27.2203 406.701 28.3523 405.072 29.1254C403.444 29.8985 401.276 30.285 398.57 30.285ZM398.57 25.7294C400.862 25.7294 402.463 25.2738 403.374 24.3627C404.286 23.4516 404.769 22.0297 404.824 20.097C404.852 19.8209 404.865 19.4343 404.865 18.9374C404.865 18.4404 404.865 17.9434 404.865 17.4464C404.865 16.9494 404.852 16.5629 404.824 16.2868C404.769 14.4093 404.244 13.0012 403.25 12.0625C402.256 11.0962 400.821 10.613 398.943 10.613H392.772V19.8485C392.772 21.7812 393.255 23.2445 394.222 24.2384C395.216 25.2324 396.665 25.7294 398.57 25.7294ZM415.451 20.1798C415.175 20.1798 414.94 20.0832 414.747 19.8899C414.554 19.6966 414.457 19.4619 414.457 19.1858V7.21698C414.457 6.94088 414.554 6.7062 414.747 6.51293C414.94 6.31966 415.175 6.22303 415.451 6.22303H418.888C419.192 6.22303 419.427 6.31966 419.593 6.51293C419.786 6.7062 419.882 6.94088 419.882 7.21698V19.1858C419.882 19.4619 419.786 19.6966 419.593 19.8899C419.427 20.0832 419.192 20.1798 418.888 20.1798H415.451ZM425.466 29.8708C425.19 29.8708 424.955 29.7742 424.762 29.5809C424.568 29.3877 424.472 29.153 424.472 28.8769V26.4748C424.472 26.1987 424.568 25.9641 424.762 25.7708C424.955 25.5775 425.19 25.4809 425.466 25.4809H436.648V16.5767C436.648 14.6716 436.178 13.2083 435.24 12.1868C434.301 11.1376 432.796 10.613 430.725 10.613H425.88C425.604 10.613 425.369 10.5164 425.176 10.3231C424.983 10.1298 424.886 9.89513 424.886 9.61904V7.21698C424.886 6.94088 424.983 6.7062 425.176 6.51293C425.369 6.31966 425.604 6.22303 425.88 6.22303H430.932C433.362 6.22303 435.405 6.59576 437.062 7.34122C438.718 8.05908 439.961 9.17728 440.789 10.6958C441.645 12.2144 442.073 14.147 442.073 16.4939V25.4809H443.564C443.84 25.4809 444.075 25.5775 444.268 25.7708C444.461 25.9641 444.558 26.1987 444.558 26.4748V28.8769C444.558 29.153 444.461 29.3877 444.268 29.5809C444.075 29.7742 443.84 29.8708 443.564 29.8708H425.466ZM449.02 20.1798C448.744 20.1798 448.509 20.0832 448.316 19.8899C448.122 19.6966 448.026 19.4619 448.026 19.1858V7.21698C448.026 6.94088 448.122 6.7062 448.316 6.51293C448.509 6.31966 448.744 6.22303 449.02 6.22303H452.457C452.761 6.22303 452.995 6.31966 453.161 6.51293C453.354 6.7062 453.451 6.94088 453.451 7.21698V19.1858C453.451 19.4619 453.354 19.6966 453.161 19.8899C452.995 20.0832 452.761 20.1798 452.457 20.1798H449.02ZM459.034 29.8708C458.758 29.8708 458.524 29.7742 458.33 29.5809C458.137 29.3877 458.04 29.153 458.04 28.8769V26.4748C458.04 26.1987 458.137 25.9641 458.33 25.7708C458.524 25.5775 458.758 25.4809 459.034 25.4809H470.216V16.5767C470.216 14.6716 469.747 13.2083 468.808 12.1868C467.869 11.1376 466.365 10.613 464.294 10.613H459.448C459.172 10.613 458.938 10.5164 458.744 10.3231C458.551 10.1298 458.454 9.89513 458.454 9.61904V7.21698C458.454 6.94088 458.551 6.7062 458.744 6.51293C458.938 6.31966 459.172 6.22303 459.448 6.22303H464.501C466.931 6.22303 468.974 6.59576 470.63 7.34122C472.287 8.05908 473.529 9.17728 474.358 10.6958C475.214 12.2144 475.642 14.147 475.642 16.4939V25.4809H477.133C477.409 25.4809 477.643 25.5775 477.837 25.7708C478.03 25.9641 478.126 26.1987 478.126 26.4748V28.8769C478.126 29.153 478.03 29.3877 477.837 29.5809C477.643 29.7742 477.409 29.8708 477.133 29.8708H459.034ZM486.173 30.3264C485.925 30.3816 485.676 30.3126 485.428 30.1193C485.207 29.9261 485.096 29.6914 485.096 29.4153V26.4748C485.096 26.1987 485.179 25.9503 485.345 25.7294C485.538 25.5085 485.787 25.3428 486.09 25.2324L487.54 24.6526C488.479 24.2661 489.335 23.7829 490.108 23.2031C490.881 22.5957 491.488 21.795 491.93 20.801C492.372 19.7795 492.593 18.468 492.593 16.8666C492.593 15.3757 492.413 14.1885 492.054 13.3049C491.723 12.3938 491.143 11.745 490.315 11.3585C489.486 10.9719 488.341 10.7786 486.877 10.7786H485.759C485.483 10.7786 485.248 10.682 485.055 10.4887C484.862 10.2955 484.765 10.0608 484.765 9.7847V7.17557C484.765 6.89947 484.862 6.67859 485.055 6.51293C485.248 6.31966 485.483 6.22303 485.759 6.22303H487.871C490.356 6.22303 492.33 6.60956 493.794 7.38264C495.284 8.1281 496.361 9.28772 497.024 10.8615C497.687 12.4076 498.018 14.3955 498.018 16.8252C498.018 18.7303 497.728 20.4007 497.148 21.8364C496.596 23.2721 495.837 24.5145 494.87 25.5637C493.932 26.5853 492.855 27.4412 491.64 28.1314C490.425 28.8217 489.169 29.3739 487.871 29.788L486.173 30.3264ZM486.96 10.7786L480.996 10.7372C480.72 10.7372 480.486 10.6544 480.292 10.4887C480.099 10.2955 480.002 10.0608 480.002 9.7847V1.46033C480.002 1.18423 480.099 0.949549 480.292 0.756281C480.486 0.563011 480.72 0.466376 480.996 0.466376H483.978C484.282 0.466376 484.517 0.563011 484.682 0.756281C484.876 0.949549 484.972 1.18423 484.972 1.46033V6.22303H487.043L486.96 10.7786ZM513.291 29.8708C513.015 29.8708 512.78 29.7742 512.587 29.5809C512.394 29.3877 512.297 29.153 512.297 28.8769V7.21698C512.297 6.94088 512.394 6.7062 512.587 6.51293C512.78 6.31966 513.015 6.22303 513.291 6.22303H521.864C524.294 6.22303 526.295 6.58195 527.869 7.29981C529.471 8.01767 530.672 9.12206 531.472 10.613C532.273 12.0763 532.673 13.9814 532.673 16.3282V28.8769C532.673 29.153 532.577 29.3877 532.383 29.5809C532.218 29.7742 531.983 29.8708 531.679 29.8708H513.291ZM517.101 25.4809H527.621V16.5353C527.621 14.6578 527.138 13.2083 526.171 12.1868C525.232 11.1376 523.728 10.613 521.657 10.613H517.101V25.4809ZM548.743 29.8708C548.467 29.8708 548.246 29.7742 548.081 29.5809C547.915 29.3877 547.804 29.153 547.749 28.8769L545.264 16.2868C545.016 15.0168 544.726 13.9676 544.395 13.1393C544.063 12.311 543.608 11.6898 543.028 11.2756C542.476 10.8339 541.716 10.613 540.75 10.613H539.301C538.997 10.613 538.748 10.5164 538.555 10.3231C538.389 10.1298 538.307 9.89513 538.307 9.61904V7.05132C538.307 6.77522 538.389 6.54054 538.555 6.34727C538.748 6.154 538.997 6.05737 539.301 6.05737H540.833C542.904 6.05737 544.574 6.4163 545.844 7.13415C547.142 7.85201 548.15 8.9564 548.867 10.4473C549.613 11.9107 550.22 13.7881 550.69 16.0797L553.175 28.8769C553.23 29.153 553.147 29.3877 552.926 29.5809C552.733 29.7742 552.484 29.8708 552.181 29.8708H548.743ZM544.022 27.8001C542.945 28.4627 541.951 28.9873 541.04 29.3739C540.157 29.7328 539.232 30.0089 538.265 30.2022C537.989 30.2298 537.754 30.2022 537.561 30.1193C537.368 30.0365 537.271 29.857 537.271 29.5809V26.392C537.271 25.9226 537.561 25.5775 538.141 25.3566C538.334 25.2738 538.693 25.1496 539.218 24.9839C539.77 24.8182 540.35 24.625 540.957 24.4041C541.565 24.1556 542.089 23.9071 542.531 23.6586C543.194 23.2997 543.829 22.8165 544.436 22.2091C545.071 21.5741 545.609 20.9115 546.051 20.2212C546.493 19.531 546.755 18.8821 546.838 18.2747L549.24 18.1505C549.157 19.5862 548.881 20.9253 548.412 22.1677C547.97 23.4101 547.363 24.5145 546.59 25.4809C545.817 26.4196 544.961 27.1927 544.022 27.8001Z" fill="#2F4B6F"/>
</svg>
