<svg width="304" height="93" viewBox="0 0 304 93" fill="none" xmlns="http://www.w3.org/2000/svg">
<path d="M19.913 8.98646C19.793 8.98646 19.691 8.95046 19.607 8.87846C19.535 8.79446 19.499 8.69246 19.499 8.57246V7.96046C19.499 7.84046 19.535 7.74446 19.607 7.67246C19.691 7.58846 19.793 7.54646 19.913 7.54646H23.819C24.851 7.54646 25.703 7.71446 26.375 8.05046C27.059 8.37446 27.569 8.86646 27.905 9.52646C28.241 10.1745 28.409 10.9785 28.409 11.9385V17.4105C28.409 17.5305 28.367 17.6325 28.283 17.7165C28.211 17.7885 28.115 17.8245 27.995 17.8245H27.185C27.053 17.8245 26.951 17.7885 26.879 17.7165C26.807 17.6325 26.771 17.5305 26.771 17.4105V12.0285C26.771 11.0685 26.525 10.3245 26.033 9.79646C25.553 9.25646 24.779 8.98646 23.711 8.98646H19.913ZM21.533 8.10446H21.983C22.163 8.10446 22.295 8.15246 22.379 8.24846C22.475 8.33246 22.517 8.44046 22.505 8.57246C22.409 9.07646 22.325 9.53246 22.253 9.94046C22.193 10.3485 22.151 10.7565 22.127 11.1645C22.103 11.5605 22.091 12.0105 22.091 12.5145L22.127 17.4105C22.127 17.5305 22.091 17.6325 22.019 17.7165C21.947 17.7885 21.851 17.8245 21.731 17.8245L19.175 17.7885C19.055 17.7885 18.953 17.7525 18.869 17.6805C18.797 17.6085 18.761 17.5065 18.761 17.3745V16.7985C18.761 16.6785 18.797 16.5825 18.869 16.5105C18.953 16.4265 19.055 16.3845 19.175 16.3845L20.561 16.4025V12.5865C20.561 12.0945 20.567 11.6445 20.579 11.2365C20.591 10.8165 20.627 10.3965 20.687 9.97646C20.747 9.55646 20.843 9.08246 20.975 8.55446C21.011 8.42246 21.065 8.31446 21.137 8.23046C21.221 8.14646 21.353 8.10446 21.533 8.10446ZM31.4898 17.8245C31.3698 17.8245 31.2678 17.7885 31.1838 17.7165C31.1118 17.6325 31.0758 17.5305 31.0758 17.4105V7.96046C31.0758 7.84046 31.1118 7.74446 31.1838 7.67246C31.2678 7.58846 31.3698 7.54646 31.4898 7.54646H32.3358C32.4678 7.54646 32.5698 7.58846 32.6418 7.67246C32.7138 7.74446 32.7498 7.84046 32.7498 7.96046V17.4105C32.7498 17.5305 32.7138 17.6325 32.6418 17.7165C32.5698 17.7885 32.4678 17.8245 32.3358 17.8245H31.4898ZM35.5591 17.8245C35.4391 17.8245 35.3371 17.7885 35.2531 17.7165C35.1811 17.6325 35.1451 17.5305 35.1451 17.4105V16.7805C35.1451 16.6605 35.1811 16.5645 35.2531 16.4925C35.3371 16.4085 35.4391 16.3665 35.5591 16.3665H40.4371L34.8031 8.24846C34.7671 8.17646 34.7371 8.11646 34.7131 8.06846C34.6891 8.00846 34.6771 7.95446 34.6771 7.90646C34.6771 7.81046 34.7131 7.72646 34.7851 7.65446C34.8691 7.58246 34.9591 7.54646 35.0551 7.54646H35.9191C36.0391 7.54646 36.1351 7.58246 36.2071 7.65446C36.2911 7.71446 36.3571 7.78046 36.4051 7.85246L42.2731 16.2585C42.3331 16.3425 42.3811 16.4325 42.4171 16.5285C42.4651 16.6125 42.4891 16.7085 42.4891 16.8165V17.4105C42.4891 17.5305 42.4471 17.6325 42.3631 17.7165C42.2911 17.7885 42.1951 17.8245 42.0751 17.8245H35.5591ZM40.1131 13.7205L39.3211 12.5505C39.9451 12.3225 40.3951 11.9505 40.6711 11.4345C40.9591 10.9065 41.1031 10.2645 41.1031 9.50846V7.96046C41.1031 7.84046 41.1391 7.74446 41.2111 7.67246C41.2951 7.58846 41.3971 7.54646 41.5171 7.54646H42.2551C42.3871 7.54646 42.4891 7.58846 42.5611 7.67246C42.6331 7.74446 42.6691 7.84046 42.6691 7.96046V9.72446C42.6691 10.6965 42.4531 11.5245 42.0211 12.2085C41.5891 12.8925 40.9531 13.3965 40.1131 13.7205ZM45.4087 13.6485C45.2887 13.6485 45.1867 13.6125 45.1027 13.5405C45.0307 13.4565 44.9947 13.3545 44.9947 13.2345V7.96046C44.9947 7.84046 45.0307 7.74446 45.1027 7.67246C45.1867 7.58846 45.2887 7.54646 45.4087 7.54646H46.2547C46.3867 7.54646 46.4887 7.58846 46.5607 7.67246C46.6327 7.74446 46.6687 7.84046 46.6687 7.96046V13.2345C46.6687 13.3545 46.6327 13.4565 46.5607 13.5405C46.4887 13.6125 46.3867 13.6485 46.2547 13.6485H45.4087ZM49.2495 18.8145C49.1295 18.8625 49.0155 18.8505 48.9075 18.7785C48.7995 18.7185 48.7455 18.6285 48.7455 18.5085V17.8965C48.7455 17.7885 48.7695 17.6865 48.8175 17.5905C48.8655 17.4945 48.9435 17.4345 49.0515 17.4105L52.8495 16.1505C53.5335 15.9225 54.0615 15.6285 54.4335 15.2685C54.8055 14.9085 55.0635 14.4885 55.2075 14.0085C55.3635 13.5285 55.4415 13.0065 55.4415 12.4425V7.96046C55.4415 7.84046 55.4775 7.74446 55.5495 7.67246C55.6335 7.58846 55.7355 7.54646 55.8555 7.54646H56.6655C56.7855 7.54646 56.8815 7.58846 56.9535 7.67246C57.0375 7.74446 57.0795 7.84046 57.0795 7.96046V12.9465C57.0795 13.6425 56.9175 14.3025 56.5935 14.9265C56.2815 15.5385 55.8375 16.0785 55.2615 16.5465C54.6855 17.0025 54.0015 17.3505 53.2095 17.5905L49.2495 18.8145ZM51.6075 17.3925L49.0695 8.26646C49.0455 8.17046 49.0215 8.09846 48.9975 8.05046C48.9855 8.00246 48.9795 7.95446 48.9795 7.90646C48.9795 7.81046 49.0155 7.72646 49.0875 7.65446C49.1595 7.58246 49.2435 7.54646 49.3395 7.54646H50.2215C50.4495 7.54646 50.5875 7.63646 50.6355 7.81646L53.1375 16.9785L51.6075 17.3925ZM64.5719 17.8245C64.4519 17.8245 64.3499 17.7885 64.2659 17.7165C64.1939 17.6325 64.1579 17.5305 64.1579 17.4105V7.96046C64.1579 7.84046 64.1939 7.74446 64.2659 7.67246C64.3499 7.58846 64.4519 7.54646 64.5719 7.54646H68.0099C69.0419 7.54646 69.8939 7.71446 70.5659 8.05046C71.2379 8.37446 71.7359 8.86046 72.0599 9.50846C72.3959 10.1565 72.5639 10.9665 72.5639 11.9385V17.4105C72.5639 17.5305 72.5279 17.6325 72.4559 17.7165C72.3839 17.7885 72.2819 17.8245 72.1499 17.8245H64.5719ZM65.7059 16.3845H70.9619V12.0285C70.9619 11.0685 70.7219 10.3245 70.2419 9.79646C69.7619 9.25646 68.9879 8.98646 67.9199 8.98646H65.7059V16.3845ZM75.5201 13.6485C75.4001 13.6485 75.2981 13.6125 75.2141 13.5405C75.1421 13.4565 75.1061 13.3545 75.1061 13.2345V7.96046C75.1061 7.84046 75.1421 7.74446 75.2141 7.67246C75.2981 7.58846 75.4001 7.54646 75.5201 7.54646H76.3661C76.4981 7.54646 76.6001 7.58846 76.6721 7.67246C76.7441 7.74446 76.7801 7.84046 76.7801 7.96046V13.2345C76.7801 13.3545 76.7441 13.4565 76.6721 13.5405C76.6001 13.6125 76.4981 13.6485 76.3661 13.6485H75.5201ZM80.9088 9.02246V10.4265C80.9208 10.8585 80.9748 11.2185 81.0708 11.5065C81.1668 11.7945 81.3528 11.9745 81.6288 12.0465L82.2948 12.2265C82.3908 12.2505 82.4628 12.3165 82.5108 12.4245C82.5708 12.5205 82.6008 12.6405 82.6008 12.7845V13.2345C82.6008 13.3665 82.5348 13.4625 82.4028 13.5225C82.2708 13.5825 82.1268 13.6005 81.9708 13.5765L81.2688 13.4325C80.8848 13.3365 80.5548 13.1685 80.2788 12.9285C80.0028 12.6765 79.7928 12.3405 79.6488 11.9205C79.5168 11.4885 79.4508 10.9725 79.4508 10.3725V7.96046C79.4508 7.84046 79.4868 7.74446 79.5588 7.67246C79.6308 7.58846 79.7328 7.54646 79.8648 7.54646H83.1948C84.0948 7.54646 84.8448 7.72646 85.4448 8.08646C86.0448 8.43446 86.5008 8.94446 86.8128 9.61646C87.1248 10.2765 87.2928 11.0745 87.3168 12.0105C87.3288 12.1905 87.3348 12.4185 87.3348 12.6945C87.3348 12.9585 87.3288 13.1805 87.3168 13.3605C87.2928 14.2845 87.1248 15.0825 86.8128 15.7545C86.5008 16.4265 86.0448 16.9425 85.4448 17.3025C84.8448 17.6505 84.0948 17.8245 83.1948 17.8245H80.0808C79.9608 17.8245 79.8588 17.7885 79.7748 17.7165C79.7028 17.6325 79.6668 17.5305 79.6668 17.4105V16.7625C79.6668 16.6425 79.7028 16.5465 79.7748 16.4745C79.8588 16.3905 79.9608 16.3485 80.0808 16.3485H83.1048C83.9328 16.3485 84.5688 16.0845 85.0128 15.5565C85.4688 15.0165 85.7208 14.2665 85.7688 13.3065C85.7808 13.1265 85.7868 12.9225 85.7868 12.6945C85.7868 12.4545 85.7808 12.2445 85.7688 12.0645C85.7448 11.1045 85.4988 10.3605 85.0308 9.83246C84.5748 9.29246 83.9328 9.02246 83.1048 9.02246H80.9088ZM89.9869 13.6485C89.8669 13.6485 89.7649 13.6125 89.6809 13.5405C89.6089 13.4565 89.5729 13.3545 89.5729 13.2345V7.96046C89.5729 7.84046 89.6089 7.74446 89.6809 7.67246C89.7649 7.58846 89.8669 7.54646 89.9869 7.54646H90.8329C90.9649 7.54646 91.0669 7.58846 91.1389 7.67246C91.2109 7.74446 91.2469 7.84046 91.2469 7.96046V13.2345C91.2469 13.3545 91.2109 13.4565 91.1389 13.5405C91.0669 13.6125 90.9649 13.6485 90.8329 13.6485H89.9869ZM98.3636 18.0045C96.7556 18.0045 95.5976 17.6205 94.8896 16.8525C94.1816 16.0725 93.8276 14.9865 93.8276 13.5945V7.96046C93.8276 7.84046 93.8636 7.74446 93.9356 7.67246C94.0196 7.58846 94.1216 7.54646 94.2416 7.54646H94.9796C95.1116 7.54646 95.2136 7.58846 95.2856 7.67246C95.3576 7.74446 95.3936 7.84046 95.3936 7.96046V13.5045C95.3936 14.4765 95.6396 15.2265 96.1316 15.7545C96.6236 16.2705 97.3676 16.5285 98.3636 16.5285C99.3596 16.5285 100.086 16.2885 100.542 15.8085C101.01 15.3285 101.256 14.6085 101.28 13.6485C101.292 13.5285 101.292 13.3485 101.28 13.1085C101.28 12.8565 101.28 12.6045 101.28 12.3525C101.28 12.1005 101.28 11.9145 101.28 11.7945C101.256 10.7985 101.04 10.0725 100.632 9.61646C100.236 9.16046 99.7136 8.93246 99.0656 8.93246C98.8616 8.93246 98.6276 8.96846 98.3636 9.04046C98.0996 9.11246 97.8776 9.20846 97.6976 9.32846C97.5896 9.38846 97.4756 9.39446 97.3556 9.34646C97.2356 9.28646 97.1756 9.19046 97.1756 9.05846V8.50046C97.1756 8.38046 97.1876 8.27846 97.2116 8.19446C97.2356 8.09846 97.3016 8.01446 97.4096 7.94246C97.6496 7.79846 97.9076 7.68446 98.1836 7.60046C98.4596 7.50446 98.8256 7.45646 99.2816 7.45646C100.062 7.45646 100.716 7.60646 101.244 7.90646C101.772 8.19446 102.174 8.64446 102.45 9.25646C102.726 9.86846 102.876 10.6545 102.9 11.6145C102.912 11.7345 102.918 11.9385 102.918 12.2265C102.918 12.5145 102.918 12.8085 102.918 13.1085C102.918 13.4085 102.912 13.6185 102.9 13.7385C102.876 14.6505 102.708 15.4305 102.396 16.0785C102.096 16.7145 101.616 17.1945 100.956 17.5185C100.308 17.8425 99.4436 18.0045 98.3636 18.0045ZM109.505 19.1745C109.409 19.1745 109.331 19.1385 109.271 19.0665C109.223 18.9945 109.205 18.9045 109.217 18.7965L109.631 16.2225C109.655 16.0785 109.703 15.9585 109.775 15.8625C109.859 15.7545 109.979 15.7005 110.135 15.7005H111.341C111.425 15.7005 111.491 15.7305 111.539 15.7905C111.599 15.8505 111.629 15.9225 111.629 16.0065C111.629 16.1025 111.605 16.1985 111.557 16.2945L110.621 18.7605C110.573 18.8805 110.507 18.9765 110.423 19.0485C110.351 19.1325 110.243 19.1745 110.099 19.1745H109.505ZM118.49 18.8145C118.37 18.8625 118.256 18.8505 118.148 18.7785C118.04 18.7185 117.986 18.6285 117.986 18.5085V17.8965C117.986 17.7885 118.01 17.6865 118.058 17.5905C118.106 17.4945 118.184 17.4345 118.292 17.4105L122.09 16.1505C122.774 15.9225 123.302 15.6285 123.674 15.2685C124.046 14.9085 124.304 14.4885 124.448 14.0085C124.604 13.5285 124.682 13.0065 124.682 12.4425V7.96046C124.682 7.84046 124.718 7.74446 124.79 7.67246C124.874 7.58846 124.976 7.54646 125.096 7.54646H125.906C126.026 7.54646 126.122 7.58846 126.194 7.67246C126.278 7.74446 126.32 7.84046 126.32 7.96046V12.9465C126.32 13.6425 126.158 14.3025 125.834 14.9265C125.522 15.5385 125.078 16.0785 124.502 16.5465C123.926 17.0025 123.242 17.3505 122.45 17.5905L118.49 18.8145ZM120.848 17.3925L118.31 8.26646C118.286 8.17046 118.262 8.09846 118.238 8.05046C118.226 8.00246 118.22 7.95446 118.22 7.90646C118.22 7.81046 118.256 7.72646 118.328 7.65446C118.4 7.58246 118.484 7.54646 118.58 7.54646H119.462C119.69 7.54646 119.828 7.63646 119.876 7.81646L122.378 16.9785L120.848 17.3925ZM133.54 17.8245C133.276 17.8245 133.144 17.6925 133.144 17.4285V11.0025C133.144 10.2945 133.228 9.74246 133.396 9.34646C133.564 8.95046 133.774 8.75246 134.026 8.75246H135.79C135.49 8.75246 135.244 8.98046 135.052 9.43646C134.872 9.89246 134.782 10.4565 134.782 11.1285V17.4285C134.782 17.5485 134.74 17.6445 134.656 17.7165C134.572 17.7885 134.47 17.8245 134.35 17.8245H133.54ZM128.68 8.98646C128.56 8.98646 128.458 8.95046 128.374 8.87846C128.302 8.79446 128.266 8.69246 128.266 8.57246V7.96046C128.266 7.84046 128.302 7.74446 128.374 7.67246C128.458 7.58846 128.56 7.54646 128.68 7.54646H136.402C136.522 7.54646 136.618 7.58846 136.69 7.67246C136.774 7.74446 136.816 7.84046 136.816 7.96046V8.57246C136.816 8.69246 136.774 8.79446 136.69 8.87846C136.618 8.95046 136.522 8.98646 136.402 8.98646H128.68ZM139.294 13.6485C139.174 13.6485 139.072 13.6125 138.988 13.5405C138.916 13.4565 138.88 13.3545 138.88 13.2345V7.96046C138.88 7.84046 138.916 7.74446 138.988 7.67246C139.072 7.58846 139.174 7.54646 139.294 7.54646H140.14C140.272 7.54646 140.374 7.58846 140.446 7.67246C140.518 7.74446 140.554 7.84046 140.554 7.96046V13.2345C140.554 13.3545 140.518 13.4565 140.446 13.5405C140.374 13.6125 140.272 13.6485 140.14 13.6485H139.294ZM147.724 9.02246H143.35C143.218 9.02246 143.116 8.98646 143.044 8.91446C142.972 8.83046 142.936 8.72846 142.936 8.60846V7.96046C142.936 7.84046 142.972 7.74446 143.044 7.67246C143.116 7.58846 143.218 7.54646 143.35 7.54646H147.922C148.666 7.54646 149.326 7.72046 149.902 8.06846C150.49 8.41646 150.946 8.92046 151.27 9.58046C151.606 10.2285 151.774 11.0145 151.774 11.9385V17.4105C151.774 17.5305 151.732 17.6325 151.648 17.7165C151.576 17.7885 151.48 17.8245 151.36 17.8245H146.716C146.596 17.8245 146.494 17.7885 146.41 17.7165C146.338 17.6325 146.302 17.5305 146.302 17.4105V16.7985C146.302 16.6785 146.338 16.5825 146.41 16.5105C146.494 16.4265 146.596 16.3845 146.716 16.3845H150.136V12.0465C150.136 11.4345 150.028 10.9005 149.812 10.4445C149.608 9.98846 149.32 9.64046 148.948 9.40046C148.588 9.14846 148.18 9.02246 147.724 9.02246ZM143.17 17.8245C143.062 17.8245 142.972 17.7825 142.9 17.6985C142.828 17.6145 142.798 17.5125 142.81 17.3925L144.34 8.57246C144.364 8.45246 144.418 8.36246 144.502 8.30246C144.586 8.23046 144.688 8.20646 144.808 8.23046L145.528 8.26646C145.648 8.27846 145.744 8.33246 145.816 8.42846C145.888 8.51246 145.906 8.61446 145.87 8.73446L144.448 17.3925C144.436 17.5125 144.382 17.6145 144.286 17.6985C144.202 17.7825 144.1 17.8245 143.98 17.8245H143.17ZM159.265 20.0565C159.145 20.0565 159.043 20.0145 158.959 19.9305C158.887 19.8585 158.851 19.7625 158.851 19.6425V7.96046C158.851 7.84046 158.887 7.74446 158.959 7.67246C159.043 7.58846 159.145 7.54646 159.265 7.54646H160.075C160.207 7.54646 160.309 7.58846 160.381 7.67246C160.453 7.74446 160.489 7.84046 160.489 7.96046V19.6425C160.489 19.7625 160.453 19.8585 160.381 19.9305C160.309 20.0145 160.207 20.0565 160.075 20.0565H159.265ZM163.677 17.8245C163.557 17.8245 163.455 17.7885 163.371 17.7165C163.299 17.6325 163.263 17.5305 163.263 17.4105V7.96046C163.263 7.84046 163.299 7.74446 163.371 7.67246C163.455 7.58846 163.557 7.54646 163.677 7.54646H164.523C164.655 7.54646 164.757 7.58846 164.829 7.67246C164.901 7.74446 164.937 7.84046 164.937 7.96046V17.4105C164.937 17.5305 164.901 17.6325 164.829 17.7165C164.757 17.7885 164.655 17.8245 164.523 17.8245H163.677ZM172.211 9.02246H167.837C167.705 9.02246 167.603 8.98646 167.531 8.91446C167.459 8.83046 167.423 8.72846 167.423 8.60846V7.96046C167.423 7.84046 167.459 7.74446 167.531 7.67246C167.603 7.58846 167.705 7.54646 167.837 7.54646H172.409C173.153 7.54646 173.813 7.72046 174.389 8.06846C174.977 8.41646 175.433 8.92046 175.757 9.58046C176.093 10.2285 176.261 11.0145 176.261 11.9385V17.4105C176.261 17.5305 176.219 17.6325 176.135 17.7165C176.063 17.7885 175.967 17.8245 175.847 17.8245H171.203C171.083 17.8245 170.981 17.7885 170.897 17.7165C170.825 17.6325 170.789 17.5305 170.789 17.4105V16.7985C170.789 16.6785 170.825 16.5825 170.897 16.5105C170.981 16.4265 171.083 16.3845 171.203 16.3845H174.623V12.0465C174.623 11.4345 174.515 10.9005 174.299 10.4445C174.095 9.98846 173.807 9.64046 173.435 9.40046C173.075 9.14846 172.667 9.02246 172.211 9.02246ZM167.657 17.8245C167.549 17.8245 167.459 17.7825 167.387 17.6985C167.315 17.6145 167.285 17.5125 167.297 17.3925L168.827 8.57246C168.851 8.45246 168.905 8.36246 168.989 8.30246C169.073 8.23046 169.175 8.20646 169.295 8.23046L170.015 8.26646C170.135 8.27846 170.231 8.33246 170.303 8.42846C170.375 8.51246 170.393 8.61446 170.357 8.73446L168.935 17.3925C168.923 17.5125 168.869 17.6145 168.773 17.6985C168.689 17.7825 168.587 17.8245 168.467 17.8245H167.657ZM186.179 17.8245C186.059 17.8245 185.957 17.7885 185.873 17.7165C185.801 17.6325 185.765 17.5305 185.765 17.4105V12.0285C185.765 11.0685 185.525 10.3245 185.045 9.79646C184.565 9.25646 183.791 8.98646 182.723 8.98646H179.339C179.219 8.98646 179.117 8.95046 179.033 8.87846C178.961 8.79446 178.925 8.69246 178.925 8.57246V7.96046C178.925 7.84046 178.961 7.74446 179.033 7.67246C179.117 7.58846 179.219 7.54646 179.339 7.54646H182.813C184.373 7.54646 185.525 7.92446 186.269 8.68046C187.025 9.43646 187.403 10.5345 187.403 11.9745V17.4105C187.403 17.5305 187.361 17.6325 187.277 17.7165C187.205 17.7885 187.109 17.8245 186.989 17.8245H186.179ZM179.339 17.8245C179.219 17.8245 179.117 17.7885 179.033 17.7165C178.961 17.6325 178.925 17.5305 178.925 17.4105V11.3985C178.925 11.2785 178.961 11.1825 179.033 11.1105C179.117 11.0265 179.219 10.9845 179.339 10.9845H180.149C180.281 10.9845 180.383 11.0265 180.455 11.1105C180.527 11.1825 180.563 11.2785 180.563 11.3985V17.4105C180.563 17.5305 180.527 17.6325 180.455 17.7165C180.383 17.7885 180.281 17.8245 180.149 17.8245H179.339ZM195.48 17.8245C195.36 17.8245 195.258 17.7885 195.174 17.7165C195.102 17.6325 195.066 17.5305 195.066 17.4105V12.0285C195.066 11.0685 194.826 10.3245 194.346 9.79646C193.866 9.25646 193.092 8.98646 192.024 8.98646H189.666C189.546 8.98646 189.444 8.95046 189.36 8.87846C189.288 8.79446 189.252 8.69246 189.252 8.57246V7.96046C189.252 7.84046 189.288 7.74446 189.36 7.67246C189.444 7.58846 189.546 7.54646 189.666 7.54646H192.114C193.146 7.54646 193.998 7.70846 194.67 8.03246C195.354 8.35646 195.864 8.84846 196.2 9.50846C196.536 10.1565 196.704 10.9665 196.704 11.9385V17.4105C196.704 17.5305 196.662 17.6325 196.578 17.7165C196.506 17.7885 196.41 17.8245 196.29 17.8245H195.48ZM203.815 18.0045C202.207 18.0045 201.049 17.6205 200.341 16.8525C199.633 16.0725 199.279 14.9865 199.279 13.5945V7.96046C199.279 7.84046 199.315 7.74446 199.387 7.67246C199.471 7.58846 199.573 7.54646 199.693 7.54646H200.431C200.563 7.54646 200.665 7.58846 200.737 7.67246C200.809 7.74446 200.845 7.84046 200.845 7.96046V13.5045C200.845 14.4765 201.091 15.2265 201.583 15.7545C202.075 16.2705 202.819 16.5285 203.815 16.5285C204.811 16.5285 205.537 16.2885 205.993 15.8085C206.461 15.3285 206.707 14.6085 206.731 13.6485C206.743 13.5285 206.743 13.3485 206.731 13.1085C206.731 12.8565 206.731 12.6045 206.731 12.3525C206.731 12.1005 206.731 11.9145 206.731 11.7945C206.707 10.7985 206.491 10.0725 206.083 9.61646C205.687 9.16046 205.165 8.93246 204.517 8.93246C204.313 8.93246 204.079 8.96846 203.815 9.04046C203.551 9.11246 203.329 9.20846 203.149 9.32846C203.041 9.38846 202.927 9.39446 202.807 9.34646C202.687 9.28646 202.627 9.19046 202.627 9.05846V8.50046C202.627 8.38046 202.639 8.27846 202.663 8.19446C202.687 8.09846 202.753 8.01446 202.861 7.94246C203.101 7.79846 203.359 7.68446 203.635 7.60046C203.911 7.50446 204.277 7.45646 204.733 7.45646C205.513 7.45646 206.167 7.60646 206.695 7.90646C207.223 8.19446 207.625 8.64446 207.901 9.25646C208.177 9.86846 208.327 10.6545 208.351 11.6145C208.363 11.7345 208.369 11.9385 208.369 12.2265C208.369 12.5145 208.369 12.8085 208.369 13.1085C208.369 13.4085 208.363 13.6185 208.351 13.7385C208.327 14.6505 208.159 15.4305 207.847 16.0785C207.547 16.7145 207.067 17.1945 206.407 17.5185C205.759 17.8425 204.895 18.0045 203.815 18.0045ZM211.012 13.6485C210.892 13.6485 210.79 13.6125 210.706 13.5405C210.634 13.4565 210.598 13.3545 210.598 13.2345V7.96046C210.598 7.84046 210.634 7.74446 210.706 7.67246C210.79 7.58846 210.892 7.54646 211.012 7.54646H211.858C211.99 7.54646 212.092 7.58846 212.164 7.67246C212.236 7.74446 212.272 7.84046 212.272 7.96046V13.2345C212.272 13.3545 212.236 13.4565 212.164 13.5405C212.092 13.6125 211.99 13.6485 211.858 13.6485H211.012ZM219.281 18.0045C217.781 18.0045 216.665 17.6145 215.933 16.8345C215.201 16.0545 214.835 14.9445 214.835 13.5045V7.96046C214.835 7.84046 214.871 7.74446 214.943 7.67246C215.027 7.58846 215.129 7.54646 215.249 7.54646H219.587C220.655 7.54646 221.507 7.70846 222.143 8.03246C222.779 8.35646 223.241 8.83646 223.529 9.47246C223.829 10.0965 223.997 10.8705 224.033 11.7945C224.045 11.9145 224.051 12.1065 224.051 12.3705C224.051 12.6345 224.051 12.8985 224.051 13.1625C224.051 13.4265 224.045 13.6185 224.033 13.7385C224.009 14.6505 223.835 15.4305 223.511 16.0785C223.187 16.7145 222.677 17.1945 221.981 17.5185C221.297 17.8425 220.397 18.0045 219.281 18.0045ZM219.281 16.5285C220.421 16.5285 221.225 16.2945 221.693 15.8265C222.161 15.3465 222.407 14.6205 222.431 13.6485C222.443 13.5285 222.449 13.3485 222.449 13.1085C222.449 12.8685 222.449 12.6345 222.449 12.4065C222.449 12.1785 222.443 12.0045 222.431 11.8845C222.407 10.9245 222.131 10.2045 221.603 9.72446C221.087 9.23246 220.385 8.98646 219.497 8.98646H216.401V13.5045C216.401 14.4765 216.641 15.2265 217.121 15.7545C217.601 16.2705 218.321 16.5285 219.281 16.5285ZM226.692 13.6485C226.572 13.6485 226.47 13.6125 226.386 13.5405C226.314 13.4565 226.278 13.3545 226.278 13.2345V7.96046C226.278 7.84046 226.314 7.74446 226.386 7.67246C226.47 7.58846 226.572 7.54646 226.692 7.54646H227.538C227.67 7.54646 227.772 7.58846 227.844 7.67246C227.916 7.74446 227.952 7.84046 227.952 7.96046V13.2345C227.952 13.3545 227.916 13.4565 227.844 13.5405C227.772 13.6125 227.67 13.6485 227.538 13.6485H226.692ZM230.605 17.8245C230.485 17.8245 230.383 17.7885 230.299 17.7165C230.227 17.6325 230.191 17.5305 230.191 17.4105V16.7985C230.191 16.6785 230.227 16.5825 230.299 16.5105C230.383 16.4265 230.485 16.3845 230.605 16.3845H235.771V12.0285C235.771 11.0685 235.531 10.3245 235.051 9.79646C234.571 9.25646 233.797 8.98646 232.729 8.98646H230.785C230.665 8.98646 230.563 8.95046 230.479 8.87846C230.407 8.79446 230.371 8.69246 230.371 8.57246V7.96046C230.371 7.84046 230.407 7.74446 230.479 7.67246C230.563 7.58846 230.665 7.54646 230.785 7.54646H232.819C233.851 7.54646 234.709 7.71446 235.393 8.05046C236.077 8.38646 236.587 8.88446 236.923 9.54446C237.271 10.1925 237.445 11.0025 237.445 11.9745V16.3845H238.111C238.231 16.3845 238.327 16.4265 238.399 16.5105C238.483 16.5825 238.525 16.6785 238.525 16.7985V17.4105C238.525 17.5305 238.483 17.6325 238.399 17.7165C238.327 17.7885 238.231 17.8245 238.111 17.8245H230.605ZM240.667 13.6485C240.547 13.6485 240.445 13.6125 240.361 13.5405C240.289 13.4565 240.253 13.3545 240.253 13.2345V7.96046C240.253 7.84046 240.289 7.74446 240.361 7.67246C240.445 7.58846 240.547 7.54646 240.667 7.54646H241.513C241.645 7.54646 241.747 7.58846 241.819 7.67246C241.891 7.74446 241.927 7.84046 241.927 7.96046V13.2345C241.927 13.3545 241.891 13.4565 241.819 13.5405C241.747 13.6125 241.645 13.6485 241.513 13.6485H240.667ZM244.579 17.8245C244.459 17.8245 244.357 17.7885 244.273 17.7165C244.201 17.6325 244.165 17.5305 244.165 17.4105V16.7985C244.165 16.6785 244.201 16.5825 244.273 16.5105C244.357 16.4265 244.459 16.3845 244.579 16.3845H249.745V12.0285C249.745 11.0685 249.505 10.3245 249.025 9.79646C248.545 9.25646 247.771 8.98646 246.703 8.98646H244.759C244.639 8.98646 244.537 8.95046 244.453 8.87846C244.381 8.79446 244.345 8.69246 244.345 8.57246V7.96046C244.345 7.84046 244.381 7.74446 244.453 7.67246C244.537 7.58846 244.639 7.54646 244.759 7.54646H246.793C247.825 7.54646 248.683 7.71446 249.367 8.05046C250.051 8.38646 250.561 8.88446 250.897 9.54446C251.245 10.1925 251.419 11.0025 251.419 11.9745V16.3845H252.085C252.205 16.3845 252.301 16.4265 252.373 16.5105C252.457 16.5825 252.499 16.6785 252.499 16.7985V17.4105C252.499 17.5305 252.457 17.6325 252.373 17.7165C252.301 17.7885 252.205 17.8245 252.085 17.8245H244.579ZM256.093 17.9865C255.985 18.0225 255.883 18.0045 255.787 17.9325C255.691 17.8725 255.643 17.7825 255.643 17.6625V16.8345C255.643 16.7265 255.673 16.6305 255.733 16.5465C255.805 16.4625 255.907 16.3965 256.039 16.3485L256.741 16.0785C257.209 15.8865 257.635 15.6465 258.019 15.3585C258.415 15.0585 258.721 14.6565 258.937 14.1525C259.165 13.6485 259.279 12.9885 259.279 12.1725C259.279 11.3925 259.183 10.7745 258.991 10.3185C258.811 9.85046 258.499 9.52046 258.055 9.32846C257.623 9.12446 257.029 9.02246 256.273 9.02246H255.733C255.613 9.02246 255.511 8.98646 255.427 8.91446C255.355 8.83046 255.319 8.72846 255.319 8.60846V7.96046C255.319 7.84046 255.355 7.74446 255.427 7.67246C255.511 7.58846 255.613 7.54646 255.733 7.54646H256.525C257.617 7.54646 258.487 7.70246 259.135 8.01446C259.783 8.32646 260.245 8.83046 260.521 9.52646C260.809 10.2105 260.953 11.1105 260.953 12.2265C260.953 13.0665 260.839 13.7925 260.611 14.4045C260.383 15.0165 260.071 15.5385 259.675 15.9705C259.291 16.4025 258.853 16.7625 258.361 17.0505C257.869 17.3265 257.359 17.5545 256.831 17.7345L256.093 17.9865ZM256.129 9.02246L253.987 9.00446C253.867 9.00446 253.765 8.96846 253.681 8.89646C253.609 8.82446 253.573 8.72846 253.573 8.60846V5.45846C253.573 5.33846 253.609 5.24246 253.681 5.17046C253.765 5.08646 253.867 5.04446 253.987 5.04446H254.743C254.863 5.04446 254.959 5.08646 255.031 5.17046C255.115 5.24246 255.157 5.33846 255.157 5.45846V7.54646H256.165L256.129 9.02246ZM268.144 17.8245C268.024 17.8245 267.922 17.7885 267.838 17.7165C267.766 17.6325 267.73 17.5305 267.73 17.4105V7.96046C267.73 7.84046 267.766 7.74446 267.838 7.67246C267.922 7.58846 268.024 7.54646 268.144 7.54646H268.99C269.122 7.54646 269.224 7.58846 269.296 7.67246C269.368 7.74446 269.404 7.84046 269.404 7.96046V17.4105C269.404 17.5305 269.368 17.6325 269.296 17.7165C269.224 17.7885 269.122 17.8245 268.99 17.8245H268.144ZM272.015 17.8245C271.895 17.8245 271.793 17.7885 271.709 17.7165C271.637 17.6325 271.601 17.5305 271.601 17.4105V16.7985C271.601 16.6785 271.637 16.5825 271.709 16.5105C271.793 16.4265 271.895 16.3845 272.015 16.3845H277.091V17.4825C277.091 17.6025 277.049 17.6925 276.965 17.7525C276.893 17.8005 276.797 17.8245 276.677 17.8245H272.015ZM275.993 17.8245C275.873 17.8245 275.777 17.7885 275.705 17.7165C275.645 17.6325 275.603 17.5305 275.579 17.4105L275.237 11.8485C275.213 11.2605 275.165 10.7505 275.093 10.3185C275.033 9.88646 274.889 9.55046 274.661 9.31046C274.445 9.07046 274.079 8.95046 273.563 8.95046H272.825C272.705 8.95046 272.603 8.91446 272.519 8.84246C272.447 8.75846 272.411 8.65646 272.411 8.53646V7.92446C272.411 7.80446 272.447 7.70846 272.519 7.63646C272.603 7.55246 272.705 7.51046 272.825 7.51046H273.581C274.265 7.51046 274.817 7.61246 275.237 7.81646C275.657 8.00846 275.981 8.29646 276.209 8.68046C276.437 9.06446 276.605 9.52046 276.713 10.0485C276.821 10.5645 276.893 11.1465 276.929 11.7945L277.253 17.4105C277.277 17.5305 277.247 17.6325 277.163 17.7165C277.079 17.7885 276.977 17.8245 276.857 17.8245H275.993ZM279.921 17.8245C279.801 17.8245 279.699 17.7885 279.615 17.7165C279.543 17.6325 279.507 17.5305 279.507 17.4105V16.7625C279.507 16.6425 279.543 16.5465 279.615 16.4745C279.699 16.3905 279.801 16.3485 279.921 16.3485H282.495C283.563 16.3485 284.331 16.0845 284.799 15.5565C285.267 15.0165 285.525 14.2665 285.573 13.3065C285.585 13.0425 285.591 12.8325 285.591 12.6765C285.591 12.5205 285.585 12.3165 285.573 12.0645C285.537 11.1045 285.279 10.3605 284.799 9.83246C284.331 9.29246 283.563 9.02246 282.495 9.02246H279.921C279.801 9.02246 279.699 8.98646 279.615 8.91446C279.543 8.83046 279.507 8.72846 279.507 8.60846V7.96046C279.507 7.84046 279.543 7.74446 279.615 7.67246C279.699 7.58846 279.801 7.54646 279.921 7.54646H282.585C283.641 7.54646 284.499 7.72646 285.159 8.08646C285.819 8.43446 286.311 8.94446 286.635 9.61646C286.971 10.2765 287.151 11.0745 287.175 12.0105C287.187 12.2505 287.193 12.4725 287.193 12.6765C287.193 12.8805 287.187 13.1085 287.175 13.3605C287.151 14.2845 286.971 15.0825 286.635 15.7545C286.311 16.4265 285.819 16.9425 285.159 17.3025C284.499 17.6505 283.641 17.8245 282.585 17.8245H279.921ZM296.799 17.8245C296.679 17.8245 296.577 17.7885 296.493 17.7165C296.421 17.6325 296.385 17.5305 296.385 17.4105V12.0285C296.385 11.0685 296.145 10.3245 295.665 9.79646C295.185 9.25646 294.411 8.98646 293.343 8.98646H289.959C289.839 8.98646 289.737 8.95046 289.653 8.87846C289.581 8.79446 289.545 8.69246 289.545 8.57246V7.96046C289.545 7.84046 289.581 7.74446 289.653 7.67246C289.737 7.58846 289.839 7.54646 289.959 7.54646H293.433C294.993 7.54646 296.145 7.92446 296.889 8.68046C297.645 9.43646 298.023 10.5345 298.023 11.9745V17.4105C298.023 17.5305 297.981 17.6325 297.897 17.7165C297.825 17.7885 297.729 17.8245 297.609 17.8245H296.799ZM289.959 17.8245C289.839 17.8245 289.737 17.7885 289.653 17.7165C289.581 17.6325 289.545 17.5305 289.545 17.4105V11.3985C289.545 11.2785 289.581 11.1825 289.653 11.1105C289.737 11.0265 289.839 10.9845 289.959 10.9845H290.769C290.901 10.9845 291.003 11.0265 291.075 11.1105C291.147 11.1825 291.183 11.2785 291.183 11.3985V17.4105C291.183 17.5305 291.147 17.6325 291.075 17.7165C291.003 17.7885 290.901 17.8245 290.769 17.8245H289.959ZM58.7607 29.9865C58.6407 29.9865 58.5387 29.9505 58.4547 29.8785C58.3827 29.7945 58.3467 29.6925 58.3467 29.5725V28.9605C58.3467 28.8405 58.3827 28.7445 58.4547 28.6725C58.5387 28.5885 58.6407 28.5465 58.7607 28.5465H62.6667C63.6987 28.5465 64.5507 28.7145 65.2227 29.0505C65.9067 29.3745 66.4167 29.8665 66.7527 30.5265C67.0887 31.1745 67.2567 31.9785 67.2567 32.9385V38.4105C67.2567 38.5305 67.2147 38.6325 67.1307 38.7165C67.0587 38.7885 66.9627 38.8245 66.8427 38.8245H66.0327C65.9007 38.8245 65.7987 38.7885 65.7267 38.7165C65.6547 38.6325 65.6187 38.5305 65.6187 38.4105V33.0285C65.6187 32.0685 65.3727 31.3245 64.8807 30.7965C64.4007 30.2565 63.6267 29.9865 62.5587 29.9865H58.7607ZM60.3807 29.1045H60.8307C61.0107 29.1045 61.1427 29.1525 61.2267 29.2485C61.3227 29.3325 61.3647 29.4405 61.3527 29.5725C61.2567 30.0765 61.1727 30.5325 61.1007 30.9405C61.0407 31.3485 60.9987 31.7565 60.9747 32.1645C60.9507 32.5605 60.9387 33.0105 60.9387 33.5145L60.9747 38.4105C60.9747 38.5305 60.9387 38.6325 60.8667 38.7165C60.7947 38.7885 60.6987 38.8245 60.5787 38.8245L58.0227 38.7885C57.9027 38.7885 57.8007 38.7525 57.7167 38.6805C57.6447 38.6085 57.6087 38.5065 57.6087 38.3745V37.7985C57.6087 37.6785 57.6447 37.5825 57.7167 37.5105C57.8007 37.4265 57.9027 37.3845 58.0227 37.3845L59.4087 37.4025V33.5865C59.4087 33.0945 59.4147 32.6445 59.4267 32.2365C59.4387 31.8165 59.4747 31.3965 59.5347 30.9765C59.5947 30.5565 59.6907 30.0825 59.8227 29.5545C59.8587 29.4225 59.9127 29.3145 59.9847 29.2305C60.0687 29.1465 60.2007 29.1045 60.3807 29.1045ZM70.2115 34.6485C70.0915 34.6485 69.9895 34.6125 69.9055 34.5405C69.8335 34.4565 69.7975 34.3545 69.7975 34.2345V28.9605C69.7975 28.8405 69.8335 28.7445 69.9055 28.6725C69.9895 28.5885 70.0915 28.5465 70.2115 28.5465H71.0575C71.1895 28.5465 71.2915 28.5885 71.3635 28.6725C71.4355 28.7445 71.4715 28.8405 71.4715 28.9605V34.2345C71.4715 34.3545 71.4355 34.4565 71.3635 34.5405C71.2915 34.6125 71.1895 34.6485 71.0575 34.6485H70.2115ZM74.1242 38.8245C74.0042 38.8245 73.9022 38.7885 73.8182 38.7165C73.7462 38.6325 73.7102 38.5305 73.7102 38.4105V37.7985C73.7102 37.6785 73.7462 37.5825 73.8182 37.5105C73.9022 37.4265 74.0042 37.3845 74.1242 37.3845H79.2902V33.0285C79.2902 32.0685 79.0502 31.3245 78.5702 30.7965C78.0902 30.2565 77.3162 29.9865 76.2482 29.9865H74.3042C74.1842 29.9865 74.0822 29.9505 73.9982 29.8785C73.9262 29.7945 73.8902 29.6925 73.8902 29.5725V28.9605C73.8902 28.8405 73.9262 28.7445 73.9982 28.6725C74.0822 28.5885 74.1842 28.5465 74.3042 28.5465H76.3382C77.3702 28.5465 78.2282 28.7145 78.9122 29.0505C79.5962 29.3865 80.1062 29.8845 80.4422 30.5445C80.7902 31.1925 80.9642 32.0025 80.9642 32.9745V37.3845H81.6302C81.7502 37.3845 81.8462 37.4265 81.9182 37.5105C82.0022 37.5825 82.0442 37.6785 82.0442 37.7985V38.4105C82.0442 38.5305 82.0022 38.6325 81.9182 38.7165C81.8462 38.7885 81.7502 38.8245 81.6302 38.8245H74.1242ZM88.5308 42.2625C88.4108 42.2625 88.3088 42.2205 88.2248 42.1365C88.1528 42.0645 88.1168 41.9685 88.1168 41.8485V32.3985C88.1168 32.2785 88.1528 32.1825 88.2248 32.1105C88.3088 32.0265 88.4108 31.9845 88.5308 31.9845H89.3228C89.4548 31.9845 89.5568 32.0265 89.6288 32.1105C89.7008 32.1825 89.7368 32.2785 89.7368 32.3985V41.8485C89.7368 41.9685 89.7008 42.0645 89.6288 42.1365C89.5568 42.2205 89.4548 42.2625 89.3228 42.2625H88.5308ZM91.9868 38.9865C91.8788 39.0225 91.7768 39.0045 91.6808 38.9325C91.5968 38.8725 91.5548 38.7825 91.5548 38.6625V37.8345C91.5548 37.7265 91.5848 37.6305 91.6448 37.5465C91.7168 37.4625 91.8188 37.3965 91.9508 37.3485L92.6348 37.0785C93.1148 36.8865 93.5468 36.6465 93.9308 36.3585C94.3268 36.0585 94.6328 35.6565 94.8488 35.1525C95.0768 34.6485 95.1908 33.9885 95.1908 33.1725C95.1908 32.3925 95.0948 31.7745 94.9028 31.3185C94.7108 30.8505 94.3928 30.5205 93.9488 30.3285C93.5168 30.1245 92.9288 30.0225 92.1848 30.0225H88.5308C88.4108 30.0225 88.3088 29.9865 88.2248 29.9145C88.1528 29.8305 88.1168 29.7285 88.1168 29.6085V28.9605C88.1168 28.8405 88.1528 28.7445 88.2248 28.6725C88.3088 28.5885 88.4108 28.5465 88.5308 28.5465H92.4188C93.5228 28.5465 94.3928 28.7025 95.0288 29.0145C95.6768 29.3265 96.1388 29.8305 96.4148 30.5265C96.7028 31.2105 96.8468 32.1105 96.8468 33.2265C96.8468 34.0665 96.7328 34.7925 96.5048 35.4045C96.2768 36.0165 95.9648 36.5385 95.5688 36.9705C95.1848 37.4025 94.7468 37.7625 94.2548 38.0505C93.7748 38.3265 93.2708 38.5545 92.7428 38.7345L91.9868 38.9865ZM100.878 38.8245C100.614 38.8245 100.482 38.6925 100.482 38.4285V32.0025C100.482 31.2945 100.566 30.7425 100.734 30.3465C100.902 29.9505 101.106 29.7525 101.346 29.7525H103.128C102.828 29.7525 102.582 29.9805 102.39 30.4365C102.21 30.8925 102.12 31.4565 102.12 32.1285V38.4285C102.12 38.5485 102.078 38.6445 101.994 38.7165C101.91 38.7885 101.808 38.8245 101.688 38.8245H100.878ZM99.3664 29.9865C99.2464 29.9865 99.1444 29.9505 99.0604 29.8785C98.9884 29.7945 98.9524 29.6925 98.9524 29.5725V28.9605C98.9524 28.8405 98.9884 28.7445 99.0604 28.6725C99.1444 28.5885 99.2464 28.5465 99.3664 28.5465H103.722C103.854 28.5465 103.956 28.5885 104.028 28.6725C104.1 28.7445 104.136 28.8405 104.136 28.9605V29.5725C104.136 29.6925 104.1 29.7945 104.028 29.8785C103.956 29.9505 103.854 29.9865 103.722 29.9865H99.3664ZM106.9 38.8245C106.78 38.8245 106.678 38.7885 106.594 38.7165C106.522 38.6325 106.486 38.5305 106.486 38.4105V28.9605C106.486 28.8405 106.522 28.7445 106.594 28.6725C106.678 28.5885 106.78 28.5465 106.9 28.5465H110.392C111.436 28.5465 112.294 28.7145 112.966 29.0505C113.65 29.3745 114.16 29.8665 114.496 30.5265C114.832 31.1745 115 31.9905 115 32.9745V38.4105C115 38.5305 114.958 38.6325 114.874 38.7165C114.802 38.7885 114.706 38.8245 114.586 38.8245H113.776C113.644 38.8245 113.542 38.7885 113.47 38.7165C113.398 38.6325 113.362 38.5305 113.362 38.4105V33.0285C113.362 32.0685 113.122 31.3245 112.642 30.7965C112.162 30.2565 111.382 29.9865 110.302 29.9865H108.124V38.4105C108.124 38.5305 108.088 38.6325 108.016 38.7165C107.944 38.7885 107.842 38.8245 107.71 38.8245H106.9ZM118.386 29.9865C118.266 29.9865 118.164 29.9505 118.08 29.8785C118.008 29.7945 117.972 29.6925 117.972 29.5725V28.9605C117.972 28.8405 118.008 28.7445 118.08 28.6725C118.164 28.5885 118.266 28.5465 118.386 28.5465H122.292C123.324 28.5465 124.176 28.7145 124.848 29.0505C125.532 29.3745 126.042 29.8665 126.378 30.5265C126.714 31.1745 126.882 31.9785 126.882 32.9385V38.4105C126.882 38.5305 126.84 38.6325 126.756 38.7165C126.684 38.7885 126.588 38.8245 126.468 38.8245H125.658C125.526 38.8245 125.424 38.7885 125.352 38.7165C125.28 38.6325 125.244 38.5305 125.244 38.4105V33.0285C125.244 32.0685 124.998 31.3245 124.506 30.7965C124.026 30.2565 123.252 29.9865 122.184 29.9865H118.386ZM120.006 29.1045H120.456C120.636 29.1045 120.768 29.1525 120.852 29.2485C120.948 29.3325 120.99 29.4405 120.978 29.5725C120.882 30.0765 120.798 30.5325 120.726 30.9405C120.666 31.3485 120.624 31.7565 120.6 32.1645C120.576 32.5605 120.564 33.0105 120.564 33.5145L120.6 38.4105C120.6 38.5305 120.564 38.6325 120.492 38.7165C120.42 38.7885 120.324 38.8245 120.204 38.8245L117.648 38.7885C117.528 38.7885 117.426 38.7525 117.342 38.6805C117.27 38.6085 117.234 38.5065 117.234 38.3745V37.7985C117.234 37.6785 117.27 37.5825 117.342 37.5105C117.426 37.4265 117.528 37.3845 117.648 37.3845L119.034 37.4025V33.5865C119.034 33.0945 119.04 32.6445 119.052 32.2365C119.064 31.8165 119.1 31.3965 119.16 30.9765C119.22 30.5565 119.316 30.0825 119.448 29.5545C119.484 29.4225 119.538 29.3145 119.61 29.2305C119.694 29.1465 119.826 29.1045 120.006 29.1045ZM131.428 38.9865C131.32 39.0225 131.218 39.0045 131.122 38.9325C131.026 38.8725 130.978 38.7825 130.978 38.6625V37.8345C130.978 37.7265 131.008 37.6305 131.068 37.5465C131.14 37.4625 131.242 37.3965 131.374 37.3485L132.076 37.0785C132.544 36.8865 132.97 36.6465 133.354 36.3585C133.75 36.0585 134.056 35.6565 134.272 35.1525C134.5 34.6485 134.614 33.9885 134.614 33.1725C134.614 32.3925 134.518 31.7745 134.326 31.3185C134.146 30.8505 133.834 30.5205 133.39 30.3285C132.958 30.1245 132.364 30.0225 131.608 30.0225H131.068C130.948 30.0225 130.846 29.9865 130.762 29.9145C130.69 29.8305 130.654 29.7285 130.654 29.6085V28.9605C130.654 28.8405 130.69 28.7445 130.762 28.6725C130.846 28.5885 130.948 28.5465 131.068 28.5465H131.86C132.952 28.5465 133.822 28.7025 134.47 29.0145C135.118 29.3265 135.58 29.8305 135.856 30.5265C136.144 31.2105 136.288 32.1105 136.288 33.2265C136.288 34.0665 136.174 34.7925 135.946 35.4045C135.718 36.0165 135.406 36.5385 135.01 36.9705C134.626 37.4025 134.188 37.7625 133.696 38.0505C133.204 38.3265 132.694 38.5545 132.166 38.7345L131.428 38.9865ZM131.464 30.0225L129.322 30.0045C129.202 30.0045 129.1 29.9685 129.016 29.8965C128.944 29.8245 128.908 29.7285 128.908 29.6085V26.4585C128.908 26.3385 128.944 26.2425 129.016 26.1705C129.1 26.0865 129.202 26.0445 129.322 26.0445H130.078C130.198 26.0445 130.294 26.0865 130.366 26.1705C130.45 26.2425 130.492 26.3385 130.492 26.4585V28.5465H131.5L131.464 30.0225ZM150.32 38.8245C150.2 38.8245 150.098 38.7885 150.014 38.7165C149.942 38.6325 149.906 38.5305 149.906 38.4105V33.0285C149.906 32.0685 149.666 31.3245 149.186 30.7965C148.706 30.2565 147.932 29.9865 146.864 29.9865H143.48C143.36 29.9865 143.258 29.9505 143.174 29.8785C143.102 29.7945 143.066 29.6925 143.066 29.5725V28.9605C143.066 28.8405 143.102 28.7445 143.174 28.6725C143.258 28.5885 143.36 28.5465 143.48 28.5465H146.954C148.514 28.5465 149.666 28.9245 150.41 29.6805C151.166 30.4365 151.544 31.5345 151.544 32.9745V38.4105C151.544 38.5305 151.502 38.6325 151.418 38.7165C151.346 38.7885 151.25 38.8245 151.13 38.8245H150.32ZM143.48 38.8245C143.36 38.8245 143.258 38.7885 143.174 38.7165C143.102 38.6325 143.066 38.5305 143.066 38.4105V32.3985C143.066 32.2785 143.102 32.1825 143.174 32.1105C143.258 32.0265 143.36 31.9845 143.48 31.9845H144.29C144.422 31.9845 144.524 32.0265 144.596 32.1105C144.668 32.1825 144.704 32.2785 144.704 32.3985V38.4105C144.704 38.5305 144.668 38.6325 144.596 38.7165C144.524 38.7885 144.422 38.8245 144.29 38.8245H143.48ZM156.091 38.9865C155.983 39.0225 155.881 39.0045 155.785 38.9325C155.689 38.8725 155.641 38.7825 155.641 38.6625V37.8345C155.641 37.7265 155.671 37.6305 155.731 37.5465C155.803 37.4625 155.905 37.3965 156.037 37.3485L156.739 37.0785C157.207 36.8865 157.633 36.6465 158.017 36.3585C158.413 36.0585 158.719 35.6565 158.935 35.1525C159.163 34.6485 159.277 33.9885 159.277 33.1725C159.277 32.3925 159.181 31.7745 158.989 31.3185C158.809 30.8505 158.497 30.5205 158.053 30.3285C157.621 30.1245 157.027 30.0225 156.271 30.0225H155.731C155.611 30.0225 155.509 29.9865 155.425 29.9145C155.353 29.8305 155.317 29.7285 155.317 29.6085V28.9605C155.317 28.8405 155.353 28.7445 155.425 28.6725C155.509 28.5885 155.611 28.5465 155.731 28.5465H156.523C157.615 28.5465 158.485 28.7025 159.133 29.0145C159.781 29.3265 160.243 29.8305 160.519 30.5265C160.807 31.2105 160.951 32.1105 160.951 33.2265C160.951 34.0665 160.837 34.7925 160.609 35.4045C160.381 36.0165 160.069 36.5385 159.673 36.9705C159.289 37.4025 158.851 37.7625 158.359 38.0505C157.867 38.3265 157.357 38.5545 156.829 38.7345L156.091 38.9865ZM156.127 30.0225L153.985 30.0045C153.865 30.0045 153.763 29.9685 153.679 29.8965C153.607 29.8245 153.571 29.7285 153.571 29.6085V26.4585C153.571 26.3385 153.607 26.2425 153.679 26.1705C153.763 26.0865 153.865 26.0445 153.985 26.0445H154.741C154.861 26.0445 154.957 26.0865 155.029 26.1705C155.113 26.2425 155.155 26.3385 155.155 26.4585V28.5465H156.163L156.127 30.0225ZM168.142 38.8245C168.022 38.8245 167.92 38.7885 167.836 38.7165C167.764 38.6325 167.728 38.5305 167.728 38.4105V28.9605C167.728 28.8405 167.764 28.7445 167.836 28.6725C167.92 28.5885 168.022 28.5465 168.142 28.5465H171.58C172.612 28.5465 173.464 28.7145 174.136 29.0505C174.808 29.3745 175.306 29.8605 175.63 30.5085C175.966 31.1565 176.134 31.9665 176.134 32.9385V38.4105C176.134 38.5305 176.098 38.6325 176.026 38.7165C175.954 38.7885 175.852 38.8245 175.72 38.8245H168.142ZM169.276 37.3845H174.532V33.0285C174.532 32.0685 174.292 31.3245 173.812 30.7965C173.332 30.2565 172.558 29.9865 171.49 29.9865H169.276V37.3845ZM179.216 38.8245C179.096 38.8245 178.994 38.7885 178.91 38.7165C178.838 38.6325 178.802 38.5305 178.802 38.4105V28.9605C178.802 28.8405 178.838 28.7445 178.91 28.6725C178.994 28.5885 179.096 28.5465 179.216 28.5465H180.062C180.194 28.5465 180.296 28.5885 180.368 28.6725C180.44 28.7445 180.476 28.8405 180.476 28.9605V38.4105C180.476 38.5305 180.44 38.6325 180.368 38.7165C180.296 38.7885 180.194 38.8245 180.062 38.8245H179.216ZM189.064 38.8245C188.944 38.8245 188.842 38.7885 188.758 38.7165C188.686 38.6325 188.65 38.5305 188.65 38.4105V33.0285C188.65 32.0685 188.41 31.3245 187.93 30.7965C187.45 30.2565 186.676 29.9865 185.608 29.9865H183.25C183.13 29.9865 183.028 29.9505 182.944 29.8785C182.872 29.7945 182.836 29.6925 182.836 29.5725V28.9605C182.836 28.8405 182.872 28.7445 182.944 28.6725C183.028 28.5885 183.13 28.5465 183.25 28.5465H185.698C186.73 28.5465 187.582 28.7085 188.254 29.0325C188.938 29.3565 189.448 29.8485 189.784 30.5085C190.12 31.1565 190.288 31.9665 190.288 32.9385V38.4105C190.288 38.5305 190.246 38.6325 190.162 38.7165C190.09 38.7885 189.994 38.8245 189.874 38.8245H189.064ZM197.669 38.8245C197.549 38.8245 197.453 38.7885 197.381 38.7165C197.321 38.6325 197.279 38.5305 197.255 38.4105L196.157 32.8845C196.037 32.2485 195.893 31.7205 195.725 31.3005C195.569 30.8685 195.353 30.5445 195.077 30.3285C194.813 30.1005 194.447 29.9865 193.979 29.9865H193.331C193.211 29.9865 193.109 29.9505 193.025 29.8785C192.953 29.7945 192.917 29.6925 192.917 29.5725V28.9245C192.917 28.8045 192.953 28.7085 193.025 28.6365C193.109 28.5525 193.211 28.5105 193.331 28.5105H193.997C194.801 28.5105 195.449 28.6725 195.941 28.9965C196.433 29.3085 196.823 29.7825 197.111 30.4185C197.411 31.0545 197.657 31.8465 197.849 32.7945L198.929 38.4105C198.953 38.5305 198.923 38.6325 198.839 38.7165C198.755 38.7885 198.653 38.8245 198.533 38.8245H197.669ZM195.347 37.9065C194.903 38.2065 194.483 38.4405 194.087 38.6085C193.703 38.7645 193.301 38.8845 192.881 38.9685C192.761 38.9805 192.659 38.9685 192.575 38.9325C192.491 38.8965 192.449 38.8185 192.449 38.6985V37.7985C192.449 37.5945 192.575 37.4445 192.827 37.3485C192.911 37.3125 193.067 37.2585 193.295 37.1865C193.523 37.1145 193.769 37.0245 194.033 36.9165C194.297 36.7965 194.525 36.6765 194.717 36.5565C195.017 36.3645 195.311 36.1185 195.599 35.8185C195.887 35.5065 196.127 35.1885 196.319 34.8645C196.523 34.5285 196.625 34.2345 196.625 33.9825L197.669 33.8565C197.657 34.3725 197.543 34.8945 197.327 35.4225C197.111 35.9505 196.829 36.4305 196.481 36.8625C196.133 37.2945 195.755 37.6425 195.347 37.9065ZM200.975 34.6485C200.855 34.6485 200.753 34.6125 200.669 34.5405C200.597 34.4565 200.561 34.3545 200.561 34.2345V28.9605C200.561 28.8405 200.597 28.7445 200.669 28.6725C200.753 28.5885 200.855 28.5465 200.975 28.5465H201.821C201.953 28.5465 202.055 28.5885 202.127 28.6725C202.199 28.7445 202.235 28.8405 202.235 28.9605V34.2345C202.235 34.3545 202.199 34.4565 202.127 34.5405C202.055 34.6125 201.953 34.6485 201.821 34.6485H200.975ZM210.018 37.4745C210.798 37.4865 211.452 37.3425 211.98 37.0425C212.52 36.7425 212.928 36.3165 213.204 35.7645C213.492 35.2005 213.636 34.5585 213.636 33.8385V28.9605C213.636 28.8405 213.672 28.7445 213.744 28.6725C213.828 28.5885 213.93 28.5465 214.05 28.5465H214.788C214.92 28.5465 215.022 28.5885 215.094 28.6725C215.166 28.7445 215.202 28.8405 215.202 28.9605V33.9645C215.202 34.7325 215.082 35.4285 214.842 36.0525C214.602 36.6645 214.26 37.1925 213.816 37.6365C213.372 38.0685 212.844 38.3985 212.232 38.6265C211.632 38.8545 210.966 38.9565 210.234 38.9325H208.884C208.104 38.9325 207.402 38.7525 206.778 38.3925C206.154 38.0325 205.662 37.5285 205.302 36.8805C204.942 36.2325 204.762 35.4825 204.762 34.6305V28.9605C204.762 28.8405 204.798 28.7445 204.87 28.6725C204.954 28.5885 205.056 28.5465 205.176 28.5465H205.932C206.052 28.5465 206.148 28.5885 206.22 28.6725C206.304 28.7445 206.346 28.8405 206.346 28.9605L206.4 34.2705C206.4 35.3025 206.688 36.0945 207.264 36.6465C207.84 37.1985 208.572 37.4745 209.46 37.4745H210.018ZM206.022 35.3685L205.986 34.0545C206.874 34.0425 207.552 33.9105 208.02 33.6585C208.488 33.3945 208.812 33.0465 208.992 32.6145C209.184 32.1825 209.28 31.7085 209.28 31.1925V28.9605C209.28 28.8405 209.316 28.7445 209.388 28.6725C209.46 28.5885 209.562 28.5465 209.694 28.5465H210.432C210.552 28.5465 210.648 28.5885 210.72 28.6725C210.804 28.7445 210.846 28.8405 210.846 28.9605V31.2645C210.846 32.0445 210.672 32.7465 210.324 33.3705C209.976 33.9945 209.442 34.4865 208.722 34.8465C208.014 35.2065 207.114 35.3805 206.022 35.3685ZM222.114 38.8245C221.994 38.8245 221.892 38.7885 221.808 38.7165C221.736 38.6325 221.7 38.5305 221.7 38.4105V37.7985C221.7 37.6785 221.736 37.5825 221.808 37.5105C221.892 37.4265 221.994 37.3845 222.114 37.3845H227.28V33.0285C227.28 32.0685 227.04 31.3245 226.56 30.7965C226.08 30.2565 225.306 29.9865 224.238 29.9865H222.294C222.174 29.9865 222.072 29.9505 221.988 29.8785C221.916 29.7945 221.88 29.6925 221.88 29.5725V28.9605C221.88 28.8405 221.916 28.7445 221.988 28.6725C222.072 28.5885 222.174 28.5465 222.294 28.5465H224.328C225.36 28.5465 226.218 28.7145 226.902 29.0505C227.586 29.3865 228.096 29.8845 228.432 30.5445C228.78 31.1925 228.954 32.0025 228.954 32.9745V37.3845H229.62C229.74 37.3845 229.836 37.4265 229.908 37.5105C229.992 37.5825 230.034 37.6785 230.034 37.7985V38.4105C230.034 38.5305 229.992 38.6325 229.908 38.7165C229.836 38.7885 229.74 38.8245 229.62 38.8245H222.114ZM232.355 38.8245C232.235 38.8245 232.133 38.7885 232.049 38.7165C231.977 38.6325 231.941 38.5305 231.941 38.4105V28.9605C231.941 28.8405 231.977 28.7445 232.049 28.6725C232.133 28.5885 232.235 28.5465 232.355 28.5465H233.201C233.333 28.5465 233.435 28.5885 233.507 28.6725C233.579 28.7445 233.615 28.8405 233.615 28.9605V38.4105C233.615 38.5305 233.579 38.6325 233.507 38.7165C233.435 38.7885 233.333 38.8245 233.201 38.8245H232.355ZM241.5 37.4745C242.28 37.4865 242.934 37.3425 243.462 37.0425C244.002 36.7425 244.41 36.3165 244.686 35.7645C244.974 35.2005 245.118 34.5585 245.118 33.8385V28.9605C245.118 28.8405 245.154 28.7445 245.226 28.6725C245.31 28.5885 245.412 28.5465 245.532 28.5465H246.27C246.402 28.5465 246.504 28.5885 246.576 28.6725C246.648 28.7445 246.684 28.8405 246.684 28.9605V33.9645C246.684 34.7325 246.564 35.4285 246.324 36.0525C246.084 36.6645 245.742 37.1925 245.298 37.6365C244.854 38.0685 244.326 38.3985 243.714 38.6265C243.114 38.8545 242.448 38.9565 241.716 38.9325H240.366C239.586 38.9325 238.884 38.7525 238.26 38.3925C237.636 38.0325 237.144 37.5285 236.784 36.8805C236.424 36.2325 236.244 35.4825 236.244 34.6305V28.9605C236.244 28.8405 236.28 28.7445 236.352 28.6725C236.436 28.5885 236.538 28.5465 236.658 28.5465H237.414C237.534 28.5465 237.63 28.5885 237.702 28.6725C237.786 28.7445 237.828 28.8405 237.828 28.9605L237.882 34.2705C237.882 35.3025 238.17 36.0945 238.746 36.6465C239.322 37.1985 240.054 37.4745 240.942 37.4745H241.5ZM237.504 35.3685L237.468 34.0545C238.356 34.0425 239.034 33.9105 239.502 33.6585C239.97 33.3945 240.294 33.0465 240.474 32.6145C240.666 32.1825 240.762 31.7085 240.762 31.1925V28.9605C240.762 28.8405 240.798 28.7445 240.87 28.6725C240.942 28.5885 241.044 28.5465 241.176 28.5465H241.914C242.034 28.5465 242.13 28.5885 242.202 28.6725C242.286 28.7445 242.328 28.8405 242.328 28.9605V31.2645C242.328 32.0445 242.154 32.7465 241.806 33.3705C241.458 33.9945 240.924 34.4865 240.204 34.8465C239.496 35.2065 238.596 35.3805 237.504 35.3685ZM249.617 38.8245C249.497 38.8245 249.395 38.7885 249.311 38.7165C249.239 38.6325 249.203 38.5305 249.203 38.4105V28.9605C249.203 28.8405 249.239 28.7445 249.311 28.6725C249.395 28.5885 249.497 28.5465 249.617 28.5465H253.109C254.153 28.5465 255.011 28.7145 255.683 29.0505C256.367 29.3745 256.877 29.8665 257.213 30.5265C257.549 31.1745 257.717 31.9905 257.717 32.9745V38.4105C257.717 38.5305 257.675 38.6325 257.591 38.7165C257.519 38.7885 257.423 38.8245 257.303 38.8245H256.493C256.361 38.8245 256.259 38.7885 256.187 38.7165C256.115 38.6325 256.079 38.5305 256.079 38.4105V33.0285C256.079 32.0685 255.839 31.3245 255.359 30.7965C254.879 30.2565 254.099 29.9865 253.019 29.9865H250.841V38.4105C250.841 38.5305 250.805 38.6325 250.733 38.7165C250.661 38.7885 250.559 38.8245 250.427 38.8245H249.617ZM264.705 39.8145C264.585 39.8625 264.471 39.8505 264.363 39.7785C264.255 39.7185 264.201 39.6285 264.201 39.5085V38.8965C264.201 38.7885 264.225 38.6865 264.273 38.5905C264.321 38.4945 264.399 38.4345 264.507 38.4105L268.305 37.1505C268.989 36.9225 269.517 36.6285 269.889 36.2685C270.261 35.9085 270.519 35.4885 270.663 35.0085C270.819 34.5285 270.897 34.0065 270.897 33.4425V28.9605C270.897 28.8405 270.933 28.7445 271.005 28.6725C271.089 28.5885 271.191 28.5465 271.311 28.5465H272.121C272.241 28.5465 272.337 28.5885 272.409 28.6725C272.493 28.7445 272.535 28.8405 272.535 28.9605V33.9465C272.535 34.6425 272.373 35.3025 272.049 35.9265C271.737 36.5385 271.293 37.0785 270.717 37.5465C270.141 38.0025 269.457 38.3505 268.665 38.5905L264.705 39.8145ZM267.063 38.3925L264.525 29.2665C264.501 29.1705 264.477 29.0985 264.453 29.0505C264.441 29.0025 264.435 28.9545 264.435 28.9065C264.435 28.8105 264.471 28.7265 264.543 28.6545C264.615 28.5825 264.699 28.5465 264.795 28.5465H265.677C265.905 28.5465 266.043 28.6365 266.091 28.8165L268.593 37.9785L267.063 38.3925ZM279.755 38.8245C279.491 38.8245 279.359 38.6925 279.359 38.4285V32.0025C279.359 31.2945 279.443 30.7425 279.611 30.3465C279.779 29.9505 279.989 29.7525 280.241 29.7525H282.005C281.705 29.7525 281.459 29.9805 281.267 30.4365C281.087 30.8925 280.997 31.4565 280.997 32.1285V38.4285C280.997 38.5485 280.955 38.6445 280.871 38.7165C280.787 38.7885 280.685 38.8245 280.565 38.8245H279.755ZM274.895 29.9865C274.775 29.9865 274.673 29.9505 274.589 29.8785C274.517 29.7945 274.481 29.6925 274.481 29.5725V28.9605C274.481 28.8405 274.517 28.7445 274.589 28.6725C274.673 28.5885 274.775 28.5465 274.895 28.5465H282.617C282.737 28.5465 282.833 28.5885 282.905 28.6725C282.989 28.7445 283.031 28.8405 283.031 28.9605V29.5725C283.031 29.6925 282.989 29.7945 282.905 29.8785C282.833 29.9505 282.737 29.9865 282.617 29.9865H274.895ZM285.508 34.6485C285.388 34.6485 285.286 34.6125 285.202 34.5405C285.13 34.4565 285.094 34.3545 285.094 34.2345V28.9605C285.094 28.8405 285.13 28.7445 285.202 28.6725C285.286 28.5885 285.388 28.5465 285.508 28.5465H286.354C286.486 28.5465 286.588 28.5885 286.66 28.6725C286.732 28.7445 286.768 28.8405 286.768 28.9605V34.2345C286.768 34.3545 286.732 34.4565 286.66 34.5405C286.588 34.6125 286.486 34.6485 286.354 34.6485H285.508ZM293.939 30.0225H289.565C289.433 30.0225 289.331 29.9865 289.259 29.9145C289.187 29.8305 289.151 29.7285 289.151 29.6085V28.9605C289.151 28.8405 289.187 28.7445 289.259 28.6725C289.331 28.5885 289.433 28.5465 289.565 28.5465H294.137C294.881 28.5465 295.541 28.7205 296.117 29.0685C296.705 29.4165 297.161 29.9205 297.485 30.5805C297.821 31.2285 297.989 32.0145 297.989 32.9385V38.4105C297.989 38.5305 297.947 38.6325 297.863 38.7165C297.791 38.7885 297.695 38.8245 297.575 38.8245H292.931C292.811 38.8245 292.709 38.7885 292.625 38.7165C292.553 38.6325 292.517 38.5305 292.517 38.4105V37.7985C292.517 37.6785 292.553 37.5825 292.625 37.5105C292.709 37.4265 292.811 37.3845 292.931 37.3845H296.351V33.0465C296.351 32.4345 296.243 31.9005 296.027 31.4445C295.823 30.9885 295.535 30.6405 295.163 30.4005C294.803 30.1485 294.395 30.0225 293.939 30.0225ZM289.385 38.8245C289.277 38.8245 289.187 38.7825 289.115 38.6985C289.043 38.6145 289.013 38.5125 289.025 38.3925L290.555 29.5725C290.579 29.4525 290.633 29.3625 290.717 29.3025C290.801 29.2305 290.903 29.2065 291.023 29.2305L291.743 29.2665C291.863 29.2785 291.959 29.3325 292.031 29.4285C292.103 29.5125 292.121 29.6145 292.085 29.7345L290.663 38.3925C290.651 38.5125 290.597 38.6145 290.501 38.6985C290.417 38.7825 290.315 38.8245 290.195 38.8245H289.385ZM301.068 38.8245C300.948 38.8245 300.846 38.7885 300.762 38.7165C300.69 38.6325 300.654 38.5305 300.654 38.4105V28.9605C300.654 28.8405 300.69 28.7445 300.762 28.6725C300.846 28.5885 300.948 28.5465 301.068 28.5465H301.914C302.046 28.5465 302.148 28.5885 302.22 28.6725C302.292 28.7445 302.328 28.8405 302.328 28.9605V38.4105C302.328 38.5305 302.292 38.6325 302.22 38.7165C302.148 38.7885 302.046 38.8245 301.914 38.8245H301.068ZM148.191 56.8365C148.071 56.8365 147.969 56.8005 147.885 56.7285C147.813 56.6445 147.777 56.5425 147.777 56.4225V47.6385C147.777 47.5185 147.813 47.4225 147.885 47.3505C147.969 47.2665 148.071 47.2245 148.191 47.2245H149.037C149.157 47.2245 149.253 47.2665 149.325 47.3505C149.397 47.4225 149.433 47.5185 149.433 47.6385V56.4225C149.433 56.5425 149.397 56.6445 149.325 56.7285C149.253 56.8005 149.157 56.8365 149.037 56.8365H148.191ZM148.029 59.8245C147.909 59.8245 147.807 59.7885 147.723 59.7165C147.651 59.6325 147.615 59.5305 147.615 59.4105V58.2765C147.615 58.1445 147.651 58.0425 147.723 57.9705C147.807 57.8865 147.909 57.8445 148.029 57.8445H149.181C149.301 57.8445 149.397 57.8865 149.469 57.9705C149.553 58.0425 149.595 58.1445 149.595 58.2765V59.4105C149.595 59.5305 149.553 59.6325 149.469 59.7165C149.397 59.7885 149.301 59.8245 149.181 59.8245H148.029ZM157.319 58.4745C158.099 58.4865 158.753 58.3425 159.281 58.0425C159.821 57.7425 160.229 57.3165 160.505 56.7645C160.793 56.2005 160.937 55.5585 160.937 54.8385V49.9605C160.937 49.8405 160.973 49.7445 161.045 49.6725C161.129 49.5885 161.231 49.5465 161.351 49.5465H162.089C162.221 49.5465 162.323 49.5885 162.395 49.6725C162.467 49.7445 162.503 49.8405 162.503 49.9605V54.9645C162.503 55.7325 162.383 56.4285 162.143 57.0525C161.903 57.6645 161.561 58.1925 161.117 58.6365C160.673 59.0685 160.145 59.3985 159.533 59.6265C158.933 59.8545 158.267 59.9565 157.535 59.9325H156.185C155.405 59.9325 154.703 59.7525 154.079 59.3925C153.455 59.0325 152.963 58.5285 152.603 57.8805C152.243 57.2325 152.063 56.4825 152.063 55.6305V49.9605C152.063 49.8405 152.099 49.7445 152.171 49.6725C152.255 49.5885 152.357 49.5465 152.477 49.5465H153.233C153.353 49.5465 153.449 49.5885 153.521 49.6725C153.605 49.7445 153.647 49.8405 153.647 49.9605L153.701 55.2705C153.701 56.3025 153.989 57.0945 154.565 57.6465C155.141 58.1985 155.873 58.4745 156.761 58.4745H157.319ZM153.323 56.3685L153.287 55.0545C154.175 55.0425 154.853 54.9105 155.321 54.6585C155.789 54.3945 156.113 54.0465 156.293 53.6145C156.485 53.1825 156.581 52.7085 156.581 52.1925V49.9605C156.581 49.8405 156.617 49.7445 156.689 49.6725C156.761 49.5885 156.863 49.5465 156.995 49.5465H157.733C157.853 49.5465 157.949 49.5885 158.021 49.6725C158.105 49.7445 158.147 49.8405 158.147 49.9605V52.2645C158.147 53.0445 157.973 53.7465 157.625 54.3705C157.277 54.9945 156.743 55.4865 156.023 55.8465C155.315 56.2065 154.415 56.3805 153.323 56.3685ZM165.309 55.6485C165.189 55.6485 165.087 55.6125 165.003 55.5405C164.931 55.4565 164.895 55.3545 164.895 55.2345V49.9605C164.895 49.8405 164.931 49.7445 165.003 49.6725C165.087 49.5885 165.189 49.5465 165.309 49.5465H166.155C166.287 49.5465 166.389 49.5885 166.461 49.6725C166.533 49.7445 166.569 49.8405 166.569 49.9605V55.2345C166.569 55.3545 166.533 55.4565 166.461 55.5405C166.389 55.6125 166.287 55.6485 166.155 55.6485H165.309ZM174.352 58.4745C175.132 58.4865 175.786 58.3425 176.314 58.0425C176.854 57.7425 177.262 57.3165 177.538 56.7645C177.826 56.2005 177.97 55.5585 177.97 54.8385V49.9605C177.97 49.8405 178.006 49.7445 178.078 49.6725C178.162 49.5885 178.264 49.5465 178.384 49.5465H179.122C179.254 49.5465 179.356 49.5885 179.428 49.6725C179.5 49.7445 179.536 49.8405 179.536 49.9605V54.9645C179.536 55.7325 179.416 56.4285 179.176 57.0525C178.936 57.6645 178.594 58.1925 178.15 58.6365C177.706 59.0685 177.178 59.3985 176.566 59.6265C175.966 59.8545 175.3 59.9565 174.568 59.9325H173.218C172.438 59.9325 171.736 59.7525 171.112 59.3925C170.488 59.0325 169.996 58.5285 169.636 57.8805C169.276 57.2325 169.096 56.4825 169.096 55.6305V49.9605C169.096 49.8405 169.132 49.7445 169.204 49.6725C169.288 49.5885 169.39 49.5465 169.51 49.5465H170.266C170.386 49.5465 170.482 49.5885 170.554 49.6725C170.638 49.7445 170.68 49.8405 170.68 49.9605L170.734 55.2705C170.734 56.3025 171.022 57.0945 171.598 57.6465C172.174 58.1985 172.906 58.4745 173.794 58.4745H174.352ZM170.356 56.3685L170.32 55.0545C171.208 55.0425 171.886 54.9105 172.354 54.6585C172.822 54.3945 173.146 54.0465 173.326 53.6145C173.518 53.1825 173.614 52.7085 173.614 52.1925V49.9605C173.614 49.8405 173.65 49.7445 173.722 49.6725C173.794 49.5885 173.896 49.5465 174.028 49.5465H174.766C174.886 49.5465 174.982 49.5885 175.054 49.6725C175.138 49.7445 175.18 49.8405 175.18 49.9605V52.2645C175.18 53.0445 175.006 53.7465 174.658 54.3705C174.31 54.9945 173.776 55.4865 173.056 55.8465C172.348 56.2065 171.448 56.3805 170.356 56.3685ZM193.72 59.8245C193.6 59.8245 193.498 59.7885 193.414 59.7165C193.342 59.6325 193.306 59.5305 193.306 59.4105V54.0285C193.306 53.0685 193.066 52.3245 192.586 51.7965C192.106 51.2565 191.332 50.9865 190.264 50.9865H186.88C186.76 50.9865 186.658 50.9505 186.574 50.8785C186.502 50.7945 186.466 50.6925 186.466 50.5725V49.9605C186.466 49.8405 186.502 49.7445 186.574 49.6725C186.658 49.5885 186.76 49.5465 186.88 49.5465H190.354C191.914 49.5465 193.066 49.9245 193.81 50.6805C194.566 51.4365 194.944 52.5345 194.944 53.9745V59.4105C194.944 59.5305 194.902 59.6325 194.818 59.7165C194.746 59.7885 194.65 59.8245 194.53 59.8245H193.72ZM186.88 59.8245C186.76 59.8245 186.658 59.7885 186.574 59.7165C186.502 59.6325 186.466 59.5305 186.466 59.4105V53.3985C186.466 53.2785 186.502 53.1825 186.574 53.1105C186.658 53.0265 186.76 52.9845 186.88 52.9845H187.69C187.822 52.9845 187.924 53.0265 187.996 53.1105C188.068 53.1825 188.104 53.2785 188.104 53.3985V59.4105C188.104 59.5305 188.068 59.6325 187.996 59.7165C187.924 59.7885 187.822 59.8245 187.69 59.8245H186.88ZM197.449 59.8245C197.329 59.8245 197.227 59.7885 197.143 59.7165C197.071 59.6325 197.035 59.5305 197.035 59.4105V58.7985C197.035 58.6785 197.071 58.5825 197.143 58.5105C197.227 58.4265 197.329 58.3845 197.449 58.3845H202.525V59.4825C202.525 59.6025 202.483 59.6925 202.399 59.7525C202.327 59.8005 202.231 59.8245 202.111 59.8245H197.449ZM201.427 59.8245C201.307 59.8245 201.211 59.7885 201.139 59.7165C201.079 59.6325 201.037 59.5305 201.013 59.4105L200.671 53.8485C200.647 53.2605 200.599 52.7505 200.527 52.3185C200.467 51.8865 200.323 51.5505 200.095 51.3105C199.879 51.0705 199.513 50.9505 198.997 50.9505H198.259C198.139 50.9505 198.037 50.9145 197.953 50.8425C197.881 50.7585 197.845 50.6565 197.845 50.5365V49.9245C197.845 49.8045 197.881 49.7085 197.953 49.6365C198.037 49.5525 198.139 49.5105 198.259 49.5105H199.015C199.699 49.5105 200.251 49.6125 200.671 49.8165C201.091 50.0085 201.415 50.2965 201.643 50.6805C201.871 51.0645 202.039 51.5205 202.147 52.0485C202.255 52.5645 202.327 53.1465 202.363 53.7945L202.687 59.4105C202.711 59.5305 202.681 59.6325 202.597 59.7165C202.513 59.7885 202.411 59.8245 202.291 59.8245H201.427ZM205.355 59.8245C205.235 59.8245 205.133 59.7885 205.049 59.7165C204.977 59.6325 204.941 59.5305 204.941 59.4105V49.9605C204.941 49.8405 204.977 49.7445 205.049 49.6725C205.133 49.5885 205.235 49.5465 205.355 49.5465H206.201C206.333 49.5465 206.435 49.5885 206.507 49.6725C206.579 49.7445 206.615 49.8405 206.615 49.9605V59.4105C206.615 59.5305 206.579 59.6325 206.507 59.7165C206.435 59.7885 206.333 59.8245 206.201 59.8245H205.355ZM209.802 59.8245C209.682 59.8245 209.58 59.7885 209.496 59.7165C209.424 59.6325 209.388 59.5305 209.388 59.4105V58.7625C209.388 58.6425 209.424 58.5465 209.496 58.4745C209.58 58.3905 209.682 58.3485 209.802 58.3485H212.376C213.444 58.3485 214.212 58.0845 214.68 57.5565C215.148 57.0165 215.406 56.2665 215.454 55.3065C215.466 55.0425 215.472 54.8325 215.472 54.6765C215.472 54.5205 215.466 54.3165 215.454 54.0645C215.418 53.1045 215.16 52.3605 214.68 51.8325C214.212 51.2925 213.444 51.0225 212.376 51.0225H209.802C209.682 51.0225 209.58 50.9865 209.496 50.9145C209.424 50.8305 209.388 50.7285 209.388 50.6085V49.9605C209.388 49.8405 209.424 49.7445 209.496 49.6725C209.58 49.5885 209.682 49.5465 209.802 49.5465H212.466C213.522 49.5465 214.38 49.7265 215.04 50.0865C215.7 50.4345 216.192 50.9445 216.516 51.6165C216.852 52.2765 217.032 53.0745 217.056 54.0105C217.068 54.2505 217.074 54.4725 217.074 54.6765C217.074 54.8805 217.068 55.1085 217.056 55.3605C217.032 56.2845 216.852 57.0825 216.516 57.7545C216.192 58.4265 215.7 58.9425 215.04 59.3025C214.38 59.6505 213.522 59.8245 212.466 59.8245H209.802ZM219.088 59.8245C218.968 59.8245 218.866 59.7885 218.782 59.7165C218.71 59.6325 218.674 59.5305 218.674 59.4105V58.7985C218.674 58.6785 218.71 58.5825 218.782 58.5105C218.866 58.4265 218.968 58.3845 219.088 58.3845H224.164V59.4825C224.164 59.6025 224.122 59.6925 224.038 59.7525C223.966 59.8005 223.87 59.8245 223.75 59.8245H219.088ZM223.066 59.8245C222.946 59.8245 222.85 59.7885 222.778 59.7165C222.718 59.6325 222.676 59.5305 222.652 59.4105L222.31 53.8485C222.286 53.2605 222.238 52.7505 222.166 52.3185C222.106 51.8865 221.962 51.5505 221.734 51.3105C221.518 51.0705 221.152 50.9505 220.636 50.9505H219.898C219.778 50.9505 219.676 50.9145 219.592 50.8425C219.52 50.7585 219.484 50.6565 219.484 50.5365V49.9245C219.484 49.8045 219.52 49.7085 219.592 49.6365C219.676 49.5525 219.778 49.5105 219.898 49.5105H220.654C221.338 49.5105 221.89 49.6125 222.31 49.8165C222.73 50.0085 223.054 50.2965 223.282 50.6805C223.51 51.0645 223.678 51.5205 223.786 52.0485C223.894 52.5645 223.966 53.1465 224.002 53.7945L224.326 59.4105C224.35 59.5305 224.32 59.6325 224.236 59.7165C224.152 59.7885 224.05 59.8245 223.93 59.8245H223.066ZM231.28 55.6485C231.16 55.6485 231.058 55.6125 230.974 55.5405C230.902 55.4565 230.866 55.3545 230.866 55.2345V49.9605C230.866 49.8405 230.902 49.7445 230.974 49.6725C231.058 49.5885 231.16 49.5465 231.28 49.5465H232.126C232.258 49.5465 232.36 49.5885 232.432 49.6725C232.504 49.7445 232.54 49.8405 232.54 49.9605V55.2345C232.54 55.3545 232.504 55.4565 232.432 55.5405C232.36 55.6125 232.258 55.6485 232.126 55.6485H231.28ZM235.625 59.8245C235.505 59.8245 235.403 59.7885 235.319 59.7165C235.247 59.6325 235.211 59.5305 235.211 59.4105V58.7625C235.211 58.6425 235.247 58.5465 235.319 58.4745C235.403 58.3905 235.505 58.3485 235.625 58.3485H238.199C239.267 58.3485 240.035 58.0845 240.503 57.5565C240.971 57.0165 241.229 56.2665 241.277 55.3065C241.289 55.0425 241.295 54.8325 241.295 54.6765C241.295 54.5205 241.289 54.3165 241.277 54.0645C241.241 53.1045 240.983 52.3605 240.503 51.8325C240.035 51.2925 239.267 51.0225 238.199 51.0225H235.625C235.505 51.0225 235.403 50.9865 235.319 50.9145C235.247 50.8305 235.211 50.7285 235.211 50.6085V49.9605C235.211 49.8405 235.247 49.7445 235.319 49.6725C235.403 49.5885 235.505 49.5465 235.625 49.5465H238.289C239.345 49.5465 240.203 49.7265 240.863 50.0865C241.523 50.4345 242.015 50.9445 242.339 51.6165C242.675 52.2765 242.855 53.0745 242.879 54.0105C242.891 54.2505 242.897 54.4725 242.897 54.6765C242.897 54.8805 242.891 55.1085 242.879 55.3605C242.855 56.2845 242.675 57.0825 242.339 57.7545C242.015 58.4265 241.523 58.9425 240.863 59.3025C240.203 59.6505 239.345 59.8245 238.289 59.8245H235.625ZM252.502 59.8245C252.382 59.8245 252.28 59.7885 252.196 59.7165C252.124 59.6325 252.088 59.5305 252.088 59.4105V54.0285C252.088 53.0685 251.848 52.3245 251.368 51.7965C250.888 51.2565 250.114 50.9865 249.046 50.9865H245.662C245.542 50.9865 245.44 50.9505 245.356 50.8785C245.284 50.7945 245.248 50.6925 245.248 50.5725V49.9605C245.248 49.8405 245.284 49.7445 245.356 49.6725C245.44 49.5885 245.542 49.5465 245.662 49.5465H249.136C250.696 49.5465 251.848 49.9245 252.592 50.6805C253.348 51.4365 253.726 52.5345 253.726 53.9745V59.4105C253.726 59.5305 253.684 59.6325 253.6 59.7165C253.528 59.7885 253.432 59.8245 253.312 59.8245H252.502ZM245.662 59.8245C245.542 59.8245 245.44 59.7885 245.356 59.7165C245.284 59.6325 245.248 59.5305 245.248 59.4105V53.3985C245.248 53.2785 245.284 53.1825 245.356 53.1105C245.44 53.0265 245.542 52.9845 245.662 52.9845H246.472C246.604 52.9845 246.706 53.0265 246.778 53.1105C246.85 53.1825 246.886 53.2785 246.886 53.3985V59.4105C246.886 59.5305 246.85 59.6325 246.778 59.7165C246.706 59.7885 246.604 59.8245 246.472 59.8245H245.662ZM268.058 59.8245C267.938 59.8245 267.836 59.7885 267.752 59.7165C267.68 59.6325 267.644 59.5305 267.644 59.4105V54.0285C267.644 53.0685 267.404 52.3245 266.924 51.7965C266.444 51.2565 265.67 50.9865 264.602 50.9865H261.218C261.098 50.9865 260.996 50.9505 260.912 50.8785C260.84 50.7945 260.804 50.6925 260.804 50.5725V49.9605C260.804 49.8405 260.84 49.7445 260.912 49.6725C260.996 49.5885 261.098 49.5465 261.218 49.5465H264.692C266.252 49.5465 267.404 49.9245 268.148 50.6805C268.904 51.4365 269.282 52.5345 269.282 53.9745V59.4105C269.282 59.5305 269.24 59.6325 269.156 59.7165C269.084 59.7885 268.988 59.8245 268.868 59.8245H268.058ZM261.218 59.8245C261.098 59.8245 260.996 59.7885 260.912 59.7165C260.84 59.6325 260.804 59.5305 260.804 59.4105V53.3985C260.804 53.2785 260.84 53.1825 260.912 53.1105C260.996 53.0265 261.098 52.9845 261.218 52.9845H262.028C262.16 52.9845 262.262 53.0265 262.334 53.1105C262.406 53.1825 262.442 53.2785 262.442 53.3985V59.4105C262.442 59.5305 262.406 59.6325 262.334 59.7165C262.262 59.7885 262.16 59.8245 262.028 59.8245H261.218ZM277.359 59.8245C277.239 59.8245 277.137 59.7885 277.053 59.7165C276.981 59.6325 276.945 59.5305 276.945 59.4105V54.0285C276.945 53.0685 276.705 52.3245 276.225 51.7965C275.745 51.2565 274.971 50.9865 273.903 50.9865H271.545C271.425 50.9865 271.323 50.9505 271.239 50.8785C271.167 50.7945 271.131 50.6925 271.131 50.5725V49.9605C271.131 49.8405 271.167 49.7445 271.239 49.6725C271.323 49.5885 271.425 49.5465 271.545 49.5465H273.993C275.025 49.5465 275.877 49.7085 276.549 50.0325C277.233 50.3565 277.743 50.8485 278.079 51.5085C278.415 52.1565 278.583 52.9665 278.583 53.9385V59.4105C278.583 59.5305 278.541 59.6325 278.457 59.7165C278.385 59.7885 278.289 59.8245 278.169 59.8245H277.359ZM281.662 59.8245C281.542 59.8245 281.44 59.7885 281.356 59.7165C281.284 59.6325 281.248 59.5305 281.248 59.4105V49.9605C281.248 49.8405 281.284 49.7445 281.356 49.6725C281.44 49.5885 281.542 49.5465 281.662 49.5465H282.508C282.64 49.5465 282.742 49.5885 282.814 49.6725C282.886 49.7445 282.922 49.8405 282.922 49.9605V59.4105C282.922 59.5305 282.886 59.6325 282.814 59.7165C282.742 59.7885 282.64 59.8245 282.508 59.8245H281.662ZM285.731 59.8245C285.611 59.8245 285.509 59.7885 285.425 59.7165C285.353 59.6325 285.317 59.5305 285.317 59.4105V58.7805C285.317 58.6605 285.353 58.5645 285.425 58.4925C285.509 58.4085 285.611 58.3665 285.731 58.3665H290.609L284.975 50.2485C284.939 50.1765 284.909 50.1165 284.885 50.0685C284.861 50.0085 284.849 49.9545 284.849 49.9065C284.849 49.8105 284.885 49.7265 284.957 49.6545C285.041 49.5825 285.131 49.5465 285.227 49.5465H286.091C286.211 49.5465 286.307 49.5825 286.379 49.6545C286.463 49.7145 286.529 49.7805 286.577 49.8525L292.445 58.2585C292.505 58.3425 292.553 58.4325 292.589 58.5285C292.637 58.6125 292.661 58.7085 292.661 58.8165V59.4105C292.661 59.5305 292.619 59.6325 292.535 59.7165C292.463 59.7885 292.367 59.8245 292.247 59.8245H285.731ZM290.285 55.7205L289.493 54.5505C290.117 54.3225 290.567 53.9505 290.843 53.4345C291.131 52.9065 291.275 52.2645 291.275 51.5085V49.9605C291.275 49.8405 291.311 49.7445 291.383 49.6725C291.467 49.5885 291.569 49.5465 291.689 49.5465H292.427C292.559 49.5465 292.661 49.5885 292.733 49.6725C292.805 49.7445 292.841 49.8405 292.841 49.9605V51.7245C292.841 52.6965 292.625 53.5245 292.193 54.2085C291.761 54.8925 291.125 55.3965 290.285 55.7205ZM295.275 59.8245C295.155 59.8245 295.053 59.7885 294.969 59.7165C294.897 59.6325 294.861 59.5305 294.861 59.4105V58.7985C294.861 58.6785 294.897 58.5825 294.969 58.5105C295.053 58.4265 295.155 58.3845 295.275 58.3845H300.441V54.0285C300.441 53.0685 300.201 52.3245 299.721 51.7965C299.241 51.2565 298.467 50.9865 297.399 50.9865H295.455C295.335 50.9865 295.233 50.9505 295.149 50.8785C295.077 50.7945 295.041 50.6925 295.041 50.5725V49.9605C295.041 49.8405 295.077 49.7445 295.149 49.6725C295.233 49.5885 295.335 49.5465 295.455 49.5465H297.489C298.521 49.5465 299.379 49.7145 300.063 50.0505C300.747 50.3865 301.257 50.8845 301.593 51.5445C301.941 52.1925 302.115 53.0025 302.115 53.9745V58.3845H302.781C302.901 58.3845 302.997 58.4265 303.069 58.5105C303.153 58.5825 303.195 58.6785 303.195 58.7985V59.4105C303.195 59.5305 303.153 59.6325 303.069 59.7165C302.997 59.7885 302.901 59.8245 302.781 59.8245H295.275Z" fill="#2F4B6F"/>
<path d="M95.3767 84.8181C95.2447 84.8181 95.1367 84.7761 95.0527 84.6921C94.9687 84.6081 94.9267 84.5001 94.9267 84.3681V74.9901C94.9267 74.8581 94.9687 74.7501 95.0527 74.6661C95.1367 74.5821 95.2447 74.5401 95.3767 74.5401H99.4087C100.465 74.5401 101.353 74.6901 102.073 74.9901C102.793 75.2781 103.333 75.7461 103.693 76.3941C104.053 77.0301 104.233 77.8821 104.233 78.9501V84.3501C104.233 84.4701 104.191 84.5781 104.107 84.6741C104.023 84.7701 103.909 84.8181 103.765 84.8181H95.3767ZM97.5367 82.4601H101.443V79.0401C101.443 78.3441 101.269 77.8161 100.921 77.4561C100.585 77.0841 100.051 76.8981 99.3187 76.8981H97.5367V82.4601ZM106.065 80.5701C105.933 80.5701 105.825 80.5281 105.741 80.4441C105.657 80.3481 105.615 80.2401 105.615 80.1201V74.9901C105.615 74.8581 105.657 74.7501 105.741 74.6661C105.825 74.5821 105.933 74.5401 106.065 74.5401H108.189C108.321 74.5401 108.429 74.5821 108.513 74.6661C108.597 74.7501 108.639 74.8581 108.639 74.9901V80.1201C108.639 80.2401 108.597 80.3481 108.513 80.4441C108.429 80.5281 108.321 80.5701 108.189 80.5701H106.065ZM115.015 84.9981C113.311 84.9981 112.051 84.6021 111.235 83.8101C110.431 83.0061 110.029 81.9141 110.029 80.5341V74.9901C110.029 74.8581 110.071 74.7501 110.155 74.6661C110.251 74.5821 110.359 74.5401 110.479 74.5401H112.261C112.393 74.5401 112.501 74.5821 112.585 74.6661C112.669 74.7501 112.711 74.8581 112.711 74.9901V80.4441C112.711 81.1521 112.915 81.6801 113.323 82.0281C113.743 82.3641 114.301 82.5321 114.997 82.5321C115.693 82.5321 116.215 82.3641 116.563 82.0281C116.923 81.6921 117.109 81.1821 117.121 80.4981C117.121 80.3781 117.121 80.2341 117.121 80.0661C117.121 79.8981 117.121 79.7301 117.121 79.5621C117.121 79.3821 117.121 79.2321 117.121 79.1121C117.109 78.4161 116.983 77.8821 116.743 77.5101C116.515 77.1261 116.185 76.9341 115.753 76.9341C115.585 76.9341 115.399 76.9581 115.195 77.0061C115.003 77.0541 114.847 77.1141 114.727 77.1861C114.595 77.2341 114.469 77.2281 114.349 77.1681C114.229 77.0961 114.169 76.9821 114.169 76.8261V75.4761C114.169 75.3561 114.193 75.2361 114.241 75.1161C114.289 74.9961 114.379 74.9001 114.511 74.8281C114.679 74.7201 114.895 74.6361 115.159 74.5761C115.423 74.5041 115.789 74.4681 116.257 74.4681C117.145 74.4681 117.853 74.6241 118.381 74.9361C118.921 75.2481 119.317 75.7161 119.569 76.3401C119.821 76.9641 119.953 77.7441 119.965 78.6801C119.965 78.8001 119.965 78.9921 119.965 79.2561C119.965 79.5081 119.965 79.7661 119.965 80.0301C119.977 80.2821 119.977 80.4681 119.965 80.5881C119.917 81.5001 119.719 82.2861 119.371 82.9461C119.023 83.6061 118.489 84.1161 117.769 84.4761C117.061 84.8241 116.143 84.9981 115.015 84.9981ZM126.403 84.8181C126.271 84.8181 126.157 84.7761 126.061 84.6921C125.977 84.6081 125.935 84.5061 125.935 84.3861V79.0401C125.935 78.3441 125.767 77.8161 125.431 77.4561C125.095 77.0841 124.555 76.8981 123.811 76.8981H121.111C120.991 76.8981 120.883 76.8561 120.787 76.7721C120.703 76.6881 120.661 76.5801 120.661 76.4481V74.9901C120.661 74.8581 120.703 74.7501 120.787 74.6661C120.883 74.5821 120.991 74.5401 121.111 74.5401H123.919C124.999 74.5401 125.905 74.6841 126.637 74.9721C127.369 75.2601 127.921 75.7281 128.293 76.3761C128.677 77.0121 128.869 77.8641 128.869 78.9321V84.3681C128.869 84.5001 128.821 84.6081 128.725 84.6921C128.641 84.7761 128.533 84.8181 128.401 84.8181H126.403ZM132.573 77.0061V77.7261C132.585 77.9661 132.627 78.1701 132.699 78.3381C132.771 78.5061 132.885 78.6081 133.041 78.6441L133.545 78.8241C133.641 78.8601 133.713 78.9321 133.761 79.0401C133.821 79.1361 133.851 79.2501 133.851 79.3821L133.869 80.2461C133.869 80.4261 133.791 80.5641 133.635 80.6601C133.479 80.7561 133.287 80.7921 133.059 80.7681L132.321 80.6601C131.925 80.5881 131.565 80.4201 131.241 80.1561C130.917 79.8921 130.659 79.5381 130.467 79.0941C130.287 78.6381 130.197 78.1101 130.197 77.5101V74.9901C130.209 74.8581 130.251 74.7501 130.323 74.6661C130.407 74.5821 130.515 74.5401 130.647 74.5401H134.247C135.327 74.5401 136.209 74.7321 136.893 75.1161C137.577 75.4881 138.087 76.0221 138.423 76.7181C138.759 77.4021 138.945 78.2121 138.981 79.1481C138.993 79.3281 138.999 79.5081 138.999 79.6881C138.999 79.8561 138.993 80.0301 138.981 80.2101C138.945 81.1341 138.759 81.9441 138.423 82.6401C138.087 83.3361 137.577 83.8761 136.893 84.2601C136.209 84.6321 135.327 84.8181 134.247 84.8181H130.863C130.731 84.8181 130.623 84.7761 130.539 84.6921C130.455 84.6081 130.413 84.5001 130.413 84.3681V82.8021C130.413 82.6701 130.455 82.5621 130.539 82.4781C130.623 82.3941 130.731 82.3521 130.863 82.3521H134.157C134.781 82.3521 135.291 82.1661 135.687 81.7941C136.095 81.4221 136.317 80.8941 136.353 80.2101C136.365 80.0301 136.371 79.8561 136.371 79.6881C136.371 79.5081 136.365 79.3281 136.353 79.1481C136.329 78.4521 136.113 77.9241 135.705 77.5641C135.297 77.1921 134.781 77.0061 134.157 77.0061H132.573ZM143.839 87.0501C143.707 87.0501 143.599 87.0081 143.515 86.9241C143.431 86.8401 143.389 86.7321 143.389 86.6001V74.9901C143.389 74.8581 143.431 74.7501 143.515 74.6661C143.599 74.5821 143.707 74.5401 143.839 74.5401H145.855C145.987 74.5401 146.095 74.5821 146.179 74.6661C146.263 74.7501 146.305 74.8581 146.305 74.9901V86.6001C146.305 86.7321 146.263 86.8401 146.179 86.9241C146.095 87.0081 145.987 87.0501 145.855 87.0501H143.839ZM148.252 80.5701C148.12 80.5701 148.012 80.5281 147.928 80.4441C147.844 80.3481 147.802 80.2401 147.802 80.1201V74.9901C147.802 74.8581 147.844 74.7501 147.928 74.6661C148.012 74.5821 148.12 74.5401 148.252 74.5401H150.376C150.508 74.5401 150.616 74.5821 150.7 74.6661C150.784 74.7501 150.826 74.8581 150.826 74.9901V80.1201C150.826 80.2401 150.784 80.3481 150.7 80.4441C150.616 80.5281 150.508 80.5701 150.376 80.5701H148.252ZM153.764 84.8181C153.5 84.8181 153.368 84.6861 153.368 84.4221V78.8961C153.368 78.1281 153.446 77.5401 153.602 77.1321C153.77 76.7241 154.028 76.5201 154.376 76.5201H157.256C156.956 76.5201 156.71 76.7721 156.518 77.2761C156.338 77.7681 156.248 78.3741 156.248 79.0941V84.4221C156.248 84.5421 156.194 84.6381 156.086 84.7101C155.978 84.7821 155.864 84.8181 155.744 84.8181H153.764ZM152.36 76.8981C152.24 76.8981 152.132 76.8561 152.036 76.7721C151.952 76.6881 151.91 76.5801 151.91 76.4481V74.9901C151.91 74.8581 151.952 74.7501 152.036 74.6661C152.132 74.5821 152.24 74.5401 152.36 74.5401H157.562C157.694 74.5401 157.802 74.5821 157.886 74.6661C157.97 74.7501 158.012 74.8581 158.012 74.9901V76.4481C158.012 76.5681 157.97 76.6761 157.886 76.7721C157.814 76.8561 157.706 76.8981 157.562 76.8981H152.36ZM166.239 84.8181C166.107 84.8181 165.993 84.7761 165.897 84.6921C165.813 84.6081 165.771 84.5061 165.771 84.3861V79.0401C165.771 78.3441 165.603 77.8161 165.267 77.4561C164.931 77.0841 164.391 76.8981 163.647 76.8981H159.615C159.483 76.8981 159.375 76.8561 159.291 76.7721C159.207 76.6881 159.165 76.5801 159.165 76.4481V74.9901C159.165 74.8581 159.207 74.7501 159.291 74.6661C159.375 74.5821 159.483 74.5401 159.615 74.5401H163.737C165.357 74.5401 166.587 74.9061 167.427 75.6381C168.279 76.3581 168.705 77.4921 168.705 79.0401V84.3681C168.705 84.5001 168.657 84.6081 168.561 84.6921C168.477 84.7761 168.369 84.8181 168.237 84.8181H166.239ZM159.615 84.8181C159.483 84.8181 159.375 84.7761 159.291 84.6921C159.207 84.6081 159.165 84.5001 159.165 84.3681V79.0401C159.165 78.9201 159.207 78.8181 159.291 78.7341C159.375 78.6381 159.483 78.5901 159.615 78.5901H161.631C161.763 78.5901 161.871 78.6381 161.955 78.7341C162.039 78.8181 162.081 78.9201 162.081 79.0401V84.3681C162.081 84.5001 162.039 84.6081 161.955 84.6921C161.871 84.7761 161.763 84.8181 161.631 84.8181H159.615ZM172.32 85.0341C172.2 85.0701 172.086 85.0341 171.978 84.9261C171.882 84.8181 171.834 84.7041 171.834 84.5841V82.8561C171.834 82.7361 171.876 82.6221 171.96 82.5141C172.044 82.4061 172.152 82.3281 172.284 82.2801L172.86 82.0461C173.196 81.9021 173.502 81.7221 173.778 81.5061C174.066 81.2781 174.294 80.9781 174.462 80.6061C174.63 80.2341 174.714 79.7481 174.714 79.1481C174.714 78.6321 174.654 78.2181 174.534 77.9061C174.414 77.5941 174.21 77.3661 173.922 77.2221C173.646 77.0781 173.25 77.0061 172.734 77.0061H172.32C172.2 77.0061 172.092 76.9641 171.996 76.8801C171.912 76.7961 171.87 76.6881 171.87 76.5561V74.9721C171.87 74.8521 171.912 74.7501 171.996 74.6661C172.092 74.5821 172.2 74.5401 172.32 74.5401H173.328C174.408 74.5401 175.266 74.7141 175.902 75.0621C176.55 75.3981 177.012 75.9081 177.288 76.5921C177.576 77.2641 177.72 78.0921 177.72 79.0761C177.72 79.8921 177.588 80.6181 177.324 81.2541C177.072 81.8901 176.724 82.4481 176.28 82.9281C175.836 83.3961 175.338 83.7861 174.786 84.0981C174.234 84.4101 173.652 84.6501 173.04 84.8181L172.32 85.0341ZM172.95 77.0061H169.908C169.788 77.0061 169.68 76.9641 169.584 76.8801C169.5 76.7961 169.458 76.6881 169.458 76.5561V72.4881C169.458 72.3561 169.5 72.2481 169.584 72.1641C169.68 72.0801 169.788 72.0381 169.908 72.0381H171.744C171.876 72.0381 171.984 72.0801 172.068 72.1641C172.152 72.2481 172.194 72.3561 172.194 72.4881V74.5401H172.968L172.95 77.0061ZM189.133 84.8181C188.941 84.8181 188.797 84.7701 188.701 84.6741C188.605 84.5781 188.539 84.5061 188.503 84.4581L182.023 75.1881C181.963 75.1041 181.933 75.0141 181.933 74.9181C181.933 74.8221 181.969 74.7381 182.041 74.6661C182.125 74.5821 182.221 74.5401 182.329 74.5401H184.327C184.519 74.5401 184.663 74.5881 184.759 74.6841C184.855 74.7801 184.927 74.8581 184.975 74.9181L191.509 84.1701C191.557 84.2301 191.581 84.2841 191.581 84.3321C191.593 84.3681 191.599 84.4041 191.599 84.4401C191.599 84.5361 191.563 84.6261 191.491 84.7101C191.419 84.7821 191.329 84.8181 191.221 84.8181H189.133ZM182.311 84.8181C182.191 84.8181 182.083 84.7701 181.987 84.6741C181.903 84.5781 181.861 84.4701 181.861 84.3501V82.0641C181.861 81.3921 181.921 80.8041 182.041 80.3001C182.161 79.7841 182.377 79.3161 182.689 78.8961C183.001 78.4761 183.451 78.0621 184.039 77.6541L185.425 79.6701C185.125 79.8861 184.903 80.1381 184.759 80.4261C184.627 80.7021 184.543 80.9841 184.507 81.2721C184.471 81.5601 184.453 81.8181 184.453 82.0461V84.3501C184.453 84.4941 184.405 84.6081 184.309 84.6921C184.225 84.7761 184.123 84.8181 184.003 84.8181H182.311ZM188.989 81.3261L187.585 79.3281C187.969 79.1361 188.239 78.9261 188.395 78.6981C188.563 78.4581 188.665 78.2121 188.701 77.9601C188.737 77.7081 188.755 77.4681 188.755 77.2401V75.0081C188.755 74.8641 188.797 74.7501 188.881 74.6661C188.977 74.5821 189.085 74.5401 189.205 74.5401H191.005C191.125 74.5401 191.227 74.5881 191.311 74.6841C191.407 74.7801 191.455 74.8881 191.455 75.0081V77.3121C191.455 77.8041 191.389 78.2841 191.257 78.7521C191.125 79.2201 190.885 79.6701 190.537 80.1021C190.189 80.5341 189.673 80.9421 188.989 81.3261ZM193.341 84.8181C193.209 84.8181 193.101 84.7761 193.017 84.6921C192.933 84.6081 192.891 84.5001 192.891 84.3681V74.9901C192.891 74.8581 192.933 74.7501 193.017 74.6661C193.101 74.5821 193.209 74.5401 193.341 74.5401H195.465C195.597 74.5401 195.705 74.5821 195.789 74.6661C195.873 74.7501 195.915 74.8581 195.915 74.9901V84.3681C195.915 84.5001 195.873 84.6081 195.789 84.6921C195.705 84.7761 195.597 84.8181 195.465 84.8181H193.341ZM204.556 84.8181C204.424 84.8181 204.31 84.7761 204.214 84.6921C204.13 84.6081 204.088 84.5061 204.088 84.3861V79.0401C204.088 78.3441 203.92 77.8161 203.584 77.4561C203.248 77.0841 202.708 76.8981 201.964 76.8981H197.932C197.8 76.8981 197.692 76.8561 197.608 76.7721C197.524 76.6881 197.482 76.5801 197.482 76.4481V74.9901C197.482 74.8581 197.524 74.7501 197.608 74.6661C197.692 74.5821 197.8 74.5401 197.932 74.5401H202.054C203.674 74.5401 204.904 74.9061 205.744 75.6381C206.596 76.3581 207.022 77.4921 207.022 79.0401V84.3681C207.022 84.5001 206.974 84.6081 206.878 84.6921C206.794 84.7761 206.686 84.8181 206.554 84.8181H204.556ZM197.932 84.8181C197.8 84.8181 197.692 84.7761 197.608 84.6921C197.524 84.6081 197.482 84.5001 197.482 84.3681V79.0401C197.482 78.9201 197.524 78.8181 197.608 78.7341C197.692 78.6381 197.8 78.5901 197.932 78.5901H199.948C200.08 78.5901 200.188 78.6381 200.272 78.7341C200.356 78.8181 200.398 78.9201 200.398 79.0401V84.3681C200.398 84.5001 200.356 84.6081 200.272 84.6921C200.188 84.7761 200.08 84.8181 199.948 84.8181H197.932ZM216.237 79.0401C216.237 78.3441 216.063 77.8161 215.715 77.4561C215.367 77.0841 214.827 76.8981 214.095 76.8981H211.269C211.137 76.8981 211.029 76.8561 210.945 76.7721C210.861 76.6881 210.819 76.5801 210.819 76.4481V74.9901C210.819 74.8581 210.861 74.7501 210.945 74.6661C211.029 74.5821 211.137 74.5401 211.269 74.5401H214.203C215.283 74.5401 216.189 74.6841 216.921 74.9721C217.665 75.2601 218.223 75.7221 218.595 76.3581C218.967 76.9941 219.153 77.8521 219.153 78.9321V86.6001C219.153 86.7321 219.105 86.8401 219.009 86.9241C218.925 87.0081 218.823 87.0501 218.703 87.0501H216.687C216.555 87.0501 216.447 87.0081 216.363 86.9241C216.279 86.8401 216.237 86.7381 216.237 86.6181V79.0401ZM220.983 80.5701C220.851 80.5701 220.743 80.5281 220.659 80.4441C220.575 80.3481 220.533 80.2401 220.533 80.1201V74.9901C220.533 74.8581 220.575 74.7501 220.659 74.6661C220.743 74.5821 220.851 74.5401 220.983 74.5401H223.107C223.239 74.5401 223.347 74.5821 223.431 74.6661C223.515 74.7501 223.557 74.8581 223.557 74.9901V80.1201C223.557 80.2401 223.515 80.3481 223.431 80.4441C223.347 80.5281 223.239 80.5701 223.107 80.5701H220.983ZM230.437 84.8181C230.305 84.8181 230.191 84.7761 230.095 84.6921C230.011 84.6081 229.969 84.5061 229.969 84.3861V79.0401C229.969 78.3441 229.801 77.8161 229.465 77.4561C229.129 77.0841 228.589 76.8981 227.845 76.8981H225.145C225.025 76.8981 224.917 76.8561 224.821 76.7721C224.737 76.6881 224.695 76.5801 224.695 76.4481V74.9901C224.695 74.8581 224.737 74.7501 224.821 74.6661C224.917 74.5821 225.025 74.5401 225.145 74.5401H227.953C229.033 74.5401 229.939 74.6841 230.671 74.9721C231.403 75.2601 231.955 75.7281 232.327 76.3761C232.711 77.0121 232.903 77.8641 232.903 78.9321V84.3681C232.903 84.5001 232.855 84.6081 232.759 84.6921C232.675 84.7761 232.567 84.8181 232.435 84.8181H230.437ZM234.753 84.8181C234.621 84.8181 234.513 84.7761 234.429 84.6921C234.345 84.6081 234.303 84.5001 234.303 84.3681V82.8561C234.303 82.7241 234.345 82.6161 234.429 82.5321C234.513 82.4481 234.621 82.4061 234.753 82.4061H239.019L233.763 75.1881C233.739 75.1401 233.715 75.0921 233.691 75.0441C233.667 74.9961 233.655 74.9481 233.655 74.9001C233.655 74.7921 233.691 74.7081 233.763 74.6481C233.847 74.5761 233.943 74.5401 234.051 74.5401H236.157C236.325 74.5401 236.451 74.5821 236.535 74.6661C236.619 74.7381 236.685 74.8041 236.733 74.8641L242.187 82.3881C242.247 82.4721 242.301 82.5621 242.349 82.6581C242.409 82.7421 242.439 82.8501 242.439 82.9821V84.3681C242.439 84.5001 242.391 84.6081 242.295 84.6921C242.211 84.7761 242.109 84.8181 241.989 84.8181H234.753ZM240.495 80.5701L239.037 78.6081C239.469 78.3441 239.769 77.9961 239.937 77.5641C240.105 77.1321 240.189 76.6341 240.189 76.0701V75.0081C240.189 74.8641 240.231 74.7501 240.315 74.6661C240.411 74.5821 240.519 74.5401 240.639 74.5401H242.439C242.571 74.5401 242.679 74.5881 242.763 74.6841C242.847 74.7801 242.889 74.8881 242.889 75.0081V76.5921C242.889 77.4321 242.685 78.2001 242.277 78.8961C241.869 79.5921 241.275 80.1501 240.495 80.5701ZM249.999 82.6041C250.635 82.6161 251.199 82.4961 251.691 82.2441C252.183 81.9801 252.561 81.6201 252.825 81.1641C253.101 80.7081 253.239 80.1981 253.239 79.6341V74.9721C253.239 74.8521 253.281 74.7501 253.365 74.6661C253.461 74.5821 253.569 74.5401 253.689 74.5401H255.489C255.621 74.5401 255.729 74.5821 255.813 74.6661C255.897 74.7501 255.939 74.8581 255.939 74.9901V79.7421C255.939 80.5461 255.801 81.2721 255.525 81.9201C255.249 82.5681 254.859 83.1201 254.355 83.5761C253.863 84.0321 253.293 84.3801 252.645 84.6201C251.997 84.8601 251.295 84.9741 250.539 84.9621H248.847C247.875 84.9621 247.035 84.7761 246.327 84.4041C245.631 84.0201 245.097 83.5101 244.725 82.8741C244.353 82.2381 244.167 81.5361 244.167 80.7681V74.9901C244.167 74.8581 244.209 74.7501 244.293 74.6661C244.389 74.5821 244.497 74.5401 244.617 74.5401H246.417C246.537 74.5401 246.639 74.5821 246.723 74.6661C246.819 74.7501 246.867 74.8521 246.867 74.9721L246.885 79.4721C246.885 80.4801 247.137 81.2541 247.641 81.7941C248.157 82.3341 248.799 82.6041 249.567 82.6041H249.999ZM246.579 81.3801V79.4001C247.143 79.3881 247.581 79.2741 247.893 79.0581C248.205 78.8421 248.427 78.5421 248.559 78.1581C248.691 77.7621 248.757 77.2881 248.757 76.7361V75.0081C248.757 74.8641 248.799 74.7501 248.883 74.6661C248.967 74.5821 249.075 74.5401 249.207 74.5401H250.989C251.109 74.5401 251.211 74.5881 251.295 74.6841C251.391 74.7801 251.439 74.8881 251.439 75.0081V76.7721C251.439 77.7441 251.247 78.5781 250.863 79.2741C250.491 79.9581 249.939 80.4861 249.207 80.8581C248.487 81.2181 247.611 81.3921 246.579 81.3801ZM267.596 84.8181C267.464 84.8181 267.35 84.7761 267.254 84.6921C267.17 84.6081 267.128 84.5061 267.128 84.3861V79.0401C267.128 78.3441 266.96 77.8161 266.624 77.4561C266.288 77.0841 265.748 76.8981 265.004 76.8981H260.972C260.84 76.8981 260.732 76.8561 260.648 76.7721C260.564 76.6881 260.522 76.5801 260.522 76.4481V74.9901C260.522 74.8581 260.564 74.7501 260.648 74.6661C260.732 74.5821 260.84 74.5401 260.972 74.5401H265.094C266.714 74.5401 267.944 74.9061 268.784 75.6381C269.636 76.3581 270.062 77.4921 270.062 79.0401V84.3681C270.062 84.5001 270.014 84.6081 269.918 84.6921C269.834 84.7761 269.726 84.8181 269.594 84.8181H267.596ZM260.972 84.8181C260.84 84.8181 260.732 84.7761 260.648 84.6921C260.564 84.6081 260.522 84.5001 260.522 84.3681V79.0401C260.522 78.9201 260.564 78.8181 260.648 78.7341C260.732 78.6381 260.84 78.5901 260.972 78.5901H262.988C263.12 78.5901 263.228 78.6381 263.312 78.7341C263.396 78.8181 263.438 78.9201 263.438 79.0401V84.3681C263.438 84.5001 263.396 84.6081 263.312 84.6921C263.228 84.7761 263.12 84.8181 262.988 84.8181H260.972ZM276.947 77.0061H271.709C271.577 77.0061 271.469 76.9641 271.385 76.8801C271.301 76.7961 271.259 76.6881 271.259 76.5561V74.9901C271.259 74.8581 271.301 74.7501 271.385 74.6661C271.469 74.5821 271.577 74.5401 271.709 74.5401H277.379C278.183 74.5401 278.897 74.6961 279.521 75.0081C280.157 75.3201 280.655 75.8001 281.015 76.4481C281.375 77.0961 281.555 77.9241 281.555 78.9321V84.3681C281.555 84.5001 281.513 84.6081 281.429 84.6921C281.345 84.7761 281.237 84.8181 281.105 84.8181H276.227C276.107 84.8181 275.999 84.7761 275.903 84.6921C275.819 84.6081 275.777 84.5001 275.777 84.3681V82.9101C275.777 82.7781 275.819 82.6701 275.903 82.5861C275.999 82.5021 276.107 82.4601 276.227 82.4601H278.639V79.0761C278.639 78.6321 278.567 78.2541 278.423 77.9421C278.279 77.6301 278.075 77.3961 277.811 77.2401C277.559 77.0841 277.271 77.0061 276.947 77.0061ZM271.565 84.8181C271.445 84.8181 271.337 84.7761 271.241 84.6921C271.145 84.5961 271.109 84.4881 271.133 84.3681L273.041 76.3401C273.065 76.2201 273.119 76.1181 273.203 76.0341C273.287 75.9501 273.389 75.9141 273.509 75.9261L275.201 75.9441C275.333 75.9441 275.447 75.9981 275.543 76.1061C275.639 76.2141 275.669 76.3341 275.633 76.4661L273.995 84.3681C273.983 84.4881 273.929 84.5961 273.833 84.6921C273.749 84.7761 273.641 84.8181 273.509 84.8181H271.565ZM288.272 85.0341C288.152 85.0701 288.038 85.0341 287.93 84.9261C287.834 84.8181 287.786 84.7041 287.786 84.5841V82.8561C287.786 82.7361 287.828 82.6221 287.912 82.5141C287.996 82.4061 288.104 82.3281 288.236 82.2801L288.812 82.0461C289.148 81.9021 289.454 81.7221 289.73 81.5061C290.018 81.2781 290.246 80.9781 290.414 80.6061C290.582 80.2341 290.666 79.7481 290.666 79.1481C290.666 78.6321 290.606 78.2181 290.486 77.9061C290.366 77.5941 290.162 77.3661 289.874 77.2221C289.598 77.0781 289.202 77.0061 288.686 77.0061H288.272C288.152 77.0061 288.044 76.9641 287.948 76.8801C287.864 76.7961 287.822 76.6881 287.822 76.5561V74.9721C287.822 74.8521 287.864 74.7501 287.948 74.6661C288.044 74.5821 288.152 74.5401 288.272 74.5401H289.28C290.36 74.5401 291.218 74.7141 291.854 75.0621C292.502 75.3981 292.964 75.9081 293.24 76.5921C293.528 77.2641 293.672 78.0921 293.672 79.0761C293.672 79.8921 293.54 80.6181 293.276 81.2541C293.024 81.8901 292.676 82.4481 292.232 82.9281C291.788 83.3961 291.29 83.7861 290.738 84.0981C290.186 84.4101 289.604 84.6501 288.992 84.8181L288.272 85.0341ZM288.902 77.0061H285.86C285.74 77.0061 285.632 76.9641 285.536 76.8801C285.452 76.7961 285.41 76.6881 285.41 76.5561V72.4881C285.41 72.3561 285.452 72.2481 285.536 72.1641C285.632 72.0801 285.74 72.0381 285.86 72.0381H287.696C287.828 72.0381 287.936 72.0801 288.02 72.1641C288.104 72.2481 288.146 72.3561 288.146 72.4881V74.5401H288.92L288.902 77.0061ZM295.223 84.8181C295.091 84.8181 294.977 84.7761 294.881 84.6921C294.797 84.6081 294.755 84.5001 294.755 84.3681V82.8021C294.755 82.6701 294.797 82.5621 294.881 82.4781C294.977 82.3941 295.091 82.3521 295.223 82.3521H297.833C298.565 82.3521 299.111 82.1661 299.471 81.7941C299.831 81.4221 300.029 80.8941 300.065 80.2101C300.077 79.9941 300.083 79.8141 300.083 79.6701C300.083 79.5261 300.077 79.3521 300.065 79.1481C300.029 78.4521 299.831 77.9241 299.471 77.5641C299.111 77.1921 298.565 77.0061 297.833 77.0061H295.223C295.091 77.0061 294.977 76.9641 294.881 76.8801C294.797 76.7961 294.755 76.6881 294.755 76.5561V74.9901C294.755 74.8581 294.797 74.7501 294.881 74.6661C294.977 74.5821 295.091 74.5401 295.223 74.5401H297.923C299.075 74.5401 300.005 74.7321 300.713 75.1161C301.421 75.4881 301.943 76.0221 302.279 76.7181C302.627 77.4021 302.825 78.2121 302.873 79.1481C302.885 79.3521 302.891 79.5261 302.891 79.6701C302.891 79.8141 302.885 79.9941 302.873 80.2101C302.825 81.1341 302.627 81.9441 302.279 82.6401C301.943 83.3361 301.421 83.8761 300.713 84.2601C300.005 84.6321 299.075 84.8181 297.923 84.8181H295.223Z" fill="#2F4B6F"/>
</svg>
