<svg width="723" height="404" viewBox="0 0 723 404" fill="none" xmlns="http://www.w3.org/2000/svg">
<path d="M93.4524 359.952C162.492 447.24 347.608 378.569 414.664 371.397C481.721 364.224 678.945 300.667 590.364 108.137C501.783 -84.394 279.716 31.7619 220.843 71.1668C165.666 108.092 -6.46433 233.634 93.4942 359.952H93.4524Z" fill="#F49DC3" fill-opacity="0.24"/>
<path d="M541.561 282.868C541.561 282.868 469.327 347.82 486.905 380.163C504.484 412.506 541.561 393.091 541.561 393.091L574.171 291.436L541.561 282.868Z" fill="#6D94E4"/>
<path d="M677.023 395.172H629.758V367.744H677.023V395.172Z" fill="#F3AE9D"/>
<path d="M620.6 250.636L559.744 288.026C498.825 342.551 507.114 385.609 507.114 385.609C507.464 388.179 508.288 390.651 509.54 392.883C510.791 395.115 512.445 397.064 514.407 398.618C516.369 400.173 518.601 401.302 520.975 401.941C523.348 402.58 525.817 402.718 528.241 402.345L647.03 396.965L644.024 358.756L579.828 355.723C598.179 348.241 635.82 330.951 640.684 313.219C647.135 289.665 620.6 250.57 620.6 250.57V250.636Z" fill="#6D94E4"/>
<path d="M655.406 368.054L660.834 360.306C663.193 356.786 669.185 356.387 673.047 357.693C677.891 359.287 681.398 363.427 690.542 369.338C707.932 380.606 721.356 389.261 722.797 393.025C722.971 393.472 723.035 393.959 722.983 394.44C722.931 394.921 722.765 395.379 722.5 395.773C722.235 396.167 721.88 396.483 721.468 396.692C721.056 396.9 720.601 396.994 720.145 396.965L673.11 395.659C673.11 395.659 677.807 382.487 670.793 376.975C665.917 373.553 660.769 370.59 655.406 368.12V368.054Z" fill="#F3C2D5"/>
<path d="M476.961 189.027L469.028 267.505L458.38 299.118L449.821 320.569C447.62 322.256 445.659 324.269 443.996 326.546C438.318 334.316 436.919 343.503 440.364 348.396C440.092 351.362 440.802 353.775 442.222 354.129C443.307 354.395 444.539 353.377 445.499 351.606C445.892 351.677 446.29 351.714 446.689 351.716L445.04 354.152C444.831 354.462 444.682 354.814 444.601 355.186C444.521 355.558 444.51 355.943 444.57 356.32C444.63 356.696 444.76 357.056 444.952 357.379C445.143 357.702 445.393 357.982 445.687 358.203C446.152 358.549 446.706 358.735 447.274 358.734C447.708 358.733 448.135 358.623 448.52 358.411C448.905 358.199 449.237 357.892 449.487 357.516L455.228 348.971C456.271 348.319 457.262 347.579 458.192 346.758L461.22 345.784C461.094 346.758 460.948 347.754 460.802 348.772C460.614 350.123 460.426 351.517 460.259 353C460.062 354.758 460.062 356.534 460.259 358.291C460.385 359.374 460.91 360.36 461.72 361.033C462.531 361.705 463.559 362.009 464.581 361.878C465.496 361.768 466.344 361.315 466.971 360.6C467.599 359.886 467.966 358.957 468.005 357.981V357.162C468.086 356.209 468.226 355.263 468.422 354.329C468.652 353.111 468.944 351.805 469.257 350.499C469.968 347.666 470.519 344.79 470.906 341.887V340.537C470.906 340.05 470.906 339.342 470.906 339.054L470.781 337.017L470.572 332.922L470.113 324.731C470.079 324.042 469.924 323.366 469.654 322.738L489.988 274.39C490.336 273.536 490.568 272.634 490.677 271.711V271.313L498.735 191.617L477.002 189.138L476.961 189.027Z" fill="#F3AE9D"/>
<path d="M506.387 209.084H472.984V175.479C472.984 170.782 474.744 166.277 477.876 162.956C481.008 159.635 485.256 157.769 489.686 157.769C494.115 157.769 498.363 159.635 501.496 162.956C504.628 166.277 506.387 170.782 506.387 175.479V209.084Z" fill="#D3C5F2"/>
<path d="M517.992 302.637H480.727V263.122H517.992V302.637Z" fill="#FA7EB4"/>
<path d="M521.241 133.727H546.293C558.611 133.727 590.865 217.142 601.241 228.742C604.969 232.956 609.346 236.467 614.185 239.124C616.519 240.358 618.487 242.251 619.872 244.595C621.257 246.938 622.005 249.641 622.035 252.407V252.805C622.035 252.805 578.193 305.692 538.527 285.525L514.748 233.723L493.871 216.522C491.913 214.914 490.32 212.859 489.21 210.51C488.101 208.161 487.504 205.578 487.462 202.952L486.836 159.717L499.362 148.781L521.262 133.683L521.241 133.727Z" fill="#D3C5F2"/>
<path d="M591.056 224.713L590.91 224.315L565.419 153.629L545.127 161.909L567.841 224.868L522.893 264.716L522.058 265.092H520.409C518.697 265.269 510.617 267.97 510.095 268.103C509.073 268.302 508.008 268.479 506.839 268.656C504.605 268.966 502.288 269.188 500.033 269.32C499.684 269.337 499.343 269.428 499.028 269.587C498.713 269.746 498.431 269.971 498.2 270.247C497.968 270.524 497.791 270.847 497.679 271.197C497.568 271.547 497.523 271.918 497.548 272.287C497.579 272.949 497.832 273.578 498.26 274.06C498.689 274.543 499.265 274.848 499.887 274.921C502.329 275.231 504.688 275.475 507.11 275.607C507.34 275.607 507.548 276.006 507.778 276.692L507.924 277.268L502.392 281.031L502.872 280.81L493.457 284.861C493.212 284.961 492.988 285.112 492.799 285.305C492.61 285.498 492.459 285.73 492.356 285.986C492.253 286.241 492.199 286.517 492.198 286.795C492.197 287.073 492.249 287.349 492.35 287.606C492.518 288.062 492.832 288.44 493.236 288.675C493.641 288.91 494.111 288.986 494.563 288.89L499.386 287.916L493.436 290.484C493.193 290.586 492.971 290.739 492.784 290.933C492.597 291.127 492.449 291.358 492.348 291.614C492.247 291.87 492.195 292.144 492.195 292.422C492.196 292.699 492.248 292.974 492.35 293.229C492.538 293.678 492.862 294.048 493.27 294.28C493.678 294.513 494.148 294.595 494.605 294.513L497.444 293.871C497.201 294.171 497.037 294.534 496.971 294.923C496.905 295.313 496.939 295.714 497.068 296.085C497.235 296.518 497.527 296.884 497.902 297.131C498.277 297.378 498.716 297.492 499.156 297.457L501.118 297.28C501.112 297.581 501.154 297.88 501.244 298.166C501.4 298.611 501.687 298.992 502.063 299.251C502.439 299.51 502.884 299.634 503.331 299.605L510.075 299.073L510.743 298.83L517.465 296.771C518.069 296.594 518.622 296.259 519.073 295.797C522.726 293.547 525.971 290.623 528.655 287.163C530.018 285.439 531.26 283.612 532.371 281.695L535.795 276.803L587.632 237.509C589.433 236.057 590.741 234.025 591.359 231.717C591.976 229.409 591.87 226.951 591.056 224.713Z" fill="#F3AE9D"/>
<path d="M580.367 172.513L550.659 188.673L536.192 158.787C535.191 156.718 534.584 154.459 534.406 152.14C534.229 149.822 534.484 147.489 535.156 145.275C535.829 143.061 536.906 141.009 538.327 139.237C539.748 137.464 541.484 136.006 543.436 134.945C545.392 133.87 547.529 133.216 549.724 133.02C551.92 132.824 554.13 133.091 556.228 133.805C558.325 134.519 560.269 135.666 561.947 137.18C563.625 138.694 565.004 140.545 566.004 142.627L580.451 172.513H580.367Z" fill="#D3C5F2"/>
<path d="M512.355 115.53L489.703 125.935L500.956 148.825L504.693 156.419L508.513 166.624L521.248 133.75L512.355 115.53Z" fill="#F3AE9D"/>
<path d="M514.86 121.618C514.129 134.192 508.993 144.619 500.935 148.825L489.703 125.913L512.334 115.508L514.86 121.618Z" fill="#232E62"/>
<path d="M466.571 116.327C474.275 136.694 491.227 148.648 504.442 143.047C517.657 137.447 522.125 116.482 514.442 96.0272C506.759 75.5721 489.786 63.7063 476.571 69.3071C463.356 74.9079 458.889 95.9829 466.571 116.327Z" fill="#F3AE9D"/>
<path d="M487.821 119.316C487.466 125.138 484.94 129.721 482.163 129.544C479.386 129.367 477.445 124.474 477.8 118.63L487.821 119.316Z" fill="#F3AE9D"/>
<path d="M482.335 130.739H482.105C480.978 130.619 479.942 130.029 479.224 129.101C477.234 126.059 476.365 122.349 476.782 118.674C476.803 118.388 476.928 118.122 477.131 117.932C477.333 117.742 477.597 117.643 477.867 117.656C478.004 117.664 478.137 117.701 478.26 117.765C478.382 117.829 478.491 117.918 478.581 118.027C478.67 118.137 478.738 118.264 478.781 118.402C478.823 118.539 478.839 118.685 478.828 118.829C478.472 121.931 479.16 125.066 480.769 127.684C481.127 128.176 481.651 128.502 482.231 128.592C484.172 128.769 486.406 124.961 486.803 119.382C486.824 119.097 486.949 118.831 487.152 118.641C487.354 118.451 487.618 118.352 487.888 118.364C488.023 118.372 488.154 118.409 488.275 118.471C488.396 118.534 488.505 118.621 488.594 118.728C488.683 118.835 488.752 118.96 488.795 119.095C488.839 119.23 488.857 119.373 488.849 119.515C488.452 125.891 485.613 130.761 482.335 130.761V130.739Z" fill="#232E62"/>
<path d="M540.246 83.3644C538.501 80.5941 536.486 78.0266 534.233 75.7048C514.087 51.9733 493.085 58.2825 493.085 58.2825C493.085 58.2825 485.674 53.855 475.402 59.3894C461.916 66.6727 454.296 81.7041 458.158 92.0423C455.173 102.137 446.655 134.989 459.348 144.353C466.404 149.578 480.455 147.563 493.398 143.955C482.96 141.741 472.229 131.314 466.571 116.327C464.399 110.629 463.156 104.58 462.897 98.4401C469.16 103.244 479.891 103.288 490.162 97.7538C493.298 96.082 496.206 93.967 498.805 91.4668C498.805 91.4668 511.519 104.174 512.187 104.639L516.363 101.982C518.488 109.583 518.783 117.629 517.219 125.382L521.582 134.237C529.453 128.149 554.714 106.078 540.371 83.3201L540.246 83.3644Z" fill="#2F4B6F"/>
<path d="M526.504 101.429C527.094 102.745 527.432 104.172 527.5 105.627C527.569 107.083 527.365 108.538 526.901 109.91C526.438 111.282 525.723 112.544 524.799 113.622C523.875 114.7 522.758 115.575 521.515 116.194C520.272 116.827 518.924 117.193 517.548 117.27C516.172 117.348 514.795 117.135 513.496 116.645C512.198 116.156 511.003 115.398 509.983 114.416C508.962 113.435 508.134 112.248 507.548 110.926C506.962 109.61 506.626 108.185 506.559 106.732C506.493 105.279 506.697 103.826 507.16 102.457C507.624 101.088 508.337 99.8286 509.26 98.7519C510.183 97.6752 511.296 96.8019 512.538 96.182C513.776 95.5554 515.12 95.194 516.491 95.1186C517.861 95.0432 519.233 95.2553 520.526 95.7426C521.82 96.2299 523.01 96.983 524.028 97.9587C525.047 98.9344 525.874 100.113 526.462 101.429H526.504Z" fill="#F3AE9D"/>
<path d="M521.354 108.978C521.515 108.926 521.659 108.825 521.767 108.687C521.875 108.55 521.941 108.381 521.959 108.203C521.989 107.959 521.926 107.713 521.786 107.518C521.645 107.323 521.437 107.195 521.208 107.162L515.905 106.388L518.89 102.181C518.96 102.084 519.012 101.973 519.041 101.855C519.071 101.736 519.078 101.613 519.063 101.492C519.047 101.37 519.009 101.253 518.951 101.148C518.893 101.042 518.815 100.949 518.723 100.875C518.633 100.798 518.528 100.741 518.416 100.708C518.304 100.675 518.187 100.666 518.071 100.683C517.956 100.699 517.845 100.741 517.746 100.804C517.646 100.868 517.559 100.952 517.491 101.052L513.587 106.543C513.486 106.669 513.421 106.824 513.399 106.988C513.377 107.153 513.399 107.321 513.462 107.472C513.525 107.624 513.622 107.757 513.747 107.858C513.871 107.959 514.017 108.024 514.172 108.048L520.957 108.978C521.08 109.011 521.209 109.011 521.333 108.978H521.354Z" fill="#232E62"/>
<path d="M429.953 358.845H392.688V319.329H429.953V358.845Z" fill="#BE9CFD"/>
<path d="M414.919 398.227H377.633V358.689H414.919V398.227Z" fill="#AEECFA"/>
<path d="M288.97 240.632C288.97 240.632 289.137 250.195 281.601 254.269C274.064 258.342 257.154 266.312 265.755 282.561C274.356 298.81 298.97 302.484 298.97 302.484L312.478 246.543L288.97 240.61V240.632Z" fill="#2F4B6F"/>
<path d="M366.339 364.138L365.901 363.673L338.907 331.308L325.003 346.649L336.694 358.581L319.45 357.12L313.625 377.686L357.466 381.87C359.097 382.223 360.784 382.136 362.375 381.618C363.965 381.1 365.407 380.166 366.569 378.903C368.378 376.906 369.366 374.23 369.315 371.461C369.264 368.692 368.179 366.058 366.297 364.138H366.339Z" fill="#F3AE9D"/>
<path d="M331.718 379.302L330.925 378.173L305.726 343.018L286.311 361.016L298.628 374.033L283.117 371.509L270.945 376.136L274.515 387.448L322.532 395.794C325.134 396.187 327.776 395.47 329.881 393.802C331.938 392.138 333.288 389.677 333.637 386.959C333.985 384.241 333.303 381.487 331.739 379.302H331.718Z" fill="#F3AE9D"/>
<path d="M286.06 371.952L283.095 365.709C282.236 364.731 281.109 364.063 279.873 363.801C278.636 363.539 277.354 363.695 276.206 364.248C273.283 365.687 262.719 371.089 256.018 379.922C253.74 382.698 251.989 385.916 250.861 389.397C250.793 389.692 250.796 390 250.87 390.294C250.944 390.588 251.086 390.857 251.283 391.077C251.481 391.298 251.727 391.462 252 391.555C252.273 391.648 252.563 391.667 252.845 391.61L276.623 387.869C276.623 387.869 272.657 379.966 276.623 375.871C279.734 372.705 286.018 371.908 286.018 371.908L286.06 371.952Z" fill="white"/>
<path d="M298.783 374.343C298.783 374.343 307.51 363.784 324.441 368.72C341.372 373.657 344.045 361.459 352.333 359.644C354.751 359.248 357.221 359.403 359.579 360.097C361.937 360.792 364.128 362.011 366.007 363.673L353.168 345.476L334.566 325.795L333.251 279.948C333.164 276.652 331.859 273.524 329.617 271.239C327.376 268.953 324.377 267.692 321.268 267.729L296.216 267.972C293.452 268.001 290.803 269.142 288.803 271.164C286.803 273.186 285.602 275.938 285.443 278.864C284.921 288.604 284.065 302.905 283.001 313.088C281.205 329.957 272.854 347.645 279.723 359.688C284.066 366.997 290.901 372.246 298.804 374.343H298.783Z" fill="#D5BEFF"/>
<path d="M301.477 267.446L303.836 254.827L321.435 259.698L319.494 271.076C319.065 273.57 317.733 275.787 315.781 277.252C313.83 278.717 311.416 279.313 309.055 278.913C307.843 278.703 306.682 278.237 305.643 277.542C304.604 276.847 303.707 275.938 303.006 274.868C302.305 273.798 301.814 272.59 301.562 271.315C301.31 270.04 301.302 268.724 301.54 267.446H301.477Z" fill="#F3AE9D"/>
<path d="M318.263 274.921C314.717 273.271 311.558 270.813 309.011 267.721C306.463 264.63 304.59 260.981 303.523 257.034L303.774 255.639V255.329L321.373 260.2L319.432 271.578C319.219 272.764 318.802 273.897 318.2 274.921H318.263Z" fill="#232E62"/>
<path d="M296.859 245.074C299.781 259.884 311.055 269.912 322.015 267.455C332.976 264.998 339.51 251.051 336.629 236.241C333.748 221.431 322.433 211.403 311.452 213.838C300.47 216.273 293.957 230.264 296.838 245.074H296.859Z" fill="#F3AE9D"/>
<path d="M338.014 231.844C340.666 227.305 336.845 219.69 329.476 214.842C323.213 210.702 316.428 209.905 312.899 212.495C308.501 212.349 304.14 213.392 300.227 215.528C286.678 223.298 282.19 253.45 304.298 260.556C300.78 256.501 298.306 251.553 297.117 246.189C301.605 246.432 307.826 242.78 312.858 236.492C314.609 234.298 316.096 231.882 317.284 229.298C318.098 229.962 318.954 230.604 319.851 231.202C325.864 235.164 332.378 236.072 336.031 233.836C336.24 234.611 336.428 235.386 336.595 236.205C337.257 239.573 337.44 243.028 337.138 246.454C338.044 244.25 338.554 241.885 338.641 239.481C338.911 236.951 338.654 234.389 337.889 231.976L338.014 231.821V231.844Z" fill="#2F4B6F"/>
<path d="M294.293 245.965C293.655 247.935 293.78 250.093 294.641 251.965C295.502 253.837 297.029 255.27 298.886 255.949C300.746 256.627 302.784 256.495 304.553 255.582C306.322 254.669 307.678 253.05 308.322 251.079C308.641 250.102 308.774 249.069 308.714 248.037C308.655 247.006 308.403 245.997 307.974 245.069C307.545 244.141 306.948 243.312 306.216 242.63C305.484 241.948 304.632 241.426 303.709 241.095C302.789 240.757 301.815 240.614 300.844 240.676C299.872 240.738 298.921 241.003 298.046 241.455C297.172 241.908 296.39 242.539 295.746 243.313C295.101 244.087 294.608 244.988 294.293 245.965Z" fill="#F3AE9D"/>
<path d="M298.362 250.946C298.498 250.99 298.643 250.99 298.779 250.946L303.477 249.728C303.604 249.701 303.722 249.637 303.818 249.544C303.914 249.45 303.984 249.33 304.019 249.197C304.062 249.064 304.07 248.921 304.04 248.784C304.011 248.648 303.946 248.522 303.852 248.422L300.7 244.858C300.63 244.784 300.547 244.725 300.456 244.685C300.364 244.644 300.266 244.624 300.168 244.624C300.069 244.624 299.971 244.644 299.879 244.685C299.788 244.725 299.705 244.784 299.635 244.858C299.566 244.93 299.511 245.016 299.473 245.111C299.435 245.206 299.416 245.309 299.416 245.412C299.416 245.515 299.435 245.617 299.473 245.712C299.511 245.807 299.566 245.893 299.635 245.965L301.911 248.533L298.445 249.441C298.256 249.493 298.093 249.622 297.991 249.8C297.89 249.977 297.858 250.19 297.902 250.393C297.93 250.521 297.988 250.64 298.073 250.737C298.157 250.835 298.264 250.907 298.383 250.946H298.362Z" fill="#232E62"/>
<path d="M321.875 252.496C323.483 254.488 325.508 255.462 326.405 254.709C327.303 253.957 326.698 251.632 325.09 249.618L321.875 252.496Z" fill="#F3AE9D"/>
<path d="M325.588 254.999C325.03 254.985 324.481 254.842 323.981 254.579C322.873 253.986 321.892 253.157 321.1 252.144C320.923 251.926 320.835 251.643 320.854 251.357C320.874 251.071 321 250.804 321.204 250.616C321.415 250.43 321.687 250.34 321.961 250.365C322.234 250.389 322.487 250.528 322.665 250.749C324.127 252.586 325.505 252.963 325.734 252.786C325.964 252.609 325.734 251.103 324.315 249.244C324.125 249.04 324.018 248.766 324.018 248.48C324.018 248.194 324.125 247.919 324.315 247.716C324.526 247.53 324.798 247.44 325.071 247.464C325.345 247.489 325.598 247.627 325.776 247.849C327.864 250.417 328.344 253.206 326.945 254.49C326.543 254.867 326.02 255.065 325.484 255.044L325.588 254.999Z" fill="#232E62"/>
<path d="M315.037 341.735L309.212 339.255L309.526 339.388L304.578 336.023L304.098 335.78C304.223 335.337 304.369 335.115 304.494 335.093C305.997 335.093 307.459 334.872 308.962 334.673C309.345 334.631 309.701 334.445 309.965 334.148C310.229 333.851 310.385 333.464 310.402 333.057C310.417 332.83 310.388 332.602 310.319 332.387C310.25 332.172 310.142 331.973 310 331.802C309.859 331.632 309.687 331.492 309.494 331.392C309.302 331.292 309.092 331.233 308.878 331.219C307.501 331.219 306.06 330.998 304.703 330.799C304.014 330.688 301.488 329.957 301.405 329.891C299.744 329.338 298.049 328.909 296.331 328.607H296.081L279.212 312.69L281.676 308.484C285.851 301.378 286.707 294.294 287.104 284.708V273.484L264.703 312.911L264.578 313.376C264.251 314.713 264.305 316.121 264.733 317.425C265.16 318.729 265.941 319.87 266.979 320.704L288.711 338.259L289.129 338.857C289.816 340.036 290.584 341.161 291.425 342.222C293.082 344.356 295.082 346.162 297.334 347.557C297.619 347.836 297.962 348.04 298.336 348.154L302.511 349.416L302.908 349.571L307.083 349.881C307.35 349.905 307.617 349.833 307.84 349.677C308.064 349.52 308.231 349.288 308.315 349.018C308.343 348.842 308.343 348.662 308.315 348.486H309.254C309.525 348.518 309.798 348.453 310.029 348.3C310.26 348.148 310.436 347.917 310.528 347.645C310.608 347.411 310.623 347.157 310.571 346.914C310.519 346.67 310.403 346.448 310.235 346.273L312.323 346.738C312.607 346.792 312.9 346.743 313.154 346.599C313.408 346.454 313.608 346.222 313.722 345.941C313.839 345.617 313.833 345.258 313.704 344.94C313.576 344.621 313.335 344.369 313.033 344.236L311.676 343.661L314.515 344.236C314.797 344.298 315.09 344.252 315.342 344.106C315.595 343.96 315.79 343.724 315.893 343.439C316.012 343.119 316.009 342.762 315.884 342.444C315.759 342.126 315.523 341.871 315.225 341.735H315.037Z" fill="#F3AE9D"/>
<path d="M353.628 341.447C353.354 340.395 353.005 339.366 352.584 338.37L351.812 336.023L350.622 309.325C350.786 308.061 350.59 306.773 350.058 305.628L349.849 305.141L330.33 272.245C327.532 285.527 327.991 294.736 334.651 306.602L336.739 310.343L343.44 337.705H343.336L343.461 338.082C343.315 338.325 343.169 338.547 343.044 338.79C342.626 339.565 340.956 345.011 340.664 345.542C340.142 346.583 339.599 347.623 339.035 348.619C338.945 348.771 338.885 348.94 338.859 349.117C338.832 349.294 338.84 349.474 338.881 349.648C338.922 349.822 338.995 349.985 339.097 350.128C339.199 350.271 339.327 350.39 339.474 350.479C339.731 350.646 340.036 350.712 340.334 350.663C340.632 350.614 340.904 350.455 341.102 350.213C341.874 349.261 342.626 348.332 343.357 347.335C343.357 347.335 343.607 347.335 343.941 347.335C343.931 347.475 343.931 347.616 343.941 347.756L343.795 352.648V352.383L342.71 357.496C342.659 357.766 342.71 358.046 342.85 358.277C342.99 358.508 343.209 358.673 343.461 358.736C343.679 358.786 343.907 358.753 344.105 358.644C344.303 358.535 344.46 358.356 344.547 358.138L345.465 355.925L345.215 357.12C345.165 357.387 345.216 357.664 345.356 357.891C345.497 358.119 345.716 358.279 345.966 358.338C346.188 358.389 346.418 358.357 346.62 358.248C346.822 358.139 346.982 357.96 347.073 357.74L347.699 356.102C347.737 356.294 347.822 356.471 347.947 356.615C348.072 356.759 348.232 356.865 348.409 356.921C348.617 356.973 348.837 356.952 349.033 356.86C349.229 356.768 349.391 356.611 349.495 356.412L349.87 355.725C349.977 355.813 350.097 355.88 350.225 355.925C350.432 355.986 350.653 355.974 350.852 355.89C351.052 355.806 351.221 355.655 351.332 355.46L352.981 352.449V352.117L354.046 348.686C354.129 348.374 354.129 348.045 354.046 347.734C354.205 345.564 353.992 343.382 353.419 341.292L353.628 341.447Z" fill="#F3AE9D"/>
<path d="M311.312 298.185C311.041 298.185 310.78 298.071 310.589 297.867C310.397 297.664 310.289 297.388 310.289 297.1V280.475C310.289 280.187 310.397 279.912 310.589 279.708C310.78 279.505 311.041 279.39 311.312 279.39C311.583 279.39 311.844 279.505 312.035 279.708C312.227 279.912 312.335 280.187 312.335 280.475V297.1C312.335 297.388 312.227 297.664 312.035 297.867C311.844 298.071 311.583 298.185 311.312 298.185Z" fill="white"/>
<path d="M308.116 284.243C308.116 284.889 307.874 285.508 307.444 285.965C307.013 286.422 306.429 286.678 305.82 286.678C305.211 286.678 304.627 286.422 304.196 285.965C303.765 285.508 303.523 284.889 303.523 284.243C303.523 283.597 303.765 282.978 304.196 282.521C304.627 282.065 305.211 281.808 305.82 281.808C306.429 281.808 307.013 282.065 307.444 282.521C307.874 282.978 308.116 283.597 308.116 284.243Z" fill="white"/>
<path d="M308.195 293.629C308.195 294.275 307.953 294.895 307.522 295.351C307.091 295.808 306.507 296.065 305.898 296.065C305.289 296.065 304.705 295.808 304.274 295.351C303.843 294.895 303.602 294.275 303.602 293.629C303.602 292.984 303.843 292.364 304.274 291.908C304.705 291.451 305.289 291.194 305.898 291.194C306.507 291.194 307.091 291.451 307.522 291.908C307.953 292.364 308.195 292.984 308.195 293.629Z" fill="white"/>
<path d="M36.5055 391.01C36.5055 391.01 36.2759 380.097 33.374 377.728C30.4721 375.359 6.65159 388.044 3.35304 391.188C0.0544928 394.331 0.555564 396.567 1.16099 396.899C1.36976 397.01 12.0169 396.501 24.6892 396.412C27.4032 396.412 32.4555 396.168 37.0693 395.925L36.5055 391.099V391.01Z" fill="#6D94E4"/>
<path d="M102.774 383.506L102.419 382.222L88.1602 330.154L61.1873 340.448L75.3209 375.204L36.1142 379.632C33.4827 379.923 30.9726 380.956 28.8436 382.622C26.7147 384.287 25.0444 386.526 24.0056 389.107C23.7072 389.845 23.5849 390.651 23.6497 391.451C23.7145 392.252 23.9643 393.024 24.3771 393.698C24.7898 394.372 25.3528 394.927 26.0163 395.316C26.6797 395.704 27.4232 395.914 28.181 395.925L91.9598 398.139C93.1718 398.209 94.3862 398.06 95.5506 397.696C98.2829 396.853 100.588 394.894 101.958 392.25C103.328 389.605 103.652 386.492 102.858 383.594L102.774 383.506Z" fill="#F3AE9D"/>
<path d="M160.87 305.316L159.764 304.873L111.538 285.791L103.188 314.879L142.54 324.775L125.839 385.675L140.933 391.099L167.092 319.971C167.095 319.919 167.095 319.868 167.092 319.816C167.579 318.428 167.804 316.951 167.754 315.471C167.703 313.991 167.377 312.536 166.795 311.189C166.214 309.842 165.387 308.63 164.363 307.622C163.34 306.615 162.138 305.831 160.829 305.316H160.87Z" fill="#F3AE9D"/>
<path d="M127.315 379.942C127.315 379.942 123.014 390.767 124.789 394.575C126.563 398.382 161.344 398.759 165.833 397.231C170.321 395.704 170.76 393.291 170.3 392.671C169.229 392.238 168.083 392.057 166.939 392.139C165.499 392.099 164.081 391.761 162.764 391.143L144.956 382.974L144.246 379.942C141.225 381.674 137.825 382.529 134.392 382.421C128.651 382.222 127.231 379.942 127.231 379.942H127.315Z" fill="#6D94E4"/>
<path d="M111.974 285.126L53.1637 296.616L49.9696 307.685C47.8596 315.063 48.1985 322.986 50.9299 330.132L57.7358 346.248L93.9154 342.086H94.5625L92.6627 325.417C92.5155 324.096 92.8057 322.763 93.4836 321.644C94.1615 320.525 95.1849 319.691 96.3788 319.285L102.642 317.071C103.561 316.762 104.54 316.716 105.481 316.938L128.446 322.605L139.615 296.04L111.995 285.126H111.974Z" fill="#D7C9EC"/>
<path d="M171.223 199.786L155.712 223.584L124.146 202.664L112.977 223.894L153.791 245.235L154.584 245.655C156.583 246.685 158.877 246.872 161 246.177C163.124 245.483 164.92 243.959 166.025 241.914L184.146 208.442L171.202 199.786H171.223Z" fill="#6D94E4"/>
<path d="M137.866 299.959H114.859V216.876H137.866V299.959Z" fill="#6D94E4"/>
<path d="M60.1641 289.775C80.0389 304.873 106.198 308.658 117.722 287.384L130.018 223.185C130.673 219.853 130.607 216.408 129.826 213.106C129.045 209.805 127.569 206.735 125.509 204.125L110.415 198.878L101.124 201.358L60.2058 289.775H60.1641Z" fill="white"/>
<path d="M39.4531 296.04L75.2152 315.721L119.057 217.673C119.057 217.673 105.612 206.605 106.155 198.015L96.7602 204.28C96.7602 204.28 86.0086 210.257 82.7727 217.961C79.5367 225.665 39.4949 296.04 39.4949 296.04H39.4531Z" fill="#6D94E4"/>
<path d="M185.773 236.778H148.508V197.24H185.773V236.778Z" fill="#F49DC3"/>
<path d="M169.549 210.102C169.544 209.818 169.452 209.543 169.286 209.319C169.12 209.095 168.89 208.935 168.63 208.862C168.457 208.831 168.281 208.831 168.108 208.862V206.427C168.109 206.142 168.022 205.864 167.86 205.636C167.698 205.408 167.47 205.243 167.211 205.166C167.03 205.107 166.838 205.096 166.652 205.134C166.466 205.173 166.292 205.26 166.146 205.387V204.767C166.189 204.464 166.128 204.155 165.975 203.895C165.822 203.635 165.586 203.442 165.311 203.35C165.001 203.246 164.664 203.275 164.375 203.433C164.085 203.591 163.866 203.863 163.766 204.191L163.119 206.405L163.348 204.413C163.376 204.115 163.306 203.816 163.15 203.566C162.994 203.316 162.762 203.13 162.492 203.04C162.198 202.944 161.881 202.968 161.603 203.107C161.325 203.247 161.106 203.491 160.989 203.793L159.068 210.124V209.792L156.793 214.22H156.375C155.958 214.22 155.728 213.976 155.707 213.843C155.519 212.272 155.269 210.722 154.977 209.15C154.903 208.752 154.7 208.394 154.402 208.139C154.104 207.884 153.731 207.748 153.348 207.756C153.133 207.752 152.919 207.796 152.72 207.883C152.521 207.971 152.34 208.1 152.19 208.264C152.039 208.427 151.922 208.622 151.845 208.835C151.768 209.048 151.732 209.276 151.741 209.504C151.741 210.966 151.741 212.493 151.741 213.932C151.741 214.685 151.177 217.408 151.135 217.496C150.74 219.289 150.461 221.109 150.3 222.942C150.3 223.318 150.3 223.65 150.3 224.027L149.945 224.359L156.856 233.214L160.446 229.915C161.507 229.108 162.505 228.212 163.432 227.237C165.319 225.331 166.868 223.082 168.004 220.595C168.251 220.276 168.416 219.895 168.484 219.489L169.382 215.061L169.486 214.618V210.191L169.549 210.102Z" fill="#F3AE9D"/>
<path d="M150.117 220.595L126.694 243.176L100.556 215.127L85.0859 233.059L120.159 263.808L120.806 264.384C122.531 265.877 124.723 266.625 126.945 266.477C129.167 266.329 131.255 265.297 132.79 263.587L160.806 232.196L150.117 220.595Z" fill="#6D94E4"/>
<path d="M126.695 244.26C126.42 244.256 126.157 244.137 125.964 243.928L107.906 224.536C107.716 224.333 107.609 224.058 107.609 223.772C107.609 223.486 107.716 223.211 107.906 223.008C107.998 222.903 108.109 222.819 108.233 222.761C108.357 222.704 108.491 222.674 108.626 222.674C108.761 222.674 108.895 222.704 109.019 222.761C109.143 222.819 109.255 222.903 109.346 223.008L127.426 242.401C127.617 242.608 127.724 242.886 127.724 243.176C127.724 243.465 127.617 243.743 127.426 243.95C127.227 244.147 126.967 244.258 126.695 244.26Z" fill="#F3C2D5"/>
<path d="M126.378 267.571C124.097 267.583 121.883 266.753 120.115 265.225L93.2676 241.648C93.1633 241.558 93.0768 241.447 93.013 241.322C92.9492 241.196 92.9094 241.058 92.8958 240.916C92.8823 240.775 92.8952 240.631 92.9339 240.495C92.9727 240.358 93.0364 240.231 93.1214 240.121C93.2967 239.896 93.5484 239.754 93.8221 239.724C94.0957 239.695 94.3691 239.782 94.5829 239.966L121.472 263.564C122.995 264.875 124.927 265.529 126.885 265.398C128.842 265.267 130.681 264.359 132.036 262.856C132.129 262.753 132.241 262.672 132.365 262.616C132.489 262.561 132.622 262.532 132.756 262.532C132.891 262.532 133.024 262.561 133.147 262.616C133.271 262.672 133.383 262.753 133.476 262.856C133.573 262.955 133.65 263.074 133.702 263.205C133.755 263.336 133.782 263.477 133.782 263.62C133.782 263.762 133.755 263.903 133.702 264.034C133.65 264.166 133.573 264.284 133.476 264.383C132.557 265.412 131.45 266.231 130.223 266.79C128.995 267.35 127.673 267.638 126.337 267.638L126.378 267.571Z" fill="#F3C2D5"/>
<path d="M91.0344 259.735C91.0344 261.005 90.56 262.223 89.7149 263.124C88.8698 264.024 87.7229 264.533 86.525 264.538C85.3271 264.533 84.1802 264.024 83.3351 263.124C82.49 262.223 82.0156 261.005 82.0156 259.735C82.0156 258.466 82.4907 257.25 83.3364 256.353C84.182 255.457 85.329 254.953 86.525 254.953C87.1172 254.953 87.7036 255.077 88.2507 255.317C88.7978 255.557 89.2949 255.909 89.7137 256.353C90.1324 256.797 90.4646 257.325 90.6912 257.905C90.9178 258.485 91.0344 259.107 91.0344 259.735Z" fill="#F3C2D5"/>
<path d="M82.0189 279.415C82.0189 280.685 81.5444 281.904 80.6994 282.804C79.8543 283.704 78.7073 284.213 77.5095 284.219C76.9155 284.219 76.3274 284.094 75.7789 283.853C75.2305 283.611 74.7324 283.257 74.3134 282.81C73.8944 282.364 73.5627 281.834 73.3373 281.251C73.1119 280.669 72.9973 280.045 73 279.415C73 278.15 73.4722 276.938 74.3134 276.041C75.1546 275.145 76.2962 274.639 77.4886 274.633C78.6845 274.633 79.8315 275.137 80.6772 276.034C81.5229 276.93 81.998 278.147 81.998 279.415H82.0189Z" fill="#F3C2D5"/>
<path d="M110.363 198.879L114.309 185.773L132.451 193.211L129.09 205.055C128.345 207.665 126.662 209.861 124.406 211.17C122.149 212.478 119.498 212.794 117.023 212.051C115.747 211.67 114.556 211.019 113.524 210.137C112.491 209.255 111.638 208.16 111.016 206.919C110.393 205.677 110.014 204.315 109.902 202.914C109.79 201.513 109.947 200.103 110.363 198.768V198.879Z" fill="#F3AE9D"/>
<path d="M127.406 208.442C123.827 206.233 120.75 203.215 118.394 199.603C116.038 195.992 114.461 191.875 113.773 187.544L114.212 186.105L114.316 185.773L132.458 193.211L129.097 205.055C128.728 206.282 128.156 207.429 127.406 208.442Z" fill="#2F4B6F"/>
<path d="M107.948 175.014C109.367 191.13 120.202 203.24 132.144 202.044C144.085 200.849 152.603 186.836 151.184 170.72C149.764 154.603 138.929 142.516 126.987 143.69C115.046 144.863 106.507 158.898 107.948 175.014Z" fill="#F3AE9D"/>
<path d="M153.188 166.314C156.529 161.886 153.335 153.253 146.048 147.143C142.36 143.8 137.74 141.833 132.896 141.542C132.207 134.325 129.869 119.892 122.207 116.77C113.856 113.383 109.055 121.198 107.593 124.319C104.879 122.769 100.412 120.954 96.9252 123.301C87.969 129.322 94.42 160.293 89.7644 161.422C85.1089 162.551 89.7644 162.374 89.7644 162.374C93.3825 163.841 97.361 163.973 101.059 162.75C98.324 173.819 101.226 186.592 114.149 192.525C110.872 187.759 108.808 182.178 108.157 176.32C112.896 177.161 119.932 174.106 125.986 168.019C128.099 165.917 129.957 163.545 131.518 160.957C132.309 161.797 133.146 162.588 134.023 163.325C139.952 168.329 146.779 170.122 150.913 168.196C151.038 169.037 151.163 169.9 151.247 170.786C151.541 174.425 151.309 178.091 150.558 181.655C151.783 179.433 152.598 176.984 152.959 174.439C153.508 171.784 153.508 169.035 152.959 166.38C153.002 166.323 153.051 166.271 153.105 166.225L153.188 166.314Z" fill="#2F4B6F"/>
<path d="M103.479 171.14C102.493 173.105 102.279 175.405 102.886 177.536C103.492 179.668 104.868 181.459 106.715 182.519C108.576 183.559 110.75 183.775 112.761 183.12C114.772 182.464 116.457 180.99 117.445 179.021C118.427 177.047 118.63 174.742 118.012 172.609C117.394 170.476 116.004 168.69 114.147 167.642C112.286 166.602 110.111 166.385 108.1 167.041C106.089 167.697 104.405 169.17 103.416 171.14H103.479Z" fill="#F3AE9D"/>
<path d="M107.005 177.228C107.147 177.274 107.3 177.274 107.443 177.228L112.6 176.763C112.74 176.757 112.876 176.707 112.991 176.621C113.106 176.534 113.195 176.415 113.247 176.276C113.318 176.149 113.356 176.003 113.356 175.855C113.356 175.707 113.318 175.562 113.247 175.435L110.47 171.14C110.411 171.048 110.336 170.969 110.249 170.909C110.161 170.848 110.063 170.806 109.96 170.785C109.857 170.765 109.752 170.766 109.649 170.789C109.547 170.812 109.45 170.856 109.364 170.919C109.277 170.981 109.203 171.061 109.145 171.153C109.088 171.246 109.048 171.35 109.029 171.459C109.009 171.568 109.011 171.68 109.032 171.789C109.054 171.898 109.096 172.001 109.155 172.092L111.243 175.213L107.443 175.545C107.234 175.568 107.042 175.675 106.906 175.844C106.77 176.013 106.7 176.231 106.712 176.453C106.721 176.598 106.766 176.739 106.844 176.859C106.921 176.98 107.027 177.077 107.151 177.139L107.005 177.228Z" fill="#232E62"/>
<path d="M138.969 186.769C141.056 188.518 143.353 189.116 144.125 188.075C144.898 187.035 143.875 184.799 141.808 183.028L138.969 186.769Z" fill="#F3AE9D"/>
<path d="M142.915 189.691C142.542 189.678 142.172 189.626 141.808 189.537C140.535 189.168 139.353 188.511 138.343 187.611C138.237 187.522 138.149 187.412 138.083 187.288C138.017 187.163 137.975 187.026 137.96 186.884C137.944 186.742 137.956 186.598 137.993 186.46C138.03 186.323 138.092 186.195 138.176 186.083C138.261 185.972 138.365 185.881 138.484 185.813C138.602 185.745 138.732 185.703 138.866 185.689C139 185.674 139.135 185.688 139.263 185.729C139.392 185.77 139.512 185.838 139.616 185.928C140.394 186.612 141.296 187.117 142.268 187.411C142.936 187.588 143.27 187.411 143.332 187.411C143.395 187.411 143.332 186.946 143.124 186.304C142.632 185.36 141.964 184.531 141.161 183.869C140.952 183.687 140.818 183.426 140.787 183.141C140.756 182.856 140.83 182.57 140.994 182.342C141.169 182.117 141.421 181.975 141.695 181.946C141.968 181.917 142.242 182.003 142.456 182.187C143.491 183.044 144.344 184.123 144.961 185.352C145.28 185.856 145.451 186.45 145.451 187.057C145.451 187.664 145.28 188.258 144.961 188.762C144.707 189.081 144.386 189.332 144.023 189.493C143.66 189.655 143.266 189.723 142.873 189.691H142.915Z" fill="#232E62"/>
<path d="M120.761 143.8L111.533 148.228C110.765 148.58 109.898 148.599 109.117 148.28C108.336 147.961 107.705 147.33 107.358 146.523C107.031 145.708 107.016 144.79 107.316 143.964C107.616 143.138 108.208 142.468 108.965 142.095L118.193 137.668C118.964 137.323 119.832 137.31 120.611 137.633C121.391 137.955 122.021 138.587 122.368 139.395C122.695 140.209 122.71 141.127 122.41 141.954C122.11 142.78 121.519 143.45 120.761 143.822V143.8Z" fill="#F49DC3"/>
<path d="M199.656 276.271H162.391V236.756H199.656V276.271Z" fill="#94C0F9"/>
<path d="M206.719 316.328H162.719V276.035H206.719V316.328Z" fill="#BE9CFD"/>
<path d="M228.719 397.976H205.402V345.243C205.402 341.135 200.743 337.685 195.211 337.685H178.227C172.719 337.685 168.036 341.135 168.036 345.243V397.976H144.719V345.243C144.719 329.292 159.762 316.328 178.227 316.328H195.211C213.7 316.328 228.719 329.292 228.719 345.243V397.976Z" fill="#FA7EB4"/>
</svg>
