<svg width="317" height="51" viewBox="0 0 317 51" fill="none" xmlns="http://www.w3.org/2000/svg">
<path d="M240.845 14.5153C240.682 14.9983 240.424 15.3474 240.07 15.5626C239.716 15.773 239.159 15.8782 238.399 15.8782H238.32V14.6587H238.442C238.772 14.6587 239.035 14.5966 239.231 14.4722C239.422 14.3479 239.559 14.159 239.64 13.9056C239.721 13.6473 239.762 13.2576 239.762 12.7363V8.29617H238.399V7.07674H243.155C244.475 7.07674 245.421 7.35888 245.995 7.92317C246.569 8.48267 246.856 9.41518 246.856 10.7207V15.8782H245.536V10.7063C245.536 9.82644 245.357 9.20477 244.998 8.84133C244.644 8.47789 244.025 8.29617 243.14 8.29617H241.082V12.4709C241.082 13.3508 241.003 14.0323 240.845 14.5153ZM250.446 7.07674V15.8782H249.126V7.07674H250.446ZM258.204 10.7207V15.8782H256.877V10.7063C256.877 9.836 256.7 9.21672 256.346 8.8485C255.997 8.48028 255.382 8.29617 254.502 8.29617H251.812V7.07674H254.517C255.396 7.07674 256.107 7.20107 256.647 7.44974C257.187 7.69363 257.582 8.08337 257.831 8.61896C258.079 9.14977 258.204 9.85035 258.204 10.7207ZM261.786 7.07674V11.7034H260.466V7.07674H261.786ZM270.72 14.9887C270.39 15.2087 269.979 15.388 269.486 15.5267C268.999 15.6654 268.387 15.7682 267.65 15.8351C266.914 15.9021 266.003 15.9403 264.917 15.9499L263.239 7.07674H264.609L265.491 11.603L266.015 11.5026C266.302 11.4356 266.538 11.3495 266.725 11.2443C266.911 11.1343 267.06 10.9813 267.17 10.7852C267.26 10.6322 267.33 10.4433 267.378 10.2186C267.425 9.99381 267.461 9.72601 267.485 9.41518L267.665 7.07674H269.027L268.805 9.42952C268.772 9.82644 268.731 10.1707 268.683 10.4625C268.635 10.7494 268.578 10.9813 268.511 11.1583C268.391 11.5169 268.212 11.7943 267.973 11.9903C267.734 12.1816 267.337 12.3514 266.782 12.4996L265.706 12.7507L266.058 14.6014H266.23C267.191 14.6014 267.961 14.5464 268.54 14.4364C269.118 14.3216 269.575 14.1447 269.91 13.9056C270.134 13.743 270.323 13.5421 270.476 13.303C270.629 13.0639 270.759 12.7483 270.864 12.3562C270.969 11.964 271.057 11.4595 271.129 10.8426L271.581 7.07674H272.965L272.506 10.7924C272.411 11.6245 272.286 12.3107 272.133 12.8511C271.98 13.3867 271.789 13.8219 271.56 14.1566C271.335 14.4866 271.055 14.7639 270.72 14.9887ZM281.584 10.7207V15.8782H280.257V10.7063C280.257 9.82644 280.077 9.20477 279.719 8.84133C279.365 8.47789 278.75 8.29617 277.875 8.29617H274.533V7.07674H277.897C278.777 7.07674 279.487 7.20107 280.027 7.44974C280.568 7.69363 280.962 8.08337 281.211 8.61896C281.459 9.14977 281.584 9.85035 281.584 10.7207ZM275.996 10.1612V15.8782H274.676V10.1612H275.996ZM288.757 7.07674V18.6398H287.437V7.07674H288.757ZM296.658 10.9861C296.658 10.0823 296.459 9.408 296.062 8.96327C295.665 8.51854 295.041 8.29617 294.19 8.29617H292.21V10.7781H293.953V11.9975H290.869V7.07674H294.204C295.486 7.07674 296.438 7.39714 297.059 8.03794C297.686 8.67395 297.999 9.66624 297.999 11.0148V11.603C297.999 14.4531 296.65 15.8782 293.953 15.8782H290.948V14.6587H293.989C294.898 14.6587 295.57 14.4077 296.005 13.9056C296.44 13.3987 296.658 12.6359 296.658 11.6173V10.9861ZM301.216 7.07674V15.8782H299.896V7.07674H301.216ZM304.741 12.9874L304.167 15.8782H302.776L303.378 13.0161C303.551 12.1936 303.708 11.6149 303.852 11.2802C303.995 10.9407 304.175 10.6657 304.39 10.4553C304.61 10.2449 304.904 10.0655 305.272 9.9173L303.199 7.07674H304.827L308.062 11.5313C308.421 11.1965 308.706 10.7924 308.916 10.319C309.131 9.84078 309.272 9.29323 309.339 8.67634L309.504 7.07674H310.867L310.702 8.64765C310.65 9.17368 310.554 9.63515 310.415 10.0321C310.32 10.3046 310.205 10.5653 310.071 10.8139C309.937 11.0578 309.765 11.3113 309.554 11.5743C309.349 11.8373 309.081 12.1314 308.751 12.4566L311.341 15.8782H309.662L305.875 10.735C305.492 10.9215 305.219 11.2443 305.057 11.7034C305.009 11.823 304.959 11.9903 304.906 12.2055C304.858 12.4207 304.803 12.6813 304.741 12.9874Z" fill="#2F2424"/>
<path d="M13.6497 10.7207V15.8782H12.3227V10.7063C12.3227 9.836 12.1457 9.21672 11.7919 8.8485C11.4428 8.48028 10.8283 8.29617 9.94835 8.29617H7.25843V7.07674H9.9627C10.8426 7.07674 11.5527 7.20107 12.0931 7.44974C12.6335 7.69363 13.028 8.08337 13.2767 8.61896C13.5254 9.14977 13.6497 9.85035 13.6497 10.7207ZM17.627 14.5153C17.4644 14.9983 17.2062 15.3474 16.8523 15.5626C16.4984 15.773 15.9413 15.8782 15.181 15.8782H15.1021V14.6587H15.224C15.554 14.6587 15.817 14.5966 16.013 14.4722C16.2043 14.3479 16.3406 14.159 16.4219 13.9056C16.5032 13.6473 16.5439 13.2576 16.5439 12.7363V8.29617H15.181V7.07674H19.9367C21.2566 7.07674 22.2035 7.35888 22.7773 7.92317C23.3512 8.48267 23.6381 9.41518 23.6381 10.7207V15.8782H22.3182V10.7063C22.3182 9.82644 22.1389 9.20477 21.7802 8.84133C21.4264 8.47789 20.8071 8.29617 19.9224 8.29617H17.8637V12.4709C17.8637 13.3508 17.7848 14.0323 17.627 14.5153ZM27.0989 12.9874L26.5251 15.8782H25.1335L25.736 13.0161C25.9082 12.1936 26.066 11.6149 26.2095 11.2802C26.3529 10.9407 26.5322 10.6657 26.7474 10.4553C26.9674 10.2449 27.2615 10.0655 27.6297 9.9173L25.5567 7.07674H27.185L30.4201 11.5313C30.7787 11.1965 31.0633 10.7924 31.2737 10.319C31.4889 9.84078 31.63 9.29323 31.6969 8.67634L31.8619 7.07674H33.2248L33.0598 8.64765C33.0072 9.17368 32.9116 9.63515 32.7729 10.0321C32.6772 10.3046 32.5625 10.5653 32.4286 10.8139C32.2947 11.0578 32.1225 11.3113 31.9121 11.5743C31.7065 11.8373 31.4387 12.1314 31.1087 12.4566L33.6982 15.8782H32.0197L28.2323 10.735C27.8497 10.9215 27.5771 11.2443 27.4145 11.7034C27.3667 11.823 27.3165 11.9903 27.2639 12.2055C27.2161 12.4207 27.1611 12.6813 27.0989 12.9874ZM41.9937 14.6587V15.8782H34.3113V14.6587H39.7199V10.7063C39.7199 9.82644 39.5405 9.20477 39.1819 8.84133C38.828 8.47789 38.2135 8.29617 37.3384 8.29617H34.6484V7.07674H37.3527C38.6726 7.07674 39.617 7.35888 40.1861 7.92317C40.7552 8.48745 41.0397 9.41996 41.0397 10.7207V14.6587H41.9937ZM53.8003 14.9887C53.4704 15.2087 53.0591 15.388 52.5665 15.5267C52.0788 15.6654 51.4667 15.7682 50.7302 15.8351C49.9938 15.9021 49.0828 15.9403 47.9973 15.9499L46.3187 7.07674H47.6888L48.5711 11.603L49.0947 11.5026C49.3817 11.4356 49.6184 11.3495 49.8049 11.2443C49.9914 11.1343 50.1396 10.9813 50.2496 10.7852C50.3405 10.6322 50.4098 10.4433 50.4576 10.2186C50.5055 9.99381 50.5413 9.72601 50.5652 9.41518L50.7446 7.07674H52.1075L51.8851 9.42952C51.8516 9.82644 51.811 10.1707 51.7631 10.4625C51.7153 10.7494 51.6579 10.9813 51.591 11.1583C51.4714 11.5169 51.2921 11.7943 51.053 11.9903C50.8139 12.1816 50.417 12.3514 49.8623 12.4996L48.7863 12.7507L49.1378 14.6014H49.3099C50.2711 14.6014 51.0411 14.5464 51.6197 14.4364C52.1983 14.3216 52.655 14.1447 52.9898 13.9056C53.2145 13.743 53.4034 13.5421 53.5564 13.303C53.7095 13.0639 53.8386 12.7483 53.9438 12.3562C54.049 11.964 54.1375 11.4595 54.2092 10.8426L54.6611 7.07674H56.0455L55.5864 10.7924C55.4908 11.6245 55.3665 12.3107 55.2134 12.8511C55.0604 13.3867 54.8691 13.8219 54.6396 14.1566C54.4148 14.4866 54.1351 14.7639 53.8003 14.9887ZM59.0903 7.07674V15.8782H57.7704V7.07674H59.0903ZM65.7575 6.93327C66.9148 6.93327 67.7588 7.28715 68.2897 7.9949C68.8252 8.69786 69.093 9.81687 69.093 11.3519V15.8782H64.7748V14.6587H67.7588V11.5169C67.7588 10.3453 67.6082 9.49408 67.3069 8.96327C67.0057 8.43246 66.494 8.16705 65.7719 8.16705C65.1263 8.16705 64.5955 8.45876 64.1794 9.04217C63.7586 9.63515 63.3737 10.6657 63.0246 12.1338L62.1279 15.8782H60.7076L61.6904 12.0262C61.8004 11.5767 61.9127 11.1702 62.0275 10.8068C62.1423 10.4433 62.2547 10.1205 62.3646 9.83839L60.5714 7.07674H62.1279L63.0246 8.53288C63.3976 7.9686 63.7969 7.56212 64.2225 7.31345C64.6481 7.06 65.1598 6.93327 65.7575 6.93327ZM72.3817 7.07674V11.7034H71.0619V7.07674H72.3817ZM81.6169 14.9887C81.287 15.2087 80.8757 15.388 80.3832 15.5267C79.8954 15.6654 79.2833 15.7682 78.5468 15.8351C77.8104 15.9021 76.8994 15.9403 75.8139 15.9499L74.1354 7.07674H75.5054L76.3877 11.603L76.9114 11.5026C77.1983 11.4356 77.435 11.3495 77.6215 11.2443C77.808 11.1343 77.9562 10.9813 78.0662 10.7852C78.1571 10.6322 78.2264 10.4433 78.2743 10.2186C78.3221 9.99381 78.3579 9.72601 78.3819 9.41518L78.5612 7.07674H79.9241L79.7017 9.42952C79.6682 9.82644 79.6276 10.1707 79.5798 10.4625C79.5319 10.7494 79.4746 10.9813 79.4076 11.1583C79.2881 11.5169 79.1087 11.7943 78.8696 11.9903C78.6305 12.1816 78.2336 12.3514 77.6789 12.4996L76.6029 12.7507L76.9544 14.6014H77.1266C78.0878 14.6014 78.8577 14.5464 79.4363 14.4364C80.0149 14.3216 80.4716 14.1447 80.8064 13.9056C81.0311 13.743 81.22 13.5421 81.373 13.303C81.5261 13.0639 81.6552 12.7483 81.7604 12.3562C81.8656 11.964 81.9541 11.4595 82.0258 10.8426L82.4777 7.07674H83.8621L83.403 10.7924C83.3074 11.6245 83.1831 12.3107 83.03 12.8511C82.877 13.3867 82.6857 13.8219 82.4562 14.1566C82.2314 14.4866 81.9517 14.7639 81.6169 14.9887ZM90.5041 7.07674V11.7034H89.1842V7.07674H90.5041ZM94.0295 12.9874L93.4556 15.8782H92.064L92.6666 13.0161C92.8387 12.1936 92.9965 11.6149 93.14 11.2802C93.2834 10.9407 93.4628 10.6657 93.678 10.4553C93.8979 10.2449 94.192 10.0655 94.5603 9.9173L92.4872 7.07674H94.1155L97.3506 11.5313C97.7093 11.1965 97.9938 10.7924 98.2042 10.319C98.4194 9.84078 98.5605 9.29323 98.6274 8.67634L98.7924 7.07674H100.155L99.9903 8.64765C99.9377 9.17368 99.8421 9.63515 99.7034 10.0321C99.6078 10.3046 99.493 10.5653 99.3591 10.8139C99.2252 11.0578 99.053 11.3113 98.8426 11.5743C98.637 11.8373 98.3692 12.1314 98.0392 12.4566L100.629 15.8782H98.9502L95.1628 10.735C94.7802 10.9215 94.5077 11.2443 94.3451 11.7034C94.2972 11.823 94.247 11.9903 94.1944 12.2055C94.1466 12.4207 94.0916 12.6813 94.0295 12.9874ZM105.194 10.484V15.8782H101.17V14.6587H103.874V10.857C103.874 10.0823 103.836 9.53473 103.76 9.21433C103.683 8.88437 103.549 8.65004 103.358 8.51136C103.171 8.3679 102.901 8.29617 102.547 8.29617H101.579V7.07674H102.504C103.269 7.07674 103.829 7.18194 104.183 7.39235C104.537 7.60755 104.793 7.95903 104.95 8.4468C105.113 8.9298 105.194 9.60885 105.194 10.484ZM109.179 14.5153C109.016 14.9983 108.758 15.3474 108.404 15.5626C108.05 15.773 107.493 15.8782 106.733 15.8782H106.654V14.6587H106.776C107.106 14.6587 107.369 14.5966 107.565 14.4722C107.756 14.3479 107.892 14.159 107.974 13.9056C108.055 13.6473 108.096 13.2576 108.096 12.7363V8.29617H106.733V7.07674H111.488C112.808 7.07674 113.755 7.35888 114.329 7.92317C114.903 8.48267 115.19 9.41518 115.19 10.7207V15.8782H113.87V10.7063C113.87 9.82644 113.691 9.20477 113.332 8.84133C112.978 8.47789 112.359 8.29617 111.474 8.29617H109.415V12.4709C109.415 13.3508 109.337 14.0323 109.179 14.5153Z" fill="#2F2424"/>
<path d="M221.947 43.6442C221.784 44.1272 221.526 44.4763 221.172 44.6915C220.818 44.9019 220.261 45.0071 219.501 45.0071H219.422V43.7876H219.544C219.874 43.7876 220.137 43.7255 220.333 43.6011C220.524 43.4768 220.66 43.2879 220.742 43.0345C220.823 42.7762 220.864 42.3865 220.864 41.8652V37.4251H219.501V36.2056H224.257C225.576 36.2056 226.523 36.4878 227.097 37.0521C227.671 37.6116 227.958 38.5441 227.958 39.8496V45.0071H226.638V39.8352C226.638 38.9553 226.459 38.3337 226.1 37.9702C225.746 37.6068 225.127 37.4251 224.242 37.4251H222.184V41.5998C222.184 42.4797 222.105 43.1612 221.947 43.6442ZM231.548 36.2056V45.0071H230.228V36.2056H231.548ZM239.8 39.8352C239.8 38.9649 239.623 38.3456 239.27 37.9774C238.92 37.6092 238.306 37.4251 237.426 37.4251H235.202V45.0071H233.883V36.2056H237.44C238.76 36.2056 239.705 36.4878 240.274 37.0521C240.843 37.6164 241.127 38.5489 241.127 39.8496V45.0071H239.8V39.8352ZM244.71 36.2056V45.0071H243.39V36.2056H244.71ZM253.658 38.9386C253.658 39.8376 253.477 40.6912 253.113 41.4994C252.75 42.3076 252.236 43.0321 251.571 43.6729C250.906 44.3089 250.117 44.8182 249.204 45.2008V43.6872C250.203 43.2377 250.971 42.6136 251.507 41.815C252.047 41.0116 252.317 40.1126 252.317 39.1179C252.317 38.4771 252.176 38.0348 251.894 37.7909C251.617 37.547 251.136 37.4251 250.452 37.4251H246.679V36.2056H250.395C251.576 36.2056 252.415 36.4184 252.912 36.8441C253.41 37.2649 253.658 37.9631 253.658 38.9386ZM248.365 39.2901V47.7687H247.045V39.2901H248.365ZM255.541 43.845C256.459 43.5055 257.244 43.0751 257.894 42.5539C258.549 42.0374 259.047 41.4731 259.386 40.861C259.73 40.2489 259.903 39.6272 259.903 38.996C259.903 37.9487 259.343 37.4251 258.224 37.4251H254.659V33.0638H255.979V36.2056H258.36C260.278 36.2056 261.237 37.0592 261.237 38.7665C261.237 39.6464 261.026 40.4904 260.605 41.2986C260.185 42.1067 259.592 42.8336 258.827 43.4792C257.918 44.2539 256.823 44.8708 255.541 45.3299V43.845ZM270.07 39.8496V45.0071H268.743V39.8352C268.743 38.9553 268.564 38.3337 268.205 37.9702C267.851 37.6068 267.237 37.4251 266.362 37.4251H263.019V36.2056H266.383C267.263 36.2056 267.973 36.33 268.514 36.5786C269.054 36.8225 269.449 37.2123 269.697 37.7479C269.946 38.2787 270.07 38.9793 270.07 39.8496ZM264.482 39.2901V45.0071H263.163V39.2901H264.482ZM277.637 43.6442C277.475 44.1272 277.217 44.4763 276.863 44.6915C276.509 44.9019 275.952 45.0071 275.191 45.0071H275.113V43.7876H275.234C275.564 43.7876 275.827 43.7255 276.024 43.6011C276.215 43.4768 276.351 43.2879 276.432 43.0345C276.514 42.7762 276.554 42.3865 276.554 41.8652V37.4251H275.191V36.2056H279.947C281.267 36.2056 282.214 36.4878 282.788 37.0521C283.362 37.6116 283.649 38.5441 283.649 39.8496V45.0071H282.329V39.8352C282.329 38.9553 282.149 38.3337 281.791 37.9702C281.437 37.6068 280.818 37.4251 279.933 37.4251H277.874V41.5998C277.874 42.4797 277.795 43.1612 277.637 43.6442ZM287.239 36.2056V45.0071H285.919V36.2056H287.239ZM294.996 39.8496V45.0071H293.669V39.8352C293.669 38.9649 293.492 38.3456 293.138 37.9774C292.789 37.6092 292.175 37.4251 291.295 37.4251H288.605V36.2056H291.309C292.189 36.2056 292.899 36.33 293.44 36.5786C293.98 36.8225 294.374 37.2123 294.623 37.7479C294.872 38.2787 294.996 38.9793 294.996 39.8496ZM298.579 36.2056V40.8323H297.259V36.2056H298.579ZM307.513 44.1176C307.183 44.3376 306.772 44.5169 306.279 44.6556C305.791 44.7943 305.179 44.8971 304.443 44.964C303.706 45.031 302.795 45.0692 301.71 45.0788L300.031 36.2056H301.401L302.284 40.7319L302.807 40.6315C303.094 40.5645 303.331 40.4784 303.517 40.3732C303.704 40.2632 303.852 40.1102 303.962 39.9142C304.053 39.7611 304.122 39.5722 304.17 39.3475C304.218 39.1227 304.254 38.8549 304.278 38.5441L304.457 36.2056H305.82L305.598 38.5584C305.564 38.9553 305.523 39.2997 305.476 39.5914C305.428 39.8783 305.37 40.1102 305.303 40.2872C305.184 40.6458 305.005 40.9232 304.765 41.1192C304.526 41.3105 304.129 41.4803 303.575 41.6285L302.499 41.8796L302.85 43.7303H303.022C303.984 43.7303 304.754 43.6753 305.332 43.5653C305.911 43.4505 306.367 43.2736 306.702 43.0345C306.927 42.8719 307.116 42.671 307.269 42.4319C307.422 42.1928 307.551 41.8772 307.656 41.4851C307.761 41.0929 307.85 40.5884 307.922 39.9715L308.374 36.2056H309.758L309.299 39.9213C309.203 40.7534 309.079 41.4396 308.926 41.98C308.773 42.5156 308.582 42.9508 308.352 43.2855C308.127 43.6155 307.848 43.8929 307.513 44.1176Z" fill="#2F2424"/>
<path d="M28.9344 43.6442C28.7718 44.1272 28.5136 44.4763 28.1597 44.6915C27.8058 44.9019 27.2487 45.0071 26.4884 45.0071H26.4095V43.7876H26.5314C26.8614 43.7876 27.1244 43.7255 27.3205 43.6011C27.5117 43.4768 27.648 43.2879 27.7293 43.0345C27.8106 42.7762 27.8513 42.3865 27.8513 41.8652V37.4251H26.4884V36.2056H31.2442C32.564 36.2056 33.5109 36.4878 34.0847 37.0521C34.6586 37.6116 34.9455 38.5441 34.9455 39.8496V45.0071H33.6256V39.8352C33.6256 38.9553 33.4463 38.3337 33.0877 37.9702C32.7338 37.6068 32.1145 37.4251 31.2298 37.4251H29.1711V41.5998C29.1711 42.4797 29.0922 43.1612 28.9344 43.6442ZM38.5355 36.2056V45.0071H37.2156V36.2056H38.5355ZM42.19 36.2056V40.8323H40.8701V36.2056H42.19ZM48.0036 45.1505C46.7842 45.1505 45.8875 44.8445 45.3137 44.2324C44.7398 43.6155 44.4529 42.6686 44.4529 41.3918V36.2056H45.7727V41.3488C45.7727 42.2382 45.9473 42.8886 46.2964 43.2999C46.6503 43.7111 47.2265 43.9168 48.0251 43.9168C48.6516 43.9168 49.1609 43.79 49.553 43.5366C49.9451 43.2831 50.232 42.8838 50.4138 42.3387C50.6003 41.7887 50.6935 41.0666 50.6935 40.1724C50.6935 39.1777 50.5883 38.4508 50.3779 37.9918C50.1675 37.5279 49.8088 37.296 49.3019 37.296C48.8142 37.296 48.3431 37.4514 47.8888 37.7622V36.4997C48.257 36.208 48.7711 36.0622 49.431 36.0622C50.4114 36.0622 51.0976 36.385 51.4897 37.0306C51.8819 37.6714 52.0779 38.7186 52.0779 40.1724C52.0779 41.8892 51.7504 43.1492 51.0952 43.9526C50.4401 44.7512 49.4095 45.1505 48.0036 45.1505ZM59.3836 39.8496V45.0071H58.0565V39.8352C58.0565 38.9649 57.8796 38.3456 57.5257 37.9774C57.1766 37.6092 56.5621 37.4251 55.6822 37.4251H52.9923V36.2056H55.6966C56.5765 36.2056 57.2866 36.33 57.827 36.5786C58.3674 36.8225 58.7619 37.2123 59.0106 37.7479C59.2592 38.2787 59.3836 38.9793 59.3836 39.8496ZM67.2129 40.115C67.2129 39.2112 67.0144 38.5369 66.6175 38.0922C66.2206 37.6474 65.5965 37.4251 64.7453 37.4251H62.7655V39.907H64.5086V41.1264H61.4241V36.2056H64.7596C66.0412 36.2056 66.9929 36.526 67.6145 37.1668C68.241 37.8029 68.5542 38.7951 68.5542 40.1437V40.7319C68.5542 43.582 67.2057 45.0071 64.5086 45.0071H61.503V43.7876H64.5444C65.453 43.7876 66.1249 43.5366 66.5601 43.0345C66.9953 42.5276 67.2129 41.7648 67.2129 40.7462V40.115ZM75.7628 43.6442C75.6002 44.1272 75.342 44.4763 74.9881 44.6915C74.6343 44.9019 74.0771 45.0071 73.3168 45.0071H73.2379V43.7876H73.3598C73.6898 43.7876 73.9528 43.7255 74.1489 43.6011C74.3402 43.4768 74.4764 43.2879 74.5577 43.0345C74.639 42.7762 74.6797 42.3865 74.6797 41.8652V37.4251H73.3168V36.2056H78.0726C79.3924 36.2056 80.3393 36.4878 80.9131 37.0521C81.487 37.6116 81.7739 38.5441 81.7739 39.8496V45.0071H80.4541V39.8352C80.4541 38.9553 80.2747 38.3337 79.9161 37.9702C79.5622 37.6068 78.9429 37.4251 78.0582 37.4251H75.9995V41.5998C75.9995 42.4797 75.9206 43.1612 75.7628 43.6442ZM85.3639 36.2056V45.0071H84.044V36.2056H85.3639ZM89.0184 36.2056V40.8323H87.6985V36.2056H89.0184ZM94.6455 39.6129V45.0071H90.6214V43.7876H93.3257V39.9859C93.3257 39.2112 93.2874 38.6636 93.2109 38.3432C93.1344 38.0133 93.0005 37.7789 92.8092 37.6403C92.6227 37.4968 92.3525 37.4251 91.9986 37.4251H91.0302V36.2056H91.9556C92.7207 36.2056 93.2802 36.3108 93.6341 36.5213C93.988 36.7365 94.2438 37.0879 94.4016 37.5757C94.5642 38.0587 94.6455 38.7378 94.6455 39.6129ZM98.2355 36.2056V40.8323H96.9156V36.2056H98.2355ZM105.964 37.4251V45.0071H104.637V37.4251H99.6161V36.2056H107.062V37.4251H105.964ZM112.89 36.0622C114.047 36.0622 114.891 36.4161 115.422 37.1238C115.957 37.8268 116.225 38.9458 116.225 40.4808V45.0071H111.907V43.7876H114.891V40.6458C114.891 39.4742 114.74 38.623 114.439 38.0922C114.138 37.5614 113.626 37.296 112.904 37.296C112.259 37.296 111.728 37.5877 111.312 38.1711C110.891 38.7641 110.506 39.7946 110.157 41.2627L109.26 45.0071H107.84L108.823 41.1551C108.933 40.7056 109.045 40.2991 109.16 39.9357C109.275 39.5722 109.387 39.2494 109.497 38.9673L107.704 36.2056H109.26L110.157 37.6618C110.53 37.0975 110.929 36.691 111.355 36.4424C111.78 36.1889 112.292 36.0622 112.89 36.0622Z" fill="#2F2424"/>
</svg>
