<svg width="604" height="507" viewBox="0 0 604 507" fill="none" xmlns="http://www.w3.org/2000/svg">
<path d="M307.151 397.543L306.104 335.02C306.104 335.02 309.202 317.343 315.544 306.008L294.969 292.703L277.095 287.999L262.444 287.274C262.444 287.274 257.337 300.951 254.909 303.749C252.481 306.546 246.809 397.937 246.809 397.937L244.234 434.224V435.115V435.322L246.558 478.116V488.353H263.909V478.116L269.958 436.814L275.002 400.486L279.774 400.921L284.546 435.343L288.041 479.463V489.7H305.414V479.463L310.29 433.871V433.685V432.794L307.36 397.564L307.151 397.543Z" fill="#C3A8FF"/>
<path d="M375.156 342.888C375.304 342.649 375.369 342.364 375.34 342.081C375.312 341.798 375.191 341.534 374.999 341.332L373.587 339.898C373.805 339.943 374.03 339.92 374.236 339.833C374.442 339.745 374.618 339.597 374.744 339.406C374.902 339.199 374.988 338.943 374.988 338.679C374.988 338.415 374.902 338.159 374.744 337.952L374.195 337.215C374.331 337.128 374.45 337.017 374.548 336.887C374.711 336.678 374.799 336.418 374.799 336.149C374.799 335.881 374.711 335.62 374.548 335.412L372.136 332.217L371.802 331.95L368.683 329.247C368.414 329.003 368.09 328.834 367.742 328.755C365.533 327.65 363.157 326.957 360.719 326.707C359.494 326.582 358.262 326.548 357.032 326.604L352.579 326.379L352.344 337.03H352.795L353.364 337.829C354.342 338.985 355.404 340.061 356.541 341.045C356.684 341.136 356.835 341.211 356.993 341.27H357.287L357.934 341.864L359.229 343.318C360.092 344.343 360.955 345.367 361.739 346.514C361.982 346.811 362.319 347.006 362.688 347.064C363.058 347.122 363.435 347.038 363.75 346.829C364.065 346.619 364.298 346.298 364.404 345.924C364.51 345.55 364.483 345.148 364.329 344.793C363.681 343.482 363.014 342.212 362.367 340.942C362.367 340.84 362.367 340.594 362.642 340.266C362.777 340.364 362.922 340.446 363.073 340.512L368.134 342.806L367.879 342.622L372.763 346.043C373.001 346.203 373.286 346.268 373.566 346.223C373.846 346.179 374.1 346.029 374.282 345.802C374.463 345.575 374.558 345.287 374.549 344.991C374.541 344.696 374.428 344.414 374.234 344.199L372.273 342.151L373.41 342.97C373.537 343.059 373.678 343.121 373.828 343.153C373.977 343.185 374.131 343.185 374.28 343.155C374.429 343.124 374.572 343.064 374.698 342.976C374.825 342.888 374.934 342.775 375.019 342.643L375.156 342.888Z" fill="#F3AE9D"/>
<path d="M198.147 248.737C197.928 248.913 197.772 249.161 197.705 249.437C197.638 249.714 197.664 250.003 197.778 250.257L198.634 252.079C198.443 251.964 198.223 251.91 198 251.925C197.777 251.939 197.561 252.02 197.379 252.158C197.161 252.301 196.995 252.514 196.908 252.763C196.82 253.012 196.816 253.282 196.896 253.53L197.169 254.408C197.012 254.444 196.862 254.509 196.727 254.599C196.504 254.742 196.334 254.958 196.245 255.212C196.156 255.465 196.153 255.74 196.237 255.991L197.451 259.806L197.677 260.168L199.721 263.754C199.894 264.073 200.143 264.34 200.445 264.531C202.162 266.306 204.173 267.749 206.388 268.795C207.503 269.319 208.654 269.761 209.833 270.117L213.958 271.809L217.718 261.84L217.292 261.69L217.021 260.748C216.483 259.333 215.838 257.965 215.092 256.659C214.988 256.526 214.871 256.405 214.742 256.297L214.464 256.199L214.051 255.424L213.313 253.622C212.839 252.369 212.365 251.117 212.006 249.774C211.876 249.414 211.623 249.117 211.294 248.94C210.964 248.763 210.581 248.716 210.214 248.809C209.847 248.902 209.522 249.128 209.297 249.445C209.073 249.763 208.964 250.151 208.992 250.537C209.167 251.988 209.375 253.408 209.563 254.821C209.529 254.917 209.448 255.149 209.08 255.367C208.985 255.23 208.876 255.104 208.754 254.992L204.743 251.147L204.922 251.405L201.452 246.556C201.281 246.326 201.033 246.17 200.755 246.119C200.476 246.068 200.186 246.125 199.94 246.279C199.694 246.433 199.508 246.673 199.418 246.955C199.328 247.236 199.34 247.539 199.452 247.807L200.622 250.39L199.821 249.239C199.731 249.114 199.618 249.008 199.488 248.928C199.358 248.849 199.213 248.797 199.062 248.776C198.911 248.756 198.757 248.766 198.608 248.807C198.459 248.847 198.319 248.918 198.195 249.014L198.147 248.737Z" fill="#F3AE9D"/>
<path d="M356.952 326.286L351.82 342.461C351.794 342.474 351.766 342.481 351.737 342.481C351.709 342.481 351.681 342.474 351.655 342.461L348.124 341.394L345.455 340.557L339.296 338.716L336.586 337.879L330.571 336.079L327.881 335.263L325.294 334.468L324.514 334.217L323.426 333.61L323.18 333.463L320.675 331.999L315.46 328.985C314.623 328.487 313.654 328.268 312.689 328.357C311.494 328.424 310.364 328.929 309.507 329.78L305.401 335.158C305.389 335.176 305.374 335.19 305.356 335.2C305.338 335.209 305.318 335.215 305.298 335.215C305.278 335.215 305.258 335.209 305.24 335.2C305.222 335.19 305.207 335.176 305.195 335.158C305.195 335.158 309.835 302.953 314.475 305.862L318.581 308.541L321.045 310.131L326.177 313.416L328.641 315.007L332.049 317.099L333.116 317.518L335.806 318.459L341.719 320.552L344.367 321.536L350.403 323.628L353.051 324.57L356.829 325.93C356.848 325.95 356.858 325.976 356.858 326.003C356.858 326.031 356.848 326.057 356.829 326.076L356.952 326.286Z" fill="white"/>
<path d="M298.298 274.461L280.378 270.021L277.039 287.903C275.222 294.388 277.715 300.71 282.618 301.999C286.844 303.124 291.663 299.953 293.987 294.777C294.272 294.083 294.484 293.364 294.621 292.629L298.298 274.461Z" fill="#F3AE9D"/>
<path d="M296.286 282.317L297.144 274.273L296.14 273.974L284.492 271.172V271.942C285.861 281.055 289.969 288.285 295.081 290.724L296.359 282.317H296.286Z" fill="#232E62"/>
<path d="M277.764 259.333C276.33 273.584 284.098 286.043 295.125 287.189C306.152 288.335 316.195 277.709 317.67 263.458C319.146 249.207 311.316 236.748 300.31 235.602C289.304 234.456 279.22 245.102 277.764 259.333Z" fill="#F3AE9D"/>
<path d="M315.025 239.326C311.643 232.372 302.345 227.31 291.769 228.915C287.534 229.386 283.515 231.025 280.161 233.647C278.636 232.701 276.45 233.298 273.337 236.26C255.73 252.989 275.213 274.881 279.522 279.223L280.47 274.058C278.394 269.253 277.605 263.992 278.182 258.791C278.29 257.691 278.462 256.599 278.697 255.519C280.762 258.19 283.517 260.248 286.668 261.47C289.818 262.692 293.243 263.032 296.572 262.454C299.882 262.144 303.095 261.177 306.024 259.608C308.952 258.039 311.536 255.9 313.623 253.318C321.87 255.375 323.601 248.709 323.601 248.709C318.591 248.709 316.839 242.536 315.128 239.388L315.025 239.326Z" fill="#2F4B6F"/>
<path d="M269.722 264.355C269.396 265.799 269.507 267.307 270.04 268.688C270.573 270.069 271.504 271.26 272.715 272.112C273.925 272.963 275.362 273.436 276.842 273.47C278.322 273.504 279.779 273.098 281.028 272.304C282.277 271.51 283.262 270.363 283.858 269.008C284.454 267.653 284.635 266.152 284.376 264.695C284.118 263.238 283.433 261.89 282.408 260.822C281.383 259.754 280.064 259.015 278.618 258.698C277.662 258.485 276.674 258.463 275.71 258.632C274.745 258.802 273.824 259.159 272.998 259.685C272.172 260.21 271.457 260.893 270.895 261.694C270.333 262.496 269.934 263.4 269.722 264.355Z" fill="#F3AE9D"/>
<path d="M273.643 268.837C273.806 268.883 273.978 268.883 274.141 268.837L279.329 266.942C279.466 266.89 279.588 266.805 279.683 266.694C279.778 266.584 279.844 266.452 279.874 266.31C279.899 266.162 279.883 266.011 279.829 265.871C279.775 265.731 279.684 265.608 279.566 265.514L275.562 262.169C275.478 262.098 275.381 262.044 275.276 262.011C275.171 261.977 275.06 261.964 274.95 261.973C274.728 261.991 274.522 262.095 274.378 262.262C274.233 262.43 274.162 262.647 274.18 262.866C274.197 263.086 274.303 263.289 274.472 263.432L277.363 265.772L273.548 267.152C273.338 267.231 273.167 267.387 273.07 267.587C272.973 267.788 272.958 268.017 273.027 268.228C273.081 268.359 273.164 268.476 273.271 268.569C273.378 268.662 273.505 268.73 273.643 268.767V268.837Z" fill="#232E62"/>
<path d="M312.094 274.231C313.829 275.711 315.908 276.179 316.499 275.399C317.09 274.62 316.308 272.672 314.592 271.172L312.113 274.231H312.094Z" fill="#F3AE9D"/>
<path d="M274.147 386.187C273.853 386.187 273.572 386.081 273.364 385.893C273.156 385.705 273.04 385.449 273.04 385.183C272.554 358.756 275.265 332.36 281.126 306.469C281.196 306.214 281.37 305.991 281.613 305.847C281.856 305.703 282.15 305.647 282.436 305.691C282.725 305.745 282.979 305.9 283.144 306.122C283.308 306.344 283.37 306.616 283.317 306.879C277.464 332.625 274.76 358.879 275.253 385.163C275.253 385.431 275.138 385.688 274.931 385.88C274.724 386.071 274.442 386.181 274.147 386.187Z" fill="white"/>
<path d="M272.995 331.537C272.999 332.107 272.8 332.665 272.422 333.141C272.045 333.616 271.506 333.988 270.875 334.208C270.243 334.427 269.548 334.486 268.876 334.376C268.205 334.265 267.588 333.991 267.104 333.588C266.62 333.185 266.291 332.671 266.159 332.111C266.027 331.552 266.097 330.972 266.361 330.446C266.624 329.92 267.07 329.471 267.641 329.156C268.211 328.842 268.882 328.676 269.566 328.679C270.473 328.684 271.342 328.987 271.984 329.521C272.626 330.056 272.989 330.78 272.995 331.537Z" fill="white"/>
<path d="M270.69 348.232C270.69 348.915 270.487 349.583 270.107 350.151C269.727 350.719 269.187 351.161 268.555 351.422C267.923 351.682 267.228 351.749 266.558 351.614C265.888 351.479 265.274 351.149 264.792 350.664C264.31 350.179 263.983 349.562 263.853 348.891C263.722 348.221 263.793 347.526 264.058 346.896C264.322 346.266 264.768 345.729 265.338 345.352C265.909 344.976 266.578 344.777 267.261 344.781C268.173 344.787 269.045 345.153 269.687 345.8C270.329 346.446 270.69 347.32 270.69 348.232Z" fill="white"/>
<path d="M504.172 386.646L495.382 439.59L495.464 438.642L492.753 493.151L477.719 492.657L478.581 438.086L478.602 437.736L478.663 437.118L485.564 383.886L504.172 386.646Z" fill="#C3A8FF"/>
<path d="M577.181 418.516L541.593 432.175L521.841 381.586L504.172 388.748L528.821 446.395L528.946 446.686C529.377 447.697 530.005 448.614 530.794 449.382C531.583 450.15 532.518 450.754 533.543 451.159C534.568 451.565 535.664 451.764 536.767 451.744C537.87 451.724 538.958 451.487 539.968 451.045L582.891 433.047L584.682 424.245L577.223 418.474L577.181 418.516Z" fill="#C3A8FF"/>
<path d="M591.208 416.075L601.521 444.934C601.824 445.784 601.96 446.687 601.921 447.59C601.881 448.494 601.668 449.38 601.291 450.2C600.915 451.019 600.384 451.755 599.728 452.365C599.072 452.976 598.304 453.448 597.469 453.757L596.719 454.046L582.375 413.828L584.786 412.942C586.041 412.484 587.423 412.55 588.63 413.125C589.837 413.701 590.772 414.739 591.229 416.013L591.208 416.075Z" fill="white"/>
<path d="M575.165 435.447C575.165 435.447 576.766 436.569 579.434 438.179C586.301 442.273 592.292 447.663 597.067 454.046C597.067 454.046 602.383 454.151 592.414 431.273C592.414 431.273 588.144 413.712 584.024 412.738C579.904 411.763 573.18 418.394 573.18 418.394C573.18 418.394 579.178 421.169 580.502 425.935C580.797 426.907 580.892 427.928 580.782 428.938C580.672 429.947 580.359 430.924 579.861 431.811C579.364 432.698 578.691 433.477 577.885 434.102C577.078 434.726 576.153 435.183 575.165 435.447Z" fill="#232E62"/>
<path d="M602.086 447.145C601.88 447.143 601.679 447.078 601.512 446.957C601.344 446.835 601.218 446.665 601.151 446.469L590.455 416.168C590.4 415.927 590.436 415.674 590.554 415.458C590.673 415.242 590.867 415.077 591.099 414.996C591.33 414.915 591.584 414.923 591.81 415.018C592.036 415.113 592.22 415.289 592.325 415.512L603.022 445.792C603.067 445.918 603.087 446.05 603.08 446.183C603.074 446.316 603.041 446.446 602.984 446.566C602.928 446.686 602.848 446.794 602.75 446.883C602.651 446.971 602.536 447.04 602.412 447.083C602.304 447.103 602.194 447.103 602.086 447.083V447.145Z" fill="#232E62"/>
<path d="M465.459 293.214L454.711 302.052L458.3 322.339L472.324 369.059L467.859 417.361H468.61C495.825 420.959 523.46 415.062 546.723 400.692L506.028 310.603L500.268 290.192L482.55 287.274L465.459 293.214Z" fill="#F49DC3"/>
<path d="M578.093 297.154V294.806C578.144 294.742 578.188 294.672 578.224 294.598L582.845 287.161C583.057 286.784 583.118 286.347 583.018 285.931C582.918 285.514 582.663 285.147 582.3 284.896C582.008 284.7 581.653 284.609 581.298 284.639C580.942 284.67 580.61 284.82 580.36 285.062C580.535 284.67 580.551 284.231 580.406 283.828C580.261 283.425 579.965 283.088 579.575 282.881C579.239 282.686 578.836 282.625 578.453 282.711C578.07 282.796 577.737 283.021 577.526 283.338L572.73 290.588C572.73 290.588 572.73 290.588 572.73 290.692C572.674 290.758 572.623 290.828 572.578 290.9L566.975 302.555L553.896 302.805H551.411C551.301 304.416 551.301 306.033 551.411 307.645C551.487 309.649 551.735 311.643 552.152 313.608H554.332L561.853 313.463C563.417 313.792 565.036 313.814 566.61 313.528C568.184 313.243 569.68 312.655 571.008 311.8L571.204 311.655C574.254 309.25 576.939 306.453 579.183 303.345C579.452 302.949 579.743 302.568 580.055 302.202C580.65 301.547 581.196 300.852 581.69 300.125C582.398 299.117 582.97 298.028 583.39 296.884C584.305 294.162 580.6 294.931 578.224 297.091L578.093 297.154Z" fill="#F3AE9D"/>
<path d="M527.996 297.003L500.658 290.724L500.079 292.987C499.527 295.173 499.423 297.445 499.773 299.671C500.124 301.896 500.921 304.03 502.119 305.948C503.317 307.866 504.892 309.529 506.75 310.839C508.608 312.149 510.713 313.08 512.941 313.578L524.274 314.821L563.379 318.328L563.979 301.529L527.996 297.003Z" fill="white"/>
<path d="M408.765 349.856L420.208 343.228L415.145 334.43L406.072 339.66L402.629 340.268C401.365 340.379 400.113 340.589 398.882 340.896C396.414 341.445 394.067 342.442 391.956 343.836C391.6 343.956 391.285 344.174 391.045 344.464L388.189 347.525L387.906 347.829L385.881 351.296C385.739 351.519 385.679 351.785 385.712 352.048C385.745 352.311 385.87 352.554 386.063 352.735C386.179 352.854 386.317 352.95 386.468 353.019L385.982 353.809C385.852 354.018 385.79 354.263 385.805 354.509C385.819 354.754 385.908 354.99 386.061 355.183C386.214 355.376 386.423 355.517 386.659 355.586C386.894 355.656 387.146 355.652 387.379 355.573L386.103 357.174C385.921 357.408 385.833 357.702 385.855 357.997C385.877 358.293 386.007 358.57 386.222 358.775C386.436 358.979 386.719 359.097 387.015 359.105C387.312 359.112 387.6 359.01 387.825 358.816L388.898 357.884L387.177 360.114C387.004 360.329 386.91 360.597 386.91 360.874C386.91 361.15 387.004 361.418 387.177 361.634C387.387 361.869 387.681 362.012 387.996 362.031C388.311 362.05 388.621 361.944 388.858 361.735L393.435 357.681L393.192 357.904L398.072 354.985L398.477 354.681C398.761 354.985 398.882 355.188 398.842 355.309C398.255 356.647 397.748 357.985 397.242 359.364C397.117 359.714 397.12 360.097 397.25 360.445C397.379 360.794 397.628 361.086 397.951 361.269C398.129 361.378 398.328 361.449 398.535 361.479C398.742 361.509 398.952 361.497 399.154 361.445C399.356 361.392 399.546 361.299 399.711 361.171C399.877 361.043 400.015 360.884 400.118 360.701C400.786 359.526 401.515 358.35 402.285 357.215L403.419 355.613L404.006 354.944L404.31 354.823L404.735 354.559C405.774 353.433 406.722 352.227 407.57 350.951L407.915 350.323L408.421 350.039L408.765 349.856Z" fill="#F3AE9D"/>
<path d="M455.847 302.226L429.094 322.483L405.258 336.938L413.666 351.682L438.685 338.156L438.909 338.032L439.44 337.661L455.603 326.448C457.123 325.391 458.42 324.038 459.417 322.468C460.414 320.897 461.091 319.141 461.409 317.302C461.726 315.464 461.677 313.579 461.266 311.76C460.854 309.94 460.087 308.222 459.011 306.707L455.827 302.226H455.847Z" fill="white"/>
<path d="M471.886 369.948L473.009 375.833C473.153 376.605 473.449 377.341 473.879 377.998C474.309 378.656 474.864 379.222 475.514 379.664C476.163 380.107 476.893 380.417 477.662 380.576C478.432 380.736 479.225 380.742 479.996 380.594C481.558 380.29 482.939 379.387 483.844 378.078C484.287 377.428 484.596 376.696 484.753 375.925C484.91 375.153 484.912 374.359 484.759 373.587L483.657 367.702L471.886 369.948ZM478.873 382.736C477.006 382.731 475.199 382.077 473.761 380.886C472.323 379.695 471.344 378.041 470.991 376.207L469.681 369.324C469.657 369.191 469.658 369.055 469.687 368.923C469.716 368.79 469.77 368.665 469.848 368.555C469.919 368.443 470.013 368.348 470.124 368.276C470.236 368.204 470.361 368.157 470.492 368.139L484.26 365.498C484.528 365.455 484.803 365.514 485.029 365.664C485.251 365.816 485.407 366.046 485.466 366.309L486.776 373.213C487.172 375.303 486.722 377.464 485.525 379.223C484.328 380.981 482.481 382.193 480.391 382.591C479.892 382.691 479.383 382.739 478.873 382.736Z" fill="white"/>
<path d="M514.506 358.499L516.2 364.021C516.656 365.485 517.675 366.711 519.036 367.429C520.396 368.148 521.987 368.301 523.461 367.856C524.192 367.633 524.872 367.268 525.46 366.782C526.049 366.296 526.535 365.699 526.89 365.025C527.251 364.356 527.474 363.623 527.547 362.868C527.62 362.113 527.54 361.351 527.313 360.627L525.599 355.085L514.506 358.499ZM521.747 370.085C520.48 370.086 519.233 369.776 518.116 369.181C516.293 368.21 514.925 366.567 514.304 364.603L512.287 358.137C512.196 357.891 512.196 357.62 512.287 357.374C512.412 357.144 512.621 356.971 512.872 356.892L525.861 352.876C526.113 352.8 526.384 352.824 526.618 352.944C526.851 353.064 527.029 353.27 527.112 353.519L529.129 360.005C529.734 361.969 529.531 364.093 528.564 365.908C528.089 366.811 527.437 367.609 526.647 368.258C525.858 368.906 524.946 369.391 523.965 369.683C523.222 369.922 522.447 370.044 521.666 370.045L521.747 370.085Z" fill="white"/>
<path d="M485.208 291.662L478.093 273.472L461.617 280.968L468.066 297.219C468.42 298.332 469.002 299.365 469.778 300.257C470.555 301.15 471.509 301.883 472.586 302.415C473.663 302.946 474.84 303.265 476.047 303.352C477.254 303.438 478.467 303.291 479.614 302.92C480.761 302.548 481.819 301.959 482.724 301.187C483.63 300.415 484.366 299.477 484.887 298.427C485.409 297.377 485.706 296.238 485.761 295.076C485.816 293.914 485.628 292.753 485.208 291.662Z" fill="#F3AE9D"/>
<path d="M464.073 287.649L461.617 280.261L462.699 279.746L475.185 274.622L475.414 275.322C475.56 284.233 472.355 291.909 467.09 295.325L464.114 287.649H464.073Z" fill="#232E62"/>
<path d="M478.624 261.459C482.755 274.746 477.364 288.053 466.683 291.203C456.002 294.353 443.958 286.114 439.95 272.827C435.942 259.54 441.21 246.213 451.891 243.083C462.572 239.953 474.616 248.172 478.624 261.459Z" fill="#F3AE9D"/>
<path d="M498.864 257.174C481.729 224.16 468.985 226.783 464.696 231.196C461.262 230.935 457.81 231.266 454.485 232.174C442.884 235.047 435.736 243.665 436.349 250.638C436.318 251.123 436.318 251.61 436.349 252.095C436.292 253.421 436.52 254.743 437.018 255.969C437.515 257.195 438.27 258.296 439.229 259.193C439.229 258.611 439.413 258.028 439.515 257.466C443.926 261.962 452.156 261.421 461.081 258.985C462.739 258.535 464.353 257.928 465.901 257.174C466.579 258.506 467.501 259.693 468.617 260.671C472.13 263.773 476.623 264.314 478.829 262.004C480.047 266.692 480.152 271.608 479.135 276.346L484.751 291.583C484.763 291.68 484.763 291.778 484.751 291.874C501.294 291.292 519.123 276.117 519.123 276.117C519.123 276.117 507.829 274.618 498.7 257.174H498.864Z" fill="#2F4B6F"/>
<path d="M487.457 264.184C488.043 265.541 488.213 267.041 487.947 268.495C487.68 269.948 486.988 271.29 485.96 272.351C484.931 273.412 483.61 274.144 482.166 274.455C480.721 274.766 479.216 274.641 477.842 274.098C476.468 273.554 475.286 272.615 474.445 271.399C473.604 270.184 473.143 268.747 473.118 267.269C473.094 265.791 473.508 264.34 474.308 263.097C475.109 261.855 476.259 260.878 477.615 260.289C478.517 259.897 479.487 259.687 480.47 259.671C481.453 259.655 482.43 259.833 483.344 260.195C484.258 260.557 485.092 261.095 485.798 261.78C486.504 262.464 487.068 263.281 487.457 264.184Z" fill="#F3AE9D"/>
<path d="M447.812 282.316C446.349 284.473 444.458 285.551 443.62 284.66C442.781 283.769 443.269 281.379 444.75 279.223L447.812 282.246V282.316Z" fill="#F3AE9D"/>
<path d="M475.111 233.83L470.745 223.339C470.583 222.967 470.316 222.65 469.979 222.428C469.641 222.206 469.247 222.087 468.843 222.087C468.44 222.087 468.046 222.206 467.708 222.428C467.37 222.65 467.104 222.967 466.941 223.339L463.968 230.766C463.968 230.766 463.968 230.913 463.968 230.997C463.755 230.921 463.529 230.886 463.303 230.892L463.553 222.604C463.542 222.211 463.421 221.828 463.205 221.5C462.989 221.173 462.685 220.913 462.33 220.751C461.974 220.589 461.58 220.531 461.194 220.584C460.807 220.638 460.443 220.8 460.143 221.052L451.828 228.941C451.562 229.228 451.38 229.584 451.305 229.97C451.23 230.356 451.263 230.755 451.402 231.123C451.541 231.49 451.779 231.811 452.089 232.049C452.4 232.286 452.77 232.431 453.158 232.466L461.806 232.738C461.848 233.007 461.956 233.261 462.119 233.477C462.282 233.693 462.496 233.865 462.742 233.976C463.118 234.15 463.545 234.168 463.934 234.026C464.322 233.885 464.641 233.596 464.821 233.221C464.953 233.337 465.1 233.436 465.257 233.515L472.617 236.536C472.992 236.677 473.4 236.705 473.791 236.617C474.182 236.529 474.54 236.329 474.821 236.041C475.102 235.753 475.295 235.389 475.376 234.993C475.457 234.597 475.423 234.185 475.277 233.809L475.111 233.83Z" fill="#C3A8FF"/>
<path d="M266.06 495.772V490.603C266.06 489.988 265.815 489.398 265.38 488.962C264.945 488.527 264.355 488.283 263.739 488.283H262.157C261.494 487.116 260.534 486.146 259.374 485.471C258.214 484.796 256.896 484.44 255.554 484.44C254.212 484.44 252.894 484.796 251.734 485.471C250.575 486.146 249.614 487.116 248.951 488.283H247.496C246.88 488.283 246.29 488.527 245.855 488.962C245.42 489.398 245.175 489.988 245.175 490.603V495.413C244.189 496.081 243.381 496.98 242.823 498.032C242.264 499.083 241.97 500.256 241.969 501.447H268.865C268.86 500.35 268.604 499.268 268.118 498.285C267.632 497.302 266.928 496.442 266.06 495.772Z" fill="white"/>
<path d="M261.526 495.224H261.188C257.77 494.049 254.058 494.049 250.641 495.224C250.38 495.313 250.095 495.296 249.848 495.175C249.601 495.054 249.412 494.84 249.322 494.58C249.233 494.32 249.25 494.035 249.371 493.788C249.491 493.54 249.705 493.351 249.965 493.262C253.802 491.953 257.964 491.953 261.8 493.262C261.938 493.284 262.071 493.333 262.191 493.406C262.31 493.48 262.414 493.576 262.496 493.69C262.579 493.803 262.638 493.932 262.67 494.069C262.703 494.205 262.708 494.347 262.686 494.485C262.664 494.624 262.615 494.756 262.541 494.876C262.468 494.995 262.371 495.099 262.258 495.182C262.144 495.264 262.015 495.323 261.879 495.355C261.743 495.388 261.601 495.393 261.462 495.371L261.526 495.224Z" fill="#9CBDFF"/>
<path d="M286.15 498.672C302.12 504.072 319.713 502.11 325.915 499.136C325.915 499.136 328.025 493.461 310.705 489.432C305.389 488.187 302.626 481.31 302.626 481.31C302.626 481.31 301.508 479.77 298.618 480.635C295.728 481.5 293.449 485.782 295.77 487.786C295.77 487.786 295.58 488.862 288.745 487.66C288.745 487.66 286.636 486.942 287.859 492.491C287.365 492.794 286.944 493.203 286.627 493.688C286.309 494.173 286.104 494.722 286.024 495.296C285.909 496.422 285.952 497.558 286.15 498.672Z" fill="white"/>
<path d="M314.695 490.824C314.398 490.824 314.11 490.728 313.872 490.55C312.633 489.596 311.112 489.078 309.548 489.078C307.983 489.078 306.463 489.596 305.223 490.55C304.91 490.768 304.523 490.853 304.147 490.786C303.771 490.719 303.437 490.505 303.219 490.192C303.001 489.878 302.916 489.491 302.983 489.115C303.051 488.739 303.264 488.406 303.578 488.187C305.295 486.875 307.397 486.164 309.558 486.164C311.72 486.164 313.821 486.875 315.539 488.187C315.788 488.367 315.975 488.621 316.071 488.913C316.167 489.205 316.169 489.52 316.075 489.812C315.981 490.105 315.797 490.361 315.549 490.543C315.302 490.724 315.002 490.823 314.695 490.824Z" fill="#9CBDFF"/>
<path d="M319.166 492.681C318.872 492.681 318.586 492.593 318.343 492.428C317.108 491.463 315.586 490.939 314.019 490.939C312.451 490.939 310.929 491.463 309.694 492.428C309.534 492.548 309.351 492.634 309.156 492.68C308.962 492.727 308.76 492.734 308.562 492.701C308.365 492.667 308.177 492.594 308.009 492.485C307.84 492.377 307.696 492.235 307.585 492.069C307.462 491.91 307.373 491.727 307.325 491.532C307.276 491.337 307.268 491.134 307.302 490.936C307.336 490.738 307.41 490.548 307.52 490.38C307.631 490.212 307.775 490.069 307.943 489.959C309.665 488.657 311.765 487.953 313.924 487.953C316.083 487.953 318.182 488.657 319.904 489.959C320.073 490.069 320.217 490.212 320.327 490.38C320.438 490.548 320.512 490.738 320.546 490.936C320.579 491.134 320.572 491.337 320.523 491.532C320.474 491.727 320.386 491.91 320.263 492.069C320.131 492.26 319.955 492.416 319.749 492.523C319.543 492.629 319.314 492.684 319.082 492.681H319.166Z" fill="#9CBDFF"/>
<path d="M474.448 485.772C474.448 485.772 473.119 486.659 469.976 489.296C464.994 493.479 459.207 496.595 452.973 498.451L450.526 499.189C450.526 499.189 448.627 504.084 473.414 502.586C473.414 502.586 491.282 504.696 493.602 501.088C495.923 497.481 491.493 488.916 491.493 488.916C488.721 490.732 485.461 491.659 482.148 491.574C477.232 491.173 474.448 485.772 474.448 485.772Z" fill="#232E62"/>
<path d="M575.446 434.91C575.446 434.91 577.028 436.028 579.665 437.631C586.451 441.708 592.371 447.076 597.09 453.432C597.09 453.432 602.343 453.538 592.491 430.754C592.491 430.754 588.272 413.266 584.201 412.295C580.129 411.325 573.484 417.928 573.484 417.928C573.484 417.928 579.412 420.691 580.72 425.438C581.012 426.406 581.106 427.423 580.997 428.428C580.888 429.433 580.579 430.406 580.087 431.29C579.595 432.173 578.931 432.949 578.134 433.571C577.337 434.192 576.423 434.648 575.446 434.91Z" fill="#232E62"/>
<path d="M602.632 446.724C602.418 446.723 602.209 446.655 602.036 446.53C601.862 446.406 601.731 446.23 601.661 446.028L590.565 414.827C590.508 414.579 590.545 414.319 590.668 414.096C590.792 413.873 590.993 413.704 591.233 413.62C591.474 413.537 591.736 413.545 591.971 413.643C592.206 413.741 592.396 413.922 592.506 414.152L603.602 445.332C603.649 445.46 603.669 445.597 603.663 445.734C603.656 445.871 603.622 446.005 603.563 446.128C603.505 446.252 603.422 446.363 603.32 446.454C603.218 446.546 603.099 446.616 602.969 446.661C602.858 446.681 602.743 446.681 602.632 446.661V446.724Z" fill="#232E62"/>
<path d="M488.396 506.762H456.922C456.642 506.762 456.374 506.651 456.176 506.453C455.978 506.255 455.867 505.987 455.867 505.707C455.867 505.427 455.978 505.159 456.176 504.961C456.374 504.763 456.642 504.652 456.922 504.652H488.396C488.676 504.652 488.944 504.763 489.142 504.961C489.34 505.159 489.451 505.427 489.451 505.707C489.451 505.987 489.34 506.255 489.142 506.453C488.944 506.651 488.676 506.762 488.396 506.762Z" fill="#232E62"/>
<path d="M261.488 288.405C261.248 292.762 260.286 297.049 258.642 301.097C256.896 305.695 254.374 309.966 251.183 313.727L241.895 304.656L239.817 302.599L235.183 298.073L233.106 296.016L230.238 293.219L229.241 292.663L228.701 292.211L228.327 291.902L226.249 290.03L222.405 286.698L220.327 284.826L215.839 281.02L213.761 279.148L206.281 272.71L218.561 260.82L224.628 265.531L226.893 267.279L231.547 270.9L233.791 272.648L237.781 275.796L239.858 277.379L240.087 277.482L245.884 280.362L248.481 281.658L254.071 284.764L256.668 286.06L261.405 288.405H261.488Z" fill="white"/>
<path d="M149.926 493.151H31.4609V434.493H149.926V493.151Z" fill="white"/>
<path d="M160.641 495.451H8.07672C7.56531 495.451 7.07487 495.209 6.71324 494.777C6.35162 494.346 6.14844 493.761 6.14844 493.151C6.14844 492.541 6.35162 491.956 6.71324 491.524C7.07487 491.093 7.56531 490.85 8.07672 490.85H160.641C161.152 490.85 161.642 491.093 162.004 491.524C162.366 491.956 162.569 492.541 162.569 493.151C162.569 493.761 162.366 494.346 162.004 494.777C161.642 495.209 161.152 495.451 160.641 495.451Z" fill="#6D94E4"/>
<path d="M35.3208 491.656H146.046V437.138H35.3208V491.656ZM147.986 495.451H33.3805C33.1267 495.451 32.8754 495.402 32.6411 495.306C32.4069 495.21 32.1943 495.07 32.0158 494.894C31.8372 494.717 31.6964 494.508 31.6011 494.278C31.5059 494.048 31.4583 493.801 31.4611 493.553V435.24C31.4583 434.992 31.5059 434.746 31.6011 434.516C31.6964 434.286 31.8372 434.076 32.0158 433.9C32.1943 433.723 32.4069 433.583 32.6411 433.488C32.8754 433.392 33.1267 433.343 33.3805 433.343H147.986C148.242 433.34 148.495 433.387 148.732 433.482C148.969 433.576 149.183 433.716 149.364 433.893C149.545 434.069 149.688 434.28 149.784 434.511C149.881 434.742 149.929 434.99 149.926 435.24V493.553C149.929 493.803 149.881 494.051 149.784 494.283C149.688 494.514 149.545 494.724 149.364 494.901C149.183 495.078 148.969 495.218 148.732 495.312C148.495 495.406 148.242 495.454 147.986 495.451Z" fill="#6D94E4"/>
<path d="M137.27 466.677C137.275 468.952 136.57 471.178 135.246 473.072C133.921 474.966 132.037 476.444 129.83 477.317C127.624 478.191 125.195 478.422 122.851 477.98C120.507 477.539 118.353 476.445 116.662 474.837C114.971 473.23 113.819 471.18 113.351 468.949C112.883 466.717 113.121 464.403 114.034 462.301C114.948 460.198 116.496 458.4 118.482 457.136C120.469 455.871 122.804 455.196 125.194 455.196C128.393 455.196 131.461 456.405 133.725 458.557C135.99 460.71 137.265 463.63 137.27 466.677Z" fill="#232E62" fill-opacity="0.54"/>
<path d="M68.2608 466.677C68.2649 468.952 67.5939 471.178 66.3326 473.072C65.0713 474.966 63.2765 476.444 61.1752 477.317C59.0739 478.191 56.7607 478.422 54.5283 477.98C52.2958 477.539 50.2445 476.445 48.6339 474.837C47.0233 473.23 45.9258 471.18 45.4804 468.949C45.0349 466.717 45.2614 464.403 46.1313 462.301C47.0012 460.198 48.4754 458.4 50.3672 457.136C52.2591 455.871 54.4837 455.196 56.7593 455.196C59.8061 455.196 62.7284 456.405 64.8848 458.557C67.0411 460.71 68.2553 463.63 68.2608 466.677Z" fill="#232E62" fill-opacity="0.54"/>
<path d="M56.7379 453.302C53.6853 453.288 50.7223 454.333 48.3529 456.258C45.8943 458.237 44.2148 461.021 43.6114 464.119C43.0079 467.217 43.5195 470.428 45.0556 473.185C46.5917 475.942 49.0533 478.067 52.0051 479.184C54.9568 480.302 58.2085 480.339 61.185 479.29C64.1616 478.24 66.6711 476.172 68.2699 473.451C69.8687 470.73 70.4536 467.531 69.9213 464.42C69.3889 461.309 67.7737 458.487 65.3611 456.452C62.9484 454.418 59.894 453.302 56.7379 453.302ZM56.7379 483.949C52.6664 483.944 48.7279 482.499 45.6192 479.87C42.5105 477.241 40.4318 473.597 39.7509 469.583C39.0699 465.568 39.8306 461.443 41.8983 457.935C43.966 454.428 47.2076 451.765 51.0496 450.417C54.8916 449.07 59.0863 449.124 62.892 450.571C66.6976 452.018 69.8687 454.765 71.8446 458.325C73.8204 461.885 74.4736 466.029 73.6885 470.024C72.9034 474.019 70.7306 477.608 67.5546 480.155C64.486 482.614 60.6703 483.953 56.7379 483.949Z" fill="#F3C2D5"/>
<path d="M124.597 453.302C121.562 453.314 118.621 454.356 116.255 456.258C113.89 458.16 112.241 460.809 111.578 463.771C110.915 466.733 111.277 469.833 112.606 472.562C113.935 475.291 116.152 477.487 118.892 478.792C121.633 480.096 124.735 480.431 127.691 479.742C130.647 479.053 133.282 477.38 135.163 474.998C137.043 472.615 138.059 469.665 138.044 466.63C138.029 463.594 136.983 460.654 135.079 458.291C133.823 456.721 132.227 455.456 130.411 454.592C128.596 453.727 126.608 453.286 124.597 453.302ZM124.597 483.949C120.526 483.944 116.587 482.499 113.479 479.87C110.37 477.241 108.291 473.597 107.61 469.583C106.929 465.568 107.69 461.443 109.758 457.935C111.825 454.428 115.067 451.765 118.909 450.417C122.751 449.07 126.946 449.124 130.751 450.571C134.557 452.018 137.728 454.765 139.704 458.325C141.68 461.885 142.333 466.029 141.548 470.024C140.763 474.019 138.59 477.608 135.414 480.155C132.346 482.616 128.53 483.954 124.597 483.949Z" fill="#F3C2D5"/>
<path d="M82.5 472.145H98.8874V462.399L91.2688 474.022L82.5 462.399V472.145ZM100.829 475.898H80.5586C80.0437 475.898 79.5499 475.701 79.1858 475.349C78.8218 474.997 78.6172 474.519 78.6172 474.022V460.523C78.6172 460.025 78.8218 459.548 79.1858 459.196C79.5499 458.844 80.0437 458.646 80.5586 458.646H100.829C101.344 458.646 101.838 458.844 102.202 459.196C102.566 459.548 102.77 460.025 102.77 460.523V474.022C102.77 474.519 102.566 474.997 102.202 475.349C101.838 475.701 101.344 475.898 100.829 475.898Z" fill="#2F4B6F" fill-opacity="0.72"/>
<path d="M93.5633 445.994H87.8125V437.943H93.5633V445.994Z" fill="#6D94E4"/>
<path d="M84.3679 445.994H78.6172V437.943H84.3679V445.994Z" fill="#6D94E4"/>
<path d="M74.0164 445.994H68.2656V437.943H74.0164V445.994Z" fill="#6D94E4"/>
<path d="M64.8133 445.994H59.0625V437.943H64.8133V445.994Z" fill="#6D94E4"/>
<path d="M55.6101 445.994H49.8594V437.943H55.6101V445.994Z" fill="#F3C2D5"/>
<path d="M59.4701 435.643H39.1049C38.6026 435.643 38.1209 435.453 37.7657 435.116C37.4105 434.778 37.2109 434.32 37.2109 433.842V425.942C37.2109 425.465 37.4105 425.007 37.7657 424.669C38.1209 424.331 38.6026 424.142 39.1049 424.142H59.4701C59.9725 424.142 60.4543 424.331 60.8095 424.669C61.1647 425.007 61.3641 425.465 61.3641 425.942V433.842C61.3641 434.32 61.1647 434.778 60.8095 435.116C60.4543 435.453 59.9725 435.643 59.4701 435.643Z" fill="#AF8FE9"/>
<path d="M73.0816 397.806L73.0213 397.696C72.7909 397.503 72.5112 397.376 72.2117 397.328C71.8865 397.267 71.6691 397.315 71.6229 397.364C71.9219 397.549 72.2462 397.693 72.5864 397.791C72.7542 397.832 72.9303 397.834 73.1003 397.796L73.0816 397.806ZM68.5253 392.5L68.4651 392.39C68.2469 392.188 67.9714 392.056 67.6741 392.012C67.4778 391.962 67.2703 391.968 67.0754 392.029C67.3637 392.234 67.6912 392.379 68.0389 392.456C68.2038 392.495 68.3744 392.506 68.544 392.49L68.5253 392.5ZM65.0796 393.097C64.8834 392.748 64.7774 392.356 64.771 391.954C64.7674 391.636 64.8366 391.321 64.9733 391.032C65.11 390.742 65.3107 390.486 65.5604 390.282C65.9196 390.007 66.3364 389.815 66.779 389.721C67.2215 389.628 67.6781 389.636 68.1136 389.745C68.8855 389.861 69.5973 390.214 70.1497 390.753L77.7112 384.377L83.9805 391.703L74.7002 399.52C74.3752 399.817 73.9828 400.031 73.5574 400.145L73.0369 400.573L73.055 400.205C72.7374 400.219 72.4201 400.192 72.1109 400.125C71.2788 399.962 70.5264 399.537 69.9644 398.914C69.5774 398.479 69.3654 397.918 69.3674 397.333C69.3591 397.017 69.4231 396.701 69.5548 396.411C69.6865 396.12 69.8825 395.861 70.128 395.654C70.49 395.376 70.9096 395.182 71.3552 395.088C71.8008 394.993 72.2606 394.999 72.6999 395.106C73.4624 395.24 74.1641 395.594 74.7173 396.125L78.201 393.194L75.4067 389.953L70.2142 394.343C69.8887 394.639 69.4965 394.853 69.0714 394.967L68.5422 395.424L68.569 395.028C68.2556 395.048 67.9415 395.027 67.6349 394.966C66.805 394.797 66.0542 394.374 65.4884 393.755L65.2274 393.278L65.0796 393.097Z" fill="#232E62"/>
<path d="M124.442 362.008L124.365 361.96C124.153 361.92 123.932 361.939 123.726 362.014C123.501 362.09 123.381 362.197 123.369 362.244C123.622 362.255 123.877 362.232 124.125 362.173C124.246 362.14 124.357 362.079 124.45 361.995L124.442 362.008ZM119.706 360.277L119.629 360.229C119.421 360.179 119.201 360.193 118.999 360.27C118.858 360.308 118.729 360.385 118.628 360.492C118.882 360.519 119.139 360.495 119.385 360.421C119.502 360.387 119.613 360.334 119.714 360.264L119.706 360.277ZM117.749 361.867C117.503 361.717 117.298 361.508 117.152 361.257C117.038 361.059 116.971 360.836 116.955 360.606C116.939 360.376 116.974 360.144 117.06 359.928C117.188 359.628 117.383 359.36 117.628 359.146C117.874 358.931 118.164 358.775 118.476 358.69C119.002 358.491 119.574 358.462 120.112 358.606L122.619 351.93L129.145 354.328L126.064 362.515C125.965 362.817 125.793 363.09 125.566 363.311L125.389 363.764L125.271 363.526C125.076 363.647 124.867 363.742 124.649 363.809C124.068 363.999 123.445 363.998 122.872 363.804C122.476 363.667 122.144 363.388 121.94 363.02C121.823 362.824 121.752 362.603 121.732 362.374C121.712 362.144 121.744 361.913 121.826 361.696C121.956 361.393 122.151 361.124 122.398 360.907C122.645 360.69 122.936 360.532 123.25 360.444C123.777 360.26 124.343 360.235 124.878 360.374L126.036 357.303L123.136 356.25L121.418 360.841C121.317 361.142 121.146 361.415 120.919 361.637L120.747 362.11L120.625 361.852C120.435 361.975 120.23 362.073 120.016 362.142C119.434 362.328 118.813 362.327 118.239 362.137L117.906 361.929L117.749 361.867Z" fill="#232E62"/>
<path d="M63.6646 354.355L63.6027 354.385C63.4912 354.507 63.4144 354.657 63.3803 354.82C63.3388 354.996 63.3591 355.117 63.3849 355.143C63.4943 354.984 63.5814 354.81 63.6435 354.626C63.6706 354.535 63.6761 354.439 63.6595 354.345L63.6646 354.355ZM60.6404 356.716L60.5785 356.746C60.4622 356.861 60.3829 357.008 60.3509 357.17C60.3186 357.276 60.3166 357.39 60.3452 357.499C60.4647 357.346 60.5526 357.17 60.6038 356.982C60.6292 356.892 60.6398 356.799 60.6352 356.706L60.6404 356.716ZM60.8791 358.62C60.683 358.718 60.4652 358.766 60.2449 358.759C60.0709 358.753 59.9 358.707 59.7448 358.625C59.5897 358.543 59.4544 358.426 59.3492 358.284C59.2072 358.08 59.1128 357.847 59.073 357.602C59.0333 357.357 59.0493 357.107 59.1199 356.871C59.2036 356.451 59.415 356.07 59.7248 355.781L56.4244 351.474L60.5994 348.227L64.6453 353.512C64.7996 353.698 64.9072 353.918 64.9585 354.154L65.1795 354.451L64.9786 354.431C64.9782 354.606 64.9554 354.779 64.9106 354.947C64.7997 355.398 64.5479 355.8 64.1922 356.092C63.9439 356.293 63.6306 356.395 63.3105 356.378C63.1369 356.375 62.9656 356.332 62.8096 356.252C62.6536 356.173 62.5168 356.059 62.4095 355.919C62.2667 355.713 62.1713 355.478 62.1307 355.232C62.0901 354.985 62.1053 354.733 62.175 354.495C62.2682 354.081 62.4805 353.705 62.7851 353.416L61.2686 351.432L59.421 352.88L61.6933 355.838C61.8472 356.024 61.9547 356.244 62.0064 356.48L62.2429 356.782L62.0266 356.757C62.0298 356.929 62.0104 357.101 61.9689 357.267C61.8551 357.718 61.6038 358.118 61.2505 358.412L60.9823 358.543L60.8791 358.62Z" fill="#232E62"/>
<path d="M135.631 408.809L135.459 413.929L135.788 412.956C136.176 412.255 136.405 411.482 136.46 410.688C136.442 410.194 136.289 409.714 136.017 409.296C135.9 409.138 135.771 408.99 135.631 408.851V408.809ZM133.358 414.263C133.019 414.284 132.695 414.405 132.429 414.611C132.308 414.683 132.202 414.778 132.119 414.891C132.035 415.003 131.976 415.13 131.943 415.265C131.944 415.312 131.954 415.359 131.974 415.402C131.994 415.445 132.022 415.484 132.058 415.516C132.145 415.615 132.267 415.68 132.401 415.696C132.741 415.712 133.075 415.608 133.344 415.404C133.491 415.314 133.614 415.191 133.703 415.046C133.792 414.901 133.846 414.738 133.859 414.569V414.361C133.859 414.361 133.759 414.361 133.43 414.361L133.358 414.263ZM132.515 417.241H132.186C131.691 417.17 131.236 416.934 130.9 416.573C130.717 416.39 130.575 416.172 130.484 415.932C130.392 415.692 130.354 415.437 130.371 415.182C130.398 414.811 130.514 414.451 130.71 414.132C130.906 413.813 131.177 413.543 131.5 413.345C132.064 412.918 132.759 412.688 133.473 412.691H133.644L133.93 403.439L135.702 403.509L135.788 404.441C135.784 405.003 135.948 405.554 136.26 406.027C136.46 406.319 136.689 406.597 136.903 406.862C137.117 407.126 137.375 407.446 137.546 407.71C138.118 408.484 138.424 409.414 138.418 410.368C138.321 411.619 137.919 412.831 137.246 413.902L137.032 414.277H135.445V414.542C135.422 414.933 135.309 415.314 135.117 415.658C134.924 416.002 134.655 416.3 134.33 416.531C133.813 416.929 133.175 417.149 132.515 417.157V417.241Z" fill="#232E62"/>
<path d="M11.6936 412.05L16.628 417.94L16.0048 416.538C15.7179 415.385 15.1891 414.302 14.4539 413.362C13.941 412.827 13.2981 412.435 12.5914 412.227C12.3094 412.161 12.0231 412.118 11.7353 412.096L11.6936 412.05ZM14.7235 420.313C14.3829 420.659 14.1588 421.104 14.0814 421.587C14.024 421.783 14.0064 421.99 14.0297 422.195C14.0531 422.4 14.1168 422.599 14.2172 422.781C14.2649 422.833 14.3226 422.875 14.3865 422.904C14.4505 422.934 14.5195 422.95 14.5893 422.952C14.7819 422.98 14.9765 422.936 15.1355 422.828C15.5129 422.521 15.7658 422.087 15.8485 421.603C15.9142 421.362 15.9225 421.108 15.8728 420.861C15.8231 420.614 15.7168 420.381 15.5623 420.18L15.3537 419.946C15.3537 419.946 15.2471 420.041 14.8969 420.354L14.7235 420.313ZM16.8008 424.446L16.4506 424.759C15.8523 425.152 15.1319 425.321 14.4128 425.237C14.0346 425.207 13.6653 425.098 13.3287 424.916C12.9921 424.735 12.6957 424.485 12.4589 424.184C12.1165 423.744 11.8808 423.231 11.7708 422.687C11.6609 422.144 11.6799 421.584 11.8262 421.055C12 420.041 12.5098 419.122 13.2739 418.446L13.4566 418.283L4.51424 407.662L6.47181 406.053L7.49481 407.014C8.05192 407.646 8.77736 408.107 9.58249 408.339C10.0877 408.475 10.6094 408.569 11.102 408.66C11.5946 408.752 12.1885 408.865 12.6354 408.997C14.0181 409.318 15.273 410.068 16.2201 411.14C17.3675 412.633 18.1501 414.37 18.5034 416.208L18.6504 416.833L16.9603 418.343L17.2245 418.638C17.5902 419.098 17.8517 419.632 17.9901 420.2C18.1286 420.768 18.1406 421.357 18.0254 421.925C17.8719 422.863 17.412 423.716 16.7174 424.353L16.8008 424.446Z" fill="#232E62"/>
<path d="M149.397 309.736L154.331 315.626L153.708 314.224C153.421 313.071 152.892 311.988 152.157 311.047C151.644 310.512 151.001 310.121 150.295 309.913C150.012 309.847 149.726 309.804 149.438 309.782L149.397 309.736ZM152.427 317.999C152.086 318.345 151.862 318.789 151.784 319.273C151.727 319.469 151.71 319.676 151.733 319.881C151.756 320.086 151.82 320.285 151.92 320.467C151.968 320.519 152.026 320.561 152.09 320.59C152.154 320.62 152.223 320.636 152.292 320.638C152.485 320.666 152.68 320.622 152.839 320.514C153.216 320.207 153.469 319.772 153.552 319.289C153.617 319.048 153.626 318.794 153.576 318.547C153.526 318.3 153.42 318.066 153.265 317.865L153.057 317.632C153.057 317.632 152.95 317.727 152.6 318.04L152.427 317.999ZM154.504 322.132L154.154 322.445C153.555 322.838 152.835 323.006 152.116 322.923C151.738 322.893 151.368 322.783 151.032 322.602C150.695 322.421 150.399 322.171 150.162 321.87C149.82 321.429 149.584 320.917 149.474 320.373C149.364 319.829 149.383 319.27 149.529 318.741C149.703 317.727 150.213 316.808 150.977 316.132L151.16 315.969L142.217 305.347L144.175 303.738L145.198 304.699C145.755 305.332 146.48 305.793 147.286 306.024C147.791 306.161 148.313 306.254 148.805 306.346C149.298 306.438 149.892 306.551 150.339 306.683C151.721 307.004 152.976 307.754 153.923 308.826C155.071 310.318 155.853 312.056 156.207 313.894L156.354 314.518L154.663 316.028L154.928 316.324C155.293 316.784 155.555 317.317 155.693 317.886C155.832 318.454 155.844 319.043 155.729 319.611C155.575 320.549 155.115 321.402 154.42 322.039L154.504 322.132Z" fill="#232E62"/>
</svg>
