<svg width="603" height="507" viewBox="0 0 603 507" fill="none" xmlns="http://www.w3.org/2000/svg">
<path d="M125.213 384.672C178.061 447.639 319.762 398.099 371.092 392.926C422.422 387.753 573.44 341.917 505.586 203.066C437.732 64.2148 267.777 147.985 222.727 176.404C180.49 203.034 48.729 293.589 125.245 384.672H125.213Z" fill="#F3C2D5"/>
<path d="M306.432 397.543L305.385 335.02C305.385 335.02 308.483 317.343 314.825 306.008L294.25 292.703L276.376 287.999L261.725 287.274C261.725 287.274 256.618 300.951 254.19 303.749C251.762 306.546 246.09 397.937 246.09 397.937L243.516 434.224V435.115V435.322L245.839 478.116V488.353H263.19V478.116L269.239 436.814L274.283 400.486L279.055 400.921L283.827 435.343L287.323 479.463V489.7H304.695V479.463L309.571 433.871V433.685V432.794L306.641 397.564L306.432 397.543Z" fill="#C3A8FF"/>
<path d="M374.438 342.888C374.585 342.649 374.65 342.364 374.621 342.081C374.593 341.798 374.473 341.534 374.281 341.332L372.868 339.898C373.086 339.943 373.312 339.92 373.517 339.833C373.723 339.745 373.9 339.597 374.026 339.406C374.183 339.199 374.269 338.943 374.269 338.679C374.269 338.415 374.183 338.159 374.026 337.952L373.476 337.215C373.612 337.128 373.732 337.017 373.829 336.887C373.992 336.678 374.081 336.418 374.081 336.149C374.081 335.881 373.992 335.62 373.829 335.412L371.417 332.217L371.083 331.95L367.965 329.247C367.695 329.003 367.371 328.834 367.023 328.755C364.814 327.65 362.438 326.957 360.001 326.707C358.775 326.582 357.543 326.548 356.313 326.604L351.86 326.379L351.625 337.03H352.076L352.645 337.829C353.623 338.985 354.685 340.061 355.823 341.045C355.965 341.136 356.116 341.211 356.274 341.27H356.568L357.215 341.864L358.51 343.318C359.373 344.343 360.236 345.367 361.021 346.514C361.263 346.811 361.6 347.006 361.97 347.064C362.339 347.122 362.716 347.038 363.031 346.829C363.347 346.619 363.579 346.298 363.685 345.924C363.791 345.55 363.765 345.148 363.61 344.793C362.963 343.482 362.296 342.212 361.648 340.942C361.648 340.84 361.648 340.594 361.923 340.266C362.058 340.364 362.203 340.446 362.354 340.512L367.415 342.806L367.16 342.622L372.044 346.043C372.282 346.203 372.568 346.268 372.847 346.223C373.127 346.179 373.382 346.029 373.563 345.802C373.744 345.575 373.839 345.287 373.831 344.991C373.822 344.696 373.71 344.414 373.516 344.199L371.554 342.151L372.692 342.97C372.818 343.059 372.96 343.121 373.109 343.153C373.258 343.185 373.412 343.185 373.561 343.155C373.711 343.124 373.853 343.064 373.98 342.976C374.106 342.888 374.215 342.775 374.3 342.643L374.438 342.888Z" fill="#F3AE9D"/>
<path d="M197.428 248.737C197.209 248.913 197.054 249.161 196.987 249.437C196.919 249.714 196.945 250.003 197.059 250.257L197.915 252.079C197.724 251.964 197.504 251.91 197.281 251.925C197.058 251.939 196.842 252.02 196.66 252.158C196.443 252.301 196.277 252.514 196.189 252.763C196.101 253.012 196.097 253.282 196.177 253.53L196.45 254.408C196.293 254.444 196.144 254.509 196.008 254.599C195.786 254.742 195.615 254.958 195.526 255.212C195.437 255.465 195.434 255.74 195.518 255.991L196.732 259.806L196.958 260.168L199.002 263.754C199.175 264.073 199.425 264.34 199.727 264.531C201.443 266.306 203.454 267.749 205.67 268.795C206.784 269.319 207.935 269.761 209.114 270.117L213.239 271.809L216.999 261.84L216.574 261.69L216.302 260.748C215.764 259.333 215.119 257.965 214.373 256.659C214.269 256.526 214.152 256.405 214.023 256.297L213.745 256.199L213.332 255.424L212.594 253.622C212.12 252.369 211.646 251.117 211.287 249.774C211.157 249.414 210.904 249.117 210.575 248.94C210.246 248.763 209.862 248.716 209.495 248.809C209.129 248.902 208.803 249.128 208.578 249.445C208.354 249.763 208.246 250.151 208.274 250.537C208.449 251.988 208.656 253.408 208.845 254.821C208.811 254.917 208.729 255.149 208.361 255.367C208.266 255.23 208.157 255.104 208.036 254.992L204.024 251.147L204.204 251.405L200.733 246.556C200.563 246.326 200.314 246.17 200.036 246.119C199.757 246.068 199.467 246.125 199.221 246.279C198.975 246.433 198.789 246.673 198.699 246.955C198.609 247.236 198.621 247.539 198.733 247.807L199.903 250.39L199.102 249.239C199.013 249.114 198.899 249.008 198.769 248.928C198.639 248.849 198.494 248.797 198.343 248.776C198.192 248.756 198.038 248.766 197.889 248.807C197.74 248.847 197.6 248.918 197.476 249.014L197.428 248.737Z" fill="#F3AE9D"/>
<path d="M356.233 326.286L351.101 342.461C351.075 342.474 351.047 342.481 351.019 342.481C350.99 342.481 350.962 342.474 350.936 342.461L347.405 341.394L344.736 340.557L338.577 338.716L335.867 337.879L329.852 336.079L327.162 335.263L324.576 334.468L323.796 334.217L322.707 333.61L322.461 333.463L319.956 331.999L314.742 328.985C313.904 328.487 312.936 328.268 311.97 328.357C310.776 328.424 309.645 328.929 308.788 329.78L304.682 335.158C304.671 335.176 304.655 335.19 304.637 335.2C304.62 335.209 304.6 335.215 304.579 335.215C304.559 335.215 304.539 335.209 304.521 335.2C304.503 335.19 304.488 335.176 304.477 335.158C304.477 335.158 309.116 302.953 313.756 305.862L317.862 308.541L320.326 310.131L325.459 313.416L327.922 315.007L331.33 317.099L332.398 317.518L335.087 318.459L341 320.552L343.648 321.536L349.684 323.628L352.333 324.57L356.11 325.93C356.129 325.95 356.139 325.976 356.139 326.003C356.139 326.031 356.129 326.057 356.11 326.076L356.233 326.286Z" fill="white"/>
<path d="M297.579 274.461L279.659 270.021L276.32 287.903C274.503 294.388 276.997 300.71 281.899 301.999C286.126 303.124 290.944 299.953 293.268 294.777C293.553 294.083 293.766 293.364 293.902 292.629L297.579 274.461Z" fill="#F3AE9D"/>
<path d="M295.567 282.317L296.425 274.273L295.421 273.974L283.773 271.172V271.942C285.143 281.055 289.25 288.285 294.362 290.724L295.64 282.317H295.567Z" fill="#232E62"/>
<path d="M277.046 259.333C275.611 273.584 283.379 286.043 294.406 287.189C305.433 288.335 315.476 277.709 316.952 263.458C318.427 249.207 310.598 236.748 299.591 235.602C288.585 234.456 278.501 245.102 277.046 259.333Z" fill="#F3AE9D"/>
<path d="M314.306 239.326C310.925 232.372 301.626 227.31 291.05 228.915C286.815 229.386 282.796 231.025 279.442 233.647C277.917 232.701 275.731 233.298 272.618 236.26C255.011 252.989 274.494 274.881 278.803 279.223L279.752 274.058C277.675 269.253 276.886 263.992 277.463 258.791C277.571 257.691 277.743 256.599 277.979 255.519C280.043 258.19 282.799 260.248 285.949 261.47C289.099 262.692 292.524 263.032 295.854 262.454C299.163 262.144 302.377 261.177 305.305 259.608C308.233 258.039 310.817 255.9 312.904 253.318C321.151 255.375 322.883 248.709 322.883 248.709C317.873 248.709 316.12 242.536 314.409 239.388L314.306 239.326Z" fill="#2F4B6F"/>
<path d="M269.003 264.355C268.678 265.799 268.789 267.307 269.321 268.688C269.854 270.069 270.785 271.26 271.996 272.112C273.207 272.963 274.643 273.436 276.123 273.47C277.603 273.504 279.06 273.098 280.309 272.304C281.558 271.51 282.543 270.363 283.139 269.008C283.735 267.653 283.916 266.152 283.658 264.695C283.4 263.238 282.715 261.89 281.689 260.822C280.664 259.754 279.345 259.015 277.899 258.698C276.943 258.485 275.955 258.463 274.991 258.632C274.027 258.802 273.105 259.159 272.279 259.685C271.453 260.21 270.738 260.893 270.176 261.694C269.614 262.496 269.216 263.4 269.003 264.355Z" fill="#F3AE9D"/>
<path d="M272.924 268.837C273.087 268.883 273.259 268.883 273.422 268.837L278.61 266.942C278.747 266.89 278.869 266.805 278.964 266.694C279.059 266.584 279.125 266.452 279.155 266.31C279.18 266.162 279.164 266.011 279.11 265.871C279.056 265.731 278.965 265.608 278.847 265.514L274.843 262.169C274.759 262.098 274.662 262.044 274.557 262.011C274.452 261.977 274.341 261.964 274.231 261.973C274.009 261.991 273.803 262.095 273.659 262.262C273.514 262.43 273.443 262.647 273.461 262.866C273.479 263.086 273.584 263.289 273.754 263.432L276.644 265.772L272.83 267.152C272.62 267.231 272.448 267.387 272.351 267.587C272.254 267.788 272.239 268.017 272.308 268.228C272.362 268.359 272.446 268.476 272.553 268.569C272.659 268.662 272.787 268.73 272.924 268.767V268.837Z" fill="#232E62"/>
<path d="M311.375 274.231C313.11 275.711 315.189 276.179 315.78 275.399C316.371 274.62 315.589 272.672 313.873 271.172L311.394 274.231H311.375Z" fill="#F3AE9D"/>
<path d="M273.428 386.187C273.134 386.187 272.853 386.081 272.645 385.893C272.438 385.705 272.321 385.449 272.321 385.183C271.835 358.756 274.547 332.36 280.407 306.469C280.477 306.214 280.651 305.991 280.894 305.847C281.137 305.703 281.431 305.647 281.717 305.691C282.006 305.745 282.26 305.9 282.425 306.122C282.589 306.344 282.652 306.616 282.598 306.879C276.745 332.625 274.041 358.879 274.535 385.163C274.535 385.431 274.419 385.688 274.212 385.88C274.005 386.071 273.724 386.181 273.428 386.187Z" fill="white"/>
<path d="M272.276 331.537C272.28 332.107 272.081 332.665 271.703 333.141C271.326 333.616 270.787 333.988 270.156 334.208C269.524 334.427 268.829 334.486 268.158 334.376C267.486 334.265 266.869 333.991 266.386 333.588C265.902 333.185 265.573 332.671 265.44 332.111C265.308 331.552 265.378 330.972 265.642 330.446C265.906 329.92 266.351 329.471 266.922 329.156C267.493 328.842 268.163 328.676 268.847 328.679C269.755 328.684 270.623 328.987 271.265 329.521C271.907 330.056 272.27 330.78 272.276 331.537Z" fill="white"/>
<path d="M269.971 348.232C269.971 348.915 269.768 349.583 269.388 350.151C269.008 350.719 268.468 351.161 267.836 351.422C267.204 351.682 266.51 351.749 265.84 351.614C265.17 351.479 264.555 351.149 264.073 350.664C263.592 350.179 263.265 349.562 263.134 348.891C263.003 348.221 263.075 347.526 263.339 346.896C263.604 346.266 264.049 345.729 264.62 345.352C265.19 344.976 265.859 344.777 266.542 344.781C267.454 344.787 268.326 345.153 268.968 345.8C269.611 346.446 269.971 347.32 269.971 348.232Z" fill="white"/>
<path d="M503.453 386.646L494.663 439.59L494.745 438.642L492.034 493.151L477 492.657L477.862 438.086L477.883 437.736L477.945 437.118L484.846 383.886L503.453 386.646Z" fill="#C3A8FF"/>
<path d="M576.463 418.516L540.875 432.175L521.122 381.586L503.453 388.748L528.102 446.395L528.227 446.686C528.658 447.697 529.286 448.614 530.076 449.382C530.865 450.15 531.799 450.754 532.824 451.159C533.85 451.565 534.945 451.764 536.048 451.744C537.151 451.724 538.239 451.487 539.249 451.045L582.172 433.047L583.964 424.245L576.504 418.474L576.463 418.516Z" fill="#C3A8FF"/>
<path d="M590.49 416.075L600.802 444.934C601.106 445.784 601.242 446.687 601.202 447.59C601.163 448.494 600.949 449.38 600.572 450.2C600.196 451.019 599.665 451.755 599.009 452.365C598.353 452.976 597.586 453.448 596.75 453.757L596.001 454.046L581.656 413.828L584.067 412.942C585.322 412.484 586.704 412.55 587.911 413.125C589.119 413.701 590.053 414.739 590.51 416.013L590.49 416.075Z" fill="white"/>
<path d="M574.446 435.447C574.446 435.447 576.047 436.569 578.716 438.179C585.582 442.273 591.573 447.663 596.349 454.046C596.349 454.046 601.664 454.151 591.695 431.273C591.695 431.273 587.425 413.712 583.305 412.738C579.185 411.763 572.461 418.394 572.461 418.394C572.461 418.394 578.46 421.169 579.783 425.935C580.078 426.907 580.173 427.928 580.063 428.938C579.953 429.947 579.64 430.924 579.143 431.811C578.645 432.698 577.973 433.477 577.166 434.102C576.359 434.726 575.434 435.183 574.446 435.447Z" fill="#232E62"/>
<path d="M601.367 447.145C601.161 447.143 600.961 447.078 600.793 446.957C600.625 446.835 600.499 446.665 600.432 446.469L589.736 416.168C589.681 415.927 589.717 415.674 589.836 415.458C589.954 415.242 590.148 415.077 590.38 414.996C590.612 414.915 590.865 414.923 591.091 415.018C591.318 415.113 591.501 415.289 591.607 415.512L602.303 445.792C602.348 445.918 602.368 446.05 602.361 446.183C602.355 446.316 602.323 446.446 602.266 446.566C602.209 446.686 602.129 446.794 602.031 446.883C601.932 446.971 601.818 447.04 601.693 447.083C601.585 447.103 601.475 447.103 601.367 447.083V447.145Z" fill="#232E62"/>
<path d="M464.74 293.214L453.992 302.052L457.582 322.339L471.606 369.059L467.14 417.361H467.891C495.106 420.959 522.742 415.062 546.004 400.692L505.309 310.603L499.55 290.192L481.832 287.274L464.74 293.214Z" fill="#F49DC3"/>
<path d="M577.374 297.154V294.806C577.426 294.742 577.469 294.672 577.505 294.598L582.126 287.161C582.338 286.784 582.4 286.347 582.3 285.931C582.199 285.514 581.944 285.147 581.581 284.896C581.29 284.7 580.934 284.609 580.579 284.639C580.224 284.67 579.891 284.82 579.641 285.062C579.816 284.67 579.833 284.231 579.688 283.828C579.543 283.425 579.247 283.088 578.856 282.881C578.52 282.686 578.117 282.625 577.734 282.711C577.351 282.796 577.018 283.021 576.807 283.338L572.011 290.588C572.011 290.588 572.011 290.588 572.011 290.692C571.955 290.758 571.904 290.828 571.859 290.9L566.257 302.555L553.177 302.805H550.692C550.582 304.416 550.582 306.033 550.692 307.645C550.768 309.649 551.016 311.643 551.433 313.608H553.613L561.134 313.463C562.698 313.792 564.317 313.814 565.891 313.528C567.465 313.243 568.961 312.655 570.289 311.8L570.486 311.655C573.535 309.25 576.22 306.453 578.464 303.345C578.733 302.949 579.024 302.568 579.336 302.202C579.931 301.547 580.477 300.852 580.971 300.125C581.68 299.117 582.251 298.028 582.671 296.884C583.587 294.162 579.881 294.931 577.505 297.091L577.374 297.154Z" fill="#F3AE9D"/>
<path d="M527.277 297.003L499.939 290.724L499.36 292.987C498.808 295.173 498.704 297.445 499.055 299.671C499.405 301.896 500.203 304.03 501.401 305.948C502.599 307.866 504.173 309.529 506.031 310.839C507.89 312.149 509.995 313.08 512.223 313.578L523.555 314.821L562.66 318.328L563.26 301.529L527.277 297.003Z" fill="white"/>
<path d="M408.047 349.856L419.489 343.228L414.426 334.43L405.353 339.66L401.91 340.268C400.647 340.379 399.394 340.589 398.164 340.896C395.695 341.445 393.348 342.442 391.238 343.836C390.881 343.956 390.566 344.174 390.326 344.464L387.471 347.525L387.187 347.829L385.162 351.296C385.02 351.519 384.96 351.785 384.993 352.048C385.027 352.311 385.151 352.554 385.344 352.735C385.46 352.854 385.598 352.95 385.749 353.019L385.263 353.809C385.134 354.018 385.072 354.263 385.086 354.509C385.1 354.754 385.19 354.99 385.342 355.183C385.495 355.376 385.704 355.517 385.94 355.586C386.176 355.656 386.427 355.652 386.661 355.573L385.385 357.174C385.203 357.408 385.114 357.702 385.136 357.997C385.158 358.293 385.289 358.57 385.503 358.775C385.718 358.979 386 359.097 386.297 359.105C386.593 359.112 386.881 359.01 387.106 358.816L388.179 357.884L386.458 360.114C386.286 360.329 386.192 360.597 386.192 360.874C386.192 361.15 386.286 361.418 386.458 361.634C386.668 361.869 386.963 362.012 387.278 362.031C387.593 362.05 387.902 361.944 388.139 361.735L392.716 357.681L392.473 357.904L397.354 354.985L397.759 354.681C398.042 354.985 398.164 355.188 398.123 355.309C397.536 356.647 397.03 357.985 396.523 359.364C396.399 359.714 396.401 360.097 396.531 360.445C396.661 360.794 396.909 361.086 397.232 361.269C397.411 361.378 397.609 361.449 397.816 361.479C398.023 361.509 398.233 361.497 398.436 361.445C398.638 361.392 398.827 361.299 398.993 361.171C399.158 361.043 399.296 360.884 399.399 360.701C400.067 359.526 400.796 358.35 401.566 357.215L402.7 355.613L403.287 354.944L403.591 354.823L404.016 354.559C405.055 353.433 406.003 352.227 406.852 350.951L407.196 350.323L407.702 350.039L408.047 349.856Z" fill="#F3AE9D"/>
<path d="M455.129 302.226L428.375 322.483L404.539 336.938L412.947 351.682L437.966 338.156L438.191 338.032L438.721 337.661L454.884 326.448C456.404 325.391 457.701 324.038 458.698 322.468C459.695 320.897 460.372 319.141 460.69 317.302C461.007 315.464 460.959 313.579 460.547 311.76C460.135 309.94 459.368 308.222 458.292 306.707L455.108 302.226H455.129Z" fill="white"/>
<path d="M471.167 369.948L472.29 375.833C472.435 376.605 472.731 377.341 473.16 377.998C473.59 378.656 474.146 379.222 474.795 379.664C475.444 380.107 476.174 380.417 476.944 380.576C477.713 380.736 478.506 380.742 479.278 380.594C480.839 380.29 482.22 379.387 483.125 378.078C483.568 377.428 483.877 376.696 484.034 375.925C484.192 375.153 484.193 374.359 484.04 373.587L482.938 367.702L471.167 369.948ZM478.155 382.736C476.287 382.731 474.48 382.077 473.042 380.886C471.604 379.695 470.625 378.041 470.273 376.207L468.962 369.324C468.938 369.191 468.94 369.055 468.968 368.923C468.997 368.79 469.052 368.665 469.129 368.555C469.2 368.443 469.294 368.348 469.405 368.276C469.517 368.204 469.642 368.157 469.774 368.139L483.541 365.498C483.809 365.455 484.084 365.514 484.31 365.664C484.533 365.816 484.689 366.046 484.747 366.309L486.057 373.213C486.453 375.303 486.003 377.464 484.806 379.223C483.609 380.981 481.763 382.193 479.673 382.591C479.173 382.691 478.664 382.739 478.155 382.736Z" fill="white"/>
<path d="M513.787 358.499L515.481 364.021C515.937 365.485 516.957 366.711 518.317 367.429C519.678 368.148 521.269 368.301 522.742 367.856C523.473 367.633 524.153 367.268 524.741 366.782C525.33 366.296 525.816 365.699 526.171 365.025C526.532 364.356 526.755 363.623 526.828 362.868C526.901 362.113 526.821 361.351 526.595 360.627L524.88 355.085L513.787 358.499ZM521.028 370.085C519.761 370.086 518.514 369.776 517.397 369.181C515.574 368.21 514.206 366.567 513.585 364.603L511.568 358.137C511.477 357.891 511.477 357.62 511.568 357.374C511.693 357.144 511.903 356.971 512.153 356.892L525.143 352.876C525.394 352.8 525.665 352.824 525.899 352.944C526.133 353.064 526.31 353.27 526.393 353.519L528.41 360.005C529.015 361.969 528.812 364.093 527.845 365.908C527.37 366.811 526.718 367.609 525.929 368.258C525.139 368.906 524.227 369.391 523.247 369.683C522.504 369.922 521.728 370.044 520.947 370.045L521.028 370.085Z" fill="white"/>
<path d="M484.489 291.662L477.374 273.472L460.898 280.968L467.347 297.219C467.701 298.332 468.283 299.365 469.059 300.257C469.836 301.15 470.791 301.883 471.867 302.415C472.944 302.946 474.121 303.265 475.328 303.352C476.535 303.438 477.748 303.291 478.895 302.92C480.042 302.548 481.1 301.959 482.006 301.187C482.911 300.415 483.647 299.477 484.168 298.427C484.69 297.377 484.987 296.238 485.042 295.076C485.097 293.914 484.909 292.753 484.489 291.662Z" fill="#F3AE9D"/>
<path d="M463.354 287.649L460.898 280.261L461.981 279.746L474.467 274.622L474.695 275.322C474.841 284.233 471.636 291.909 466.371 295.325L463.396 287.649H463.354Z" fill="#232E62"/>
<path d="M477.905 261.459C482.037 274.746 476.645 288.053 465.964 291.203C455.283 294.353 443.239 286.114 439.231 272.827C435.223 259.54 440.491 246.213 451.172 243.083C461.853 239.953 473.897 248.172 477.905 261.459Z" fill="#F3AE9D"/>
<path d="M498.145 257.174C481.01 224.16 468.266 226.783 463.977 231.196C460.544 230.935 457.092 231.266 453.766 232.174C442.166 235.047 435.018 243.665 435.63 250.638C435.599 251.123 435.599 251.61 435.63 252.095C435.573 253.421 435.802 254.743 436.299 255.969C436.796 257.195 437.551 258.296 438.51 259.193C438.51 258.611 438.694 258.028 438.796 257.466C443.207 261.962 451.438 261.421 460.363 258.985C462.021 258.535 463.634 257.928 465.182 257.174C465.86 258.506 466.782 259.693 467.899 260.671C471.411 263.773 475.904 264.314 478.11 262.004C479.328 266.692 479.433 271.608 478.416 276.346L484.033 291.583C484.044 291.68 484.044 291.778 484.033 291.874C500.575 291.292 518.405 276.117 518.405 276.117C518.405 276.117 507.111 274.618 497.982 257.174H498.145Z" fill="#2F4B6F"/>
<path d="M486.739 264.184C487.324 265.541 487.494 267.041 487.228 268.495C486.961 269.948 486.27 271.29 485.241 272.351C484.212 273.412 482.892 274.144 481.447 274.455C480.002 274.766 478.498 274.641 477.123 274.098C475.749 273.554 474.567 272.615 473.726 271.399C472.885 270.184 472.424 268.747 472.399 267.269C472.375 265.791 472.789 264.34 473.59 263.097C474.39 261.855 475.541 260.878 476.896 260.289C477.798 259.897 478.768 259.687 479.751 259.671C480.735 259.655 481.711 259.833 482.625 260.195C483.54 260.557 484.374 261.095 485.079 261.78C485.785 262.464 486.349 263.281 486.739 264.184Z" fill="#F3AE9D"/>
<path d="M447.093 282.316C445.631 284.473 443.739 285.551 442.901 284.66C442.063 283.769 442.55 281.379 444.032 279.223L447.093 282.246V282.316Z" fill="#F3AE9D"/>
<path d="M474.392 233.83L470.027 223.339C469.864 222.967 469.598 222.65 469.26 222.428C468.922 222.206 468.528 222.087 468.125 222.087C467.721 222.087 467.327 222.206 466.989 222.428C466.652 222.65 466.385 222.967 466.222 223.339L463.25 230.766C463.25 230.766 463.25 230.913 463.25 230.997C463.036 230.921 462.811 230.886 462.584 230.892L462.834 222.604C462.823 222.211 462.703 221.828 462.486 221.5C462.27 221.173 461.967 220.913 461.611 220.751C461.255 220.589 460.862 220.531 460.475 220.584C460.088 220.638 459.724 220.8 459.425 221.052L451.109 228.941C450.843 229.228 450.661 229.584 450.586 229.97C450.511 230.356 450.544 230.755 450.683 231.123C450.822 231.49 451.06 231.811 451.371 232.049C451.681 232.286 452.052 232.431 452.44 232.466L461.088 232.738C461.13 233.007 461.237 233.261 461.4 233.477C461.564 233.693 461.778 233.865 462.023 233.976C462.399 234.15 462.827 234.168 463.215 234.026C463.604 233.885 463.922 233.596 464.102 233.221C464.235 233.337 464.381 233.436 464.539 233.515L471.898 236.536C472.273 236.677 472.681 236.705 473.073 236.617C473.464 236.529 473.821 236.329 474.102 236.041C474.384 235.753 474.576 235.389 474.657 234.993C474.738 234.597 474.704 234.185 474.559 233.809L474.392 233.83Z" fill="#C3A8FF"/>
<path d="M265.341 495.772V490.603C265.341 489.988 265.096 489.398 264.661 488.962C264.226 488.527 263.636 488.283 263.02 488.283H261.438C260.775 487.116 259.815 486.146 258.655 485.471C257.495 484.796 256.177 484.44 254.835 484.44C253.493 484.44 252.175 484.796 251.016 485.471C249.856 486.146 248.896 487.116 248.233 488.283H246.777C246.162 488.283 245.571 488.527 245.136 488.962C244.701 489.398 244.457 489.988 244.457 490.603V495.413C243.47 496.081 242.663 496.98 242.104 498.032C241.545 499.083 241.252 500.256 241.25 501.447H268.147C268.141 500.35 267.886 499.268 267.399 498.285C266.913 497.302 266.209 496.442 265.341 495.772Z" fill="white"/>
<path d="M260.807 495.224H260.469C257.052 494.049 253.34 494.049 249.922 495.224C249.662 495.313 249.377 495.296 249.129 495.175C248.882 495.054 248.693 494.84 248.603 494.58C248.514 494.32 248.531 494.035 248.652 493.788C248.773 493.54 248.987 493.351 249.247 493.262C253.083 491.953 257.245 491.953 261.081 493.262C261.22 493.284 261.352 493.333 261.472 493.406C261.591 493.48 261.695 493.576 261.778 493.69C261.86 493.803 261.919 493.932 261.952 494.069C261.984 494.205 261.989 494.347 261.967 494.485C261.945 494.624 261.896 494.756 261.822 494.876C261.749 494.995 261.653 495.099 261.539 495.182C261.425 495.264 261.297 495.323 261.16 495.355C261.024 495.388 260.882 495.393 260.744 495.371L260.807 495.224Z" fill="#9CBDFF"/>
<path d="M285.432 498.672C301.401 504.072 318.994 502.11 325.196 499.136C325.196 499.136 327.306 493.461 309.987 489.432C304.671 488.187 301.907 481.31 301.907 481.31C301.907 481.31 300.789 479.77 297.899 480.635C295.009 481.5 292.731 485.782 295.051 487.786C295.051 487.786 294.861 488.862 288.026 487.66C288.026 487.66 285.917 486.942 287.14 492.491C286.646 492.794 286.225 493.203 285.908 493.688C285.591 494.173 285.385 494.722 285.305 495.296C285.19 496.422 285.233 497.558 285.432 498.672Z" fill="white"/>
<path d="M313.976 490.824C313.68 490.824 313.391 490.728 313.154 490.55C311.914 489.596 310.394 489.078 308.829 489.078C307.265 489.078 305.744 489.596 304.505 490.55C304.191 490.768 303.804 490.853 303.428 490.786C303.052 490.719 302.719 490.505 302.5 490.192C302.282 489.878 302.197 489.491 302.265 489.115C302.332 488.739 302.546 488.406 302.859 488.187C304.577 486.875 306.678 486.164 308.84 486.164C311.001 486.164 313.103 486.875 314.82 488.187C315.07 488.367 315.256 488.621 315.352 488.913C315.448 489.205 315.45 489.52 315.356 489.812C315.262 490.105 315.079 490.361 314.831 490.543C314.583 490.724 314.284 490.823 313.976 490.824Z" fill="#9CBDFF"/>
<path d="M318.447 492.681C318.154 492.681 317.867 492.593 317.624 492.428C316.389 491.463 314.867 490.939 313.3 490.939C311.733 490.939 310.21 491.463 308.975 492.428C308.815 492.548 308.632 492.634 308.438 492.68C308.243 492.727 308.041 492.734 307.844 492.701C307.646 492.667 307.458 492.594 307.29 492.485C307.122 492.377 306.978 492.235 306.866 492.069C306.743 491.91 306.654 491.727 306.606 491.532C306.557 491.337 306.549 491.134 306.583 490.936C306.617 490.738 306.691 490.548 306.802 490.38C306.912 490.212 307.056 490.069 307.224 489.959C308.946 488.657 311.046 487.953 313.205 487.953C315.364 487.953 317.464 488.657 319.185 489.959C319.354 490.069 319.498 490.212 319.608 490.38C319.719 490.548 319.793 490.738 319.827 490.936C319.86 491.134 319.853 491.337 319.804 491.532C319.755 491.727 319.667 491.91 319.544 492.069C319.413 492.26 319.236 492.416 319.03 492.523C318.824 492.629 318.595 492.684 318.363 492.681H318.447Z" fill="#9CBDFF"/>
<path d="M473.729 485.772C473.729 485.772 472.4 486.659 469.257 489.296C464.275 493.479 458.488 496.595 452.254 498.451L449.807 499.189C449.807 499.189 447.908 504.084 472.695 502.586C472.695 502.586 490.563 504.696 492.884 501.088C495.204 497.481 490.774 488.916 490.774 488.916C488.002 490.732 484.742 491.659 481.429 491.574C476.514 491.173 473.729 485.772 473.729 485.772Z" fill="#232E62"/>
<path d="M574.727 434.91C574.727 434.91 576.31 436.028 578.947 437.631C585.732 441.708 591.652 447.076 596.371 453.432C596.371 453.432 601.624 453.538 591.773 430.754C591.773 430.754 587.554 413.266 583.482 412.295C579.411 411.325 572.766 417.928 572.766 417.928C572.766 417.928 578.693 420.691 580.001 425.438C580.293 426.406 580.387 427.423 580.278 428.428C580.17 429.433 579.86 430.406 579.368 431.29C578.877 432.173 578.212 432.949 577.415 433.571C576.618 434.192 575.704 434.648 574.727 434.91Z" fill="#232E62"/>
<path d="M601.913 446.724C601.699 446.723 601.491 446.655 601.317 446.53C601.143 446.406 601.012 446.23 600.942 446.028L589.846 414.827C589.79 414.579 589.826 414.319 589.95 414.096C590.073 413.873 590.274 413.704 590.514 413.62C590.755 413.537 591.017 413.545 591.252 413.643C591.487 413.741 591.678 413.922 591.787 414.152L602.883 445.332C602.93 445.46 602.951 445.597 602.944 445.734C602.937 445.871 602.904 446.005 602.845 446.128C602.786 446.252 602.703 446.363 602.601 446.454C602.499 446.546 602.38 446.616 602.25 446.661C602.139 446.681 602.024 446.681 601.913 446.661V446.724Z" fill="#232E62"/>
<path d="M487.677 506.762H456.203C455.923 506.762 455.655 506.651 455.457 506.453C455.26 506.255 455.148 505.987 455.148 505.707C455.148 505.427 455.26 505.159 455.457 504.961C455.655 504.763 455.923 504.652 456.203 504.652H487.677C487.957 504.652 488.225 504.763 488.423 504.961C488.621 505.159 488.732 505.427 488.732 505.707C488.732 505.987 488.621 506.255 488.423 506.453C488.225 506.651 487.957 506.762 487.677 506.762Z" fill="#232E62"/>
<path d="M260.77 288.405C260.529 292.762 259.567 297.049 257.923 301.097C256.177 305.695 253.655 309.966 250.464 313.727L241.176 304.656L239.098 302.599L234.465 298.073L232.387 296.016L229.52 293.219L228.522 292.663L227.982 292.211L227.608 291.902L225.53 290.03L221.686 286.698L219.608 284.826L215.12 281.02L213.043 279.148L205.562 272.71L217.842 260.82L223.91 265.531L226.174 267.279L230.829 270.9L233.073 272.648L237.062 275.796L239.14 277.379L239.368 277.482L245.165 280.362L247.763 281.658L253.352 284.764L255.949 286.06L260.687 288.405H260.77Z" fill="white"/>
<path d="M149.208 493.151H30.7422V434.493H149.208V493.151Z" fill="white"/>
<path d="M159.922 495.451H7.35797C6.84656 495.451 6.35612 495.209 5.99449 494.777C5.63287 494.346 5.42969 493.761 5.42969 493.151C5.42969 492.541 5.63287 491.956 5.99449 491.524C6.35612 491.093 6.84656 490.85 7.35797 490.85H159.922C160.433 490.85 160.924 491.093 161.285 491.524C161.647 491.956 161.85 492.541 161.85 493.151C161.85 493.761 161.647 494.346 161.285 494.777C160.924 495.209 160.433 495.451 159.922 495.451Z" fill="#6D94E4"/>
<path d="M34.6021 491.656H145.327V437.138H34.6021V491.656ZM147.267 495.451H32.6617C32.4079 495.451 32.1566 495.402 31.9224 495.306C31.6881 495.21 31.4755 495.07 31.297 494.894C31.1185 494.717 30.9776 494.508 30.8824 494.278C30.7872 494.048 30.7395 493.801 30.7423 493.553V435.24C30.7395 434.992 30.7872 434.746 30.8824 434.516C30.9776 434.286 31.1185 434.076 31.297 433.9C31.4755 433.723 31.6881 433.583 31.9224 433.488C32.1566 433.392 32.4079 433.343 32.6617 433.343H147.267C147.523 433.34 147.776 433.387 148.013 433.482C148.25 433.576 148.465 433.716 148.645 433.893C148.826 434.069 148.969 434.28 149.066 434.511C149.162 434.742 149.21 434.99 149.208 435.24V493.553C149.21 493.803 149.162 494.051 149.066 494.283C148.969 494.514 148.826 494.724 148.645 494.901C148.465 495.078 148.25 495.218 148.013 495.312C147.776 495.406 147.523 495.454 147.267 495.451Z" fill="#6D94E4"/>
<path d="M136.552 466.677C136.556 468.952 135.851 471.178 134.527 473.072C133.203 474.966 131.318 476.444 129.112 477.317C126.905 478.191 124.476 478.422 122.132 477.98C119.788 477.539 117.635 476.445 115.943 474.837C114.252 473.23 113.1 471.18 112.632 468.949C112.164 466.717 112.402 464.403 113.316 462.301C114.229 460.198 115.777 458.4 117.763 457.136C119.75 455.871 122.086 455.196 124.475 455.196C127.674 455.196 130.743 456.405 133.007 458.557C135.271 460.71 136.546 463.63 136.552 466.677Z" fill="#232E62" fill-opacity="0.54"/>
<path d="M67.542 466.677C67.5462 468.952 66.8751 471.178 65.6138 473.072C64.3525 474.966 62.5577 476.444 60.4564 477.317C58.3552 478.191 56.042 478.422 53.8095 477.98C51.5771 477.539 49.5257 476.445 47.9151 474.837C46.3045 473.23 45.2071 471.18 44.7616 468.949C44.3161 466.717 44.5426 464.403 45.4125 462.301C46.2824 460.198 47.7566 458.4 49.6485 457.136C51.5403 455.871 53.7649 455.196 56.0406 455.196C59.0874 455.196 62.0096 456.405 64.166 458.557C66.3224 460.71 67.5366 463.63 67.542 466.677Z" fill="#232E62" fill-opacity="0.54"/>
<path d="M56.0192 453.302C52.9666 453.288 50.0035 454.333 47.6341 456.258C45.1756 458.237 43.496 461.021 42.8926 464.119C42.2892 467.217 42.8008 470.428 44.3369 473.185C45.8729 475.942 48.3346 478.067 51.2863 479.184C54.2381 480.302 57.4898 480.339 60.4663 479.29C63.4428 478.24 65.9524 476.172 67.5512 473.451C69.1499 470.73 69.7349 467.531 69.2025 464.42C68.6702 461.309 67.0549 458.487 64.6423 456.452C62.2297 454.418 59.1752 453.302 56.0192 453.302ZM56.0192 483.949C51.9477 483.944 48.0092 482.499 44.9005 479.87C41.7917 477.241 39.7131 473.597 39.0321 469.583C38.3511 465.568 39.1118 461.443 41.1795 457.935C43.2473 454.428 46.4889 451.765 50.3308 450.417C54.1728 449.07 58.3676 449.124 62.1732 450.571C65.9789 452.018 69.15 454.765 71.1258 458.325C73.1017 461.885 73.7549 466.029 72.9698 470.024C72.1847 474.019 70.0119 477.608 66.8358 480.155C63.7672 482.614 59.9515 483.953 56.0192 483.949Z" fill="#F3C2D5"/>
<path d="M123.879 453.302C120.843 453.314 117.902 454.356 115.537 456.258C113.171 458.16 111.522 460.809 110.859 463.771C110.196 466.733 110.559 469.833 111.887 472.562C113.216 475.291 115.433 477.487 118.173 478.792C120.914 480.096 124.017 480.431 126.973 479.742C129.929 479.053 132.563 477.38 134.444 474.998C136.325 472.615 137.341 469.665 137.325 466.63C137.31 463.594 136.265 460.654 134.36 458.291C133.104 456.721 131.508 455.456 129.693 454.592C127.877 453.727 125.889 453.286 123.879 453.302ZM123.879 483.949C119.807 483.944 115.869 482.499 112.76 479.87C109.651 477.241 107.572 473.597 106.891 469.583C106.211 465.568 106.971 461.443 109.039 457.935C111.107 454.428 114.348 451.765 118.19 450.417C122.032 449.07 126.227 449.124 130.033 450.571C133.838 452.018 137.009 454.765 138.985 458.325C140.961 461.885 141.614 466.029 140.829 470.024C140.044 474.019 137.871 477.608 134.695 480.155C131.627 482.616 127.811 483.954 123.879 483.949Z" fill="#F3C2D5"/>
<path d="M81.7813 472.145H98.1686V462.399L90.5501 474.022L81.7813 462.399V472.145ZM100.11 475.898H79.8399C79.325 475.898 78.8312 475.701 78.4671 475.349C78.103 474.997 77.8984 474.519 77.8984 474.022V460.523C77.8984 460.025 78.103 459.548 78.4671 459.196C78.8312 458.844 79.325 458.646 79.8399 458.646H100.11C100.625 458.646 101.119 458.844 101.483 459.196C101.847 459.548 102.052 460.025 102.052 460.523V474.022C102.052 474.519 101.847 474.997 101.483 475.349C101.119 475.701 100.625 475.898 100.11 475.898Z" fill="#2F4B6F" fill-opacity="0.72"/>
<path d="M92.8445 445.994H87.0938V437.943H92.8445V445.994Z" fill="#6D94E4"/>
<path d="M83.6492 445.994H77.8984V437.943H83.6492V445.994Z" fill="#6D94E4"/>
<path d="M73.2976 445.994H67.5469V437.943H73.2976V445.994Z" fill="#6D94E4"/>
<path d="M64.0945 445.994H58.3438V437.943H64.0945V445.994Z" fill="#6D94E4"/>
<path d="M54.8914 445.994H49.1406V437.943H54.8914V445.994Z" fill="#F3C2D5"/>
<path d="M58.7514 435.643H38.3861C37.8838 435.643 37.4021 435.453 37.0469 435.116C36.6917 434.778 36.4922 434.32 36.4922 433.842V425.942C36.4922 425.465 36.6917 425.007 37.0469 424.669C37.4021 424.331 37.8838 424.142 38.3861 424.142H58.7514C59.2537 424.142 59.7355 424.331 60.0907 424.669C60.4459 425.007 60.6453 425.465 60.6453 425.942V433.842C60.6453 434.32 60.4459 434.778 60.0907 435.116C59.7355 435.453 59.2537 435.643 58.7514 435.643Z" fill="#AF8FE9"/>
<path d="M72.3628 397.806L72.3026 397.696C72.0721 397.503 71.7925 397.376 71.4929 397.328C71.1677 397.267 70.9503 397.315 70.9041 397.364C71.2032 397.549 71.5274 397.693 71.8677 397.791C72.0355 397.832 72.2115 397.834 72.3815 397.796L72.3628 397.806ZM67.8065 392.5L67.7463 392.39C67.5282 392.188 67.2527 392.056 66.9554 392.012C66.759 391.962 66.5516 391.968 66.3566 392.029C66.6449 392.234 66.9724 392.379 67.3201 392.456C67.485 392.495 67.6557 392.506 67.8253 392.49L67.8065 392.5ZM64.3608 393.097C64.1647 392.748 64.0586 392.356 64.0522 391.954C64.0486 391.636 64.1178 391.321 64.2546 391.032C64.3913 390.742 64.592 390.486 64.8417 390.282C65.2008 390.007 65.6176 389.815 66.0602 389.721C66.5028 389.628 66.9593 389.636 67.3948 389.745C68.1668 389.861 68.8786 390.214 69.431 390.753L76.9924 384.377L83.2618 391.703L73.9814 399.52C73.6564 399.817 73.264 400.031 72.8387 400.145L72.3182 400.573L72.3362 400.205C72.0187 400.219 71.7013 400.192 71.3922 400.125C70.5601 399.962 69.8076 399.537 69.2456 398.914C68.8587 398.479 68.6466 397.918 68.6487 397.333C68.6403 397.017 68.7043 396.701 68.836 396.411C68.9677 396.12 69.1637 395.861 69.4093 395.654C69.7713 395.376 70.1909 395.182 70.6364 395.088C71.082 394.993 71.5418 394.999 71.9812 395.106C72.7437 395.24 73.4454 395.594 73.9986 396.125L77.4823 393.194L74.6879 389.953L69.4954 394.343C69.1699 394.639 68.7777 394.853 68.3527 394.967L67.8235 395.424L67.8502 395.028C67.5368 395.048 67.2227 395.027 66.9162 394.966C66.0863 394.797 65.3354 394.374 64.7697 393.755L64.5087 393.278L64.3608 393.097Z" fill="#232E62"/>
<path d="M123.723 362.008L123.647 361.96C123.434 361.92 123.213 361.939 123.008 362.014C122.782 362.09 122.662 362.197 122.65 362.244C122.904 362.255 123.158 362.232 123.407 362.173C123.527 362.14 123.638 362.079 123.732 361.995L123.723 362.008ZM118.987 360.277L118.911 360.229C118.702 360.179 118.483 360.193 118.28 360.27C118.139 360.308 118.01 360.385 117.91 360.492C118.163 360.519 118.42 360.495 118.666 360.421C118.783 360.387 118.895 360.334 118.996 360.264L118.987 360.277ZM117.031 361.867C116.784 361.717 116.579 361.508 116.434 361.257C116.32 361.059 116.252 360.836 116.236 360.606C116.22 360.376 116.256 360.144 116.341 359.928C116.47 359.628 116.664 359.36 116.91 359.146C117.155 358.931 117.445 358.775 117.757 358.69C118.284 358.491 118.856 358.462 119.393 358.606L121.901 351.93L128.426 354.328L125.346 362.515C125.246 362.817 125.075 363.09 124.847 363.311L124.671 363.764L124.552 363.526C124.358 363.647 124.149 363.742 123.931 363.809C123.35 363.999 122.727 363.998 122.154 363.804C121.757 363.667 121.426 363.388 121.221 363.02C121.104 362.824 121.033 362.603 121.013 362.374C120.994 362.144 121.026 361.913 121.107 361.696C121.237 361.393 121.433 361.124 121.679 360.907C121.926 360.69 122.217 360.532 122.531 360.444C123.058 360.26 123.625 360.235 124.159 360.374L125.317 357.303L122.417 356.25L120.699 360.841C120.599 361.142 120.428 361.415 120.201 361.637L120.029 362.11L119.906 361.852C119.716 361.975 119.511 362.073 119.297 362.142C118.715 362.328 118.094 362.327 117.52 362.137L117.188 361.929L117.031 361.867Z" fill="#232E62"/>
<path d="M62.9459 354.355L62.884 354.385C62.7725 354.507 62.6956 354.657 62.6616 354.82C62.62 354.996 62.6404 355.117 62.6661 355.143C62.7756 354.984 62.8627 354.81 62.9248 354.626C62.9519 354.535 62.9574 354.439 62.9407 354.345L62.9459 354.355ZM59.9216 356.716L59.8597 356.746C59.7434 356.861 59.6642 357.008 59.6322 357.17C59.5998 357.276 59.5979 357.39 59.6265 357.499C59.7459 357.346 59.8338 357.17 59.8851 356.982C59.9104 356.892 59.9211 356.799 59.9165 356.706L59.9216 356.716ZM60.1603 358.62C59.9642 358.718 59.7465 358.766 59.5262 358.759C59.3522 358.753 59.1812 358.707 59.0261 358.625C58.8709 358.543 58.7357 358.426 58.6304 358.284C58.4885 358.08 58.394 357.847 58.3543 357.602C58.3145 357.357 58.3306 357.107 58.4011 356.871C58.4848 356.451 58.6963 356.07 59.0061 355.781L55.7056 351.474L59.8807 348.227L63.9265 353.512C64.0809 353.698 64.1884 353.918 64.2397 354.154L64.4607 354.451L64.2598 354.431C64.2594 354.606 64.2366 354.779 64.1919 354.947C64.081 355.398 63.8291 355.8 63.4735 356.092C63.2251 356.293 62.9119 356.395 62.5917 356.378C62.4181 356.375 62.2469 356.332 62.0909 356.252C61.9349 356.173 61.7981 356.059 61.6907 355.919C61.5479 355.713 61.4526 355.478 61.412 355.232C61.3714 354.985 61.3865 354.733 61.4563 354.495C61.5495 354.081 61.7617 353.705 62.0664 353.416L60.5498 351.432L58.7022 352.88L60.9745 355.838C61.1285 356.024 61.236 356.244 61.2877 356.48L61.5242 356.782L61.3078 356.757C61.311 356.929 61.2916 357.101 61.2502 357.267C61.1363 357.718 60.885 358.118 60.5318 358.412L60.2635 358.543L60.1603 358.62Z" fill="#232E62"/>
<path d="M134.912 408.809L134.741 413.929L135.069 412.956C135.457 412.255 135.686 411.482 135.741 410.688C135.723 410.194 135.57 409.714 135.298 409.296C135.182 409.138 135.053 408.99 134.912 408.851V408.809ZM132.64 414.263C132.301 414.284 131.976 414.405 131.711 414.611C131.589 414.683 131.483 414.778 131.4 414.891C131.317 415.003 131.257 415.13 131.225 415.265C131.225 415.312 131.236 415.359 131.255 415.402C131.275 415.445 131.303 415.484 131.339 415.516C131.426 415.615 131.549 415.68 131.682 415.696C132.022 415.712 132.357 415.608 132.625 415.404C132.772 415.314 132.895 415.191 132.984 415.046C133.074 414.901 133.127 414.738 133.14 414.569V414.361C133.14 414.361 133.04 414.361 132.711 414.361L132.64 414.263ZM131.796 417.241H131.468C130.972 417.17 130.517 416.934 130.181 416.573C129.998 416.39 129.856 416.172 129.765 415.932C129.674 415.692 129.635 415.437 129.652 415.182C129.679 414.811 129.795 414.451 129.991 414.132C130.187 413.813 130.458 413.543 130.781 413.345C131.345 412.918 132.04 412.688 132.754 412.691H132.925L133.211 403.439L134.984 403.509L135.069 404.441C135.065 405.003 135.229 405.554 135.541 406.027C135.741 406.319 135.97 406.597 136.184 406.862C136.399 407.126 136.656 407.446 136.828 407.71C137.4 408.484 137.705 409.414 137.699 410.368C137.602 411.619 137.2 412.831 136.527 413.902L136.313 414.277H134.726V414.542C134.703 414.933 134.591 415.314 134.398 415.658C134.205 416.002 133.937 416.3 133.612 416.531C133.094 416.929 132.456 417.149 131.796 417.157V417.241Z" fill="#232E62"/>
<path d="M10.9748 412.05L15.9092 417.94L15.286 416.538C14.9992 415.385 14.4704 414.302 13.7352 413.362C13.2223 412.827 12.5794 412.435 11.8726 412.227C11.5906 412.161 11.3044 412.118 11.0165 412.096L10.9748 412.05ZM14.0047 420.313C13.6642 420.659 13.44 421.104 13.3626 421.587C13.3052 421.783 13.2877 421.99 13.311 422.195C13.3343 422.4 13.398 422.599 13.4984 422.781C13.5462 422.833 13.6038 422.875 13.6678 422.904C13.7318 422.934 13.8007 422.95 13.8705 422.952C14.0631 422.98 14.2578 422.936 14.4167 422.828C14.7942 422.521 15.0471 422.087 15.1297 421.603C15.1954 421.362 15.2038 421.108 15.1541 420.861C15.1044 420.614 14.9981 420.381 14.8435 420.18L14.635 419.946C14.635 419.946 14.5284 420.041 14.1782 420.354L14.0047 420.313ZM16.082 424.446L15.7319 424.759C15.1336 425.152 14.4131 425.321 13.694 425.237C13.3159 425.207 12.9465 425.098 12.6099 424.916C12.2733 424.735 11.9769 424.485 11.7402 424.184C11.3978 423.744 11.162 423.231 11.0521 422.687C10.9422 422.144 10.9612 421.584 11.1075 421.055C11.2813 420.041 11.7911 419.122 12.5552 418.446L12.7379 418.283L3.79549 407.662L5.75306 406.053L6.77606 407.014C7.33317 407.646 8.05861 408.107 8.86374 408.339C9.36891 408.475 9.89067 408.569 10.3833 408.66C10.8758 408.752 11.4698 408.865 11.9167 408.997C13.2993 409.318 14.5543 410.068 15.5013 411.14C16.6487 412.633 17.4314 414.37 17.7847 416.208L17.9317 416.833L16.2416 418.343L16.5058 418.638C16.8715 419.098 17.1329 419.632 17.2714 420.2C17.4098 420.768 17.4219 421.357 17.3067 421.925C17.1532 422.863 16.6932 423.716 15.9986 424.353L16.082 424.446Z" fill="#232E62"/>
<path d="M148.678 309.736L153.612 315.626L152.989 314.224C152.702 313.071 152.173 311.988 151.438 311.047C150.925 310.512 150.283 310.121 149.576 309.913C149.294 309.847 149.007 309.804 148.72 309.782L148.678 309.736ZM151.708 317.999C151.367 318.345 151.143 318.789 151.066 319.273C151.008 319.469 150.991 319.676 151.014 319.881C151.037 320.086 151.101 320.285 151.202 320.467C151.249 320.519 151.307 320.561 151.371 320.59C151.435 320.62 151.504 320.636 151.574 320.638C151.766 320.666 151.961 320.622 152.12 320.514C152.497 320.207 152.75 319.772 152.833 319.289C152.899 319.048 152.907 318.794 152.857 318.547C152.808 318.3 152.701 318.066 152.547 317.865L152.338 317.632C152.338 317.632 152.232 317.727 151.881 318.04L151.708 317.999ZM153.785 322.132L153.435 322.445C152.837 322.838 152.116 323.006 151.397 322.923C151.019 322.893 150.65 322.783 150.313 322.602C149.976 322.421 149.68 322.171 149.443 321.87C149.101 321.429 148.865 320.917 148.755 320.373C148.645 319.829 148.664 319.27 148.811 318.741C148.984 317.727 149.494 316.808 150.258 316.132L150.441 315.969L141.499 305.347L143.456 303.738L144.479 304.699C145.036 305.332 145.762 305.793 146.567 306.024C147.072 306.161 147.594 306.254 148.086 306.346C148.579 306.438 149.173 306.551 149.62 306.683C151.002 307.004 152.257 307.754 153.204 308.826C154.352 310.318 155.134 312.056 155.488 313.894L155.635 314.518L153.945 316.028L154.209 316.324C154.575 316.784 154.836 317.317 154.974 317.886C155.113 318.454 155.125 319.043 155.01 319.611C154.856 320.549 154.396 321.402 153.702 322.039L153.785 322.132Z" fill="#232E62"/>
</svg>
