<svg width="16" height="16" viewBox="0 0 16 16" fill="none" xmlns="http://www.w3.org/2000/svg">
<mask id="path-1-inside-1_695_96" fill="white">
<path fill-rule="evenodd" clip-rule="evenodd" d="M11.0054 0.732666H11.0372C12.4687 0.732666 13.6957 1.83695 13.6957 3.29267V3.99175C14.5879 4.39695 15.2104 5.29674 15.2104 6.33741V13.3055C15.2104 14.7233 14.0531 15.8806 12.6353 15.8806H2.63765C1.95511 15.8792 1.30092 15.6075 0.818292 15.1248C0.335661 14.6422 0.0639018 13.988 0.0625009 13.3055V3.38356C0.0620231 2.88736 0.256495 2.41084 0.604014 2.05666C0.951532 1.70248 1.42428 1.499 1.9204 1.49006L11.0054 0.732666ZM12.1809 3.29267V3.76226H1.95599C1.90621 3.76246 1.85687 3.7528 1.81084 3.73384C1.7648 3.71488 1.72297 3.68699 1.68777 3.65178C1.65256 3.61658 1.62467 3.57475 1.60571 3.52872C1.58675 3.48268 1.5771 3.43334 1.5773 3.38356C1.5773 3.173 1.74544 3.00486 1.95599 3.00486H1.9878L11.0652 2.24746C11.7241 2.26109 12.1809 2.75643 12.1809 3.29267ZM14.4531 7.54924H9.69205C8.97479 7.54924 8.39387 8.09154 8.39387 8.76108V10.8818C8.39387 11.5513 8.97555 12.0936 9.69205 12.0936H14.4531V7.54924Z"/>
</mask>
<path d="M11.0054 0.732666V-0.267334H10.9638L10.9223 -0.263877L11.0054 0.732666ZM13.6957 3.99175H12.6957V4.63589L13.2821 4.90225L13.6957 3.99175ZM2.63765 15.8806L2.6356 16.8806H2.63765V15.8806ZM0.0625009 13.3055H-0.937501L-0.937497 13.3075L0.0625009 13.3055ZM0.0625009 3.38356H1.0625L1.0625 3.38259L0.0625009 3.38356ZM1.9204 1.49006L1.93841 2.4899L1.971 2.48931L2.00348 2.48661L1.9204 1.49006ZM12.1809 3.76226V4.76226H13.1809V3.76226H12.1809ZM1.95599 3.76226V2.76225L1.95197 2.76226L1.95599 3.76226ZM1.5773 3.38356L2.5773 3.38758V3.38356H1.5773ZM1.9878 3.00486V4.00486H2.02945L2.07095 4.0014L1.9878 3.00486ZM11.0652 2.24746L11.0859 1.24767L11.0339 1.2466L10.9821 1.25092L11.0652 2.24746ZM14.4531 7.54924H15.4531V6.54924H14.4531V7.54924ZM14.4531 12.0936V13.0936H15.4531V12.0936H14.4531ZM11.0054 1.73267H11.0372V-0.267334H11.0054V1.73267ZM11.0372 1.73267C11.9724 1.73267 12.6957 2.44364 12.6957 3.29267H14.6957C14.6957 1.23026 12.9649 -0.267334 11.0372 -0.267334V1.73267ZM12.6957 3.29267V3.99175H14.6957V3.29267H12.6957ZM13.2821 4.90225C13.832 5.15195 14.2104 5.70495 14.2104 6.33741H16.2104C16.2104 4.88853 15.3438 3.64196 14.1092 3.08125L13.2821 4.90225ZM14.2104 6.33741V13.3055H16.2104V6.33741H14.2104ZM14.2104 13.3055C14.2104 14.171 13.5009 14.8806 12.6353 14.8806V16.8806C14.6054 16.8806 16.2104 15.2756 16.2104 13.3055H14.2104ZM12.6353 14.8806H2.63765V16.8806H12.6353V14.8806ZM2.6397 14.8806C2.22167 14.8798 1.821 14.7133 1.5254 14.4177L0.111186 15.8319C0.780849 16.5016 1.68855 16.8787 2.6356 16.8806L2.6397 14.8806ZM1.5254 14.4177C1.2298 14.1221 1.06336 13.7214 1.0625 13.3034L-0.937497 13.3075C-0.935553 14.2546 -0.558479 15.1623 0.111186 15.8319L1.5254 14.4177ZM1.0625 13.3055V3.38356H-0.937499V13.3055H1.0625ZM1.0625 3.38259C1.06228 3.14866 1.15396 2.924 1.3178 2.75702L-0.109771 1.35629C-0.64097 1.89767 -0.938229 2.62606 -0.937499 3.38452L1.0625 3.38259ZM1.3178 2.75702C1.48164 2.59005 1.70452 2.49412 1.93841 2.4899L1.90238 0.490226C1.14405 0.503889 0.421428 0.814917 -0.109771 1.35629L1.3178 2.75702ZM2.00348 2.48661L11.0885 1.72921L10.9223 -0.263877L1.83732 0.493521L2.00348 2.48661ZM11.1809 3.29267V3.76226H13.1809V3.29267H11.1809ZM12.1809 2.76226H1.95599V4.76226H12.1809V2.76226ZM1.95197 2.76226C2.03418 2.76193 2.11564 2.77788 2.19166 2.80919L1.43001 4.65848C1.5981 4.72771 1.77823 4.76298 1.96002 4.76225L1.95197 2.76226ZM2.19166 2.80919C2.26768 2.8405 2.33674 2.88655 2.39487 2.94468L0.98066 4.35889C1.1092 4.48743 1.26192 4.58925 1.43001 4.65848L2.19166 2.80919ZM2.39487 2.94468C2.453 3.00281 2.49905 3.07187 2.53036 3.14789L0.681067 3.90954C0.750297 4.07763 0.85212 4.23035 0.98066 4.35889L2.39487 2.94468ZM2.53036 3.14789C2.56167 3.22391 2.57762 3.30537 2.57729 3.38758L0.577304 3.37953C0.576572 3.56132 0.611837 3.74145 0.681067 3.90954L2.53036 3.14789ZM2.5773 3.38356C2.5773 3.72528 2.29772 4.00486 1.95599 4.00486V2.00486C1.19315 2.00486 0.577296 2.62072 0.577296 3.38356H2.5773ZM1.95599 4.00486H1.9878V2.00486H1.95599V4.00486ZM2.07095 4.0014L11.1484 3.244L10.9821 1.25092L1.90466 2.00832L2.07095 4.0014ZM11.0445 3.24725C11.1215 3.24884 11.1569 3.2753 11.1703 3.28838C11.1881 3.30582 11.1809 3.31128 11.1809 3.29267H13.1809C13.1809 2.17424 12.2502 1.27176 11.0859 1.24767L11.0445 3.24725ZM14.4531 6.54924H9.69205V8.54924H14.4531V6.54924ZM9.69205 6.54924C8.48844 6.54924 7.39387 7.47555 7.39387 8.76108H9.39387C9.39387 8.72542 9.40745 8.68075 9.45637 8.63508C9.50649 8.58829 9.58731 8.54924 9.69205 8.54924V6.54924ZM7.39387 8.76108V10.8818H9.39387V8.76108H7.39387ZM7.39387 10.8818C7.39387 12.1677 8.48959 13.0936 9.69205 13.0936V11.0936C9.58787 11.0936 9.50693 11.0547 9.45651 11.0077C9.40732 10.9618 9.39387 10.917 9.39387 10.8818H7.39387ZM9.69205 13.0936H14.4531V11.0936H9.69205V13.0936ZM15.4531 12.0936V7.54924H13.4531V12.0936H15.4531Z" fill="black" mask="url(#path-1-inside-1_695_96)"/>
</svg>
