<svg width="381" height="583" viewBox="0 0 381 583" fill="none" xmlns="http://www.w3.org/2000/svg">
<g clip-path="url(#clip0_5_2061)">
<path d="M254.3 3.83029L240.549 23.7806L262.735 36.42L272.352 19.239C273.463 17.8968 274.261 16.329 274.688 14.6475C275.116 12.966 275.162 11.2122 274.823 9.51108C274.485 7.80999 273.77 6.20359 272.73 4.80645C271.69 3.40931 270.351 2.25584 268.808 1.42833C266.465 0.170379 263.764 -0.276596 261.134 0.158804C258.504 0.594204 256.098 1.88686 254.3 3.83029Z" fill="#FFC5C0"/>
<path d="M281.175 0.582976C281.585 0.848214 281.938 1.1907 282.214 1.59081C282.49 1.99091 282.683 2.44079 282.782 2.91465C282.881 3.38852 282.885 3.87707 282.793 4.35232C282.7 4.82757 282.514 5.28018 282.244 5.68423L273.674 18.312C273.674 18.312 270.431 24.2353 268.948 24.1945L271.069 14.2368L269.379 11.5725L275.995 1.66153C276.261 1.25271 276.607 0.900134 277.013 0.624244C277.418 0.348353 277.875 0.154632 278.357 0.0543089C278.839 -0.0460143 279.336 -0.0509439 279.82 0.0398057C280.303 0.130555 280.764 0.315179 281.175 0.582976Z" fill="#FFC5C0"/>
<path d="M243.821 19.0466L265.352 31.756L261.914 37.4228L240.555 23.7806L243.821 19.0466Z" fill="#F49DC3"/>
<path d="M238.915 20.2242L181.962 101.844L139.433 138.678C139.433 138.678 130.319 170.265 168.967 171.099L209.683 132.3C212.312 129.794 214.588 126.95 216.452 123.847L266.742 39.9996L238.915 20.2242Z" fill="#FFD4E5"/>
<path d="M133.953 174.584C125.026 165.773 125.026 151.487 133.953 142.676C142.881 133.865 157.354 133.865 166.281 142.676C175.208 151.487 175.208 165.773 166.281 174.584C157.354 183.395 142.881 183.395 133.953 174.584Z" fill="#D9DBC5"/>
<path d="M169.722 112.443C169.722 112.443 168.995 124.745 163.148 125.73V136.772C163.148 136.772 185.487 150.169 189.031 162.389L161.269 139.594L157.489 118.664L169.722 112.443Z" fill="#FFD4E5"/>
<path d="M140.057 109.668L131.386 139.296C131.386 139.296 138.096 147.691 146.26 148.012C154.423 148.333 161.617 142.87 161.617 142.87L160.583 105.925C160.583 105.925 145.273 98.323 140.057 109.668Z" fill="#FFC5C0"/>
<path d="M161.266 130.534C161.266 130.534 158.029 130.493 151 125.73C151 125.73 156.316 119.439 161.083 124.01L161.266 130.534Z" fill="#F49DC3"/>
<path d="M154.804 86.1382C154.804 86.1382 176.896 115.498 163.257 123.019C163.257 123.019 146.588 132.248 136.287 117.941L131.449 96.5331C131.449 96.5331 136.31 81.9231 154.804 86.1382Z" fill="#FFC5C0"/>
<path d="M159.32 92.8602C159.32 92.8602 151.878 97.3202 146.916 96.8013L156.704 89.199C157.733 90.3024 158.612 91.5331 159.32 92.8602Z" fill="#FF9198"/>
<path d="M148.862 118.436C148.862 118.436 148.78 127.624 146.901 128.12C146.901 128.12 154.639 136.638 154.828 146.467L146.228 148.012L137.078 127.315L148.862 118.436Z" fill="#FF9198"/>
<path d="M145.056 102.521L144.27 97.4252C144.27 97.4252 168.234 93.1577 161.093 78.4019C161.093 78.4019 156.237 66.6137 145.8 73.429C145.8 73.429 141.376 78.2271 141.772 80.0285C141.772 80.0285 129.763 80.4366 133.898 91.1055C133.898 91.1055 120.312 93.146 136.591 120.943C136.591 120.943 142.191 116.752 144.164 105.785C144.359 104.654 144.914 103.634 145.056 102.521Z" fill="#1E1E3C"/>
<path d="M145.063 102.521C145.063 102.521 154.023 115.242 145.063 128.616C145.063 128.616 162.429 145.179 146.935 157.101C146.935 157.101 127.396 174.539 116.22 157.101C116.22 157.101 97.1882 148.852 108.063 137.413C108.063 137.413 92.2974 118.174 112.138 110.683C112.138 110.683 108.063 78.7516 133.734 84.0569C153.32 88.0971 145.063 102.521 145.063 102.521Z" fill="#1E1E3C"/>
<path d="M142.482 112.443C139.517 112.443 137.113 110.071 137.113 107.144C137.113 104.217 139.517 101.844 142.482 101.844C145.448 101.844 147.852 104.217 147.852 107.144C147.852 110.071 145.448 112.443 142.482 112.443Z" fill="#FFC5C0"/>
<path d="M145.824 113.533C144.761 113.533 143.899 112.683 143.899 111.633C143.899 110.583 144.761 109.732 145.824 109.732C146.888 109.732 147.75 110.583 147.75 111.633C147.75 112.683 146.888 113.533 145.824 113.533Z" fill="#F2CB4E"/>
<path d="M96.4366 262.741H164.717C169.135 262.741 173.504 263.34 177.542 264.5C181.579 265.659 185.196 267.354 188.159 269.474C191.122 271.594 193.365 274.092 194.743 276.807C196.121 279.523 196.604 282.395 196.16 285.238L158.695 551.296H51.3672" fill="#AF8FE9"/>
<path d="M63.184 551.296L6.39022 533.841L89.0381 274.36C90.4319 269.974 93.2566 266.166 97.0718 263.53C100.887 260.893 105.479 259.577 110.131 259.785L175.531 262.729L63.184 551.296Z" fill="#AF8FE9"/>
<path d="M99.4857 259.773L114.164 153.807C114.414 149.714 116.238 145.869 119.264 143.058C122.289 140.247 126.288 138.683 130.443 138.684H172.972C175.167 138.684 177.339 139.121 179.359 139.97C181.379 140.818 183.204 142.06 184.726 143.621C186.247 145.182 187.434 147.031 188.215 149.056C188.996 151.08 189.354 153.24 189.269 155.405L185.796 264.35C185.796 264.35 152.558 311.031 99.4857 259.773Z" fill="#F49DC3"/>
<path d="M175.445 219.581C179.064 221.71 183.217 222.793 187.43 222.706V214.218C187.43 214.218 178.688 217.395 175.445 219.581Z" fill="#F49DC3"/>
<path d="M175.465 219.575C163.623 219.575 154.023 210.1 154.023 198.412C154.023 186.724 163.623 177.25 175.465 177.25C187.306 177.25 196.906 186.724 196.906 198.412C196.906 210.1 187.306 219.575 175.465 219.575Z" fill="#F49DC3"/>
<path d="M340.789 178.672L325.886 197.276C324.285 199.274 322.299 200.941 320.042 202.178C317.785 203.416 315.303 204.201 312.738 204.487L299.595 205.957L299.512 178.672H340.789Z" fill="#FFC5C0"/>
<path d="M304.953 178.672L305.969 205.216L299.589 205.957L299.507 178.672H304.953Z" fill="#F49DC3"/>
<path d="M340.789 178.672H301.013V182.333H337.853L340.789 178.672Z" fill="#F49DC3"/>
<path d="M301.016 177.739L211.604 176.975L158.195 142.444C158.195 142.444 125.844 150.14 144.113 183.762L198.367 215.774C201.858 216.809 205.474 217.375 209.118 217.459L299.692 211.378L301.016 177.739Z" fill="#FFD4E5"/>
<path d="M123.137 164.125C121.636 151.752 130.581 140.521 143.116 139.04C155.651 137.558 167.03 146.386 168.531 158.758C170.033 171.131 161.088 182.362 148.553 183.844C136.018 185.325 124.639 176.497 123.137 164.125Z" fill="#FFD4E5"/>
<path d="M242.514 177.308L243.872 180.981L292.674 182.333L292.852 177.739L242.514 177.308Z" fill="#F49DC3"/>
<path d="M292.852 171.227H380.999V109.592C380.999 108.801 380.68 108.042 380.113 107.482C379.546 106.922 378.776 106.607 377.974 106.607L295.876 106.607C295.074 106.607 294.305 106.922 293.737 107.482C293.17 108.042 292.852 108.801 292.852 109.592V171.227Z" fill="#DDDDED"/>
<path d="M247.29 178.672L379.183 178.672C379.664 178.672 380.125 178.484 380.465 178.148C380.805 177.812 380.996 177.357 380.996 176.882V171.227L245.477 171.227V176.882C245.477 177.357 245.668 177.812 246.008 178.148C246.348 178.484 246.809 178.672 247.29 178.672Z" fill="#ADADD8"/>
<path d="M293.442 178.672H379.179C379.66 178.672 380.122 178.484 380.462 178.148C380.802 177.812 380.993 177.357 380.993 176.882V171.227H292.852V178.077C292.85 178.155 292.864 178.232 292.893 178.304C292.922 178.376 292.965 178.442 293.02 178.497C293.075 178.553 293.141 178.597 293.214 178.627C293.286 178.657 293.364 178.672 293.442 178.672Z" fill="#C7C7E2"/>
<path d="M336.932 150.665C330.763 150.665 325.762 145.729 325.762 139.64C325.762 133.551 330.763 128.616 336.932 128.616C343.101 128.616 348.102 133.551 348.102 139.64C348.102 145.729 343.101 150.665 336.932 150.665Z" fill="#C7C7E2"/>
<path d="M180.765 217.805L134.332 185.373C132.72 185.816 131.033 185.931 129.375 185.711C127.717 185.49 126.121 184.939 124.686 184.09C119.311 180.901 135.826 178.534 135.826 178.534L184.758 212.471C184.758 212.471 182.785 216.225 180.765 217.805Z" fill="#F49DC3"/>
<path d="M146.892 556.409L184.891 582.901L113.365 582.038L113.678 556.812L146.892 556.409Z" fill="#2F4B6F" fill-opacity="0.59"/>
<path d="M35.3795 542.75L38.1498 562.91L60.1172 582.901L27.6298 583L0.00373459 558.38L11.9236 534.32L35.3795 542.75Z" fill="#8495AA"/>
<path d="M113.369 422.407L118.969 335.085L105.921 409.779V441.541L113.369 422.407Z" fill="#AF8FE9"/>
<path d="M63.7578 433.759L113.289 337.011H127.22L145.022 439.177L98.5832 486.389L63.7578 433.759Z" stroke="#AF8FE9"/>
</g>
<defs>
<clipPath id="clip0_5_2061">
<rect width="381" height="583" fill="white" transform="matrix(-1 0 0 1 381 0)"/>
</clipPath>
</defs>
</svg>
