<svg width="16" height="16" viewBox="0 0 16 16" fill="none" xmlns="http://www.w3.org/2000/svg">
<path d="M5.36312 5.89441C5.84943 6.90729 6.51237 7.8566 7.35193 8.69616C8.1915 9.53573 9.14081 10.1987 10.1537 10.685C10.2408 10.7268 10.2844 10.7477 10.3395 10.7638C10.5354 10.8209 10.7759 10.7799 10.9418 10.6611C10.9885 10.6277 11.0284 10.5877 11.1083 10.5078C11.3526 10.2636 11.4747 10.1414 11.5975 10.0616C12.0607 9.76043 12.6578 9.76043 13.121 10.0616C13.2438 10.1414 13.366 10.2636 13.6102 10.5078L13.7464 10.644C14.1177 11.0153 14.3034 11.201 14.4043 11.4004C14.6048 11.797 14.6048 12.2653 14.4043 12.6619C14.3034 12.8613 14.1177 13.0469 13.7464 13.4183L13.6363 13.5284C13.2662 13.8985 13.0812 14.0835 12.8296 14.2248C12.5505 14.3816 12.1169 14.4944 11.7967 14.4934C11.5082 14.4925 11.311 14.4366 10.9166 14.3246C8.79714 13.7231 6.79715 12.588 5.12862 10.9195C3.46009 9.25095 2.32504 7.25096 1.72346 5.13147C1.61152 4.73708 1.55555 4.53988 1.55469 4.25135C1.55374 3.93118 1.66649 3.49763 1.82329 3.21849C1.96461 2.96692 2.14964 2.78189 2.5197 2.41184L2.62984 2.30169C3.00117 1.93037 3.18683 1.7447 3.38623 1.64384C3.7828 1.44326 4.25113 1.44326 4.64769 1.64384C4.84709 1.7447 5.03276 1.93036 5.40409 2.30169L5.54025 2.43785C5.78453 2.68213 5.90666 2.80427 5.98652 2.92709C6.28766 3.39026 6.28766 3.98738 5.98652 4.45055C5.90666 4.57337 5.78452 4.69551 5.54025 4.93978C5.46038 5.01966 5.42044 5.05959 5.38701 5.10628C5.26822 5.27217 5.22721 5.51271 5.28431 5.7086C5.30038 5.76372 5.32129 5.80729 5.36312 5.89441Z" stroke="#92BBEF" stroke-width="1.35" stroke-linecap="round" stroke-linejoin="round"/>
</svg>
