<svg width="216" height="37" viewBox="0 0 216 37" fill="none" xmlns="http://www.w3.org/2000/svg">
<path d="M5.52761 8.18555V36.7676H0.781517V8.18555H5.52761ZM15.9949 8.18555V30H11.2488V8.18555H15.9949ZM40.4368 25.7461V30H20.0989V25.7461H33.3528V17.9766C33.3528 15.9258 32.9661 14.4902 32.1926 13.6699C31.4309 12.8496 30.1243 12.4395 28.2727 12.4395H20.9251V8.18555H28.343C31.7649 8.18555 34.2434 8.90039 35.7786 10.3301C37.3255 11.7598 38.0989 14.1035 38.0989 17.3613V25.7461H40.4368ZM62.822 27.8379C61.8611 28.377 60.6775 28.8223 59.2713 29.1738C57.8767 29.5137 56.1365 29.7656 54.0506 29.9297C51.9763 30.0938 49.4392 30.1758 46.4392 30.1758L42.3259 8.18555H47.3006L49.2166 18.6973L50.4998 18.4512C51.2966 18.2988 51.8826 18.041 52.2576 17.6777C52.6443 17.3027 52.9373 16.7461 53.1365 16.0078C53.2302 15.6445 53.3181 15.1406 53.4002 14.4961C53.4939 13.8398 53.5818 13.043 53.6638 12.1055L53.9275 8.18555H58.7791L58.2517 14.1973C58.1814 15.0176 58.0818 15.7559 57.9529 16.4121C57.824 17.0684 57.6599 17.6367 57.4607 18.1172C57.074 19.0781 56.5291 19.8281 55.8259 20.3672C55.1345 20.9062 54.033 21.3574 52.5213 21.7207L49.8845 22.3359L50.6052 25.9395H51.0271C52.492 25.9395 53.7869 25.8809 54.9119 25.7637C56.0486 25.6348 57.0154 25.4414 57.8123 25.1836C58.8787 24.8555 59.7576 24.3984 60.449 23.8125C61.1404 23.2148 61.6853 22.4238 62.0838 21.4395C62.4822 20.4434 62.7634 19.1836 62.9275 17.6602L64.0349 8.18555H68.9392L67.8142 17.5371C67.5798 19.5527 67.2517 21.2227 66.8298 22.5469C66.4197 23.8711 65.8865 24.9492 65.2302 25.7812C64.5857 26.6016 63.783 27.2871 62.822 27.8379ZM87.4924 17.9414C87.4924 15.9727 87.1174 14.5664 86.3674 13.7227C85.6174 12.8672 84.3049 12.4395 82.4299 12.4395H77.7366V30H72.9905V8.18555H82.4299C85.8987 8.18555 88.4006 8.90625 89.9358 10.3477C91.4827 11.7773 92.2561 14.1152 92.2561 17.3613V30H87.4924V17.9414ZM97.3972 25.9395C100.257 25.002 102.565 23.8184 104.323 22.3887C105.542 21.416 106.473 20.3555 107.118 19.207C107.762 18.0469 108.085 16.834 108.085 15.5684C108.085 13.4824 106.778 12.4395 104.165 12.4395H95.2351V0.732422H100.087V8.18555H104.956C110.229 8.18555 112.866 10.4883 112.866 15.0938C112.866 17.2969 112.344 19.3594 111.302 21.2812C110.27 23.1914 108.794 24.8965 106.872 26.3965C104.341 28.3652 101.182 29.9121 97.3972 31.0371V25.9395ZM144.523 17.3613V30H139.76V17.3262C139.76 15.5332 139.379 14.2734 138.617 13.5469C137.855 12.8086 136.531 12.4395 134.644 12.4395H125.732V8.18555H134.943C137.252 8.18555 139.103 8.49609 140.498 9.11719C141.904 9.73828 142.924 10.7227 143.556 12.0703C144.201 13.4062 144.523 15.1699 144.523 17.3613ZM130.83 16.7461V30H126.084V16.7461H130.83ZM148.979 18.9785C148.979 18.2051 149.055 17.4023 149.207 16.5703C149.371 15.7266 149.594 14.9414 149.875 14.2148C150.156 13.4766 150.485 12.8848 150.86 12.4395H147.537V8.18555H159.737C163.264 8.18555 165.819 8.92969 167.401 10.418C168.994 11.9062 169.791 14.3027 169.791 17.6074V19.0137C169.791 22.752 168.889 25.5762 167.084 27.4863C165.28 29.3965 162.619 30.3516 159.104 30.3516C155.658 30.3516 153.11 29.4551 151.457 27.6621C149.805 25.8574 148.979 23.1445 148.979 19.5234V18.9785ZM154.99 12.4395C154.276 13.6816 153.918 15.7676 153.918 18.6973V19.4883C153.918 21.6914 154.358 23.3496 155.237 24.4629C156.115 25.5645 157.44 26.1152 159.209 26.1152C161.178 26.1152 162.602 25.5469 163.481 24.4102C164.371 23.2734 164.817 21.4277 164.817 18.873V17.5723C164.817 15.7441 164.389 14.4316 163.533 13.6348C162.69 12.8379 161.307 12.4395 159.385 12.4395H154.99ZM178.8 8.18555V19.7695H174.053V8.18555H178.8ZM194.839 16.7812V30H183.466V25.7461H190.093V17.6953C190.093 16.1133 189.988 14.9824 189.777 14.3027C189.566 13.6348 189.214 13.1602 188.722 12.8789C188.23 12.5859 187.509 12.4395 186.56 12.4395H184.468V8.18555H187.456C189.472 8.18555 190.978 8.45508 191.974 8.99414C192.97 9.5332 193.697 10.418 194.154 11.6484C194.611 12.8789 194.839 14.5898 194.839 16.7812ZM215.273 19.5234C215.273 26.5078 211.711 30 204.586 30H198.75V25.7461H204.322C206.42 25.7461 207.972 25.2188 208.98 24.1641C209.988 23.1094 210.492 21.5039 210.492 19.3477V18.873C210.492 16.6816 209.988 15.0645 208.98 14.0215C207.972 12.9668 206.443 12.4395 204.392 12.4395H198.75V8.18555H204.832C211.793 8.18555 215.273 11.666 215.273 18.627V19.5234Z" fill="#2F4B6F"/>
</svg>
