<svg width="133" height="204" viewBox="0 0 133 204" fill="none" xmlns="http://www.w3.org/2000/svg">
<path d="M64.2231 12.4668C64.1231 12.4668 64.0381 12.4368 63.9681 12.3768C63.9081 12.3068 63.8781 12.2218 63.8781 12.1218V11.0718C63.8781 10.9718 63.9081 10.8918 63.9681 10.8318C64.0381 10.7618 64.1231 10.7268 64.2231 10.7268H65.2881C65.3981 10.7268 65.4831 10.7618 65.5431 10.8318C65.6131 10.8918 65.6481 10.9718 65.6481 11.0718V12.1218C65.6481 12.2218 65.6131 12.3068 65.5431 12.3768C65.4831 12.4368 65.3981 12.4668 65.2881 12.4668H64.2231ZM64.2231 17.7168C64.1231 17.7168 64.0381 17.6868 63.9681 17.6268C63.9081 17.5568 63.8781 17.4718 63.8781 17.3718V16.3218C63.8781 16.2218 63.9081 16.1418 63.9681 16.0818C64.0381 16.0118 64.1231 15.9768 64.2231 15.9768H65.2881C65.3981 15.9768 65.4831 16.0118 65.5431 16.0818C65.6131 16.1418 65.6481 16.2218 65.6481 16.3218V17.3718C65.6481 17.4718 65.6131 17.5568 65.5431 17.6268C65.4831 17.6868 65.3981 17.7168 65.2881 17.7168H64.2231ZM67.851 17.7168C67.751 17.7168 67.666 17.6868 67.596 17.6268C67.536 17.5568 67.506 17.4718 67.506 17.3718V9.4968C67.506 9.3968 67.536 9.3168 67.596 9.2568C67.666 9.1868 67.751 9.1518 67.851 9.1518H70.716C71.576 9.1518 72.286 9.2918 72.846 9.5718C73.406 9.8418 73.821 10.2468 74.091 10.7868C74.371 11.3268 74.511 12.0018 74.511 12.8118V17.3718C74.511 17.4718 74.481 17.5568 74.421 17.6268C74.361 17.6868 74.276 17.7168 74.166 17.7168H67.851ZM68.796 16.5168H73.176V12.8868C73.176 12.0868 72.976 11.4668 72.576 11.0268C72.176 10.5768 71.531 10.3518 70.641 10.3518H68.796V16.5168ZM76.7495 17.7168C76.6495 17.7168 76.5645 17.6868 76.4945 17.6268C76.4345 17.5568 76.4045 17.4718 76.4045 17.3718V9.4968C76.4045 9.3968 76.4345 9.3168 76.4945 9.2568C76.5645 9.1868 76.6495 9.1518 76.7495 9.1518H77.4545C77.5645 9.1518 77.6495 9.1868 77.7095 9.2568C77.7695 9.3168 77.7995 9.3968 77.7995 9.4968V17.3718C77.7995 17.4718 77.7695 17.5568 77.7095 17.6268C77.6495 17.6868 77.5645 17.7168 77.4545 17.7168H76.7495ZM80.0206 14.2368C79.9206 14.2368 79.8356 14.2068 79.7656 14.1468C79.7056 14.0768 79.6756 13.9918 79.6756 13.8918V9.4968C79.6756 9.3968 79.7056 9.3168 79.7656 9.2568C79.8356 9.1868 79.9206 9.1518 80.0206 9.1518H80.7256C80.8356 9.1518 80.9206 9.1868 80.9806 9.2568C81.0406 9.3168 81.0706 9.3968 81.0706 9.4968V13.8918C81.0706 13.9918 81.0406 14.0768 80.9806 14.1468C80.9206 14.2068 80.8356 14.2368 80.7256 14.2368H80.0206Z" fill="#2F4B6F"/>
<path d="M55.8813 103.325C55.7813 103.325 55.6963 103.295 55.6263 103.235C55.5663 103.165 55.5363 103.08 55.5363 102.98V101.93C55.5363 101.83 55.5663 101.75 55.6263 101.69C55.6963 101.62 55.7813 101.585 55.8813 101.585H56.9463C57.0563 101.585 57.1413 101.62 57.2013 101.69C57.2713 101.75 57.3063 101.83 57.3063 101.93V102.98C57.3063 103.08 57.2713 103.165 57.2013 103.235C57.1413 103.295 57.0563 103.325 56.9463 103.325H55.8813ZM55.8813 108.575C55.7813 108.575 55.6963 108.545 55.6263 108.485C55.5663 108.415 55.5363 108.33 55.5363 108.23V107.18C55.5363 107.08 55.5663 107 55.6263 106.94C55.6963 106.87 55.7813 106.835 55.8813 106.835H56.9463C57.0563 106.835 57.1413 106.87 57.2013 106.94C57.2713 107 57.3063 107.08 57.3063 107.18V108.23C57.3063 108.33 57.2713 108.415 57.2013 108.485C57.1413 108.545 57.0563 108.575 56.9463 108.575H55.8813ZM59.5092 108.575C59.4092 108.575 59.3242 108.545 59.2542 108.485C59.1942 108.415 59.1642 108.33 59.1642 108.23V100.355C59.1642 100.255 59.1942 100.175 59.2542 100.115C59.3242 100.045 59.4092 100.01 59.5092 100.01H62.3742C63.2342 100.01 63.9442 100.15 64.5042 100.43C65.0642 100.7 65.4792 101.105 65.7492 101.645C66.0292 102.185 66.1692 102.86 66.1692 103.67V108.23C66.1692 108.33 66.1392 108.415 66.0792 108.485C66.0192 108.545 65.9342 108.575 65.8242 108.575H59.5092ZM60.4542 107.375H64.8342V103.745C64.8342 102.945 64.6342 102.325 64.2342 101.885C63.8342 101.435 63.1892 101.21 62.2992 101.21H60.4542V107.375ZM68.3027 105.095C68.2027 105.095 68.1177 105.065 68.0477 105.005C67.9877 104.935 67.9577 104.85 67.9577 104.75V100.355C67.9577 100.255 67.9877 100.175 68.0477 100.115C68.1177 100.045 68.2027 100.01 68.3027 100.01H69.0077C69.1177 100.01 69.2027 100.045 69.2627 100.115C69.3227 100.175 69.3527 100.255 69.3527 100.355V104.75C69.3527 104.85 69.3227 104.935 69.2627 105.005C69.2027 105.065 69.1177 105.095 69.0077 105.095H68.3027ZM71.1133 108.575C71.0133 108.575 70.9283 108.545 70.8583 108.485C70.7983 108.415 70.7683 108.33 70.7683 108.23V107.72C70.7683 107.62 70.7983 107.54 70.8583 107.48C70.9283 107.41 71.0133 107.375 71.1133 107.375H75.3433V108.29C75.3433 108.39 75.3083 108.465 75.2383 108.515C75.1783 108.555 75.0983 108.575 74.9983 108.575H71.1133ZM74.4283 108.575C74.3283 108.575 74.2483 108.545 74.1883 108.485C74.1383 108.415 74.1033 108.33 74.0833 108.23L73.7983 103.595C73.7783 103.105 73.7383 102.68 73.6783 102.32C73.6283 101.96 73.5083 101.68 73.3183 101.48C73.1383 101.28 72.8333 101.18 72.4033 101.18H71.7883C71.6883 101.18 71.6033 101.15 71.5333 101.09C71.4733 101.02 71.4433 100.935 71.4433 100.835V100.325C71.4433 100.225 71.4733 100.145 71.5333 100.085C71.6033 100.015 71.6883 99.9802 71.7883 99.9802H72.4183C72.9883 99.9802 73.4483 100.065 73.7983 100.235C74.1483 100.395 74.4183 100.635 74.6083 100.955C74.7983 101.275 74.9383 101.655 75.0283 102.095C75.1183 102.525 75.1783 103.01 75.2083 103.55L75.4783 108.23C75.4983 108.33 75.4733 108.415 75.4033 108.485C75.3333 108.545 75.2483 108.575 75.1483 108.575H74.4283ZM80.7767 101.24H77.1317C77.0217 101.24 76.9367 101.21 76.8767 101.15C76.8167 101.08 76.7867 100.995 76.7867 100.895V100.355C76.7867 100.255 76.8167 100.175 76.8767 100.115C76.9367 100.045 77.0217 100.01 77.1317 100.01H80.9417C81.5617 100.01 82.1117 100.155 82.5917 100.445C83.0817 100.735 83.4617 101.155 83.7317 101.705C84.0117 102.245 84.1517 102.9 84.1517 103.67V108.23C84.1517 108.33 84.1167 108.415 84.0467 108.485C83.9867 108.545 83.9067 108.575 83.8067 108.575H79.9367C79.8367 108.575 79.7517 108.545 79.6817 108.485C79.6217 108.415 79.5917 108.33 79.5917 108.23V107.72C79.5917 107.62 79.6217 107.54 79.6817 107.48C79.7517 107.41 79.8367 107.375 79.9367 107.375H82.7867V103.76C82.7867 103.25 82.6967 102.805 82.5167 102.425C82.3467 102.045 82.1067 101.755 81.7967 101.555C81.4967 101.345 81.1567 101.24 80.7767 101.24ZM76.9817 108.575C76.8917 108.575 76.8167 108.54 76.7567 108.47C76.6967 108.4 76.6717 108.315 76.6817 108.215L77.9567 100.865C77.9767 100.765 78.0217 100.69 78.0917 100.64C78.1617 100.58 78.2467 100.56 78.3467 100.58L78.9467 100.61C79.0467 100.62 79.1267 100.665 79.1867 100.745C79.2467 100.815 79.2617 100.9 79.2317 101L78.0467 108.215C78.0367 108.315 77.9917 108.4 77.9117 108.47C77.8417 108.54 77.7567 108.575 77.6567 108.575H76.9817ZM86.9651 108.575C86.7451 108.575 86.6351 108.465 86.6351 108.245V102.89C86.6351 102.3 86.7051 101.84 86.8451 101.51C86.9851 101.18 87.1551 101.015 87.3551 101.015H88.8401C88.5901 101.015 88.3851 101.205 88.2251 101.585C88.0751 101.965 88.0001 102.435 88.0001 102.995V108.245C88.0001 108.345 87.9651 108.425 87.8951 108.485C87.8251 108.545 87.7401 108.575 87.6401 108.575H86.9651ZM85.7051 101.21C85.6051 101.21 85.5201 101.18 85.4501 101.12C85.3901 101.05 85.3601 100.965 85.3601 100.865V100.355C85.3601 100.255 85.3901 100.175 85.4501 100.115C85.5201 100.045 85.6051 100.01 85.7051 100.01H89.3351C89.4451 100.01 89.5301 100.045 89.5901 100.115C89.6501 100.175 89.6801 100.255 89.6801 100.355V100.865C89.6801 100.965 89.6501 101.05 89.5901 101.12C89.5301 101.18 89.4451 101.21 89.3351 101.21H85.7051Z" fill="#2F4B6F"/>
<path d="M8.66473 198.184C8.56473 198.184 8.47973 198.154 8.40973 198.094C8.34973 198.024 8.31973 197.939 8.31973 197.839V196.789C8.31973 196.689 8.34973 196.609 8.40973 196.549C8.47973 196.479 8.56473 196.444 8.66473 196.444H9.72973C9.83973 196.444 9.92473 196.479 9.98473 196.549C10.0547 196.609 10.0897 196.689 10.0897 196.789V197.839C10.0897 197.939 10.0547 198.024 9.98473 198.094C9.92473 198.154 9.83973 198.184 9.72973 198.184H8.66473ZM8.66473 203.434C8.56473 203.434 8.47973 203.404 8.40973 203.344C8.34973 203.274 8.31973 203.189 8.31973 203.089V202.039C8.31973 201.939 8.34973 201.859 8.40973 201.799C8.47973 201.729 8.56473 201.694 8.66473 201.694H9.72973C9.83973 201.694 9.92473 201.729 9.98473 201.799C10.0547 201.859 10.0897 201.939 10.0897 202.039V203.089C10.0897 203.189 10.0547 203.274 9.98473 203.344C9.92473 203.404 9.83973 203.434 9.72973 203.434H8.66473ZM12.2926 203.434C12.1926 203.434 12.1076 203.404 12.0376 203.344C11.9776 203.274 11.9476 203.189 11.9476 203.089V195.214C11.9476 195.114 11.9776 195.034 12.0376 194.974C12.1076 194.904 12.1926 194.869 12.2926 194.869H15.1576C16.0176 194.869 16.7276 195.009 17.2876 195.289C17.8476 195.559 18.2626 195.964 18.5326 196.504C18.8126 197.044 18.9526 197.719 18.9526 198.529V203.089C18.9526 203.189 18.9226 203.274 18.8626 203.344C18.8026 203.404 18.7176 203.434 18.6076 203.434H12.2926ZM13.2376 202.234H17.6176V198.604C17.6176 197.804 17.4176 197.184 17.0176 196.744C16.6176 196.294 15.9726 196.069 15.0826 196.069H13.2376V202.234ZM21.1911 203.434C21.0911 203.434 21.0061 203.404 20.9361 203.344C20.8761 203.274 20.8461 203.189 20.8461 203.089V195.214C20.8461 195.114 20.8761 195.034 20.9361 194.974C21.0061 194.904 21.0911 194.869 21.1911 194.869H21.8961C22.0061 194.869 22.0911 194.904 22.1511 194.974C22.2111 195.034 22.2411 195.114 22.2411 195.214V203.089C22.2411 203.189 22.2111 203.274 22.1511 203.344C22.0911 203.404 22.0061 203.434 21.8961 203.434H21.1911ZM26.0672 203.569C25.9772 203.599 25.8922 203.584 25.8122 203.524C25.7322 203.474 25.6922 203.399 25.6922 203.299V202.609C25.6922 202.519 25.7172 202.439 25.7672 202.369C25.8272 202.299 25.9122 202.244 26.0222 202.204L26.6072 201.979C26.9972 201.819 27.3522 201.619 27.6722 201.379C28.0022 201.129 28.2572 200.794 28.4372 200.374C28.6272 199.954 28.7222 199.404 28.7222 198.724C28.7222 198.074 28.6422 197.559 28.4822 197.179C28.3322 196.789 28.0722 196.514 27.7022 196.354C27.3422 196.184 26.8472 196.099 26.2172 196.099H25.7672C25.6672 196.099 25.5822 196.069 25.5122 196.009C25.4522 195.939 25.4222 195.854 25.4222 195.754V195.214C25.4222 195.114 25.4522 195.034 25.5122 194.974C25.5822 194.904 25.6672 194.869 25.7672 194.869H26.4272C27.3372 194.869 28.0622 194.999 28.6022 195.259C29.1422 195.519 29.5272 195.939 29.7572 196.519C29.9972 197.089 30.1172 197.839 30.1172 198.769C30.1172 199.469 30.0222 200.074 29.8322 200.584C29.6422 201.094 29.3822 201.529 29.0522 201.889C28.7322 202.249 28.3672 202.549 27.9572 202.789C27.5472 203.019 27.1222 203.209 26.6822 203.359L26.0672 203.569ZM26.0972 196.099L24.3122 196.084C24.2122 196.084 24.1272 196.054 24.0572 195.994C23.9972 195.934 23.9672 195.854 23.9672 195.754V193.129C23.9672 193.029 23.9972 192.949 24.0572 192.889C24.1272 192.819 24.2122 192.784 24.3122 192.784H24.9422C25.0422 192.784 25.1222 192.819 25.1822 192.889C25.2522 192.949 25.2872 193.029 25.2872 193.129V194.869H26.1272L26.0972 196.099ZM36.0184 202.309C36.6684 202.319 37.2134 202.199 37.6534 201.949C38.1034 201.699 38.4434 201.344 38.6734 200.884C38.9134 200.414 39.0334 199.879 39.0334 199.279V195.214C39.0334 195.114 39.0634 195.034 39.1234 194.974C39.1934 194.904 39.2784 194.869 39.3784 194.869H39.9934C40.1034 194.869 40.1884 194.904 40.2484 194.974C40.3084 195.034 40.3384 195.114 40.3384 195.214V199.384C40.3384 200.024 40.2384 200.604 40.0384 201.124C39.8384 201.634 39.5534 202.074 39.1834 202.444C38.8134 202.804 38.3734 203.079 37.8634 203.269C37.3634 203.459 36.8084 203.544 36.1984 203.524H35.0734C34.4234 203.524 33.8384 203.374 33.3184 203.074C32.7984 202.774 32.3884 202.354 32.0884 201.814C31.7884 201.274 31.6384 200.649 31.6384 199.939V195.214C31.6384 195.114 31.6684 195.034 31.7284 194.974C31.7984 194.904 31.8834 194.869 31.9834 194.869H32.6134C32.7134 194.869 32.7934 194.904 32.8534 194.974C32.9234 195.034 32.9584 195.114 32.9584 195.214L33.0034 199.639C33.0034 200.499 33.2434 201.159 33.7234 201.619C34.2034 202.079 34.8134 202.309 35.5534 202.309H36.0184ZM32.6884 200.554L32.6584 199.459C33.3984 199.449 33.9634 199.339 34.3534 199.129C34.7434 198.909 35.0134 198.619 35.1634 198.259C35.3234 197.899 35.4034 197.504 35.4034 197.074V195.214C35.4034 195.114 35.4334 195.034 35.4934 194.974C35.5534 194.904 35.6384 194.869 35.7484 194.869H36.3634C36.4634 194.869 36.5434 194.904 36.6034 194.974C36.6734 195.034 36.7084 195.114 36.7084 195.214V197.134C36.7084 197.784 36.5634 198.369 36.2734 198.889C35.9834 199.409 35.5384 199.819 34.9384 200.119C34.3484 200.419 33.5984 200.564 32.6884 200.554ZM42.7071 196.069C42.6071 196.069 42.5221 196.039 42.4521 195.979C42.3921 195.909 42.3621 195.824 42.3621 195.724V195.214C42.3621 195.114 42.3921 195.034 42.4521 194.974C42.5221 194.904 42.6071 194.869 42.7071 194.869H45.9621C46.8221 194.869 47.5321 195.009 48.0921 195.289C48.6621 195.559 49.0871 195.969 49.3671 196.519C49.6471 197.059 49.7871 197.729 49.7871 198.529V203.089C49.7871 203.189 49.7521 203.274 49.6821 203.344C49.6221 203.404 49.5421 203.434 49.4421 203.434H48.7671C48.6571 203.434 48.5721 203.404 48.5121 203.344C48.4521 203.274 48.4221 203.189 48.4221 203.089V198.604C48.4221 197.804 48.2171 197.184 47.8071 196.744C47.4071 196.294 46.7621 196.069 45.8721 196.069H42.7071ZM44.0571 195.334H44.4321C44.5821 195.334 44.6921 195.374 44.7621 195.454C44.8421 195.524 44.8771 195.614 44.8671 195.724C44.7871 196.144 44.7171 196.524 44.6571 196.864C44.6071 197.204 44.5721 197.544 44.5521 197.884C44.5321 198.214 44.5221 198.589 44.5221 199.009L44.5521 203.089C44.5521 203.189 44.5221 203.274 44.4621 203.344C44.4021 203.404 44.3221 203.434 44.2221 203.434L42.0921 203.404C41.9921 203.404 41.9071 203.374 41.8371 203.314C41.7771 203.254 41.7471 203.169 41.7471 203.059V202.579C41.7471 202.479 41.7771 202.399 41.8371 202.339C41.9071 202.269 41.9921 202.234 42.0921 202.234L43.2471 202.249V199.069C43.2471 198.659 43.2521 198.284 43.2621 197.944C43.2721 197.594 43.3021 197.244 43.3521 196.894C43.4021 196.544 43.4821 196.149 43.5921 195.709C43.6221 195.599 43.6671 195.509 43.7271 195.439C43.7971 195.369 43.9071 195.334 44.0571 195.334ZM57.7245 203.434C57.6245 203.434 57.5395 203.404 57.4695 203.344C57.4095 203.274 57.3795 203.189 57.3795 203.089V198.604C57.3795 197.804 57.1795 197.184 56.7795 196.744C56.3795 196.294 55.7345 196.069 54.8445 196.069H52.0245C51.9245 196.069 51.8395 196.039 51.7695 195.979C51.7095 195.909 51.6795 195.824 51.6795 195.724V195.214C51.6795 195.114 51.7095 195.034 51.7695 194.974C51.8395 194.904 51.9245 194.869 52.0245 194.869H54.9195C56.2195 194.869 57.1795 195.184 57.7995 195.814C58.4295 196.444 58.7445 197.359 58.7445 198.559V203.089C58.7445 203.189 58.7095 203.274 58.6395 203.344C58.5795 203.404 58.4995 203.434 58.3995 203.434H57.7245ZM52.0245 203.434C51.9245 203.434 51.8395 203.404 51.7695 203.344C51.7095 203.274 51.6795 203.189 51.6795 203.089V198.079C51.6795 197.979 51.7095 197.899 51.7695 197.839C51.8395 197.769 51.9245 197.734 52.0245 197.734H52.6995C52.8095 197.734 52.8945 197.769 52.9545 197.839C53.0145 197.899 53.0445 197.979 53.0445 198.079V203.089C53.0445 203.189 53.0145 203.274 52.9545 203.344C52.8945 203.404 52.8095 203.434 52.6995 203.434H52.0245ZM70.0283 203.434C69.9283 203.434 69.8433 203.404 69.7733 203.344C69.7133 203.274 69.6833 203.189 69.6833 203.089V198.604C69.6833 197.804 69.4833 197.184 69.0833 196.744C68.6833 196.294 68.0383 196.069 67.1483 196.069H64.3283C64.2283 196.069 64.1433 196.039 64.0733 195.979C64.0133 195.909 63.9833 195.824 63.9833 195.724V195.214C63.9833 195.114 64.0133 195.034 64.0733 194.974C64.1433 194.904 64.2283 194.869 64.3283 194.869H67.2233C68.5233 194.869 69.4833 195.184 70.1033 195.814C70.7333 196.444 71.0483 197.359 71.0483 198.559V203.089C71.0483 203.189 71.0133 203.274 70.9433 203.344C70.8833 203.404 70.8033 203.434 70.7033 203.434H70.0283ZM64.3283 203.434C64.2283 203.434 64.1433 203.404 64.0733 203.344C64.0133 203.274 63.9833 203.189 63.9833 203.089V198.079C63.9833 197.979 64.0133 197.899 64.0733 197.839C64.1433 197.769 64.2283 197.734 64.3283 197.734H65.0033C65.1133 197.734 65.1983 197.769 65.2583 197.839C65.3183 197.899 65.3483 197.979 65.3483 198.079V203.089C65.3483 203.189 65.3183 203.274 65.2583 203.344C65.1983 203.404 65.1133 203.434 65.0033 203.434H64.3283ZM72.9254 203.434C72.8254 203.434 72.7404 203.404 72.6704 203.344C72.6104 203.274 72.5804 203.189 72.5804 203.089V202.579C72.5804 202.479 72.6104 202.399 72.6704 202.339C72.7404 202.269 72.8254 202.234 72.9254 202.234H77.2304V198.604C77.2304 197.804 77.0304 197.184 76.6304 196.744C76.2304 196.294 75.5854 196.069 74.6954 196.069H73.0754C72.9754 196.069 72.8904 196.039 72.8204 195.979C72.7604 195.909 72.7304 195.824 72.7304 195.724V195.214C72.7304 195.114 72.7604 195.034 72.8204 194.974C72.8904 194.904 72.9754 194.869 73.0754 194.869H74.7704C75.6304 194.869 76.3454 195.009 76.9154 195.289C77.4854 195.569 77.9104 195.984 78.1904 196.534C78.4804 197.074 78.6254 197.749 78.6254 198.559V202.234H79.1804C79.2804 202.234 79.3604 202.269 79.4204 202.339C79.4904 202.399 79.5254 202.479 79.5254 202.579V203.089C79.5254 203.189 79.4904 203.274 79.4204 203.344C79.3604 203.404 79.2804 203.434 79.1804 203.434H72.9254ZM81.1293 203.434C81.0293 203.434 80.9443 203.404 80.8743 203.344C80.8143 203.274 80.7843 203.189 80.7843 203.089V195.214C80.7843 195.114 80.8143 195.034 80.8743 194.974C80.9443 194.904 81.0293 194.869 81.1293 194.869H81.8343C81.9443 194.869 82.0293 194.904 82.0893 194.974C82.1493 195.034 82.1793 195.114 82.1793 195.214V203.089C82.1793 203.189 82.1493 203.274 82.0893 203.344C82.0293 203.404 81.9443 203.434 81.8343 203.434H81.1293ZM88.0903 203.434C87.9903 203.434 87.9103 203.404 87.8503 203.344C87.8003 203.274 87.7653 203.189 87.7453 203.089L86.8303 198.484C86.7303 197.954 86.6103 197.514 86.4703 197.164C86.3403 196.804 86.1603 196.534 85.9303 196.354C85.7103 196.164 85.4053 196.069 85.0153 196.069H84.4753C84.3753 196.069 84.2903 196.039 84.2203 195.979C84.1603 195.909 84.1303 195.824 84.1303 195.724V195.184C84.1303 195.084 84.1603 195.004 84.2203 194.944C84.2903 194.874 84.3753 194.839 84.4753 194.839H85.0303C85.7003 194.839 86.2403 194.974 86.6503 195.244C87.0603 195.504 87.3853 195.899 87.6253 196.429C87.8753 196.959 88.0803 197.619 88.2403 198.409L89.1403 203.089C89.1603 203.189 89.1353 203.274 89.0653 203.344C88.9953 203.404 88.9103 203.434 88.8103 203.434H88.0903ZM86.1553 202.669C85.7853 202.919 85.4353 203.114 85.1053 203.254C84.7853 203.384 84.4503 203.484 84.1003 203.554C84.0003 203.564 83.9153 203.554 83.8453 203.524C83.7753 203.494 83.7403 203.429 83.7403 203.329V202.579C83.7403 202.409 83.8453 202.284 84.0553 202.204C84.1253 202.174 84.2553 202.129 84.4453 202.069C84.6353 202.009 84.8403 201.934 85.0603 201.844C85.2803 201.744 85.4703 201.644 85.6303 201.544C85.8803 201.384 86.1253 201.179 86.3653 200.929C86.6053 200.669 86.8053 200.404 86.9653 200.134C87.1353 199.854 87.2203 199.609 87.2203 199.399L88.0903 199.294C88.0803 199.724 87.9853 200.159 87.8053 200.599C87.6253 201.039 87.3903 201.439 87.1003 201.799C86.8103 202.159 86.4953 202.449 86.1553 202.669Z" fill="#2F4B6F"/>
</svg>
